G04 #@! TF.GenerationSoftware,KiCad,Pcbnew,(5.1.10)-1*
G04 #@! TF.CreationDate,2021-09-11T23:54:04-05:00*
G04 #@! TF.ProjectId,kintsugi,6b696e74-7375-4676-992e-6b696361645f,rev?*
G04 #@! TF.SameCoordinates,Original*
G04 #@! TF.FileFunction,Paste,Bot*
G04 #@! TF.FilePolarity,Positive*
%FSLAX46Y46*%
G04 Gerber Fmt 4.6, Leading zero omitted, Abs format (unit mm)*
G04 Created by KiCad (PCBNEW (5.1.10)-1) date 2021-09-11 23:54:04*
%MOMM*%
%LPD*%
G01*
G04 APERTURE LIST*
%ADD10R,2.550000X2.500000*%
%ADD11R,1.600000X1.200000*%
%ADD12R,1.200000X1.600000*%
%ADD13R,1.500000X1.000000*%
G04 APERTURE END LIST*
D10*
X312002500Y-49847500D03*
X324929500Y-47307500D03*
X254852500Y-68897500D03*
X267779500Y-66357500D03*
X188177500Y-87947500D03*
X201104500Y-85407500D03*
X126265000Y-30797500D03*
X139192000Y-28257500D03*
X67754500Y-47307500D03*
X54827500Y-49847500D03*
X304858750Y-68897500D03*
X317785750Y-66357500D03*
X50065000Y-30797500D03*
X62992000Y-28257500D03*
X303498250Y-85407500D03*
X290571250Y-87947500D03*
X277304500Y-85407500D03*
X264377500Y-87947500D03*
X301117000Y-47307500D03*
X288190000Y-49847500D03*
X320167000Y-28257500D03*
X307240000Y-30797500D03*
X291592000Y-28257500D03*
X278665000Y-30797500D03*
D11*
X298921000Y-96266000D03*
X296121000Y-96266000D03*
X272672000Y-96266000D03*
X269872000Y-96266000D03*
X320297000Y-58166000D03*
X317497000Y-58166000D03*
X296548000Y-58166000D03*
X293748000Y-58166000D03*
X315598000Y-39116000D03*
X312798000Y-39116000D03*
X287110000Y-39116000D03*
X284310000Y-39116000D03*
D10*
X70135750Y-66357500D03*
X57208750Y-68897500D03*
D11*
X63162000Y-58166000D03*
X60362000Y-58166000D03*
X344173000Y-115316000D03*
X341373000Y-115316000D03*
X325123000Y-115316000D03*
X322323000Y-115316000D03*
X306073000Y-115316000D03*
X303273000Y-115316000D03*
X275085000Y-115316000D03*
X272285000Y-115316000D03*
X251336000Y-115316000D03*
X248536000Y-115316000D03*
X179835000Y-115316000D03*
X177035000Y-115316000D03*
X108461000Y-115316000D03*
X105661000Y-115316000D03*
X84712000Y-115316000D03*
X81912000Y-115316000D03*
X60836000Y-115316000D03*
X58036000Y-115316000D03*
X344173000Y-96266000D03*
X341373000Y-96266000D03*
X325123000Y-96266000D03*
X322323000Y-96266000D03*
X253622000Y-96266000D03*
X250822000Y-96266000D03*
X234699000Y-96266000D03*
X231899000Y-96266000D03*
X215649000Y-96266000D03*
X212849000Y-96266000D03*
X193799000Y-96266000D03*
X196599000Y-96266000D03*
X177549000Y-96266000D03*
X174749000Y-96266000D03*
X158499000Y-96266000D03*
X155699000Y-96266000D03*
X139449000Y-96266000D03*
X136649000Y-96266000D03*
X120399000Y-96266000D03*
X117599000Y-96266000D03*
X101349000Y-96266000D03*
X98549000Y-96266000D03*
X70361000Y-96266000D03*
X67561000Y-96266000D03*
D12*
X330200000Y-71879000D03*
X330200000Y-74679000D03*
D11*
X313312000Y-77216000D03*
X310512000Y-77216000D03*
X282324000Y-77216000D03*
X279524000Y-77216000D03*
X263274000Y-77216000D03*
X260474000Y-77216000D03*
X244224000Y-77216000D03*
X241424000Y-77216000D03*
X225174000Y-77216000D03*
X222374000Y-77216000D03*
X206124000Y-77216000D03*
X203324000Y-77216000D03*
X187074000Y-77216000D03*
X184274000Y-77216000D03*
X168021000Y-77216000D03*
X165221000Y-77216000D03*
X148974000Y-77216000D03*
X146174000Y-77216000D03*
X129924000Y-77216000D03*
X127124000Y-77216000D03*
X110874000Y-77216000D03*
X108074000Y-77216000D03*
X91784000Y-77216000D03*
X88984000Y-77216000D03*
X62735000Y-77216000D03*
X65535000Y-77216000D03*
X277538000Y-58166000D03*
X274738000Y-58166000D03*
X258445000Y-58166000D03*
X255645000Y-58166000D03*
X236595000Y-58166000D03*
X239395000Y-58166000D03*
X220388000Y-58166000D03*
X217588000Y-58166000D03*
X201338000Y-58166000D03*
X198538000Y-58166000D03*
X182288000Y-58166000D03*
X179488000Y-58166000D03*
X163238000Y-58166000D03*
X160438000Y-58166000D03*
X144188000Y-58166000D03*
X141388000Y-58166000D03*
X125138000Y-58166000D03*
X122338000Y-58166000D03*
X106048000Y-58166000D03*
X103248000Y-58166000D03*
X87035000Y-58166000D03*
X84235000Y-58166000D03*
X268013000Y-39116000D03*
X265213000Y-39116000D03*
X248923000Y-39116000D03*
X246123000Y-39116000D03*
X229870000Y-39116000D03*
X227070000Y-39116000D03*
X210863000Y-39116000D03*
X208063000Y-39116000D03*
X191773000Y-39116000D03*
X188973000Y-39116000D03*
X172720000Y-39116000D03*
X169920000Y-39116000D03*
X153673000Y-39116000D03*
X150873000Y-39116000D03*
X134663000Y-39116000D03*
X131863000Y-39116000D03*
X115613000Y-39116000D03*
X112813000Y-39116000D03*
X96563000Y-39116000D03*
X93763000Y-39116000D03*
X77473000Y-39116000D03*
X74673000Y-39116000D03*
X55620000Y-39116000D03*
X58420000Y-39116000D03*
D10*
X269140000Y-49847500D03*
X282067000Y-47307500D03*
X273902500Y-68897500D03*
X286829500Y-66357500D03*
X61971250Y-87947500D03*
X74898250Y-85407500D03*
X348742000Y-85407500D03*
X335815000Y-87947500D03*
X100071250Y-106997500D03*
X112998250Y-104457500D03*
X171508750Y-106997500D03*
X184435750Y-104457500D03*
X266758750Y-106997500D03*
X279685750Y-104457500D03*
X335815000Y-106997500D03*
X348742000Y-104457500D03*
X242946250Y-106997500D03*
X255873250Y-104457500D03*
X76258750Y-106997500D03*
X89185750Y-104457500D03*
X52446250Y-106997500D03*
X65373250Y-104457500D03*
X316765000Y-106997500D03*
X329692000Y-104457500D03*
X297715000Y-106997500D03*
X310642000Y-104457500D03*
X316765000Y-87947500D03*
X329692000Y-85407500D03*
X245327500Y-87947500D03*
X258254500Y-85407500D03*
X226277500Y-87947500D03*
X239204500Y-85407500D03*
X207227500Y-87947500D03*
X220154500Y-85407500D03*
X169127500Y-87947500D03*
X182054500Y-85407500D03*
X150077500Y-87947500D03*
X163004500Y-85407500D03*
X131027500Y-87947500D03*
X143954500Y-85407500D03*
X111977500Y-87947500D03*
X124904500Y-85407500D03*
X92927500Y-87947500D03*
X105854500Y-85407500D03*
X235802500Y-68897500D03*
X248729500Y-66357500D03*
X216752500Y-68897500D03*
X229679500Y-66357500D03*
X197702500Y-68897500D03*
X210629500Y-66357500D03*
X191579500Y-66357500D03*
X178652500Y-68897500D03*
X159602500Y-68897500D03*
X172529500Y-66357500D03*
X140552500Y-68897500D03*
X153479500Y-66357500D03*
X121502500Y-68897500D03*
X134429500Y-66357500D03*
X102452500Y-68897500D03*
X115379500Y-66357500D03*
X83402500Y-68897500D03*
X96329500Y-66357500D03*
X250090000Y-49847500D03*
X263017000Y-47307500D03*
X231040000Y-49847500D03*
X243967000Y-47307500D03*
X211990000Y-49847500D03*
X224917000Y-47307500D03*
X192940000Y-49847500D03*
X205867000Y-47307500D03*
X173890000Y-49847500D03*
X186817000Y-47307500D03*
X154840000Y-49847500D03*
X167767000Y-47307500D03*
X135790000Y-49847500D03*
X148717000Y-47307500D03*
X116740000Y-49847500D03*
X129667000Y-47307500D03*
X97690000Y-49847500D03*
X110617000Y-47307500D03*
X78640000Y-49847500D03*
X91567000Y-47307500D03*
X259615000Y-30797500D03*
X272542000Y-28257500D03*
X240565000Y-30797500D03*
X253492000Y-28257500D03*
X221515000Y-30797500D03*
X234442000Y-28257500D03*
X202465000Y-30797500D03*
X215392000Y-28257500D03*
X183415000Y-30797500D03*
X196342000Y-28257500D03*
X164365000Y-30797500D03*
X177292000Y-28257500D03*
X145315000Y-30797500D03*
X158242000Y-28257500D03*
X107215000Y-30797500D03*
X120142000Y-28257500D03*
X88165000Y-30797500D03*
X101092000Y-28257500D03*
X69115000Y-30797500D03*
X82042000Y-28257500D03*
D13*
X68416000Y-113106000D03*
X68416000Y-109906000D03*
X73316000Y-113106000D03*
X73316000Y-109906000D03*
X167931000Y-101270000D03*
X167931000Y-104470000D03*
X163031000Y-101270000D03*
X163031000Y-104470000D03*
X263689000Y-96444000D03*
X263689000Y-99644000D03*
X258789000Y-96444000D03*
X258789000Y-99644000D03*
X335317000Y-96444000D03*
X335317000Y-99644000D03*
X330417000Y-96444000D03*
X330417000Y-99644000D03*
X312965000Y-81966000D03*
X312965000Y-85166000D03*
X308065000Y-81966000D03*
X308065000Y-85166000D03*
X235368000Y-77394000D03*
X235368000Y-80594000D03*
X230468000Y-77394000D03*
X230468000Y-80594000D03*
X154141000Y-80594000D03*
X154141000Y-77394000D03*
X159041000Y-80594000D03*
X159041000Y-77394000D03*
X79031000Y-75489000D03*
X79031000Y-78689000D03*
X74131000Y-75489000D03*
X74131000Y-78689000D03*
X76110000Y-58344000D03*
X76110000Y-61544000D03*
X71210000Y-58344000D03*
X71210000Y-61544000D03*
X154342000Y-58344000D03*
X154342000Y-61544000D03*
X149442000Y-58344000D03*
X149442000Y-61544000D03*
X225642000Y-61544000D03*
X225642000Y-58344000D03*
X230542000Y-61544000D03*
X230542000Y-58344000D03*
X309663000Y-58344000D03*
X309663000Y-61544000D03*
X304763000Y-58344000D03*
X304763000Y-61544000D03*
X292698000Y-42494000D03*
X292698000Y-39294000D03*
X297598000Y-42494000D03*
X297598000Y-39294000D03*
X221017000Y-39294000D03*
X221017000Y-42494000D03*
X216117000Y-39294000D03*
X216117000Y-42494000D03*
X144817000Y-39294000D03*
X144817000Y-42494000D03*
X139917000Y-39294000D03*
X139917000Y-42494000D03*
X68617000Y-39294000D03*
X68617000Y-42494000D03*
X63717000Y-39294000D03*
X63717000Y-42494000D03*
G36*
G01*
X69368000Y-108044000D02*
X69368000Y-107094000D01*
G75*
G02*
X69618000Y-106844000I250000J0D01*
G01*
X70293000Y-106844000D01*
G75*
G02*
X70543000Y-107094000I0J-250000D01*
G01*
X70543000Y-108044000D01*
G75*
G02*
X70293000Y-108294000I-250000J0D01*
G01*
X69618000Y-108294000D01*
G75*
G02*
X69368000Y-108044000I0J250000D01*
G01*
G37*
G36*
G01*
X71443000Y-108044000D02*
X71443000Y-107094000D01*
G75*
G02*
X71693000Y-106844000I250000J0D01*
G01*
X72368000Y-106844000D01*
G75*
G02*
X72618000Y-107094000I0J-250000D01*
G01*
X72618000Y-108044000D01*
G75*
G02*
X72368000Y-108294000I-250000J0D01*
G01*
X71693000Y-108294000D01*
G75*
G02*
X71443000Y-108044000I0J250000D01*
G01*
G37*
G36*
G01*
X261794500Y-94582000D02*
X261794500Y-93632000D01*
G75*
G02*
X262044500Y-93382000I250000J0D01*
G01*
X262719500Y-93382000D01*
G75*
G02*
X262969500Y-93632000I0J-250000D01*
G01*
X262969500Y-94582000D01*
G75*
G02*
X262719500Y-94832000I-250000J0D01*
G01*
X262044500Y-94832000D01*
G75*
G02*
X261794500Y-94582000I0J250000D01*
G01*
G37*
G36*
G01*
X259719500Y-94582000D02*
X259719500Y-93632000D01*
G75*
G02*
X259969500Y-93382000I250000J0D01*
G01*
X260644500Y-93382000D01*
G75*
G02*
X260894500Y-93632000I0J-250000D01*
G01*
X260894500Y-94582000D01*
G75*
G02*
X260644500Y-94832000I-250000J0D01*
G01*
X259969500Y-94832000D01*
G75*
G02*
X259719500Y-94582000I0J250000D01*
G01*
G37*
G36*
G01*
X165931000Y-99408000D02*
X165931000Y-98458000D01*
G75*
G02*
X166181000Y-98208000I250000J0D01*
G01*
X166856000Y-98208000D01*
G75*
G02*
X167106000Y-98458000I0J-250000D01*
G01*
X167106000Y-99408000D01*
G75*
G02*
X166856000Y-99658000I-250000J0D01*
G01*
X166181000Y-99658000D01*
G75*
G02*
X165931000Y-99408000I0J250000D01*
G01*
G37*
G36*
G01*
X163856000Y-99408000D02*
X163856000Y-98458000D01*
G75*
G02*
X164106000Y-98208000I250000J0D01*
G01*
X164781000Y-98208000D01*
G75*
G02*
X165031000Y-98458000I0J-250000D01*
G01*
X165031000Y-99408000D01*
G75*
G02*
X164781000Y-99658000I-250000J0D01*
G01*
X164106000Y-99658000D01*
G75*
G02*
X163856000Y-99408000I0J250000D01*
G01*
G37*
G36*
G01*
X333444000Y-94582000D02*
X333444000Y-93632000D01*
G75*
G02*
X333694000Y-93382000I250000J0D01*
G01*
X334369000Y-93382000D01*
G75*
G02*
X334619000Y-93632000I0J-250000D01*
G01*
X334619000Y-94582000D01*
G75*
G02*
X334369000Y-94832000I-250000J0D01*
G01*
X333694000Y-94832000D01*
G75*
G02*
X333444000Y-94582000I0J250000D01*
G01*
G37*
G36*
G01*
X331369000Y-94582000D02*
X331369000Y-93632000D01*
G75*
G02*
X331619000Y-93382000I250000J0D01*
G01*
X332294000Y-93382000D01*
G75*
G02*
X332544000Y-93632000I0J-250000D01*
G01*
X332544000Y-94582000D01*
G75*
G02*
X332294000Y-94832000I-250000J0D01*
G01*
X331619000Y-94832000D01*
G75*
G02*
X331369000Y-94582000I0J250000D01*
G01*
G37*
G36*
G01*
X310965000Y-88105000D02*
X310965000Y-87155000D01*
G75*
G02*
X311215000Y-86905000I250000J0D01*
G01*
X311890000Y-86905000D01*
G75*
G02*
X312140000Y-87155000I0J-250000D01*
G01*
X312140000Y-88105000D01*
G75*
G02*
X311890000Y-88355000I-250000J0D01*
G01*
X311215000Y-88355000D01*
G75*
G02*
X310965000Y-88105000I0J250000D01*
G01*
G37*
G36*
G01*
X308890000Y-88105000D02*
X308890000Y-87155000D01*
G75*
G02*
X309140000Y-86905000I250000J0D01*
G01*
X309815000Y-86905000D01*
G75*
G02*
X310065000Y-87155000I0J-250000D01*
G01*
X310065000Y-88105000D01*
G75*
G02*
X309815000Y-88355000I-250000J0D01*
G01*
X309140000Y-88355000D01*
G75*
G02*
X308890000Y-88105000I0J250000D01*
G01*
G37*
G36*
G01*
X233368000Y-75532000D02*
X233368000Y-74582000D01*
G75*
G02*
X233618000Y-74332000I250000J0D01*
G01*
X234293000Y-74332000D01*
G75*
G02*
X234543000Y-74582000I0J-250000D01*
G01*
X234543000Y-75532000D01*
G75*
G02*
X234293000Y-75782000I-250000J0D01*
G01*
X233618000Y-75782000D01*
G75*
G02*
X233368000Y-75532000I0J250000D01*
G01*
G37*
G36*
G01*
X231293000Y-75532000D02*
X231293000Y-74582000D01*
G75*
G02*
X231543000Y-74332000I250000J0D01*
G01*
X232218000Y-74332000D01*
G75*
G02*
X232468000Y-74582000I0J-250000D01*
G01*
X232468000Y-75532000D01*
G75*
G02*
X232218000Y-75782000I-250000J0D01*
G01*
X231543000Y-75782000D01*
G75*
G02*
X231293000Y-75532000I0J250000D01*
G01*
G37*
G36*
G01*
X157041000Y-75532000D02*
X157041000Y-74582000D01*
G75*
G02*
X157291000Y-74332000I250000J0D01*
G01*
X157966000Y-74332000D01*
G75*
G02*
X158216000Y-74582000I0J-250000D01*
G01*
X158216000Y-75532000D01*
G75*
G02*
X157966000Y-75782000I-250000J0D01*
G01*
X157291000Y-75782000D01*
G75*
G02*
X157041000Y-75532000I0J250000D01*
G01*
G37*
G36*
G01*
X154966000Y-75532000D02*
X154966000Y-74582000D01*
G75*
G02*
X155216000Y-74332000I250000J0D01*
G01*
X155891000Y-74332000D01*
G75*
G02*
X156141000Y-74582000I0J-250000D01*
G01*
X156141000Y-75532000D01*
G75*
G02*
X155891000Y-75782000I-250000J0D01*
G01*
X155216000Y-75782000D01*
G75*
G02*
X154966000Y-75532000I0J250000D01*
G01*
G37*
G36*
G01*
X77031000Y-73500000D02*
X77031000Y-72550000D01*
G75*
G02*
X77281000Y-72300000I250000J0D01*
G01*
X77956000Y-72300000D01*
G75*
G02*
X78206000Y-72550000I0J-250000D01*
G01*
X78206000Y-73500000D01*
G75*
G02*
X77956000Y-73750000I-250000J0D01*
G01*
X77281000Y-73750000D01*
G75*
G02*
X77031000Y-73500000I0J250000D01*
G01*
G37*
G36*
G01*
X74956000Y-73500000D02*
X74956000Y-72550000D01*
G75*
G02*
X75206000Y-72300000I250000J0D01*
G01*
X75881000Y-72300000D01*
G75*
G02*
X76131000Y-72550000I0J-250000D01*
G01*
X76131000Y-73500000D01*
G75*
G02*
X75881000Y-73750000I-250000J0D01*
G01*
X75206000Y-73750000D01*
G75*
G02*
X74956000Y-73500000I0J250000D01*
G01*
G37*
G36*
G01*
X72035000Y-56482000D02*
X72035000Y-55532000D01*
G75*
G02*
X72285000Y-55282000I250000J0D01*
G01*
X72960000Y-55282000D01*
G75*
G02*
X73210000Y-55532000I0J-250000D01*
G01*
X73210000Y-56482000D01*
G75*
G02*
X72960000Y-56732000I-250000J0D01*
G01*
X72285000Y-56732000D01*
G75*
G02*
X72035000Y-56482000I0J250000D01*
G01*
G37*
G36*
G01*
X74110000Y-56482000D02*
X74110000Y-55532000D01*
G75*
G02*
X74360000Y-55282000I250000J0D01*
G01*
X75035000Y-55282000D01*
G75*
G02*
X75285000Y-55532000I0J-250000D01*
G01*
X75285000Y-56482000D01*
G75*
G02*
X75035000Y-56732000I-250000J0D01*
G01*
X74360000Y-56732000D01*
G75*
G02*
X74110000Y-56482000I0J250000D01*
G01*
G37*
G36*
G01*
X150394000Y-56482000D02*
X150394000Y-55532000D01*
G75*
G02*
X150644000Y-55282000I250000J0D01*
G01*
X151319000Y-55282000D01*
G75*
G02*
X151569000Y-55532000I0J-250000D01*
G01*
X151569000Y-56482000D01*
G75*
G02*
X151319000Y-56732000I-250000J0D01*
G01*
X150644000Y-56732000D01*
G75*
G02*
X150394000Y-56482000I0J250000D01*
G01*
G37*
G36*
G01*
X152469000Y-56482000D02*
X152469000Y-55532000D01*
G75*
G02*
X152719000Y-55282000I250000J0D01*
G01*
X153394000Y-55282000D01*
G75*
G02*
X153644000Y-55532000I0J-250000D01*
G01*
X153644000Y-56482000D01*
G75*
G02*
X153394000Y-56732000I-250000J0D01*
G01*
X152719000Y-56732000D01*
G75*
G02*
X152469000Y-56482000I0J250000D01*
G01*
G37*
G36*
G01*
X228669000Y-56482000D02*
X228669000Y-55532000D01*
G75*
G02*
X228919000Y-55282000I250000J0D01*
G01*
X229594000Y-55282000D01*
G75*
G02*
X229844000Y-55532000I0J-250000D01*
G01*
X229844000Y-56482000D01*
G75*
G02*
X229594000Y-56732000I-250000J0D01*
G01*
X228919000Y-56732000D01*
G75*
G02*
X228669000Y-56482000I0J250000D01*
G01*
G37*
G36*
G01*
X226594000Y-56482000D02*
X226594000Y-55532000D01*
G75*
G02*
X226844000Y-55282000I250000J0D01*
G01*
X227519000Y-55282000D01*
G75*
G02*
X227769000Y-55532000I0J-250000D01*
G01*
X227769000Y-56482000D01*
G75*
G02*
X227519000Y-56732000I-250000J0D01*
G01*
X226844000Y-56732000D01*
G75*
G02*
X226594000Y-56482000I0J250000D01*
G01*
G37*
G36*
G01*
X307663000Y-56482000D02*
X307663000Y-55532000D01*
G75*
G02*
X307913000Y-55282000I250000J0D01*
G01*
X308588000Y-55282000D01*
G75*
G02*
X308838000Y-55532000I0J-250000D01*
G01*
X308838000Y-56482000D01*
G75*
G02*
X308588000Y-56732000I-250000J0D01*
G01*
X307913000Y-56732000D01*
G75*
G02*
X307663000Y-56482000I0J250000D01*
G01*
G37*
G36*
G01*
X305588000Y-56482000D02*
X305588000Y-55532000D01*
G75*
G02*
X305838000Y-55282000I250000J0D01*
G01*
X306513000Y-55282000D01*
G75*
G02*
X306763000Y-55532000I0J-250000D01*
G01*
X306763000Y-56482000D01*
G75*
G02*
X306513000Y-56732000I-250000J0D01*
G01*
X305838000Y-56732000D01*
G75*
G02*
X305588000Y-56482000I0J250000D01*
G01*
G37*
G36*
G01*
X295598000Y-37432000D02*
X295598000Y-36482000D01*
G75*
G02*
X295848000Y-36232000I250000J0D01*
G01*
X296523000Y-36232000D01*
G75*
G02*
X296773000Y-36482000I0J-250000D01*
G01*
X296773000Y-37432000D01*
G75*
G02*
X296523000Y-37682000I-250000J0D01*
G01*
X295848000Y-37682000D01*
G75*
G02*
X295598000Y-37432000I0J250000D01*
G01*
G37*
G36*
G01*
X293523000Y-37432000D02*
X293523000Y-36482000D01*
G75*
G02*
X293773000Y-36232000I250000J0D01*
G01*
X294448000Y-36232000D01*
G75*
G02*
X294698000Y-36482000I0J-250000D01*
G01*
X294698000Y-37432000D01*
G75*
G02*
X294448000Y-37682000I-250000J0D01*
G01*
X293773000Y-37682000D01*
G75*
G02*
X293523000Y-37432000I0J250000D01*
G01*
G37*
G36*
G01*
X219122500Y-37432000D02*
X219122500Y-36482000D01*
G75*
G02*
X219372500Y-36232000I250000J0D01*
G01*
X220047500Y-36232000D01*
G75*
G02*
X220297500Y-36482000I0J-250000D01*
G01*
X220297500Y-37432000D01*
G75*
G02*
X220047500Y-37682000I-250000J0D01*
G01*
X219372500Y-37682000D01*
G75*
G02*
X219122500Y-37432000I0J250000D01*
G01*
G37*
G36*
G01*
X217047500Y-37432000D02*
X217047500Y-36482000D01*
G75*
G02*
X217297500Y-36232000I250000J0D01*
G01*
X217972500Y-36232000D01*
G75*
G02*
X218222500Y-36482000I0J-250000D01*
G01*
X218222500Y-37432000D01*
G75*
G02*
X217972500Y-37682000I-250000J0D01*
G01*
X217297500Y-37682000D01*
G75*
G02*
X217047500Y-37432000I0J250000D01*
G01*
G37*
G36*
G01*
X142817000Y-37305000D02*
X142817000Y-36355000D01*
G75*
G02*
X143067000Y-36105000I250000J0D01*
G01*
X143742000Y-36105000D01*
G75*
G02*
X143992000Y-36355000I0J-250000D01*
G01*
X143992000Y-37305000D01*
G75*
G02*
X143742000Y-37555000I-250000J0D01*
G01*
X143067000Y-37555000D01*
G75*
G02*
X142817000Y-37305000I0J250000D01*
G01*
G37*
G36*
G01*
X140742000Y-37305000D02*
X140742000Y-36355000D01*
G75*
G02*
X140992000Y-36105000I250000J0D01*
G01*
X141667000Y-36105000D01*
G75*
G02*
X141917000Y-36355000I0J-250000D01*
G01*
X141917000Y-37305000D01*
G75*
G02*
X141667000Y-37555000I-250000J0D01*
G01*
X140992000Y-37555000D01*
G75*
G02*
X140742000Y-37305000I0J250000D01*
G01*
G37*
G36*
G01*
X66617000Y-37305000D02*
X66617000Y-36355000D01*
G75*
G02*
X66867000Y-36105000I250000J0D01*
G01*
X67542000Y-36105000D01*
G75*
G02*
X67792000Y-36355000I0J-250000D01*
G01*
X67792000Y-37305000D01*
G75*
G02*
X67542000Y-37555000I-250000J0D01*
G01*
X66867000Y-37555000D01*
G75*
G02*
X66617000Y-37305000I0J250000D01*
G01*
G37*
G36*
G01*
X64542000Y-37305000D02*
X64542000Y-36355000D01*
G75*
G02*
X64792000Y-36105000I250000J0D01*
G01*
X65467000Y-36105000D01*
G75*
G02*
X65717000Y-36355000I0J-250000D01*
G01*
X65717000Y-37305000D01*
G75*
G02*
X65467000Y-37555000I-250000J0D01*
G01*
X64792000Y-37555000D01*
G75*
G02*
X64542000Y-37305000I0J250000D01*
G01*
G37*
M02*
