G04 #@! TF.GenerationSoftware,KiCad,Pcbnew,(5.1.10)-1*
G04 #@! TF.CreationDate,2021-09-11T23:54:04-05:00*
G04 #@! TF.ProjectId,kintsugi,6b696e74-7375-4676-992e-6b696361645f,rev?*
G04 #@! TF.SameCoordinates,Original*
G04 #@! TF.FileFunction,Legend,Top*
G04 #@! TF.FilePolarity,Positive*
%FSLAX46Y46*%
G04 Gerber Fmt 4.6, Leading zero omitted, Abs format (unit mm)*
G04 Created by KiCad (PCBNEW (5.1.10)-1) date 2021-09-11 23:54:04*
%MOMM*%
%LPD*%
G01*
G04 APERTURE LIST*
%ADD10C,0.120000*%
%ADD11C,0.381000*%
%ADD12C,0.150000*%
%ADD13C,0.100000*%
G04 APERTURE END LIST*
D10*
X337760000Y-63941000D02*
X337760000Y-62611000D01*
X339090000Y-63941000D02*
X337760000Y-63941000D01*
X340360000Y-63941000D02*
X340360000Y-61281000D01*
X340360000Y-61281000D02*
X348040000Y-61281000D01*
X340360000Y-63941000D02*
X348040000Y-63941000D01*
X348040000Y-63941000D02*
X348040000Y-61281000D01*
D11*
X349250000Y-30480000D02*
X351790000Y-30480000D01*
X349250000Y-27940000D02*
X349250000Y-30480000D01*
D12*
G36*
X336855365Y-34229030D02*
G01*
X336855365Y-34329030D01*
X336755365Y-34329030D01*
X336755365Y-34229030D01*
X336855365Y-34229030D01*
G37*
X336855365Y-34229030D02*
X336855365Y-34329030D01*
X336755365Y-34329030D01*
X336755365Y-34229030D01*
X336855365Y-34229030D01*
G36*
X336655365Y-33829030D02*
G01*
X336655365Y-34629030D01*
X336555365Y-34629030D01*
X336555365Y-33829030D01*
X336655365Y-33829030D01*
G37*
X336655365Y-33829030D02*
X336655365Y-34629030D01*
X336555365Y-34629030D01*
X336555365Y-33829030D01*
X336655365Y-33829030D01*
G36*
X337055365Y-34429030D02*
G01*
X337055365Y-34629030D01*
X336955365Y-34629030D01*
X336955365Y-34429030D01*
X337055365Y-34429030D01*
G37*
X337055365Y-34429030D02*
X337055365Y-34629030D01*
X336955365Y-34629030D01*
X336955365Y-34429030D01*
X337055365Y-34429030D01*
G36*
X337055365Y-33829030D02*
G01*
X337055365Y-34129030D01*
X336955365Y-34129030D01*
X336955365Y-33829030D01*
X337055365Y-33829030D01*
G37*
X337055365Y-33829030D02*
X337055365Y-34129030D01*
X336955365Y-34129030D01*
X336955365Y-33829030D01*
X337055365Y-33829030D01*
G36*
X337055365Y-33829030D02*
G01*
X337055365Y-33929030D01*
X336555365Y-33929030D01*
X336555365Y-33829030D01*
X337055365Y-33829030D01*
G37*
X337055365Y-33829030D02*
X337055365Y-33929030D01*
X336555365Y-33929030D01*
X336555365Y-33829030D01*
X337055365Y-33829030D01*
D11*
X334010000Y-58420000D02*
X334010000Y-25400000D01*
X351790000Y-58420000D02*
X334010000Y-58420000D01*
X351790000Y-25400000D02*
X351790000Y-58420000D01*
X334010000Y-25400000D02*
X351790000Y-25400000D01*
X349250000Y-27940000D02*
X351790000Y-27940000D01*
D10*
X345639000Y-73319000D02*
G75*
G03*
X345639000Y-73319000I-3000000J0D01*
G01*
X340639000Y-79219000D02*
X336539000Y-79219000D01*
X336539000Y-67419000D02*
X340639000Y-67419000D01*
X344639000Y-67419000D02*
X348739000Y-67419000D01*
X344639000Y-79219000D02*
X348739000Y-79219000D01*
X348739000Y-79219000D02*
X348739000Y-67419000D01*
X350139000Y-77119000D02*
X350439000Y-77419000D01*
X350439000Y-77419000D02*
X349839000Y-77419000D01*
X349839000Y-77419000D02*
X350139000Y-77119000D01*
X336539000Y-79219000D02*
X336539000Y-76819000D01*
X336539000Y-74619000D02*
X336539000Y-72019000D01*
X336539000Y-69819000D02*
X336539000Y-67419000D01*
X342639000Y-73819000D02*
X342639000Y-72819000D01*
X343139000Y-73319000D02*
X342139000Y-73319000D01*
D13*
X349693700Y-28383700D02*
X349693700Y-30036300D01*
X351346300Y-30036300D01*
X351346300Y-28383700D01*
X349693700Y-28383700D01*
X351346300Y-31750000D02*
G75*
G03*
X351346300Y-31750000I-826300J0D01*
G01*
X351346300Y-34290000D02*
G75*
G03*
X351346300Y-34290000I-826300J0D01*
G01*
X351346300Y-36830000D02*
G75*
G03*
X351346300Y-36830000I-826300J0D01*
G01*
X351346300Y-39370000D02*
G75*
G03*
X351346300Y-39370000I-826300J0D01*
G01*
X351346300Y-41910000D02*
G75*
G03*
X351346300Y-41910000I-826300J0D01*
G01*
X351346300Y-44450000D02*
G75*
G03*
X351346300Y-44450000I-826300J0D01*
G01*
X351346300Y-46990000D02*
G75*
G03*
X351346300Y-46990000I-826300J0D01*
G01*
X351346300Y-49530000D02*
G75*
G03*
X351346300Y-49530000I-826300J0D01*
G01*
X351346300Y-52070000D02*
G75*
G03*
X351346300Y-52070000I-826300J0D01*
G01*
X351346300Y-54610000D02*
G75*
G03*
X351346300Y-54610000I-826300J0D01*
G01*
X336106300Y-57150000D02*
G75*
G03*
X336106300Y-57150000I-826300J0D01*
G01*
X336106300Y-54610000D02*
G75*
G03*
X336106300Y-54610000I-826300J0D01*
G01*
X336106300Y-52070000D02*
G75*
G03*
X336106300Y-52070000I-826300J0D01*
G01*
X336106300Y-49530000D02*
G75*
G03*
X336106300Y-49530000I-826300J0D01*
G01*
X336106300Y-46990000D02*
G75*
G03*
X336106300Y-46990000I-826300J0D01*
G01*
X336106300Y-44450000D02*
G75*
G03*
X336106300Y-44450000I-826300J0D01*
G01*
X336106300Y-41910000D02*
G75*
G03*
X336106300Y-41910000I-826300J0D01*
G01*
X336106300Y-39370000D02*
G75*
G03*
X336106300Y-39370000I-826300J0D01*
G01*
X336106300Y-36830000D02*
G75*
G03*
X336106300Y-36830000I-826300J0D01*
G01*
X336106300Y-34290000D02*
G75*
G03*
X336106300Y-34290000I-826300J0D01*
G01*
X336106300Y-31750000D02*
G75*
G03*
X336106300Y-31750000I-826300J0D01*
G01*
X351117700Y-57150000D02*
G75*
G03*
X351117700Y-57150000I-826300J0D01*
G01*
X336106300Y-29210000D02*
G75*
G03*
X336106300Y-29210000I-826300J0D01*
G01*
X338646300Y-57150000D02*
G75*
G03*
X338646300Y-57150000I-826300J0D01*
G01*
X341186300Y-57150000D02*
G75*
G03*
X341186300Y-57150000I-826300J0D01*
G01*
X343726300Y-57150000D02*
G75*
G03*
X343726300Y-57150000I-826300J0D01*
G01*
X346266300Y-57150000D02*
G75*
G03*
X346266300Y-57150000I-826300J0D01*
G01*
X348806300Y-57150000D02*
G75*
G03*
X348806300Y-57150000I-826300J0D01*
G01*
D12*
X336212380Y-62944333D02*
X336926666Y-62944333D01*
X337069523Y-62991952D01*
X337164761Y-63087190D01*
X337212380Y-63230047D01*
X337212380Y-63325285D01*
X337212380Y-61944333D02*
X337212380Y-62515761D01*
X337212380Y-62230047D02*
X336212380Y-62230047D01*
X336355238Y-62325285D01*
X336450476Y-62420523D01*
X336498095Y-62515761D01*
X347770523Y-32111904D02*
X347770523Y-31311904D01*
X347961000Y-31311904D01*
X348075285Y-31350000D01*
X348151476Y-31426190D01*
X348189571Y-31502380D01*
X348227666Y-31654761D01*
X348227666Y-31769047D01*
X348189571Y-31921428D01*
X348151476Y-31997619D01*
X348075285Y-32073809D01*
X347961000Y-32111904D01*
X347770523Y-32111904D01*
X348532428Y-31388095D02*
X348570523Y-31350000D01*
X348646714Y-31311904D01*
X348837190Y-31311904D01*
X348913380Y-31350000D01*
X348951476Y-31388095D01*
X348989571Y-31464285D01*
X348989571Y-31540476D01*
X348951476Y-31654761D01*
X348494333Y-32111904D01*
X348989571Y-32111904D01*
X347770523Y-42271904D02*
X347770523Y-41471904D01*
X347961000Y-41471904D01*
X348075285Y-41510000D01*
X348151476Y-41586190D01*
X348189571Y-41662380D01*
X348227666Y-41814761D01*
X348227666Y-41929047D01*
X348189571Y-42081428D01*
X348151476Y-42157619D01*
X348075285Y-42233809D01*
X347961000Y-42271904D01*
X347770523Y-42271904D01*
X348722904Y-41471904D02*
X348799095Y-41471904D01*
X348875285Y-41510000D01*
X348913380Y-41548095D01*
X348951476Y-41624285D01*
X348989571Y-41776666D01*
X348989571Y-41967142D01*
X348951476Y-42119523D01*
X348913380Y-42195714D01*
X348875285Y-42233809D01*
X348799095Y-42271904D01*
X348722904Y-42271904D01*
X348646714Y-42233809D01*
X348608619Y-42195714D01*
X348570523Y-42119523D01*
X348532428Y-41967142D01*
X348532428Y-41776666D01*
X348570523Y-41624285D01*
X348608619Y-41548095D01*
X348646714Y-41510000D01*
X348722904Y-41471904D01*
X347770523Y-39731904D02*
X347770523Y-38931904D01*
X347961000Y-38931904D01*
X348075285Y-38970000D01*
X348151476Y-39046190D01*
X348189571Y-39122380D01*
X348227666Y-39274761D01*
X348227666Y-39389047D01*
X348189571Y-39541428D01*
X348151476Y-39617619D01*
X348075285Y-39693809D01*
X347961000Y-39731904D01*
X347770523Y-39731904D01*
X348989571Y-39731904D02*
X348532428Y-39731904D01*
X348761000Y-39731904D02*
X348761000Y-38931904D01*
X348684809Y-39046190D01*
X348608619Y-39122380D01*
X348532428Y-39160476D01*
X347751476Y-36430000D02*
X347675285Y-36391904D01*
X347561000Y-36391904D01*
X347446714Y-36430000D01*
X347370523Y-36506190D01*
X347332428Y-36582380D01*
X347294333Y-36734761D01*
X347294333Y-36849047D01*
X347332428Y-37001428D01*
X347370523Y-37077619D01*
X347446714Y-37153809D01*
X347561000Y-37191904D01*
X347637190Y-37191904D01*
X347751476Y-37153809D01*
X347789571Y-37115714D01*
X347789571Y-36849047D01*
X347637190Y-36849047D01*
X348132428Y-37191904D02*
X348132428Y-36391904D01*
X348589571Y-37191904D01*
X348589571Y-36391904D01*
X348970523Y-37191904D02*
X348970523Y-36391904D01*
X349161000Y-36391904D01*
X349275285Y-36430000D01*
X349351476Y-36506190D01*
X349389571Y-36582380D01*
X349427666Y-36734761D01*
X349427666Y-36849047D01*
X349389571Y-37001428D01*
X349351476Y-37077619D01*
X349275285Y-37153809D01*
X349161000Y-37191904D01*
X348970523Y-37191904D01*
X347751476Y-33890000D02*
X347675285Y-33851904D01*
X347561000Y-33851904D01*
X347446714Y-33890000D01*
X347370523Y-33966190D01*
X347332428Y-34042380D01*
X347294333Y-34194761D01*
X347294333Y-34309047D01*
X347332428Y-34461428D01*
X347370523Y-34537619D01*
X347446714Y-34613809D01*
X347561000Y-34651904D01*
X347637190Y-34651904D01*
X347751476Y-34613809D01*
X347789571Y-34575714D01*
X347789571Y-34309047D01*
X347637190Y-34309047D01*
X348132428Y-34651904D02*
X348132428Y-33851904D01*
X348589571Y-34651904D01*
X348589571Y-33851904D01*
X348970523Y-34651904D02*
X348970523Y-33851904D01*
X349161000Y-33851904D01*
X349275285Y-33890000D01*
X349351476Y-33966190D01*
X349389571Y-34042380D01*
X349427666Y-34194761D01*
X349427666Y-34309047D01*
X349389571Y-34461428D01*
X349351476Y-34537619D01*
X349275285Y-34613809D01*
X349161000Y-34651904D01*
X348970523Y-34651904D01*
X347770523Y-44811904D02*
X347770523Y-44011904D01*
X347961000Y-44011904D01*
X348075285Y-44050000D01*
X348151476Y-44126190D01*
X348189571Y-44202380D01*
X348227666Y-44354761D01*
X348227666Y-44469047D01*
X348189571Y-44621428D01*
X348151476Y-44697619D01*
X348075285Y-44773809D01*
X347961000Y-44811904D01*
X347770523Y-44811904D01*
X348913380Y-44278571D02*
X348913380Y-44811904D01*
X348722904Y-43973809D02*
X348532428Y-44545238D01*
X349027666Y-44545238D01*
X348227666Y-47275714D02*
X348189571Y-47313809D01*
X348075285Y-47351904D01*
X347999095Y-47351904D01*
X347884809Y-47313809D01*
X347808619Y-47237619D01*
X347770523Y-47161428D01*
X347732428Y-47009047D01*
X347732428Y-46894761D01*
X347770523Y-46742380D01*
X347808619Y-46666190D01*
X347884809Y-46590000D01*
X347999095Y-46551904D01*
X348075285Y-46551904D01*
X348189571Y-46590000D01*
X348227666Y-46628095D01*
X348913380Y-46551904D02*
X348761000Y-46551904D01*
X348684809Y-46590000D01*
X348646714Y-46628095D01*
X348570523Y-46742380D01*
X348532428Y-46894761D01*
X348532428Y-47199523D01*
X348570523Y-47275714D01*
X348608619Y-47313809D01*
X348684809Y-47351904D01*
X348837190Y-47351904D01*
X348913380Y-47313809D01*
X348951476Y-47275714D01*
X348989571Y-47199523D01*
X348989571Y-47009047D01*
X348951476Y-46932857D01*
X348913380Y-46894761D01*
X348837190Y-46856666D01*
X348684809Y-46856666D01*
X348608619Y-46894761D01*
X348570523Y-46932857D01*
X348532428Y-47009047D01*
X347770523Y-49891904D02*
X347770523Y-49091904D01*
X347961000Y-49091904D01*
X348075285Y-49130000D01*
X348151476Y-49206190D01*
X348189571Y-49282380D01*
X348227666Y-49434761D01*
X348227666Y-49549047D01*
X348189571Y-49701428D01*
X348151476Y-49777619D01*
X348075285Y-49853809D01*
X347961000Y-49891904D01*
X347770523Y-49891904D01*
X348494333Y-49091904D02*
X349027666Y-49091904D01*
X348684809Y-49891904D01*
X347808619Y-52012857D02*
X348075285Y-52012857D01*
X348189571Y-52431904D02*
X347808619Y-52431904D01*
X347808619Y-51631904D01*
X348189571Y-51631904D01*
X348875285Y-51631904D02*
X348722904Y-51631904D01*
X348646714Y-51670000D01*
X348608619Y-51708095D01*
X348532428Y-51822380D01*
X348494333Y-51974761D01*
X348494333Y-52279523D01*
X348532428Y-52355714D01*
X348570523Y-52393809D01*
X348646714Y-52431904D01*
X348799095Y-52431904D01*
X348875285Y-52393809D01*
X348913380Y-52355714D01*
X348951476Y-52279523D01*
X348951476Y-52089047D01*
X348913380Y-52012857D01*
X348875285Y-51974761D01*
X348799095Y-51936666D01*
X348646714Y-51936666D01*
X348570523Y-51974761D01*
X348532428Y-52012857D01*
X348494333Y-52089047D01*
X348037190Y-54552857D02*
X348151476Y-54590952D01*
X348189571Y-54629047D01*
X348227666Y-54705238D01*
X348227666Y-54819523D01*
X348189571Y-54895714D01*
X348151476Y-54933809D01*
X348075285Y-54971904D01*
X347770523Y-54971904D01*
X347770523Y-54171904D01*
X348037190Y-54171904D01*
X348113380Y-54210000D01*
X348151476Y-54248095D01*
X348189571Y-54324285D01*
X348189571Y-54400476D01*
X348151476Y-54476666D01*
X348113380Y-54514761D01*
X348037190Y-54552857D01*
X347770523Y-54552857D01*
X348913380Y-54438571D02*
X348913380Y-54971904D01*
X348722904Y-54133809D02*
X348532428Y-54705238D01*
X349027666Y-54705238D01*
X349064297Y-56044991D02*
X349158578Y-55997851D01*
X349205719Y-55997851D01*
X349276429Y-56021421D01*
X349347140Y-56092132D01*
X349370710Y-56162842D01*
X349370710Y-56209983D01*
X349347140Y-56280693D01*
X349158578Y-56469255D01*
X348663603Y-55974280D01*
X348828595Y-55809289D01*
X348899306Y-55785719D01*
X348946446Y-55785719D01*
X349017157Y-55809289D01*
X349064297Y-55856429D01*
X349087867Y-55927140D01*
X349087867Y-55974280D01*
X349064297Y-56044991D01*
X348899306Y-56209983D01*
X349394280Y-55243603D02*
X349158578Y-55479306D01*
X349370710Y-55738578D01*
X349370710Y-55691438D01*
X349394280Y-55620727D01*
X349512132Y-55502876D01*
X349582842Y-55479306D01*
X349629983Y-55479306D01*
X349700693Y-55502876D01*
X349818544Y-55620727D01*
X349842115Y-55691438D01*
X349842115Y-55738578D01*
X349818544Y-55809289D01*
X349700693Y-55927140D01*
X349629983Y-55950710D01*
X349582842Y-55950710D01*
X337115190Y-52012857D02*
X337229476Y-52050952D01*
X337267571Y-52089047D01*
X337305666Y-52165238D01*
X337305666Y-52279523D01*
X337267571Y-52355714D01*
X337229476Y-52393809D01*
X337153285Y-52431904D01*
X336848523Y-52431904D01*
X336848523Y-51631904D01*
X337115190Y-51631904D01*
X337191380Y-51670000D01*
X337229476Y-51708095D01*
X337267571Y-51784285D01*
X337267571Y-51860476D01*
X337229476Y-51936666D01*
X337191380Y-51974761D01*
X337115190Y-52012857D01*
X336848523Y-52012857D01*
X337572333Y-51631904D02*
X338067571Y-51631904D01*
X337800904Y-51936666D01*
X337915190Y-51936666D01*
X337991380Y-51974761D01*
X338029476Y-52012857D01*
X338067571Y-52089047D01*
X338067571Y-52279523D01*
X338029476Y-52355714D01*
X337991380Y-52393809D01*
X337915190Y-52431904D01*
X337686619Y-52431904D01*
X337610428Y-52393809D01*
X337572333Y-52355714D01*
X337115190Y-49472857D02*
X337229476Y-49510952D01*
X337267571Y-49549047D01*
X337305666Y-49625238D01*
X337305666Y-49739523D01*
X337267571Y-49815714D01*
X337229476Y-49853809D01*
X337153285Y-49891904D01*
X336848523Y-49891904D01*
X336848523Y-49091904D01*
X337115190Y-49091904D01*
X337191380Y-49130000D01*
X337229476Y-49168095D01*
X337267571Y-49244285D01*
X337267571Y-49320476D01*
X337229476Y-49396666D01*
X337191380Y-49434761D01*
X337115190Y-49472857D01*
X336848523Y-49472857D01*
X338067571Y-49891904D02*
X337610428Y-49891904D01*
X337839000Y-49891904D02*
X337839000Y-49091904D01*
X337762809Y-49206190D01*
X337686619Y-49282380D01*
X337610428Y-49320476D01*
X337172333Y-39312857D02*
X336905666Y-39312857D01*
X336905666Y-39731904D02*
X336905666Y-38931904D01*
X337286619Y-38931904D01*
X337934238Y-39198571D02*
X337934238Y-39731904D01*
X337743761Y-38893809D02*
X337553285Y-39465238D01*
X338048523Y-39465238D01*
X336372333Y-36391904D02*
X336639000Y-37191904D01*
X336905666Y-36391904D01*
X337629476Y-37115714D02*
X337591380Y-37153809D01*
X337477095Y-37191904D01*
X337400904Y-37191904D01*
X337286619Y-37153809D01*
X337210428Y-37077619D01*
X337172333Y-37001428D01*
X337134238Y-36849047D01*
X337134238Y-36734761D01*
X337172333Y-36582380D01*
X337210428Y-36506190D01*
X337286619Y-36430000D01*
X337400904Y-36391904D01*
X337477095Y-36391904D01*
X337591380Y-36430000D01*
X337629476Y-36468095D01*
X338429476Y-37115714D02*
X338391380Y-37153809D01*
X338277095Y-37191904D01*
X338200904Y-37191904D01*
X338086619Y-37153809D01*
X338010428Y-37077619D01*
X337972333Y-37001428D01*
X337934238Y-36849047D01*
X337934238Y-36734761D01*
X337972333Y-36582380D01*
X338010428Y-36506190D01*
X338086619Y-36430000D01*
X338200904Y-36391904D01*
X338277095Y-36391904D01*
X338391380Y-36430000D01*
X338429476Y-36468095D01*
X336829476Y-31350000D02*
X336753285Y-31311904D01*
X336639000Y-31311904D01*
X336524714Y-31350000D01*
X336448523Y-31426190D01*
X336410428Y-31502380D01*
X336372333Y-31654761D01*
X336372333Y-31769047D01*
X336410428Y-31921428D01*
X336448523Y-31997619D01*
X336524714Y-32073809D01*
X336639000Y-32111904D01*
X336715190Y-32111904D01*
X336829476Y-32073809D01*
X336867571Y-32035714D01*
X336867571Y-31769047D01*
X336715190Y-31769047D01*
X337210428Y-32111904D02*
X337210428Y-31311904D01*
X337667571Y-32111904D01*
X337667571Y-31311904D01*
X338048523Y-32111904D02*
X338048523Y-31311904D01*
X338239000Y-31311904D01*
X338353285Y-31350000D01*
X338429476Y-31426190D01*
X338467571Y-31502380D01*
X338505666Y-31654761D01*
X338505666Y-31769047D01*
X338467571Y-31921428D01*
X338429476Y-31997619D01*
X338353285Y-32073809D01*
X338239000Y-32111904D01*
X338048523Y-32111904D01*
X337115190Y-29152857D02*
X337229476Y-29190952D01*
X337267571Y-29229047D01*
X337305666Y-29305238D01*
X337305666Y-29419523D01*
X337267571Y-29495714D01*
X337229476Y-29533809D01*
X337153285Y-29571904D01*
X336848523Y-29571904D01*
X336848523Y-28771904D01*
X337115190Y-28771904D01*
X337191380Y-28810000D01*
X337229476Y-28848095D01*
X337267571Y-28924285D01*
X337267571Y-29000476D01*
X337229476Y-29076666D01*
X337191380Y-29114761D01*
X337115190Y-29152857D01*
X336848523Y-29152857D01*
X337800904Y-28771904D02*
X337877095Y-28771904D01*
X337953285Y-28810000D01*
X337991380Y-28848095D01*
X338029476Y-28924285D01*
X338067571Y-29076666D01*
X338067571Y-29267142D01*
X338029476Y-29419523D01*
X337991380Y-29495714D01*
X337953285Y-29533809D01*
X337877095Y-29571904D01*
X337800904Y-29571904D01*
X337724714Y-29533809D01*
X337686619Y-29495714D01*
X337648523Y-29419523D01*
X337610428Y-29267142D01*
X337610428Y-29076666D01*
X337648523Y-28924285D01*
X337686619Y-28848095D01*
X337724714Y-28810000D01*
X337800904Y-28771904D01*
X337172333Y-41852857D02*
X336905666Y-41852857D01*
X336905666Y-42271904D02*
X336905666Y-41471904D01*
X337286619Y-41471904D01*
X337972333Y-41471904D02*
X337591380Y-41471904D01*
X337553285Y-41852857D01*
X337591380Y-41814761D01*
X337667571Y-41776666D01*
X337858047Y-41776666D01*
X337934238Y-41814761D01*
X337972333Y-41852857D01*
X338010428Y-41929047D01*
X338010428Y-42119523D01*
X337972333Y-42195714D01*
X337934238Y-42233809D01*
X337858047Y-42271904D01*
X337667571Y-42271904D01*
X337591380Y-42233809D01*
X337553285Y-42195714D01*
X337172333Y-44392857D02*
X336905666Y-44392857D01*
X336905666Y-44811904D02*
X336905666Y-44011904D01*
X337286619Y-44011904D01*
X337934238Y-44011904D02*
X337781857Y-44011904D01*
X337705666Y-44050000D01*
X337667571Y-44088095D01*
X337591380Y-44202380D01*
X337553285Y-44354761D01*
X337553285Y-44659523D01*
X337591380Y-44735714D01*
X337629476Y-44773809D01*
X337705666Y-44811904D01*
X337858047Y-44811904D01*
X337934238Y-44773809D01*
X337972333Y-44735714D01*
X338010428Y-44659523D01*
X338010428Y-44469047D01*
X337972333Y-44392857D01*
X337934238Y-44354761D01*
X337858047Y-44316666D01*
X337705666Y-44316666D01*
X337629476Y-44354761D01*
X337591380Y-44392857D01*
X337553285Y-44469047D01*
X337172333Y-46932857D02*
X336905666Y-46932857D01*
X336905666Y-47351904D02*
X336905666Y-46551904D01*
X337286619Y-46551904D01*
X337515190Y-46551904D02*
X338048523Y-46551904D01*
X337705666Y-47351904D01*
X337115190Y-54552857D02*
X337229476Y-54590952D01*
X337267571Y-54629047D01*
X337305666Y-54705238D01*
X337305666Y-54819523D01*
X337267571Y-54895714D01*
X337229476Y-54933809D01*
X337153285Y-54971904D01*
X336848523Y-54971904D01*
X336848523Y-54171904D01*
X337115190Y-54171904D01*
X337191380Y-54210000D01*
X337229476Y-54248095D01*
X337267571Y-54324285D01*
X337267571Y-54400476D01*
X337229476Y-54476666D01*
X337191380Y-54514761D01*
X337115190Y-54552857D01*
X336848523Y-54552857D01*
X337610428Y-54248095D02*
X337648523Y-54210000D01*
X337724714Y-54171904D01*
X337915190Y-54171904D01*
X337991380Y-54210000D01*
X338029476Y-54248095D01*
X338067571Y-54324285D01*
X338067571Y-54400476D01*
X338029476Y-54514761D01*
X337572333Y-54971904D01*
X338067571Y-54971904D01*
X344281395Y-28771904D02*
X344738538Y-28771904D01*
X344509967Y-29571904D02*
X344509967Y-28771904D01*
X344929014Y-28771904D02*
X345462348Y-29571904D01*
X345462348Y-28771904D02*
X344929014Y-29571904D01*
X345919491Y-28771904D02*
X345995681Y-28771904D01*
X346071872Y-28810000D01*
X346109967Y-28848095D01*
X346148062Y-28924285D01*
X346186157Y-29076666D01*
X346186157Y-29267142D01*
X346148062Y-29419523D01*
X346109967Y-29495714D01*
X346071872Y-29533809D01*
X345995681Y-29571904D01*
X345919491Y-29571904D01*
X345843300Y-29533809D01*
X345805205Y-29495714D01*
X345767110Y-29419523D01*
X345729014Y-29267142D01*
X345729014Y-29076666D01*
X345767110Y-28924285D01*
X345805205Y-28848095D01*
X345843300Y-28810000D01*
X345919491Y-28771904D01*
X347100443Y-28733809D02*
X346414729Y-29762380D01*
X347367110Y-29571904D02*
X347367110Y-28771904D01*
X347557586Y-28771904D01*
X347671872Y-28810000D01*
X347748062Y-28886190D01*
X347786157Y-28962380D01*
X347824252Y-29114761D01*
X347824252Y-29229047D01*
X347786157Y-29381428D01*
X347748062Y-29457619D01*
X347671872Y-29533809D01*
X347557586Y-29571904D01*
X347367110Y-29571904D01*
X348090919Y-28771904D02*
X348586157Y-28771904D01*
X348319491Y-29076666D01*
X348433776Y-29076666D01*
X348509967Y-29114761D01*
X348548062Y-29152857D01*
X348586157Y-29229047D01*
X348586157Y-29419523D01*
X348548062Y-29495714D01*
X348509967Y-29533809D01*
X348433776Y-29571904D01*
X348205205Y-29571904D01*
X348129014Y-29533809D01*
X348090919Y-29495714D01*
X337326666Y-34593809D02*
X337440952Y-34631904D01*
X337631428Y-34631904D01*
X337707619Y-34593809D01*
X337745714Y-34555714D01*
X337783809Y-34479523D01*
X337783809Y-34403333D01*
X337745714Y-34327142D01*
X337707619Y-34289047D01*
X337631428Y-34250952D01*
X337479047Y-34212857D01*
X337402857Y-34174761D01*
X337364761Y-34136666D01*
X337326666Y-34060476D01*
X337326666Y-33984285D01*
X337364761Y-33908095D01*
X337402857Y-33870000D01*
X337479047Y-33831904D01*
X337669523Y-33831904D01*
X337783809Y-33870000D01*
X338012380Y-33831904D02*
X338469523Y-33831904D01*
X338240952Y-34631904D02*
X338240952Y-33831904D01*
X347116666Y-55730000D02*
X347216666Y-55763333D01*
X347250000Y-55796666D01*
X347283333Y-55863333D01*
X347283333Y-55963333D01*
X347250000Y-56030000D01*
X347216666Y-56063333D01*
X347150000Y-56096666D01*
X346883333Y-56096666D01*
X346883333Y-55396666D01*
X347116666Y-55396666D01*
X347183333Y-55430000D01*
X347216666Y-55463333D01*
X347250000Y-55530000D01*
X347250000Y-55596666D01*
X347216666Y-55663333D01*
X347183333Y-55696666D01*
X347116666Y-55730000D01*
X346883333Y-55730000D01*
X347516666Y-55396666D02*
X347983333Y-55396666D01*
X347683333Y-56096666D01*
X338166666Y-55730000D02*
X337933333Y-55730000D01*
X337933333Y-56096666D02*
X337933333Y-55396666D01*
X338266666Y-55396666D01*
X338666666Y-55396666D02*
X338733333Y-55396666D01*
X338800000Y-55430000D01*
X338833333Y-55463333D01*
X338866666Y-55530000D01*
X338900000Y-55663333D01*
X338900000Y-55830000D01*
X338866666Y-55963333D01*
X338833333Y-56030000D01*
X338800000Y-56063333D01*
X338733333Y-56096666D01*
X338666666Y-56096666D01*
X338600000Y-56063333D01*
X338566666Y-56030000D01*
X338533333Y-55963333D01*
X338500000Y-55830000D01*
X338500000Y-55663333D01*
X338533333Y-55530000D01*
X338566666Y-55463333D01*
X338600000Y-55430000D01*
X338666666Y-55396666D01*
X336664991Y-56115702D02*
X336617851Y-56021421D01*
X336617851Y-55974280D01*
X336641421Y-55903570D01*
X336712132Y-55832859D01*
X336782842Y-55809289D01*
X336829983Y-55809289D01*
X336900693Y-55832859D01*
X337089255Y-56021421D01*
X336594280Y-56516396D01*
X336429289Y-56351404D01*
X336405719Y-56280693D01*
X336405719Y-56233553D01*
X336429289Y-56162842D01*
X336476429Y-56115702D01*
X336547140Y-56092132D01*
X336594280Y-56092132D01*
X336664991Y-56115702D01*
X336829983Y-56280693D01*
X335887174Y-55809289D02*
X335981455Y-55903570D01*
X336052165Y-55927140D01*
X336099306Y-55927140D01*
X336217157Y-55903570D01*
X336335008Y-55832859D01*
X336523570Y-55644297D01*
X336547140Y-55573587D01*
X336547140Y-55526446D01*
X336523570Y-55455735D01*
X336429289Y-55361455D01*
X336358578Y-55337884D01*
X336311438Y-55337884D01*
X336240727Y-55361455D01*
X336122876Y-55479306D01*
X336099306Y-55550016D01*
X336099306Y-55597157D01*
X336122876Y-55667867D01*
X336217157Y-55762148D01*
X336287867Y-55785719D01*
X336335008Y-55785719D01*
X336405719Y-55762148D01*
X342766666Y-55865714D02*
X342728571Y-55903809D01*
X342614285Y-55941904D01*
X342538095Y-55941904D01*
X342423809Y-55903809D01*
X342347619Y-55827619D01*
X342309523Y-55751428D01*
X342271428Y-55599047D01*
X342271428Y-55484761D01*
X342309523Y-55332380D01*
X342347619Y-55256190D01*
X342423809Y-55180000D01*
X342538095Y-55141904D01*
X342614285Y-55141904D01*
X342728571Y-55180000D01*
X342766666Y-55218095D01*
X343033333Y-55141904D02*
X343566666Y-55141904D01*
X343223809Y-55941904D01*
X340093333Y-55522857D02*
X339826666Y-55522857D01*
X339826666Y-55941904D02*
X339826666Y-55141904D01*
X340207619Y-55141904D01*
X340931428Y-55941904D02*
X340474285Y-55941904D01*
X340702857Y-55941904D02*
X340702857Y-55141904D01*
X340626666Y-55256190D01*
X340550476Y-55332380D01*
X340474285Y-55370476D01*
X344849523Y-55941904D02*
X344849523Y-55141904D01*
X345040000Y-55141904D01*
X345154285Y-55180000D01*
X345230476Y-55256190D01*
X345268571Y-55332380D01*
X345306666Y-55484761D01*
X345306666Y-55599047D01*
X345268571Y-55751428D01*
X345230476Y-55827619D01*
X345154285Y-55903809D01*
X345040000Y-55941904D01*
X344849523Y-55941904D01*
X346030476Y-55141904D02*
X345649523Y-55141904D01*
X345611428Y-55522857D01*
X345649523Y-55484761D01*
X345725714Y-55446666D01*
X345916190Y-55446666D01*
X345992380Y-55484761D01*
X346030476Y-55522857D01*
X346068571Y-55599047D01*
X346068571Y-55789523D01*
X346030476Y-55865714D01*
X345992380Y-55903809D01*
X345916190Y-55941904D01*
X345725714Y-55941904D01*
X345649523Y-55903809D01*
X345611428Y-55865714D01*
X346005666Y-80923761D02*
X346148523Y-80971380D01*
X346386619Y-80971380D01*
X346481857Y-80923761D01*
X346529476Y-80876142D01*
X346577095Y-80780904D01*
X346577095Y-80685666D01*
X346529476Y-80590428D01*
X346481857Y-80542809D01*
X346386619Y-80495190D01*
X346196142Y-80447571D01*
X346100904Y-80399952D01*
X346053285Y-80352333D01*
X346005666Y-80257095D01*
X346005666Y-80161857D01*
X346053285Y-80066619D01*
X346100904Y-80019000D01*
X346196142Y-79971380D01*
X346434238Y-79971380D01*
X346577095Y-80019000D01*
X346910428Y-79971380D02*
X347148523Y-80971380D01*
X347339000Y-80257095D01*
X347529476Y-80971380D01*
X347767571Y-79971380D01*
X348672333Y-80971380D02*
X348100904Y-80971380D01*
X348386619Y-80971380D02*
X348386619Y-79971380D01*
X348291380Y-80114238D01*
X348196142Y-80209476D01*
X348100904Y-80257095D01*
M02*
