M48
; DRILL file {KiCad (5.1.10)-1} date 09/12/21 00:09:23
; FORMAT={-:-/ absolute / inch / decimal}
; #@! TF.CreationDate,2021-09-12T00:09:23-05:00
; #@! TF.GenerationSoftware,Kicad,Pcbnew,(5.1.10)-1
; #@! TF.FileFunction,NonPlated,1,2,NPTH
FMAT,2
INCH
T1C0.0689
T2C0.1181
T3C0.1200
T4C0.1570
%
G90
G05
T1
X2.05Y-1.3125
X2.1437Y-4.3125
X2.2375Y-2.0625
X2.3312Y-2.8125
X2.45Y-1.3125
X2.5187Y-3.5625
X2.5437Y-4.3125
X2.6375Y-2.0625
X2.7312Y-2.8125
X2.8Y-1.3125
X2.9187Y-3.5625
X3.0812Y-4.3125
X3.175Y-2.0625
X3.2Y-1.3125
X3.3625Y-2.8125
X3.4812Y-4.3125
X3.55Y-1.3125
X3.575Y-2.0625
X3.7375Y-3.5625
X3.7625Y-2.8125
X3.925Y-2.0625
X3.95Y-1.3125
X4.0187Y-4.3125
X4.1125Y-2.8125
X4.1375Y-3.5625
X4.3Y-1.3125
X4.325Y-2.0625
X4.4188Y-4.3125
X4.4875Y-3.5625
X4.5125Y-2.8125
X4.675Y-2.0625
X4.7Y-1.3125
X4.8625Y-2.8125
X4.8875Y-3.5625
X5.05Y-1.3125
X5.075Y-2.0625
X5.2375Y-3.5625
X5.2625Y-2.8125
X5.425Y-2.0625
X5.45Y-1.3125
X5.6125Y-2.8125
X5.6375Y-3.5625
X5.8Y-1.3125
X5.825Y-2.0625
X5.9875Y-3.5625
X6.0125Y-2.8125
X6.175Y-2.0625
X6.2Y-1.3125
X6.3625Y-2.8125
X6.3875Y-3.5625
X6.55Y-1.3125
X6.575Y-2.0625
X6.7375Y-3.5625
X6.7625Y-2.8125
X6.8312Y-4.3125
X6.925Y-2.0625
X6.95Y-1.3125
X7.1125Y-2.8125
X7.1375Y-3.5625
X7.2313Y-4.3125
X7.3Y-1.3125
X7.325Y-2.0625
X7.4875Y-3.5625
X7.5125Y-2.8125
X7.675Y-2.0625
X7.7Y-1.3125
X7.8625Y-2.8125
X7.8875Y-3.5625
X8.05Y-1.3125
X8.075Y-2.0625
X8.2375Y-3.5625
X8.2625Y-2.8125
X8.425Y-2.0625
X8.45Y-1.3125
X8.6125Y-2.8125
X8.6375Y-3.5625
X8.8Y-1.3125
X8.825Y-2.0625
X8.9875Y-3.5625
X9.0125Y-2.8125
X9.175Y-2.0625
X9.2Y-1.3125
X9.3625Y-2.8125
X9.3875Y-3.5625
X9.55Y-1.3125
X9.575Y-2.0625
X9.6437Y-4.3125
X9.7375Y-3.5625
X9.7625Y-2.8125
X9.925Y-2.0625
X9.95Y-1.3125
X10.0437Y-4.3125
X10.1125Y-2.8125
X10.1375Y-3.5625
X10.3Y-1.3125
X10.325Y-2.0625
X10.4875Y-3.5625
X10.5125Y-2.8125
X10.5812Y-4.3125
X10.675Y-2.0625
X10.7Y-1.3125
X10.8625Y-2.8125
X10.8875Y-3.5625
X10.9812Y-4.3125
X11.05Y-1.3125
X11.075Y-2.0625
X11.2625Y-2.8125
X11.425Y-2.0625
X11.45Y-1.3125
X11.5187Y-3.5625
X11.8Y-4.3125
X11.825Y-2.0625
X11.9187Y-3.5625
X12.0812Y-2.8125
X12.175Y-1.3125
X12.2Y-4.3125
X12.3625Y-2.0625
X12.4812Y-2.8125
X12.55Y-3.5625
X12.55Y-4.3125
X12.575Y-1.3125
X12.7625Y-2.0625
X12.95Y-3.5625
X12.95Y-4.3125
X13.3Y-3.5625
X13.3Y-4.3125
X13.7Y-3.5625
X13.7Y-4.3125
T2
X2.1Y-1.2125
X2.1938Y-4.2125
X2.2875Y-1.9625
X2.35Y-1.1125
X2.3813Y-2.7125
X2.4438Y-4.1125
X2.5375Y-1.8625
X2.5688Y-3.4625
X2.6313Y-2.6125
X2.8188Y-3.3625
X2.85Y-1.2125
X3.1Y-1.1125
X3.1313Y-4.2125
X3.225Y-1.9625
X3.3813Y-4.1125
X3.4125Y-2.7125
X3.475Y-1.8625
X3.6Y-1.2125
X3.6625Y-2.6125
X3.7875Y-3.4625
X3.85Y-1.1125
X3.975Y-1.9625
X4.0375Y-3.3625
X4.0687Y-4.2125
X4.1625Y-2.7125
X4.225Y-1.8625
X4.3187Y-4.1125
X4.35Y-1.2125
X4.4125Y-2.6125
X4.5375Y-3.4625
X4.6Y-1.1125
X4.725Y-1.9625
X4.7875Y-3.3625
X4.9125Y-2.7125
X4.975Y-1.8625
X5.1Y-1.2125
X5.1625Y-2.6125
X5.2875Y-3.4625
X5.35Y-1.1125
X5.475Y-1.9625
X5.5375Y-3.3625
X5.6625Y-2.7125
X5.725Y-1.8625
X5.85Y-1.2125
X5.9125Y-2.6125
X6.0375Y-3.4625
X6.1Y-1.1125
X6.225Y-1.9625
X6.2875Y-3.3625
X6.4125Y-2.7125
X6.475Y-1.8625
X6.6Y-1.2125
X6.6625Y-2.6125
X6.7875Y-3.4625
X6.85Y-1.1125
X6.8812Y-4.2125
X6.975Y-1.9625
X7.0375Y-3.3625
X7.1312Y-4.1125
X7.1625Y-2.7125
X7.225Y-1.8625
X7.35Y-1.2125
X7.4125Y-2.6125
X7.5375Y-3.4625
X7.6Y-1.1125
X7.725Y-1.9625
X7.7875Y-3.3625
X7.9125Y-2.7125
X7.975Y-1.8625
X8.1Y-1.2125
X8.1625Y-2.6125
X8.2875Y-3.4625
X8.35Y-1.1125
X8.475Y-1.9625
X8.5375Y-3.3625
X8.6625Y-2.7125
X8.725Y-1.8625
X8.85Y-1.2125
X8.9125Y-2.6125
X9.0375Y-3.4625
X9.1Y-1.1125
X9.225Y-1.9625
X9.2875Y-3.3625
X9.4125Y-2.7125
X9.475Y-1.8625
X9.6Y-1.2125
X9.6625Y-2.6125
X9.6937Y-4.2125
X9.7875Y-3.4625
X9.85Y-1.1125
X9.9437Y-4.1125
X9.975Y-1.9625
X10.0375Y-3.3625
X10.1625Y-2.7125
X10.225Y-1.8625
X10.35Y-1.2125
X10.4125Y-2.6125
X10.5375Y-3.4625
X10.6Y-1.1125
X10.6312Y-4.2125
X10.725Y-1.9625
X10.7875Y-3.3625
X10.8812Y-4.1125
X10.9125Y-2.7125
X10.975Y-1.8625
X11.1Y-1.2125
X11.1625Y-2.6125
X11.35Y-1.1125
X11.475Y-1.9625
X11.5687Y-3.4625
X11.725Y-1.8625
X11.8187Y-3.3625
X11.85Y-4.2125
X12.1Y-4.1125
X12.1312Y-2.7125
X12.225Y-1.2125
X12.3812Y-2.6125
X12.4125Y-1.9625
X12.475Y-1.1125
X12.6Y-3.4625
X12.6Y-4.2125
X12.6625Y-1.8625
X12.85Y-3.3625
X12.85Y-4.1125
X13.35Y-3.4625
X13.35Y-4.2125
X13.6Y-3.3625
X13.6Y-4.1125
T3
X2.2487Y-3.2875
X3.1887Y-3.2875
X5.0628Y-4.5875
X8.9998Y-4.5875
X11.8112Y-2.5375
X11.905Y-1.0375
X12.7512Y-2.5375
X12.845Y-1.0375
T4
X2.2487Y-3.8875
X2.25Y-1.3125
X2.3438Y-4.3125
X2.4375Y-2.0625
X2.5312Y-2.8125
X2.7188Y-3.5625
X3.0Y-1.3125
X3.1887Y-3.8875
X3.2812Y-4.3125
X3.375Y-2.0625
X3.5625Y-2.8125
X3.75Y-1.3125
X3.9375Y-3.5625
X4.125Y-2.0625
X4.2188Y-4.3125
X4.3125Y-2.8125
X4.5Y-1.3125
X4.6875Y-3.5625
X4.875Y-2.0625
X5.0625Y-2.8125
X5.0628Y-3.9875
X5.25Y-1.3125
X5.4375Y-3.5625
X5.625Y-2.0625
X5.8125Y-2.8125
X6.0Y-1.3125
X6.1875Y-3.5625
X6.375Y-2.0625
X6.5625Y-2.8125
X6.75Y-1.3125
X6.9375Y-3.5625
X7.0312Y-4.3125
X7.125Y-2.0625
X7.3125Y-2.8125
X7.5Y-1.3125
X7.6875Y-3.5625
X7.875Y-2.0625
X8.0625Y-2.8125
X8.25Y-1.3125
X8.4375Y-3.5625
X8.625Y-2.0625
X8.8125Y-2.8125
X8.9998Y-3.9875
X9.0Y-1.3125
X9.1875Y-3.5625
X9.375Y-2.0625
X9.5625Y-2.8125
X9.75Y-1.3125
X9.8438Y-4.3125
X9.9375Y-3.5625
X10.125Y-2.0625
X10.3125Y-2.8125
X10.5Y-1.3125
X10.6875Y-3.5625
X10.7812Y-4.3125
X10.875Y-2.0625
X11.0625Y-2.8125
X11.25Y-1.3125
X11.625Y-2.0625
X11.7188Y-3.5625
X11.8112Y-3.1375
X11.905Y-1.6375
X12.0Y-4.3125
X12.2812Y-2.8125
X12.375Y-1.3125
X12.5625Y-2.0625
X12.75Y-3.5625
X12.75Y-4.3125
X12.7512Y-3.1375
X12.845Y-1.6375
X13.5Y-3.5625
X13.5Y-4.3125
T0
M30
