M48
; DRILL file {KiCad (5.1.10)-1} date 09/12/21 00:09:23
; FORMAT={-:-/ absolute / inch / decimal}
; #@! TF.CreationDate,2021-09-12T00:09:23-05:00
; #@! TF.GenerationSoftware,Kicad,Pcbnew,(5.1.10)-1
; #@! TF.FileFunction,Plated,1,2,PTH
FMAT,2
INCH
T1C0.0157
T2C0.0394
T3C0.0430
T4C0.0591
%
G90
G05
T1
X2.56Y-1.275
X2.565Y-1.355
X2.635Y-2.465
X2.69Y-4.22
X2.745Y-1.45
X2.75Y-4.125
X2.8098Y-1.7252
X2.835Y-4.125
X2.86Y-2.105
X2.975Y-2.755
X3.055Y-2.205
X3.065Y-3.67
X3.095Y-1.795
X3.1Y-3.73
X3.215Y-3.155
X3.23Y-2.975
X4.035Y-2.55
X4.265Y-3.47
X5.16Y-3.29
X5.31Y-1.68
X5.565Y-1.355
X5.73Y-2.45
X5.745Y-1.45
X5.81Y-1.725
X5.885Y-3.185
X5.945Y-2.105
X6.075Y-2.5
X6.11Y-2.205
X6.125Y-2.855
X6.305Y-3.99
X6.315Y-2.955
X6.375Y-3.24
X6.475Y-3.705
X6.555Y-2.485
X6.56Y-3.785
X6.615Y-4.185
X6.66Y-3.295
X6.845Y-1.79
X7.595Y-1.8
X8.225Y-1.71
X8.345Y-1.79
X8.53Y-2.56
X8.57Y-1.355
X8.73Y-2.45
X8.735Y-1.455
X8.81Y-1.725
X8.82Y-3.195
X8.945Y-2.105
X8.995Y-3.25
X9.075Y-2.5
X9.1Y-1.795
X9.11Y-2.205
X9.13Y-2.86
X9.28Y-2.55
X9.305Y-2.955
X9.365Y-3.23
X9.57Y-2.475
X9.845Y-1.785
X10.025Y-3.96
X10.25Y-3.605
X10.38Y-4.005
X10.4075Y-3.3075
X10.42Y-3.705
X10.595Y-1.8
X11.295Y-1.68
X11.345Y-1.825
X11.58Y-1.355
X11.735Y-1.455
X11.925Y-2.955
X12.025Y-3.225
X12.04Y-3.355
X12.055Y-2.105
X12.19Y-2.5
X12.23Y-2.205
X12.28Y-1.815
X12.465Y-3.29
X12.87Y-2.78
X12.93Y-1.86
X13.01Y-2.39
X13.01Y-2.605
X13.025Y-4.54
X13.055Y-1.52
X13.055Y-2.885
X13.07Y-3.605
X13.2Y-3.995
X13.24Y-3.705
X13.49Y-3.24
X13.595Y-1.575
X13.6Y-1.995
X13.87Y-2.36
T2
X2.0913Y-1.54
X2.1865Y-4.54
X2.278Y-2.29
X2.3715Y-3.04
X2.3984Y-1.54
X2.4935Y-4.54
X2.5615Y-3.79
X2.5851Y-2.29
X2.6785Y-3.04
X2.8415Y-1.54
X2.8685Y-3.79
X3.1265Y-4.54
X3.1485Y-1.54
X3.2179Y-2.29
X3.4049Y-3.04
X3.4335Y-4.54
X3.525Y-2.29
X3.593Y-1.54
X3.712Y-3.04
X3.7815Y-3.79
X3.9001Y-1.54
X3.9665Y-2.29
X4.0615Y-4.54
X4.0885Y-3.79
X4.1565Y-3.04
X4.2735Y-2.29
X4.343Y-1.54
X4.3685Y-4.54
X4.4635Y-3.04
X4.5315Y-3.79
X4.6501Y-1.54
X4.718Y-2.29
X4.8385Y-3.79
X4.9065Y-3.04
X5.0251Y-2.29
X5.093Y-1.54
X5.2135Y-3.04
X5.2815Y-3.79
X5.4001Y-1.54
X5.468Y-2.29
X5.5885Y-3.79
X5.6565Y-3.04
X5.7751Y-2.29
X5.8415Y-1.54
X5.9635Y-3.04
X6.0315Y-3.79
X6.1485Y-1.54
X6.218Y-2.29
X6.3385Y-3.79
X6.4063Y-3.04
X6.5251Y-2.29
X6.5913Y-1.54
X6.7134Y-3.04
X6.7815Y-3.79
X6.8715Y-4.54
X6.8984Y-1.54
X6.968Y-2.29
X7.0885Y-3.79
X7.1565Y-3.04
X7.1785Y-4.54
X7.2751Y-2.29
X7.3415Y-1.54
X7.4635Y-3.04
X7.5315Y-3.79
X7.6485Y-1.54
X7.718Y-2.29
X7.8385Y-3.79
X7.9065Y-3.04
X8.0251Y-2.29
X8.093Y-1.54
X8.2135Y-3.04
X8.2815Y-3.79
X8.4001Y-1.54
X8.468Y-2.29
X8.5885Y-3.79
X8.6565Y-3.04
X8.7751Y-2.29
X8.8413Y-1.54
X8.9635Y-3.04
X9.0315Y-3.79
X9.1484Y-1.54
X9.2163Y-2.29
X9.3385Y-3.79
X9.4065Y-3.04
X9.5234Y-2.29
X9.5915Y-1.54
X9.6865Y-4.54
X9.7135Y-3.04
X9.7765Y-3.79
X9.8985Y-1.54
X9.9663Y-2.29
X9.9935Y-4.54
X10.0835Y-3.79
X10.1565Y-3.04
X10.2734Y-2.29
X10.343Y-1.54
X10.4635Y-3.04
X10.5265Y-3.79
X10.6215Y-4.54
X10.6501Y-1.54
X10.718Y-2.29
X10.8335Y-3.79
X10.9065Y-3.04
X10.9285Y-4.54
X11.0251Y-2.29
X11.0949Y-1.54
X11.2135Y-3.04
X11.402Y-1.54
X11.4665Y-2.29
X11.5599Y-3.79
X11.7735Y-2.29
X11.8415Y-4.54
X11.867Y-3.79
X12.1265Y-3.04
X12.1485Y-4.54
X12.2165Y-1.54
X12.4015Y-2.29
X12.4335Y-3.04
X12.5235Y-1.54
X12.5915Y-3.79
X12.5915Y-4.54
X12.7085Y-2.29
X12.8985Y-3.79
X12.8985Y-4.54
X13.0Y-2.7315
X13.0Y-3.0385
X13.2141Y-2.7881
X13.2141Y-2.985
X13.3415Y-3.79
X13.3415Y-4.54
X13.35Y-2.465
X13.45Y-2.465
X13.55Y-2.465
X13.6485Y-3.79
X13.6485Y-4.54
X13.65Y-2.465
X13.785Y-2.7881
X13.785Y-2.8866
X13.785Y-2.985
T3
X13.2Y-1.15
X13.2Y-1.25
X13.2Y-1.35
X13.2Y-1.45
X13.2Y-1.55
X13.2Y-1.65
X13.2Y-1.75
X13.2Y-1.85
X13.2Y-1.95
X13.2Y-2.05
X13.2Y-2.15
X13.2Y-2.25
X13.3Y-2.25
X13.4Y-2.25
X13.5Y-2.25
X13.6Y-2.25
X13.7Y-2.25
X13.791Y-2.25
X13.8Y-1.15
X13.8Y-1.25
X13.8Y-1.35
X13.8Y-1.45
X13.8Y-1.55
X13.8Y-1.65
X13.8Y-1.75
X13.8Y-1.85
X13.8Y-1.95
X13.8Y-2.05
X13.8Y-2.15
T4
G00X13.5153Y-2.6661
M15
G01X13.4641Y-2.6661
M16
G05
G00X13.5153Y-3.107
M15
G01X13.4641Y-3.107
M16
G05
T0
M30
