G04 #@! TF.GenerationSoftware,KiCad,Pcbnew,(5.1.10)-1*
G04 #@! TF.CreationDate,2021-09-11T23:54:04-05:00*
G04 #@! TF.ProjectId,kintsugi,6b696e74-7375-4676-992e-6b696361645f,rev?*
G04 #@! TF.SameCoordinates,Original*
G04 #@! TF.FileFunction,Soldermask,Top*
G04 #@! TF.FilePolarity,Negative*
%FSLAX46Y46*%
G04 Gerber Fmt 4.6, Leading zero omitted, Abs format (unit mm)*
G04 Created by KiCad (PCBNEW (5.1.10)-1) date 2021-09-11 23:54:04*
%MOMM*%
%LPD*%
G01*
G04 APERTURE LIST*
%ADD10C,3.000000*%
%ADD11C,3.987800*%
%ADD12C,1.750000*%
%ADD13C,3.048000*%
%ADD14R,1.600000X1.600000*%
%ADD15C,1.600000*%
%ADD16O,1.700000X1.700000*%
%ADD17R,1.700000X1.700000*%
%ADD18R,1.752600X1.752600*%
%ADD19C,1.752600*%
%ADD20R,2.000000X2.000000*%
%ADD21C,2.000000*%
%ADD22R,3.200000X2.000000*%
G04 APERTURE END LIST*
D10*
X321627500Y-47307500D03*
D11*
X319087500Y-52387500D03*
D10*
X315277500Y-49847500D03*
D12*
X314007500Y-52387500D03*
X324167500Y-52387500D03*
D10*
X264477500Y-66357500D03*
D11*
X261937500Y-71437500D03*
D10*
X258127500Y-68897500D03*
D12*
X256857500Y-71437500D03*
X267017500Y-71437500D03*
D10*
X197802500Y-85407500D03*
D11*
X195262500Y-90487500D03*
D10*
X191452500Y-87947500D03*
D12*
X190182500Y-90487500D03*
X200342500Y-90487500D03*
D10*
X135890000Y-28257500D03*
D11*
X133350000Y-33337500D03*
D10*
X129540000Y-30797500D03*
D12*
X128270000Y-33337500D03*
X138430000Y-33337500D03*
X66992500Y-52387500D03*
X56832500Y-52387500D03*
D10*
X58102500Y-49847500D03*
D11*
X61912500Y-52387500D03*
D10*
X64452500Y-47307500D03*
X314483750Y-66357500D03*
D11*
X311943750Y-71437500D03*
D10*
X308133750Y-68897500D03*
D12*
X306863750Y-71437500D03*
X317023750Y-71437500D03*
D13*
X323881750Y-64452500D03*
X300005750Y-64452500D03*
D11*
X323881750Y-79692500D03*
X300005750Y-79692500D03*
D10*
X59690000Y-28257500D03*
D11*
X57150000Y-33337500D03*
D10*
X53340000Y-30797500D03*
D12*
X52070000Y-33337500D03*
X62230000Y-33337500D03*
X302736250Y-90487500D03*
X292576250Y-90487500D03*
D10*
X293846250Y-87947500D03*
D11*
X297656250Y-90487500D03*
D10*
X300196250Y-85407500D03*
D12*
X276542500Y-90487500D03*
X266382500Y-90487500D03*
D10*
X267652500Y-87947500D03*
D11*
X271462500Y-90487500D03*
D10*
X274002500Y-85407500D03*
D12*
X300355000Y-52387500D03*
X290195000Y-52387500D03*
D10*
X291465000Y-49847500D03*
D11*
X295275000Y-52387500D03*
D10*
X297815000Y-47307500D03*
D11*
X302387000Y-41592500D03*
X326263000Y-41592500D03*
D13*
X302387000Y-26352500D03*
X326263000Y-26352500D03*
D12*
X319405000Y-33337500D03*
X309245000Y-33337500D03*
D10*
X310515000Y-30797500D03*
D11*
X314325000Y-33337500D03*
D10*
X316865000Y-28257500D03*
D12*
X290830000Y-33337500D03*
X280670000Y-33337500D03*
D10*
X281940000Y-30797500D03*
D11*
X285750000Y-33337500D03*
D10*
X288290000Y-28257500D03*
D14*
X293621000Y-96266000D03*
D15*
X301421000Y-96266000D03*
D14*
X267372000Y-96266000D03*
D15*
X275172000Y-96266000D03*
D14*
X314997000Y-58166000D03*
D15*
X322797000Y-58166000D03*
D14*
X291248000Y-58166000D03*
D15*
X299048000Y-58166000D03*
D14*
X310298000Y-39116000D03*
D15*
X318098000Y-39116000D03*
D14*
X281810000Y-39116000D03*
D15*
X289610000Y-39116000D03*
D16*
X346710000Y-62611000D03*
X344170000Y-62611000D03*
X341630000Y-62611000D03*
D17*
X339090000Y-62611000D03*
D12*
X69373750Y-71437500D03*
X59213750Y-71437500D03*
D10*
X60483750Y-68897500D03*
D11*
X64293750Y-71437500D03*
D10*
X66833750Y-66357500D03*
D14*
X57862000Y-58166000D03*
D15*
X65662000Y-58166000D03*
D14*
X338873000Y-115316000D03*
D15*
X346673000Y-115316000D03*
D14*
X319823000Y-115316000D03*
D15*
X327623000Y-115316000D03*
D14*
X300773000Y-115316000D03*
D15*
X308573000Y-115316000D03*
D14*
X269785000Y-115316000D03*
D15*
X277585000Y-115316000D03*
D14*
X246036000Y-115316000D03*
D15*
X253836000Y-115316000D03*
D14*
X174535000Y-115316000D03*
D15*
X182335000Y-115316000D03*
D14*
X103161000Y-115316000D03*
D15*
X110961000Y-115316000D03*
D14*
X79412000Y-115316000D03*
D15*
X87212000Y-115316000D03*
D14*
X55536000Y-115316000D03*
D15*
X63336000Y-115316000D03*
D14*
X338873000Y-96266000D03*
D15*
X346673000Y-96266000D03*
D14*
X319823000Y-96266000D03*
D15*
X327623000Y-96266000D03*
D14*
X248322000Y-96266000D03*
D15*
X256122000Y-96266000D03*
D14*
X229399000Y-96266000D03*
D15*
X237199000Y-96266000D03*
D14*
X210349000Y-96266000D03*
D15*
X218149000Y-96266000D03*
X199099000Y-96266000D03*
D14*
X191299000Y-96266000D03*
X172249000Y-96266000D03*
D15*
X180049000Y-96266000D03*
D14*
X153199000Y-96266000D03*
D15*
X160999000Y-96266000D03*
D14*
X134149000Y-96266000D03*
D15*
X141949000Y-96266000D03*
D14*
X115099000Y-96266000D03*
D15*
X122899000Y-96266000D03*
D14*
X96049000Y-96266000D03*
D15*
X103849000Y-96266000D03*
D14*
X65061000Y-96266000D03*
D15*
X72861000Y-96266000D03*
D14*
X330200000Y-77179000D03*
D15*
X330200000Y-69379000D03*
D14*
X308012000Y-77216000D03*
D15*
X315812000Y-77216000D03*
D14*
X277024000Y-77216000D03*
D15*
X284824000Y-77216000D03*
D14*
X257974000Y-77216000D03*
D15*
X265774000Y-77216000D03*
D14*
X238924000Y-77216000D03*
D15*
X246724000Y-77216000D03*
D14*
X219874000Y-77216000D03*
D15*
X227674000Y-77216000D03*
D14*
X200824000Y-77216000D03*
D15*
X208624000Y-77216000D03*
D14*
X181774000Y-77216000D03*
D15*
X189574000Y-77216000D03*
D14*
X162721000Y-77216000D03*
D15*
X170521000Y-77216000D03*
D14*
X143674000Y-77216000D03*
D15*
X151474000Y-77216000D03*
D14*
X124624000Y-77216000D03*
D15*
X132424000Y-77216000D03*
D14*
X105574000Y-77216000D03*
D15*
X113374000Y-77216000D03*
D14*
X86484000Y-77216000D03*
D15*
X94284000Y-77216000D03*
X68035000Y-77216000D03*
D14*
X60235000Y-77216000D03*
X272238000Y-58166000D03*
D15*
X280038000Y-58166000D03*
D14*
X253145000Y-58166000D03*
D15*
X260945000Y-58166000D03*
X241895000Y-58166000D03*
D14*
X234095000Y-58166000D03*
X215088000Y-58166000D03*
D15*
X222888000Y-58166000D03*
D14*
X196038000Y-58166000D03*
D15*
X203838000Y-58166000D03*
D14*
X176988000Y-58166000D03*
D15*
X184788000Y-58166000D03*
D14*
X157938000Y-58166000D03*
D15*
X165738000Y-58166000D03*
D14*
X138888000Y-58166000D03*
D15*
X146688000Y-58166000D03*
D14*
X119838000Y-58166000D03*
D15*
X127638000Y-58166000D03*
D14*
X100748000Y-58166000D03*
D15*
X108548000Y-58166000D03*
D14*
X81735000Y-58166000D03*
D15*
X89535000Y-58166000D03*
D14*
X262713000Y-39116000D03*
D15*
X270513000Y-39116000D03*
D14*
X243623000Y-39116000D03*
D15*
X251423000Y-39116000D03*
D14*
X224570000Y-39116000D03*
D15*
X232370000Y-39116000D03*
D14*
X205563000Y-39116000D03*
D15*
X213363000Y-39116000D03*
D14*
X186473000Y-39116000D03*
D15*
X194273000Y-39116000D03*
D14*
X167420000Y-39116000D03*
D15*
X175220000Y-39116000D03*
D14*
X148373000Y-39116000D03*
D15*
X156173000Y-39116000D03*
D14*
X129363000Y-39116000D03*
D15*
X137163000Y-39116000D03*
D14*
X110313000Y-39116000D03*
D15*
X118113000Y-39116000D03*
D14*
X91263000Y-39116000D03*
D15*
X99063000Y-39116000D03*
D14*
X72173000Y-39116000D03*
D15*
X79973000Y-39116000D03*
X60920000Y-39116000D03*
D14*
X53120000Y-39116000D03*
D10*
X278765000Y-47307500D03*
D11*
X276225000Y-52387500D03*
D10*
X272415000Y-49847500D03*
D12*
X271145000Y-52387500D03*
X281305000Y-52387500D03*
D10*
X283527500Y-66357500D03*
D11*
X280987500Y-71437500D03*
D10*
X277177500Y-68897500D03*
D12*
X275907500Y-71437500D03*
X286067500Y-71437500D03*
D10*
X71596250Y-85407500D03*
D11*
X69056250Y-90487500D03*
D10*
X65246250Y-87947500D03*
D12*
X63976250Y-90487500D03*
X74136250Y-90487500D03*
D13*
X80994250Y-83502500D03*
X57118250Y-83502500D03*
D11*
X80994250Y-98742500D03*
X57118250Y-98742500D03*
D12*
X347980000Y-90487500D03*
X337820000Y-90487500D03*
D10*
X339090000Y-87947500D03*
D11*
X342900000Y-90487500D03*
D10*
X345440000Y-85407500D03*
X109696250Y-104457500D03*
D11*
X107156250Y-109537500D03*
D10*
X103346250Y-106997500D03*
D12*
X102076250Y-109537500D03*
X112236250Y-109537500D03*
D10*
X181133750Y-104457500D03*
D11*
X178593750Y-109537500D03*
D10*
X174783750Y-106997500D03*
D12*
X173513750Y-109537500D03*
X183673750Y-109537500D03*
D13*
X228593650Y-116522500D03*
X128593850Y-116522500D03*
D11*
X228593650Y-101282500D03*
X128593850Y-101282500D03*
D10*
X276383750Y-104457500D03*
D11*
X273843750Y-109537500D03*
D10*
X270033750Y-106997500D03*
D12*
X268763750Y-109537500D03*
X278923750Y-109537500D03*
D10*
X345440000Y-104457500D03*
D11*
X342900000Y-109537500D03*
D10*
X339090000Y-106997500D03*
D12*
X337820000Y-109537500D03*
X347980000Y-109537500D03*
D10*
X252571250Y-104457500D03*
D11*
X250031250Y-109537500D03*
D10*
X246221250Y-106997500D03*
D12*
X244951250Y-109537500D03*
X255111250Y-109537500D03*
D10*
X85883750Y-104457500D03*
D11*
X83343750Y-109537500D03*
D10*
X79533750Y-106997500D03*
D12*
X78263750Y-109537500D03*
X88423750Y-109537500D03*
D10*
X62071250Y-104457500D03*
D11*
X59531250Y-109537500D03*
D10*
X55721250Y-106997500D03*
D12*
X54451250Y-109537500D03*
X64611250Y-109537500D03*
D18*
X350520000Y-29210000D03*
D19*
X350520000Y-31750000D03*
X350520000Y-34290000D03*
X350520000Y-36830000D03*
X350520000Y-39370000D03*
X350520000Y-41910000D03*
X350520000Y-44450000D03*
X350520000Y-46990000D03*
X350520000Y-49530000D03*
X350520000Y-52070000D03*
X350520000Y-54610000D03*
X335280000Y-57150000D03*
X335280000Y-54610000D03*
X335280000Y-52070000D03*
X335280000Y-49530000D03*
X335280000Y-46990000D03*
X335280000Y-44450000D03*
X335280000Y-41910000D03*
X335280000Y-39370000D03*
X335280000Y-36830000D03*
X335280000Y-34290000D03*
X335280000Y-31750000D03*
X350291400Y-57150000D03*
X335280000Y-29210000D03*
X337820000Y-57150000D03*
X340360000Y-57150000D03*
X342900000Y-57150000D03*
X345440000Y-57150000D03*
X347980000Y-57150000D03*
D20*
X350139000Y-75819000D03*
D21*
X350139000Y-73319000D03*
X350139000Y-70819000D03*
D22*
X342639000Y-78919000D03*
X342639000Y-67719000D03*
D21*
X335639000Y-75819000D03*
X335639000Y-70819000D03*
D10*
X326390000Y-104457500D03*
D11*
X323850000Y-109537500D03*
D10*
X320040000Y-106997500D03*
D12*
X318770000Y-109537500D03*
X328930000Y-109537500D03*
D10*
X307340000Y-104457500D03*
D11*
X304800000Y-109537500D03*
D10*
X300990000Y-106997500D03*
D12*
X299720000Y-109537500D03*
X309880000Y-109537500D03*
D10*
X326390000Y-85407500D03*
D11*
X323850000Y-90487500D03*
D10*
X320040000Y-87947500D03*
D12*
X318770000Y-90487500D03*
X328930000Y-90487500D03*
D10*
X254952500Y-85407500D03*
D11*
X252412500Y-90487500D03*
D10*
X248602500Y-87947500D03*
D12*
X247332500Y-90487500D03*
X257492500Y-90487500D03*
D10*
X235902500Y-85407500D03*
D11*
X233362500Y-90487500D03*
D10*
X229552500Y-87947500D03*
D12*
X228282500Y-90487500D03*
X238442500Y-90487500D03*
D10*
X216852500Y-85407500D03*
D11*
X214312500Y-90487500D03*
D10*
X210502500Y-87947500D03*
D12*
X209232500Y-90487500D03*
X219392500Y-90487500D03*
D10*
X178752500Y-85407500D03*
D11*
X176212500Y-90487500D03*
D10*
X172402500Y-87947500D03*
D12*
X171132500Y-90487500D03*
X181292500Y-90487500D03*
D10*
X159702500Y-85407500D03*
D11*
X157162500Y-90487500D03*
D10*
X153352500Y-87947500D03*
D12*
X152082500Y-90487500D03*
X162242500Y-90487500D03*
D10*
X140652500Y-85407500D03*
D11*
X138112500Y-90487500D03*
D10*
X134302500Y-87947500D03*
D12*
X133032500Y-90487500D03*
X143192500Y-90487500D03*
D10*
X121602500Y-85407500D03*
D11*
X119062500Y-90487500D03*
D10*
X115252500Y-87947500D03*
D12*
X113982500Y-90487500D03*
X124142500Y-90487500D03*
D10*
X102552500Y-85407500D03*
D11*
X100012500Y-90487500D03*
D10*
X96202500Y-87947500D03*
D12*
X94932500Y-90487500D03*
X105092500Y-90487500D03*
D10*
X245427500Y-66357500D03*
D11*
X242887500Y-71437500D03*
D10*
X239077500Y-68897500D03*
D12*
X237807500Y-71437500D03*
X247967500Y-71437500D03*
D10*
X226377500Y-66357500D03*
D11*
X223837500Y-71437500D03*
D10*
X220027500Y-68897500D03*
D12*
X218757500Y-71437500D03*
X228917500Y-71437500D03*
D10*
X207327500Y-66357500D03*
D11*
X204787500Y-71437500D03*
D10*
X200977500Y-68897500D03*
D12*
X199707500Y-71437500D03*
X209867500Y-71437500D03*
X190817500Y-71437500D03*
X180657500Y-71437500D03*
D10*
X181927500Y-68897500D03*
D11*
X185737500Y-71437500D03*
D10*
X188277500Y-66357500D03*
X169227500Y-66357500D03*
D11*
X166687500Y-71437500D03*
D10*
X162877500Y-68897500D03*
D12*
X161607500Y-71437500D03*
X171767500Y-71437500D03*
D10*
X150177500Y-66357500D03*
D11*
X147637500Y-71437500D03*
D10*
X143827500Y-68897500D03*
D12*
X142557500Y-71437500D03*
X152717500Y-71437500D03*
D10*
X131127500Y-66357500D03*
D11*
X128587500Y-71437500D03*
D10*
X124777500Y-68897500D03*
D12*
X123507500Y-71437500D03*
X133667500Y-71437500D03*
D10*
X112077500Y-66357500D03*
D11*
X109537500Y-71437500D03*
D10*
X105727500Y-68897500D03*
D12*
X104457500Y-71437500D03*
X114617500Y-71437500D03*
D10*
X93027500Y-66357500D03*
D11*
X90487500Y-71437500D03*
D10*
X86677500Y-68897500D03*
D12*
X85407500Y-71437500D03*
X95567500Y-71437500D03*
D10*
X259715000Y-47307500D03*
D11*
X257175000Y-52387500D03*
D10*
X253365000Y-49847500D03*
D12*
X252095000Y-52387500D03*
X262255000Y-52387500D03*
D10*
X240665000Y-47307500D03*
D11*
X238125000Y-52387500D03*
D10*
X234315000Y-49847500D03*
D12*
X233045000Y-52387500D03*
X243205000Y-52387500D03*
D10*
X221615000Y-47307500D03*
D11*
X219075000Y-52387500D03*
D10*
X215265000Y-49847500D03*
D12*
X213995000Y-52387500D03*
X224155000Y-52387500D03*
D10*
X202565000Y-47307500D03*
D11*
X200025000Y-52387500D03*
D10*
X196215000Y-49847500D03*
D12*
X194945000Y-52387500D03*
X205105000Y-52387500D03*
D10*
X183515000Y-47307500D03*
D11*
X180975000Y-52387500D03*
D10*
X177165000Y-49847500D03*
D12*
X175895000Y-52387500D03*
X186055000Y-52387500D03*
D10*
X164465000Y-47307500D03*
D11*
X161925000Y-52387500D03*
D10*
X158115000Y-49847500D03*
D12*
X156845000Y-52387500D03*
X167005000Y-52387500D03*
D10*
X145415000Y-47307500D03*
D11*
X142875000Y-52387500D03*
D10*
X139065000Y-49847500D03*
D12*
X137795000Y-52387500D03*
X147955000Y-52387500D03*
D10*
X126365000Y-47307500D03*
D11*
X123825000Y-52387500D03*
D10*
X120015000Y-49847500D03*
D12*
X118745000Y-52387500D03*
X128905000Y-52387500D03*
D10*
X107315000Y-47307500D03*
D11*
X104775000Y-52387500D03*
D10*
X100965000Y-49847500D03*
D12*
X99695000Y-52387500D03*
X109855000Y-52387500D03*
D10*
X88265000Y-47307500D03*
D11*
X85725000Y-52387500D03*
D10*
X81915000Y-49847500D03*
D12*
X80645000Y-52387500D03*
X90805000Y-52387500D03*
D10*
X269240000Y-28257500D03*
D11*
X266700000Y-33337500D03*
D10*
X262890000Y-30797500D03*
D12*
X261620000Y-33337500D03*
X271780000Y-33337500D03*
D10*
X250190000Y-28257500D03*
D11*
X247650000Y-33337500D03*
D10*
X243840000Y-30797500D03*
D12*
X242570000Y-33337500D03*
X252730000Y-33337500D03*
D10*
X231140000Y-28257500D03*
D11*
X228600000Y-33337500D03*
D10*
X224790000Y-30797500D03*
D12*
X223520000Y-33337500D03*
X233680000Y-33337500D03*
D10*
X212090000Y-28257500D03*
D11*
X209550000Y-33337500D03*
D10*
X205740000Y-30797500D03*
D12*
X204470000Y-33337500D03*
X214630000Y-33337500D03*
D10*
X193040000Y-28257500D03*
D11*
X190500000Y-33337500D03*
D10*
X186690000Y-30797500D03*
D12*
X185420000Y-33337500D03*
X195580000Y-33337500D03*
D10*
X173990000Y-28257500D03*
D11*
X171450000Y-33337500D03*
D10*
X167640000Y-30797500D03*
D12*
X166370000Y-33337500D03*
X176530000Y-33337500D03*
D10*
X154940000Y-28257500D03*
D11*
X152400000Y-33337500D03*
D10*
X148590000Y-30797500D03*
D12*
X147320000Y-33337500D03*
X157480000Y-33337500D03*
D10*
X116840000Y-28257500D03*
D11*
X114300000Y-33337500D03*
D10*
X110490000Y-30797500D03*
D12*
X109220000Y-33337500D03*
X119380000Y-33337500D03*
D10*
X97790000Y-28257500D03*
D11*
X95250000Y-33337500D03*
D10*
X91440000Y-30797500D03*
D12*
X90170000Y-33337500D03*
X100330000Y-33337500D03*
D10*
X78740000Y-28257500D03*
D11*
X76200000Y-33337500D03*
D10*
X72390000Y-30797500D03*
D12*
X71120000Y-33337500D03*
X81280000Y-33337500D03*
M02*
