  0
SECTION
  2
HEADER
  9
$ANGBASE
  50
0.0
  9
$ANGDIR
  70
1
  9
$MEASUREMENT
  70
1
  0
ENDSEC
  0
SECTION
  2
TABLES
  0
TABLE
  2
LTYPE
  70
4
  0
LTYPE
  5
40F
  2
CONTINUOUS
  70
0
  3
Solid line
  72
65
  73
0
  40
0.0
  0
LTYPE
  5
410
  2
DASHDOT
 70
0
  3
Dash Dot ____ _ ____ _
 72
65
 73
4
 40
2.0
 49
1.25
 49
-0.25
 49
0.25
 49
-0.25
  0
LTYPE
  5
411
  2
DASHED
 70
0
  3
Dashed __ __ __ __ __
 72
65
 73
2
 40
0.75
 49
0.5
 49
-0.25
  0
LTYPE
  5
43B
  2
DOTTED
 70
0
  3
Dotted .  .  .  .
 72
65
 73
2
 40
0.2
 49
0.0
 49
-0.2
  0
ENDTAB
  0
TABLE
  2
STYLE
  70
4
  0
STYLE
  2
KICAD
  70
0
  40
0
  41
1
  42
1
  50
0
  71
0
  3
isocp.shx
  0
STYLE
  2
KICADB
  70
0
  40
0
  41
1
  42
1
  50
0
  71
0
  3
isocp.shx
  0
STYLE
  2
KICADI
  70
0
  40
0
  41
1
  42
1
  50
15
  71
0
  3
isocp.shx
  0
STYLE
  2
KICADBI
  70
0
  40
0
  41
1
  42
1
  50
15
  71
0
  3
isocp.shx
  0
ENDTAB
  0
TABLE
  2
LAYER
  70
1
  0
LAYER
  2
BLACK
  70
0
  62
7
  6
CONTINUOUS
  0
ENDTAB
  0
ENDSEC
  0
SECTION
  2
ENTITIES
0
LINE
8
BLACK
6
CONTINUOUS
10
48.4163
20
-119.087
11
48.4163
21
-119.087
0
LINE
8
BLACK
6
CONTINUOUS
10
48.4163
20
-119.087
11
47.9538
21
-119.042
0
LINE
8
BLACK
6
CONTINUOUS
10
47.9538
20
-119.042
11
47.9534
21
-119.042
0
LINE
8
BLACK
6
CONTINUOUS
10
47.9534
20
-119.042
11
47.9512
21
-119.042
0
LINE
8
BLACK
6
CONTINUOUS
10
47.9512
20
-119.042
11
47.949
21
-119.041
0
LINE
8
BLACK
6
CONTINUOUS
10
47.949
20
-119.041
11
47.5041
21
-118.907
0
LINE
8
BLACK
6
CONTINUOUS
10
47.5041
20
-118.907
11
47.5038
21
-118.907
0
LINE
8
BLACK
6
CONTINUOUS
10
47.5038
20
-118.907
11
47.5017
21
-118.906
0
LINE
8
BLACK
6
CONTINUOUS
10
47.5017
20
-118.906
11
47.4996
21
-118.905
0
LINE
8
BLACK
6
CONTINUOUS
10
47.4996
20
-118.905
11
47.0892
21
-118.687
0
LINE
8
BLACK
6
CONTINUOUS
10
47.0892
20
-118.687
11
47.0889
21
-118.687
0
LINE
8
BLACK
6
CONTINUOUS
10
47.0889
20
-118.687
11
47.0871
21
-118.685
0
LINE
8
BLACK
6
CONTINUOUS
10
47.0871
20
-118.685
11
47.0852
21
-118.684
0
LINE
8
BLACK
6
CONTINUOUS
10
47.0852
20
-118.684
11
46.725
21
-118.39
0
LINE
8
BLACK
6
CONTINUOUS
10
46.725
20
-118.39
11
46.7248
21
-118.39
0
LINE
8
BLACK
6
CONTINUOUS
10
46.7248
20
-118.39
11
46.7232
21
-118.388
0
LINE
8
BLACK
6
CONTINUOUS
10
46.7232
20
-118.388
11
46.7216
21
-118.387
0
LINE
8
BLACK
6
CONTINUOUS
10
46.7216
20
-118.387
11
46.4253
21
-118.029
0
LINE
8
BLACK
6
CONTINUOUS
10
46.4253
20
-118.029
11
46.4251
21
-118.028
0
LINE
8
BLACK
6
CONTINUOUS
10
46.4251
20
-118.028
11
46.4239
21
-118.027
0
LINE
8
BLACK
6
CONTINUOUS
10
46.4239
20
-118.027
11
46.4226
21
-118.025
0
LINE
8
BLACK
6
CONTINUOUS
10
46.4226
20
-118.025
11
46.2016
21
-117.616
0
LINE
8
BLACK
6
CONTINUOUS
10
46.2016
20
-117.616
11
46.2014
21
-117.616
0
LINE
8
BLACK
6
CONTINUOUS
10
46.2014
20
-117.616
11
46.2006
21
-117.614
0
LINE
8
BLACK
6
CONTINUOUS
10
46.2006
20
-117.614
11
46.1997
21
-117.611
0
LINE
8
BLACK
6
CONTINUOUS
10
46.1997
20
-117.611
11
46.0623
21
-117.167
0
LINE
8
BLACK
6
CONTINUOUS
10
46.0623
20
-117.167
11
46.0622
21
-117.167
0
LINE
8
BLACK
6
CONTINUOUS
10
46.0622
20
-117.167
11
46.0617
21
-117.165
0
LINE
8
BLACK
6
CONTINUOUS
10
46.0617
20
-117.165
11
46.0613
21
-117.163
0
LINE
8
BLACK
6
CONTINUOUS
10
46.0613
20
-117.163
11
46.0127
21
-116.7
0
LINE
8
BLACK
6
CONTINUOUS
10
46.0127
20
-116.7
11
46.0127
21
-116.7
0
LINE
8
BLACK
6
CONTINUOUS
10
46.0127
20
-116.7
11
46.0127
21
-116.699
0
LINE
8
BLACK
6
CONTINUOUS
10
46.0127
20
-116.699
11
46.0126
21
-116.698
0
LINE
8
BLACK
6
CONTINUOUS
10
46.0126
20
-116.698
11
46.0125
21
-116.683
0
LINE
8
BLACK
6
CONTINUOUS
10
46.0125
20
-116.683
11
46.0125
21
-116.682
0
LINE
8
BLACK
6
CONTINUOUS
10
46.0125
20
-116.682
11
46.0125
21
-26.1925
0
LINE
8
BLACK
6
CONTINUOUS
10
46.0125
20
-26.1925
11
46.0126
21
-26.1913
0
LINE
8
BLACK
6
CONTINUOUS
10
46.0126
20
-26.1913
11
46.0126
21
-26.1913
0
LINE
8
BLACK
6
CONTINUOUS
10
46.0126
20
-26.1913
11
46.058
21
-25.7288
0
LINE
8
BLACK
6
CONTINUOUS
10
46.058
20
-25.7288
11
46.058
21
-25.7284
0
LINE
8
BLACK
6
CONTINUOUS
10
46.058
20
-25.7284
11
46.0585
21
-25.7262
0
LINE
8
BLACK
6
CONTINUOUS
10
46.0585
20
-25.7262
11
46.0589
21
-25.724
0
LINE
8
BLACK
6
CONTINUOUS
10
46.0589
20
-25.724
11
46.1932
21
-25.2791
0
LINE
8
BLACK
6
CONTINUOUS
10
46.1932
20
-25.2791
11
46.1933
21
-25.2788
0
LINE
8
BLACK
6
CONTINUOUS
10
46.1933
20
-25.2788
11
46.1942
21
-25.2767
0
LINE
8
BLACK
6
CONTINUOUS
10
46.1942
20
-25.2767
11
46.1951
21
-25.2746
0
LINE
8
BLACK
6
CONTINUOUS
10
46.1951
20
-25.2746
11
46.4133
21
-24.8642
0
LINE
8
BLACK
6
CONTINUOUS
10
46.4133
20
-24.8642
11
46.4133
21
-24.8642
0
LINE
8
BLACK
6
CONTINUOUS
10
46.4133
20
-24.8642
11
46.4133
21
-24.8642
0
LINE
8
BLACK
6
CONTINUOUS
10
46.4133
20
-24.8642
11
46.4134
21
-24.8639
0
LINE
8
BLACK
6
CONTINUOUS
10
46.4134
20
-24.8639
11
46.4147
21
-24.8621
0
LINE
8
BLACK
6
CONTINUOUS
10
46.4147
20
-24.8621
11
46.416
21
-24.8602
0
LINE
8
BLACK
6
CONTINUOUS
10
46.416
20
-24.8602
11
46.7097
21
-24.5
0
LINE
8
BLACK
6
CONTINUOUS
10
46.7097
20
-24.5
11
46.7097
21
-24.5
0
LINE
8
BLACK
6
CONTINUOUS
10
46.7097
20
-24.5
11
46.7097
21
-24.5
0
LINE
8
BLACK
6
CONTINUOUS
10
46.7097
20
-24.5
11
46.7099
21
-24.4998
0
LINE
8
BLACK
6
CONTINUOUS
10
46.7099
20
-24.4998
11
46.7115
21
-24.4982
0
LINE
8
BLACK
6
CONTINUOUS
10
46.7115
20
-24.4982
11
46.7131
21
-24.4966
0
LINE
8
BLACK
6
CONTINUOUS
10
46.7131
20
-24.4966
11
47.0712
21
-24.2003
0
LINE
8
BLACK
6
CONTINUOUS
10
47.0712
20
-24.2003
11
47.0712
21
-24.2003
0
LINE
8
BLACK
6
CONTINUOUS
10
47.0712
20
-24.2003
11
47.0712
21
-24.2003
0
LINE
8
BLACK
6
CONTINUOUS
10
47.0712
20
-24.2003
11
47.0715
21
-24.2001
0
LINE
8
BLACK
6
CONTINUOUS
10
47.0715
20
-24.2001
11
47.0734
21
-24.1989
0
LINE
8
BLACK
6
CONTINUOUS
10
47.0734
20
-24.1989
11
47.0753
21
-24.1976
0
LINE
8
BLACK
6
CONTINUOUS
10
47.0753
20
-24.1976
11
47.4841
21
-23.9766
0
LINE
8
BLACK
6
CONTINUOUS
10
47.4841
20
-23.9766
11
47.4844
21
-23.9764
0
LINE
8
BLACK
6
CONTINUOUS
10
47.4844
20
-23.9764
11
47.4865
21
-23.9756
0
LINE
8
BLACK
6
CONTINUOUS
10
47.4865
20
-23.9756
11
47.4886
21
-23.9747
0
LINE
8
BLACK
6
CONTINUOUS
10
47.4886
20
-23.9747
11
47.9325
21
-23.8373
0
LINE
8
BLACK
6
CONTINUOUS
10
47.9325
20
-23.8373
11
47.9329
21
-23.8372
0
LINE
8
BLACK
6
CONTINUOUS
10
47.9329
20
-23.8372
11
47.9351
21
-23.8367
0
LINE
8
BLACK
6
CONTINUOUS
10
47.9351
20
-23.8367
11
47.9373
21
-23.8363
0
LINE
8
BLACK
6
CONTINUOUS
10
47.9373
20
-23.8363
11
48.3995
21
-23.7877
0
LINE
8
BLACK
6
CONTINUOUS
10
48.3995
20
-23.7877
11
48.3999
21
-23.7877
0
LINE
8
BLACK
6
CONTINUOUS
10
48.3999
20
-23.7877
11
48.401
21
-23.7877
0
LINE
8
BLACK
6
CONTINUOUS
10
48.401
20
-23.7877
11
48.402
21
-23.7876
0
LINE
8
BLACK
6
CONTINUOUS
10
48.402
20
-23.7876
11
48.4175
21
-23.7875
0
LINE
8
BLACK
6
CONTINUOUS
10
48.4175
20
-23.7875
11
48.4175
21
-23.7875
0
LINE
8
BLACK
6
CONTINUOUS
10
48.4175
20
-23.7875
11
351.632
21
-23.7875
0
LINE
8
BLACK
6
CONTINUOUS
10
351.632
20
-23.7875
11
351.634
21
-23.7876
0
LINE
8
BLACK
6
CONTINUOUS
10
351.634
20
-23.7876
11
351.634
21
-23.7876
0
LINE
8
BLACK
6
CONTINUOUS
10
351.634
20
-23.7876
11
352.096
21
-23.833
0
LINE
8
BLACK
6
CONTINUOUS
10
352.096
20
-23.833
11
352.097
21
-23.833
0
LINE
8
BLACK
6
CONTINUOUS
10
352.097
20
-23.833
11
352.099
21
-23.8335
0
LINE
8
BLACK
6
CONTINUOUS
10
352.099
20
-23.8335
11
352.101
21
-23.8339
0
LINE
8
BLACK
6
CONTINUOUS
10
352.101
20
-23.8339
11
352.546
21
-23.9682
0
LINE
8
BLACK
6
CONTINUOUS
10
352.546
20
-23.9682
11
352.546
21
-23.9683
0
LINE
8
BLACK
6
CONTINUOUS
10
352.546
20
-23.9683
11
352.548
21
-23.9692
0
LINE
8
BLACK
6
CONTINUOUS
10
352.548
20
-23.9692
11
352.55
21
-23.9701
0
LINE
8
BLACK
6
CONTINUOUS
10
352.55
20
-23.9701
11
352.961
21
-24.1883
0
LINE
8
BLACK
6
CONTINUOUS
10
352.961
20
-24.1883
11
352.961
21
-24.1883
0
LINE
8
BLACK
6
CONTINUOUS
10
352.961
20
-24.1883
11
352.961
21
-24.1883
0
LINE
8
BLACK
6
CONTINUOUS
10
352.961
20
-24.1883
11
352.961
21
-24.1884
0
LINE
8
BLACK
6
CONTINUOUS
10
352.961
20
-24.1884
11
352.963
21
-24.1897
0
LINE
8
BLACK
6
CONTINUOUS
10
352.963
20
-24.1897
11
352.965
21
-24.191
0
LINE
8
BLACK
6
CONTINUOUS
10
352.965
20
-24.191
11
353.325
21
-24.4847
0
LINE
8
BLACK
6
CONTINUOUS
10
353.325
20
-24.4847
11
353.325
21
-24.4847
0
LINE
8
BLACK
6
CONTINUOUS
10
353.325
20
-24.4847
11
353.325
21
-24.4847
0
LINE
8
BLACK
6
CONTINUOUS
10
353.325
20
-24.4847
11
353.325
21
-24.4849
0
LINE
8
BLACK
6
CONTINUOUS
10
353.325
20
-24.4849
11
353.327
21
-24.4865
0
LINE
8
BLACK
6
CONTINUOUS
10
353.327
20
-24.4865
11
353.328
21
-24.4881
0
LINE
8
BLACK
6
CONTINUOUS
10
353.328
20
-24.4881
11
353.625
21
-24.8462
0
LINE
8
BLACK
6
CONTINUOUS
10
353.625
20
-24.8462
11
353.625
21
-24.8462
0
LINE
8
BLACK
6
CONTINUOUS
10
353.625
20
-24.8462
11
353.625
21
-24.8462
0
LINE
8
BLACK
6
CONTINUOUS
10
353.625
20
-24.8462
11
353.625
21
-24.8465
0
LINE
8
BLACK
6
CONTINUOUS
10
353.625
20
-24.8465
11
353.626
21
-24.8484
0
LINE
8
BLACK
6
CONTINUOUS
10
353.626
20
-24.8484
11
353.627
21
-24.8503
0
LINE
8
BLACK
6
CONTINUOUS
10
353.627
20
-24.8503
11
353.848
21
-25.2591
0
LINE
8
BLACK
6
CONTINUOUS
10
353.848
20
-25.2591
11
353.849
21
-25.2594
0
LINE
8
BLACK
6
CONTINUOUS
10
353.849
20
-25.2594
11
353.849
21
-25.2615
0
LINE
8
BLACK
6
CONTINUOUS
10
353.849
20
-25.2615
11
353.85
21
-25.2636
0
LINE
8
BLACK
6
CONTINUOUS
10
353.85
20
-25.2636
11
353.988
21
-25.7075
0
LINE
8
BLACK
6
CONTINUOUS
10
353.988
20
-25.7075
11
353.988
21
-25.7079
0
LINE
8
BLACK
6
CONTINUOUS
10
353.988
20
-25.7079
11
353.988
21
-25.7101
0
LINE
8
BLACK
6
CONTINUOUS
10
353.988
20
-25.7101
11
353.989
21
-25.7123
0
LINE
8
BLACK
6
CONTINUOUS
10
353.989
20
-25.7123
11
354.037
21
-26.1745
0
LINE
8
BLACK
6
CONTINUOUS
10
354.037
20
-26.1745
11
354.037
21
-26.1749
0
LINE
8
BLACK
6
CONTINUOUS
10
354.037
20
-26.1749
11
354.037
21
-26.176
0
LINE
8
BLACK
6
CONTINUOUS
10
354.037
20
-26.176
11
354.037
21
-26.177
0
LINE
8
BLACK
6
CONTINUOUS
10
354.037
20
-26.177
11
354.037
21
-26.1925
0
LINE
8
BLACK
6
CONTINUOUS
10
354.037
20
-26.1925
11
354.037
21
-26.1925
0
LINE
8
BLACK
6
CONTINUOUS
10
354.037
20
-26.1925
11
354.037
21
-116.682
0
LINE
8
BLACK
6
CONTINUOUS
10
354.037
20
-116.682
11
354.037
21
-116.684
0
LINE
8
BLACK
6
CONTINUOUS
10
354.037
20
-116.684
11
354.037
21
-116.684
0
LINE
8
BLACK
6
CONTINUOUS
10
354.037
20
-116.684
11
353.992
21
-117.146
0
LINE
8
BLACK
6
CONTINUOUS
10
353.992
20
-117.146
11
353.992
21
-117.147
0
LINE
8
BLACK
6
CONTINUOUS
10
353.992
20
-117.147
11
353.992
21
-117.149
0
LINE
8
BLACK
6
CONTINUOUS
10
353.992
20
-117.149
11
353.991
21
-117.151
0
LINE
8
BLACK
6
CONTINUOUS
10
353.991
20
-117.151
11
353.857
21
-117.596
0
LINE
8
BLACK
6
CONTINUOUS
10
353.857
20
-117.596
11
353.857
21
-117.596
0
LINE
8
BLACK
6
CONTINUOUS
10
353.857
20
-117.596
11
353.856
21
-117.598
0
LINE
8
BLACK
6
CONTINUOUS
10
353.856
20
-117.598
11
353.855
21
-117.6
0
LINE
8
BLACK
6
CONTINUOUS
10
353.855
20
-117.6
11
353.637
21
-118.011
0
LINE
8
BLACK
6
CONTINUOUS
10
353.637
20
-118.011
11
353.637
21
-118.011
0
LINE
8
BLACK
6
CONTINUOUS
10
353.637
20
-118.011
11
353.635
21
-118.013
0
LINE
8
BLACK
6
CONTINUOUS
10
353.635
20
-118.013
11
353.634
21
-118.015
0
LINE
8
BLACK
6
CONTINUOUS
10
353.634
20
-118.015
11
353.34
21
-118.375
0
LINE
8
BLACK
6
CONTINUOUS
10
353.34
20
-118.375
11
353.34
21
-118.375
0
LINE
8
BLACK
6
CONTINUOUS
10
353.34
20
-118.375
11
353.338
21
-118.377
0
LINE
8
BLACK
6
CONTINUOUS
10
353.338
20
-118.377
11
353.337
21
-118.378
0
LINE
8
BLACK
6
CONTINUOUS
10
353.337
20
-118.378
11
352.979
21
-118.675
0
LINE
8
BLACK
6
CONTINUOUS
10
352.979
20
-118.675
11
352.978
21
-118.675
0
LINE
8
BLACK
6
CONTINUOUS
10
352.978
20
-118.675
11
352.977
21
-118.676
0
LINE
8
BLACK
6
CONTINUOUS
10
352.977
20
-118.676
11
352.975
21
-118.677
0
LINE
8
BLACK
6
CONTINUOUS
10
352.975
20
-118.677
11
352.566
21
-118.898
0
LINE
8
BLACK
6
CONTINUOUS
10
352.566
20
-118.898
11
352.566
21
-118.899
0
LINE
8
BLACK
6
CONTINUOUS
10
352.566
20
-118.899
11
352.564
21
-118.899
0
LINE
8
BLACK
6
CONTINUOUS
10
352.564
20
-118.899
11
352.561
21
-118.9
0
LINE
8
BLACK
6
CONTINUOUS
10
352.561
20
-118.9
11
352.117
21
-119.038
0
LINE
8
BLACK
6
CONTINUOUS
10
352.117
20
-119.038
11
352.117
21
-119.038
0
LINE
8
BLACK
6
CONTINUOUS
10
352.117
20
-119.038
11
352.115
21
-119.038
0
LINE
8
BLACK
6
CONTINUOUS
10
352.115
20
-119.038
11
352.113
21
-119.039
0
LINE
8
BLACK
6
CONTINUOUS
10
352.113
20
-119.039
11
351.65
21
-119.087
0
LINE
8
BLACK
6
CONTINUOUS
10
351.65
20
-119.087
11
351.65
21
-119.087
0
LINE
8
BLACK
6
CONTINUOUS
10
351.65
20
-119.087
11
351.649
21
-119.087
0
LINE
8
BLACK
6
CONTINUOUS
10
351.649
20
-119.087
11
351.648
21
-119.087
0
LINE
8
BLACK
6
CONTINUOUS
10
351.648
20
-119.087
11
351.633
21
-119.087
0
LINE
8
BLACK
6
CONTINUOUS
10
351.633
20
-119.087
11
351.632
21
-119.087
0
LINE
8
BLACK
6
CONTINUOUS
10
351.632
20
-119.087
11
48.4175
21
-119.087
0
LINE
8
BLACK
6
CONTINUOUS
10
48.4175
20
-119.087
11
48.4163
21
-119.087
0
LINE
8
BLACK
6
CONTINUOUS
10
48.4035
20
-23.8376
11
47.945
21
-23.8857
0
LINE
8
BLACK
6
CONTINUOUS
10
47.945
20
-23.8857
11
47.5057
21
-24.0217
0
LINE
8
BLACK
6
CONTINUOUS
10
47.5057
20
-24.0217
11
47.1012
21
-24.2404
0
LINE
8
BLACK
6
CONTINUOUS
10
47.1012
20
-24.2404
11
46.7469
21
-24.5335
0
LINE
8
BLACK
6
CONTINUOUS
10
46.7469
20
-24.5335
11
46.4563
21
-24.8899
0
LINE
8
BLACK
6
CONTINUOUS
10
46.4563
20
-24.8899
11
46.2404
21
-25.2959
0
LINE
8
BLACK
6
CONTINUOUS
10
46.2404
20
-25.2959
11
46.1075
21
-25.7361
0
LINE
8
BLACK
6
CONTINUOUS
10
46.1075
20
-25.7361
11
46.0625
21
-26.195
0
LINE
8
BLACK
6
CONTINUOUS
10
46.0625
20
-26.195
11
46.0625
21
-116.681
0
LINE
8
BLACK
6
CONTINUOUS
10
46.0625
20
-116.681
11
46.0626
21
-116.697
0
LINE
8
BLACK
6
CONTINUOUS
10
46.0626
20
-116.697
11
46.1107
21
-117.155
0
LINE
8
BLACK
6
CONTINUOUS
10
46.1107
20
-117.155
11
46.2467
21
-117.594
0
LINE
8
BLACK
6
CONTINUOUS
10
46.2467
20
-117.594
11
46.4654
21
-117.999
0
LINE
8
BLACK
6
CONTINUOUS
10
46.4654
20
-117.999
11
46.7585
21
-118.353
0
LINE
8
BLACK
6
CONTINUOUS
10
46.7585
20
-118.353
11
47.1149
21
-118.644
0
LINE
8
BLACK
6
CONTINUOUS
10
47.1149
20
-118.644
11
47.5209
21
-118.86
0
LINE
8
BLACK
6
CONTINUOUS
10
47.5209
20
-118.86
11
47.9611
21
-118.993
0
LINE
8
BLACK
6
CONTINUOUS
10
47.9611
20
-118.993
11
48.42
21
-119.037
0
LINE
8
BLACK
6
CONTINUOUS
10
48.42
20
-119.037
11
351.631
21
-119.037
0
LINE
8
BLACK
6
CONTINUOUS
10
351.631
20
-119.037
11
351.647
21
-119.037
0
LINE
8
BLACK
6
CONTINUOUS
10
351.647
20
-119.037
11
352.105
21
-118.989
0
LINE
8
BLACK
6
CONTINUOUS
10
352.105
20
-118.989
11
352.544
21
-118.853
0
LINE
8
BLACK
6
CONTINUOUS
10
352.544
20
-118.853
11
352.949
21
-118.635
0
LINE
8
BLACK
6
CONTINUOUS
10
352.949
20
-118.635
11
353.303
21
-118.341
0
LINE
8
BLACK
6
CONTINUOUS
10
353.303
20
-118.341
11
353.594
21
-117.985
0
LINE
8
BLACK
6
CONTINUOUS
10
353.594
20
-117.985
11
353.81
21
-117.579
0
LINE
8
BLACK
6
CONTINUOUS
10
353.81
20
-117.579
11
353.943
21
-117.139
0
LINE
8
BLACK
6
CONTINUOUS
10
353.943
20
-117.139
11
353.988
21
-116.68
0
LINE
8
BLACK
6
CONTINUOUS
10
353.988
20
-116.68
11
353.988
21
-26.1938
0
LINE
8
BLACK
6
CONTINUOUS
10
353.988
20
-26.1938
11
353.988
21
-26.1938
0
LINE
8
BLACK
6
CONTINUOUS
10
353.988
20
-26.1938
11
353.987
21
-26.1785
0
LINE
8
BLACK
6
CONTINUOUS
10
353.987
20
-26.1785
11
353.939
21
-25.72
0
LINE
8
BLACK
6
CONTINUOUS
10
353.939
20
-25.72
11
353.803
21
-25.2807
0
LINE
8
BLACK
6
CONTINUOUS
10
353.803
20
-25.2807
11
353.585
21
-24.8762
0
LINE
8
BLACK
6
CONTINUOUS
10
353.585
20
-24.8762
11
353.291
21
-24.5219
0
LINE
8
BLACK
6
CONTINUOUS
10
353.291
20
-24.5219
11
352.935
21
-24.2313
0
LINE
8
BLACK
6
CONTINUOUS
10
352.935
20
-24.2313
11
352.529
21
-24.0154
0
LINE
8
BLACK
6
CONTINUOUS
10
352.529
20
-24.0154
11
352.089
21
-23.8825
0
LINE
8
BLACK
6
CONTINUOUS
10
352.089
20
-23.8825
11
351.63
21
-23.8375
0
LINE
8
BLACK
6
CONTINUOUS
10
351.63
20
-23.8375
11
48.4188
21
-23.8375
0
LINE
8
BLACK
6
CONTINUOUS
10
48.4188
20
-23.8375
11
48.4035
21
-23.8376
  0
ENDSEC
  0
EOF
