  0
SECTION
  2
HEADER
  9
$ANGBASE
  50
0.0
  9
$ANGDIR
  70
1
  9
$MEASUREMENT
  70
1
  0
ENDSEC
  0
SECTION
  2
TABLES
  0
TABLE
  2
LTYPE
  70
4
  0
LTYPE
  5
40F
  2
CONTINUOUS
  70
0
  3
Solid line
  72
65
  73
0
  40
0.0
  0
LTYPE
  5
410
  2
DASHDOT
 70
0
  3
Dash Dot ____ _ ____ _
 72
65
 73
4
 40
2.0
 49
1.25
 49
-0.25
 49
0.25
 49
-0.25
  0
LTYPE
  5
411
  2
DASHED
 70
0
  3
Dashed __ __ __ __ __
 72
65
 73
2
 40
0.75
 49
0.5
 49
-0.25
  0
LTYPE
  5
43B
  2
DOTTED
 70
0
  3
Dotted .  .  .  .
 72
65
 73
2
 40
0.2
 49
0.0
 49
-0.2
  0
ENDTAB
  0
TABLE
  2
STYLE
  70
4
  0
STYLE
  2
KICAD
  70
0
  40
0
  41
1
  42
1
  50
0
  71
0
  3
isocp.shx
  0
STYLE
  2
KICADB
  70
0
  40
0
  41
1
  42
1
  50
0
  71
0
  3
isocp.shx
  0
STYLE
  2
KICADI
  70
0
  40
0
  41
1
  42
1
  50
15
  71
0
  3
isocp.shx
  0
STYLE
  2
KICADBI
  70
0
  40
0
  41
1
  42
1
  50
15
  71
0
  3
isocp.shx
  0
ENDTAB
  0
TABLE
  2
LAYER
  70
1
  0
LAYER
  2
BLACK
  70
0
  62
7
  6
CONTINUOUS
  0
ENDTAB
  0
ENDSEC
  0
SECTION
  2
ENTITIES
0
LINE
8
BLACK
6
CONTINUOUS
10
82.712
20
-115.916
11
81.112
21
-115.916
0
LINE
8
BLACK
6
CONTINUOUS
10
81.112
20
-115.916
11
81.112
21
-114.716
0
LINE
8
BLACK
6
CONTINUOUS
10
81.112
20
-114.716
11
82.712
21
-114.716
0
LINE
8
BLACK
6
CONTINUOUS
10
82.712
20
-114.716
11
82.712
21
-115.916
0
LINE
8
BLACK
6
CONTINUOUS
10
275.885
20
-115.916
11
274.285
21
-115.916
0
LINE
8
BLACK
6
CONTINUOUS
10
274.285
20
-115.916
11
274.285
21
-114.716
0
LINE
8
BLACK
6
CONTINUOUS
10
274.285
20
-114.716
11
275.885
21
-114.716
0
LINE
8
BLACK
6
CONTINUOUS
10
275.885
20
-114.716
11
275.885
21
-115.916
0
LINE
8
BLACK
6
CONTINUOUS
10
273.085
20
-115.916
11
271.485
21
-115.916
0
LINE
8
BLACK
6
CONTINUOUS
10
271.485
20
-115.916
11
271.485
21
-114.716
0
LINE
8
BLACK
6
CONTINUOUS
10
271.485
20
-114.716
11
273.085
21
-114.716
0
LINE
8
BLACK
6
CONTINUOUS
10
273.085
20
-114.716
11
273.085
21
-115.916
0
LINE
8
BLACK
6
CONTINUOUS
10
252.136
20
-115.916
11
250.536
21
-115.916
0
LINE
8
BLACK
6
CONTINUOUS
10
250.536
20
-115.916
11
250.536
21
-114.716
0
LINE
8
BLACK
6
CONTINUOUS
10
250.536
20
-114.716
11
252.136
21
-114.716
0
LINE
8
BLACK
6
CONTINUOUS
10
252.136
20
-114.716
11
252.136
21
-115.916
0
LINE
8
BLACK
6
CONTINUOUS
10
249.336
20
-115.916
11
247.736
21
-115.916
0
LINE
8
BLACK
6
CONTINUOUS
10
247.736
20
-115.916
11
247.736
21
-114.716
0
LINE
8
BLACK
6
CONTINUOUS
10
247.736
20
-114.716
11
249.336
21
-114.716
0
LINE
8
BLACK
6
CONTINUOUS
10
249.336
20
-114.716
11
249.336
21
-115.916
0
LINE
8
BLACK
6
CONTINUOUS
10
180.635
20
-115.916
11
179.035
21
-115.916
0
LINE
8
BLACK
6
CONTINUOUS
10
179.035
20
-115.916
11
179.035
21
-114.716
0
LINE
8
BLACK
6
CONTINUOUS
10
179.035
20
-114.716
11
180.635
21
-114.716
0
LINE
8
BLACK
6
CONTINUOUS
10
180.635
20
-114.716
11
180.635
21
-115.916
0
LINE
8
BLACK
6
CONTINUOUS
10
177.835
20
-115.916
11
176.235
21
-115.916
0
LINE
8
BLACK
6
CONTINUOUS
10
176.235
20
-115.916
11
176.235
21
-114.716
0
LINE
8
BLACK
6
CONTINUOUS
10
176.235
20
-114.716
11
177.835
21
-114.716
0
LINE
8
BLACK
6
CONTINUOUS
10
177.835
20
-114.716
11
177.835
21
-115.916
0
LINE
8
BLACK
6
CONTINUOUS
10
109.261
20
-115.916
11
107.661
21
-115.916
0
LINE
8
BLACK
6
CONTINUOUS
10
107.661
20
-115.916
11
107.661
21
-114.716
0
LINE
8
BLACK
6
CONTINUOUS
10
107.661
20
-114.716
11
109.261
21
-114.716
0
LINE
8
BLACK
6
CONTINUOUS
10
109.261
20
-114.716
11
109.261
21
-115.916
0
LINE
8
BLACK
6
CONTINUOUS
10
106.461
20
-115.916
11
104.861
21
-115.916
0
LINE
8
BLACK
6
CONTINUOUS
10
104.861
20
-115.916
11
104.861
21
-114.716
0
LINE
8
BLACK
6
CONTINUOUS
10
104.861
20
-114.716
11
106.461
21
-114.716
0
LINE
8
BLACK
6
CONTINUOUS
10
106.461
20
-114.716
11
106.461
21
-115.916
0
LINE
8
BLACK
6
CONTINUOUS
10
85.512
20
-115.916
11
83.912
21
-115.916
0
LINE
8
BLACK
6
CONTINUOUS
10
83.912
20
-115.916
11
83.912
21
-114.716
0
LINE
8
BLACK
6
CONTINUOUS
10
83.912
20
-114.716
11
85.512
21
-114.716
0
LINE
8
BLACK
6
CONTINUOUS
10
85.512
20
-114.716
11
85.512
21
-115.916
0
LINE
8
BLACK
6
CONTINUOUS
10
304.073
20
-115.916
11
302.473
21
-115.916
0
LINE
8
BLACK
6
CONTINUOUS
10
302.473
20
-115.916
11
302.473
21
-114.716
0
LINE
8
BLACK
6
CONTINUOUS
10
302.473
20
-114.716
11
304.073
21
-114.716
0
LINE
8
BLACK
6
CONTINUOUS
10
304.073
20
-114.716
11
304.073
21
-115.916
0
LINE
8
BLACK
6
CONTINUOUS
10
306.873
20
-115.916
11
305.273
21
-115.916
0
LINE
8
BLACK
6
CONTINUOUS
10
305.273
20
-115.916
11
305.273
21
-114.716
0
LINE
8
BLACK
6
CONTINUOUS
10
305.273
20
-114.716
11
306.873
21
-114.716
0
LINE
8
BLACK
6
CONTINUOUS
10
306.873
20
-114.716
11
306.873
21
-115.916
0
LINE
8
BLACK
6
CONTINUOUS
10
323.123
20
-115.916
11
321.523
21
-115.916
0
LINE
8
BLACK
6
CONTINUOUS
10
321.523
20
-115.916
11
321.523
21
-114.716
0
LINE
8
BLACK
6
CONTINUOUS
10
321.523
20
-114.716
11
323.123
21
-114.716
0
LINE
8
BLACK
6
CONTINUOUS
10
323.123
20
-114.716
11
323.123
21
-115.916
0
LINE
8
BLACK
6
CONTINUOUS
10
325.923
20
-115.916
11
324.323
21
-115.916
0
LINE
8
BLACK
6
CONTINUOUS
10
324.323
20
-115.916
11
324.323
21
-114.716
0
LINE
8
BLACK
6
CONTINUOUS
10
324.323
20
-114.716
11
325.923
21
-114.716
0
LINE
8
BLACK
6
CONTINUOUS
10
325.923
20
-114.716
11
325.923
21
-115.916
0
LINE
8
BLACK
6
CONTINUOUS
10
342.173
20
-115.916
11
340.573
21
-115.916
0
LINE
8
BLACK
6
CONTINUOUS
10
340.573
20
-115.916
11
340.573
21
-114.716
0
LINE
8
BLACK
6
CONTINUOUS
10
340.573
20
-114.716
11
342.173
21
-114.716
0
LINE
8
BLACK
6
CONTINUOUS
10
342.173
20
-114.716
11
342.173
21
-115.916
0
LINE
8
BLACK
6
CONTINUOUS
10
61.636
20
-115.916
11
60.036
21
-115.916
0
LINE
8
BLACK
6
CONTINUOUS
10
60.036
20
-115.916
11
60.036
21
-114.716
0
LINE
8
BLACK
6
CONTINUOUS
10
60.036
20
-114.716
11
61.636
21
-114.716
0
LINE
8
BLACK
6
CONTINUOUS
10
61.636
20
-114.716
11
61.636
21
-115.916
0
LINE
8
BLACK
6
CONTINUOUS
10
58.836
20
-115.916
11
57.236
21
-115.916
0
LINE
8
BLACK
6
CONTINUOUS
10
57.236
20
-115.916
11
57.236
21
-114.716
0
LINE
8
BLACK
6
CONTINUOUS
10
57.236
20
-114.716
11
58.836
21
-114.716
0
LINE
8
BLACK
6
CONTINUOUS
10
58.836
20
-114.716
11
58.836
21
-115.916
0
LINE
8
BLACK
6
CONTINUOUS
10
344.973
20
-115.916
11
343.373
21
-115.916
0
LINE
8
BLACK
6
CONTINUOUS
10
343.373
20
-115.916
11
343.373
21
-114.716
0
LINE
8
BLACK
6
CONTINUOUS
10
343.373
20
-114.716
11
344.973
21
-114.716
0
LINE
8
BLACK
6
CONTINUOUS
10
344.973
20
-114.716
11
344.973
21
-115.916
0
LINE
8
BLACK
6
CONTINUOUS
10
74.066
20
-113.606
11
72.566
21
-113.606
0
LINE
8
BLACK
6
CONTINUOUS
10
72.566
20
-113.606
11
72.566
21
-112.606
0
LINE
8
BLACK
6
CONTINUOUS
10
72.566
20
-112.606
11
74.066
21
-112.606
0
LINE
8
BLACK
6
CONTINUOUS
10
74.066
20
-112.606
11
74.066
21
-113.606
0
LINE
8
BLACK
6
CONTINUOUS
10
69.166
20
-113.606
11
67.666
21
-113.606
0
LINE
8
BLACK
6
CONTINUOUS
10
67.666
20
-113.606
11
67.666
21
-112.606
0
LINE
8
BLACK
6
CONTINUOUS
10
67.666
20
-112.606
11
69.166
21
-112.606
0
LINE
8
BLACK
6
CONTINUOUS
10
69.166
20
-112.606
11
69.166
21
-113.606
0
LINE
8
BLACK
6
CONTINUOUS
10
74.066
20
-110.406
11
72.566
21
-110.406
0
LINE
8
BLACK
6
CONTINUOUS
10
72.566
20
-110.406
11
72.566
21
-109.406
0
LINE
8
BLACK
6
CONTINUOUS
10
72.566
20
-109.406
11
74.066
21
-109.406
0
LINE
8
BLACK
6
CONTINUOUS
10
74.066
20
-109.406
11
74.066
21
-110.406
0
LINE
8
BLACK
6
CONTINUOUS
10
69.166
20
-110.406
11
67.666
21
-110.406
0
LINE
8
BLACK
6
CONTINUOUS
10
67.666
20
-110.406
11
67.666
21
-109.406
0
LINE
8
BLACK
6
CONTINUOUS
10
67.666
20
-109.406
11
69.166
21
-109.406
0
LINE
8
BLACK
6
CONTINUOUS
10
69.166
20
-109.406
11
69.166
21
-110.406
0
LINE
8
BLACK
6
CONTINUOUS
10
70.3418
20
-106.849
11
70.3887
21
-106.863
0
LINE
8
BLACK
6
CONTINUOUS
10
70.3887
20
-106.863
11
70.4319
21
-106.886
0
LINE
8
BLACK
6
CONTINUOUS
10
70.4319
20
-106.886
11
70.4698
21
-106.917
0
LINE
8
BLACK
6
CONTINUOUS
10
70.4698
20
-106.917
11
70.5009
21
-106.955
0
LINE
8
BLACK
6
CONTINUOUS
10
70.5009
20
-106.955
11
70.524
21
-106.998
0
LINE
8
BLACK
6
CONTINUOUS
10
70.524
20
-106.998
11
70.5382
21
-107.045
0
LINE
8
BLACK
6
CONTINUOUS
10
70.5382
20
-107.045
11
70.543
21
-107.094
0
LINE
8
BLACK
6
CONTINUOUS
10
70.543
20
-107.094
11
70.543
21
-108.044
0
LINE
8
BLACK
6
CONTINUOUS
10
70.543
20
-108.044
11
70.5382
21
-108.093
0
LINE
8
BLACK
6
CONTINUOUS
10
70.5382
20
-108.093
11
70.524
21
-108.14
0
LINE
8
BLACK
6
CONTINUOUS
10
70.524
20
-108.14
11
70.5009
21
-108.183
0
LINE
8
BLACK
6
CONTINUOUS
10
70.5009
20
-108.183
11
70.4698
21
-108.221
0
LINE
8
BLACK
6
CONTINUOUS
10
70.4698
20
-108.221
11
70.4319
21
-108.252
0
LINE
8
BLACK
6
CONTINUOUS
10
70.4319
20
-108.252
11
70.3887
21
-108.275
0
LINE
8
BLACK
6
CONTINUOUS
10
70.3887
20
-108.275
11
70.3418
21
-108.289
0
LINE
8
BLACK
6
CONTINUOUS
10
70.3418
20
-108.289
11
70.293
21
-108.294
0
LINE
8
BLACK
6
CONTINUOUS
10
70.293
20
-108.294
11
69.618
21
-108.294
0
LINE
8
BLACK
6
CONTINUOUS
10
69.618
20
-108.294
11
69.5692
21
-108.289
0
LINE
8
BLACK
6
CONTINUOUS
10
69.5692
20
-108.289
11
69.5223
21
-108.275
0
LINE
8
BLACK
6
CONTINUOUS
10
69.5223
20
-108.275
11
69.4791
21
-108.252
0
LINE
8
BLACK
6
CONTINUOUS
10
69.4791
20
-108.252
11
69.4412
21
-108.221
0
LINE
8
BLACK
6
CONTINUOUS
10
69.4412
20
-108.221
11
69.4101
21
-108.183
0
LINE
8
BLACK
6
CONTINUOUS
10
69.4101
20
-108.183
11
69.387
21
-108.14
0
LINE
8
BLACK
6
CONTINUOUS
10
69.387
20
-108.14
11
69.3728
21
-108.093
0
LINE
8
BLACK
6
CONTINUOUS
10
69.3728
20
-108.093
11
69.368
21
-108.044
0
LINE
8
BLACK
6
CONTINUOUS
10
69.368
20
-108.044
11
69.368
21
-107.094
0
LINE
8
BLACK
6
CONTINUOUS
10
69.368
20
-107.094
11
69.3728
21
-107.045
0
LINE
8
BLACK
6
CONTINUOUS
10
69.3728
20
-107.045
11
69.387
21
-106.998
0
LINE
8
BLACK
6
CONTINUOUS
10
69.387
20
-106.998
11
69.4101
21
-106.955
0
LINE
8
BLACK
6
CONTINUOUS
10
69.4101
20
-106.955
11
69.4412
21
-106.917
0
LINE
8
BLACK
6
CONTINUOUS
10
69.4412
20
-106.917
11
69.4791
21
-106.886
0
LINE
8
BLACK
6
CONTINUOUS
10
69.4791
20
-106.886
11
69.5223
21
-106.863
0
LINE
8
BLACK
6
CONTINUOUS
10
69.5223
20
-106.863
11
69.5692
21
-106.849
0
LINE
8
BLACK
6
CONTINUOUS
10
69.5692
20
-106.849
11
69.618
21
-106.844
0
LINE
8
BLACK
6
CONTINUOUS
10
69.618
20
-106.844
11
70.293
21
-106.844
0
LINE
8
BLACK
6
CONTINUOUS
10
70.293
20
-106.844
11
70.3418
21
-106.849
0
LINE
8
BLACK
6
CONTINUOUS
10
72.4168
20
-106.849
11
72.4637
21
-106.863
0
LINE
8
BLACK
6
CONTINUOUS
10
72.4637
20
-106.863
11
72.5069
21
-106.886
0
LINE
8
BLACK
6
CONTINUOUS
10
72.5069
20
-106.886
11
72.5448
21
-106.917
0
LINE
8
BLACK
6
CONTINUOUS
10
72.5448
20
-106.917
11
72.5759
21
-106.955
0
LINE
8
BLACK
6
CONTINUOUS
10
72.5759
20
-106.955
11
72.599
21
-106.998
0
LINE
8
BLACK
6
CONTINUOUS
10
72.599
20
-106.998
11
72.6132
21
-107.045
0
LINE
8
BLACK
6
CONTINUOUS
10
72.6132
20
-107.045
11
72.618
21
-107.094
0
LINE
8
BLACK
6
CONTINUOUS
10
72.618
20
-107.094
11
72.618
21
-108.044
0
LINE
8
BLACK
6
CONTINUOUS
10
72.618
20
-108.044
11
72.6132
21
-108.093
0
LINE
8
BLACK
6
CONTINUOUS
10
72.6132
20
-108.093
11
72.599
21
-108.14
0
LINE
8
BLACK
6
CONTINUOUS
10
72.599
20
-108.14
11
72.5759
21
-108.183
0
LINE
8
BLACK
6
CONTINUOUS
10
72.5759
20
-108.183
11
72.5448
21
-108.221
0
LINE
8
BLACK
6
CONTINUOUS
10
72.5448
20
-108.221
11
72.5069
21
-108.252
0
LINE
8
BLACK
6
CONTINUOUS
10
72.5069
20
-108.252
11
72.4637
21
-108.275
0
LINE
8
BLACK
6
CONTINUOUS
10
72.4637
20
-108.275
11
72.4168
21
-108.289
0
LINE
8
BLACK
6
CONTINUOUS
10
72.4168
20
-108.289
11
72.368
21
-108.294
0
LINE
8
BLACK
6
CONTINUOUS
10
72.368
20
-108.294
11
71.693
21
-108.294
0
LINE
8
BLACK
6
CONTINUOUS
10
71.693
20
-108.294
11
71.6442
21
-108.289
0
LINE
8
BLACK
6
CONTINUOUS
10
71.6442
20
-108.289
11
71.5973
21
-108.275
0
LINE
8
BLACK
6
CONTINUOUS
10
71.5973
20
-108.275
11
71.5541
21
-108.252
0
LINE
8
BLACK
6
CONTINUOUS
10
71.5541
20
-108.252
11
71.5162
21
-108.221
0
LINE
8
BLACK
6
CONTINUOUS
10
71.5162
20
-108.221
11
71.4851
21
-108.183
0
LINE
8
BLACK
6
CONTINUOUS
10
71.4851
20
-108.183
11
71.462
21
-108.14
0
LINE
8
BLACK
6
CONTINUOUS
10
71.462
20
-108.14
11
71.4478
21
-108.093
0
LINE
8
BLACK
6
CONTINUOUS
10
71.4478
20
-108.093
11
71.443
21
-108.044
0
LINE
8
BLACK
6
CONTINUOUS
10
71.443
20
-108.044
11
71.443
21
-107.094
0
LINE
8
BLACK
6
CONTINUOUS
10
71.443
20
-107.094
11
71.4478
21
-107.045
0
LINE
8
BLACK
6
CONTINUOUS
10
71.4478
20
-107.045
11
71.462
21
-106.998
0
LINE
8
BLACK
6
CONTINUOUS
10
71.462
20
-106.998
11
71.4851
21
-106.955
0
LINE
8
BLACK
6
CONTINUOUS
10
71.4851
20
-106.955
11
71.5162
21
-106.917
0
LINE
8
BLACK
6
CONTINUOUS
10
71.5162
20
-106.917
11
71.5541
21
-106.886
0
LINE
8
BLACK
6
CONTINUOUS
10
71.5541
20
-106.886
11
71.5973
21
-106.863
0
LINE
8
BLACK
6
CONTINUOUS
10
71.5973
20
-106.863
11
71.6442
21
-106.849
0
LINE
8
BLACK
6
CONTINUOUS
10
71.6442
20
-106.849
11
71.693
21
-106.844
0
LINE
8
BLACK
6
CONTINUOUS
10
71.693
20
-106.844
11
72.368
21
-106.844
0
LINE
8
BLACK
6
CONTINUOUS
10
72.368
20
-106.844
11
72.4168
21
-106.849
0
LINE
8
BLACK
6
CONTINUOUS
10
318.04
20
-108.247
11
315.49
21
-108.247
0
LINE
8
BLACK
6
CONTINUOUS
10
315.49
20
-108.247
11
315.49
21
-105.748
0
LINE
8
BLACK
6
CONTINUOUS
10
315.49
20
-105.748
11
318.04
21
-105.748
0
LINE
8
BLACK
6
CONTINUOUS
10
318.04
20
-105.748
11
318.04
21
-108.247
0
LINE
8
BLACK
6
CONTINUOUS
10
298.99
20
-108.247
11
296.44
21
-108.247
0
LINE
8
BLACK
6
CONTINUOUS
10
296.44
20
-108.247
11
296.44
21
-105.748
0
LINE
8
BLACK
6
CONTINUOUS
10
296.44
20
-105.748
11
298.99
21
-105.748
0
LINE
8
BLACK
6
CONTINUOUS
10
298.99
20
-105.748
11
298.99
21
-108.247
0
LINE
8
BLACK
6
CONTINUOUS
10
53.7212
20
-108.247
11
51.1713
21
-108.247
0
LINE
8
BLACK
6
CONTINUOUS
10
51.1713
20
-108.247
11
51.1713
21
-105.748
0
LINE
8
BLACK
6
CONTINUOUS
10
51.1713
20
-105.748
11
53.7212
21
-105.748
0
LINE
8
BLACK
6
CONTINUOUS
10
53.7212
20
-105.748
11
53.7212
21
-108.247
0
LINE
8
BLACK
6
CONTINUOUS
10
268.034
20
-108.247
11
265.484
21
-108.247
0
LINE
8
BLACK
6
CONTINUOUS
10
265.484
20
-108.247
11
265.484
21
-105.748
0
LINE
8
BLACK
6
CONTINUOUS
10
265.484
20
-105.748
11
268.034
21
-105.748
0
LINE
8
BLACK
6
CONTINUOUS
10
268.034
20
-105.748
11
268.034
21
-108.247
0
LINE
8
BLACK
6
CONTINUOUS
10
101.346
20
-108.247
11
98.7963
21
-108.247
0
LINE
8
BLACK
6
CONTINUOUS
10
98.7963
20
-108.247
11
98.7963
21
-105.748
0
LINE
8
BLACK
6
CONTINUOUS
10
98.7963
20
-105.748
11
101.346
21
-105.748
0
LINE
8
BLACK
6
CONTINUOUS
10
101.346
20
-105.748
11
101.346
21
-108.247
0
LINE
8
BLACK
6
CONTINUOUS
10
77.5337
20
-108.247
11
74.9838
21
-108.247
0
LINE
8
BLACK
6
CONTINUOUS
10
74.9838
20
-108.247
11
74.9838
21
-105.748
0
LINE
8
BLACK
6
CONTINUOUS
10
74.9838
20
-105.748
11
77.5337
21
-105.748
0
LINE
8
BLACK
6
CONTINUOUS
10
77.5337
20
-105.748
11
77.5337
21
-108.247
0
LINE
8
BLACK
6
CONTINUOUS
10
337.09
20
-108.247
11
334.54
21
-108.247
0
LINE
8
BLACK
6
CONTINUOUS
10
334.54
20
-108.247
11
334.54
21
-105.748
0
LINE
8
BLACK
6
CONTINUOUS
10
334.54
20
-105.748
11
337.09
21
-105.748
0
LINE
8
BLACK
6
CONTINUOUS
10
337.09
20
-105.748
11
337.09
21
-108.247
0
LINE
8
BLACK
6
CONTINUOUS
10
244.221
20
-108.247
11
241.671
21
-108.247
0
LINE
8
BLACK
6
CONTINUOUS
10
241.671
20
-108.247
11
241.671
21
-105.748
0
LINE
8
BLACK
6
CONTINUOUS
10
241.671
20
-105.748
11
244.221
21
-105.748
0
LINE
8
BLACK
6
CONTINUOUS
10
244.221
20
-105.748
11
244.221
21
-108.247
0
LINE
8
BLACK
6
CONTINUOUS
10
172.784
20
-108.247
11
170.234
21
-108.247
0
LINE
8
BLACK
6
CONTINUOUS
10
170.234
20
-108.247
11
170.234
21
-105.748
0
LINE
8
BLACK
6
CONTINUOUS
10
170.234
20
-105.748
11
172.784
21
-105.748
0
LINE
8
BLACK
6
CONTINUOUS
10
172.784
20
-105.748
11
172.784
21
-108.247
0
LINE
8
BLACK
6
CONTINUOUS
10
90.4607
20
-105.707
11
87.9107
21
-105.707
0
LINE
8
BLACK
6
CONTINUOUS
10
87.9107
20
-105.707
11
87.9107
21
-103.207
0
LINE
8
BLACK
6
CONTINUOUS
10
87.9107
20
-103.207
11
90.4607
21
-103.207
0
LINE
8
BLACK
6
CONTINUOUS
10
90.4607
20
-103.207
11
90.4607
21
-105.707
0
LINE
8
BLACK
6
CONTINUOUS
10
280.961
20
-105.707
11
278.411
21
-105.707
0
LINE
8
BLACK
6
CONTINUOUS
10
278.411
20
-105.707
11
278.411
21
-103.207
0
LINE
8
BLACK
6
CONTINUOUS
10
278.411
20
-103.207
11
280.961
21
-103.207
0
LINE
8
BLACK
6
CONTINUOUS
10
280.961
20
-103.207
11
280.961
21
-105.707
0
LINE
8
BLACK
6
CONTINUOUS
10
185.711
20
-105.707
11
183.161
21
-105.707
0
LINE
8
BLACK
6
CONTINUOUS
10
183.161
20
-105.707
11
183.161
21
-103.207
0
LINE
8
BLACK
6
CONTINUOUS
10
183.161
20
-103.207
11
185.711
21
-103.207
0
LINE
8
BLACK
6
CONTINUOUS
10
185.711
20
-103.207
11
185.711
21
-105.707
0
LINE
8
BLACK
6
CONTINUOUS
10
350.017
20
-105.707
11
347.467
21
-105.707
0
LINE
8
BLACK
6
CONTINUOUS
10
347.467
20
-105.707
11
347.467
21
-103.207
0
LINE
8
BLACK
6
CONTINUOUS
10
347.467
20
-103.207
11
350.017
21
-103.207
0
LINE
8
BLACK
6
CONTINUOUS
10
350.017
20
-103.207
11
350.017
21
-105.707
0
LINE
8
BLACK
6
CONTINUOUS
10
311.917
20
-105.707
11
309.367
21
-105.707
0
LINE
8
BLACK
6
CONTINUOUS
10
309.367
20
-105.707
11
309.367
21
-103.207
0
LINE
8
BLACK
6
CONTINUOUS
10
309.367
20
-103.207
11
311.917
21
-103.207
0
LINE
8
BLACK
6
CONTINUOUS
10
311.917
20
-103.207
11
311.917
21
-105.707
0
LINE
8
BLACK
6
CONTINUOUS
10
257.148
20
-105.707
11
254.598
21
-105.707
0
LINE
8
BLACK
6
CONTINUOUS
10
254.598
20
-105.707
11
254.598
21
-103.207
0
LINE
8
BLACK
6
CONTINUOUS
10
254.598
20
-103.207
11
257.148
21
-103.207
0
LINE
8
BLACK
6
CONTINUOUS
10
257.148
20
-103.207
11
257.148
21
-105.707
0
LINE
8
BLACK
6
CONTINUOUS
10
330.967
20
-105.707
11
328.417
21
-105.707
0
LINE
8
BLACK
6
CONTINUOUS
10
328.417
20
-105.707
11
328.417
21
-103.207
0
LINE
8
BLACK
6
CONTINUOUS
10
328.417
20
-103.207
11
330.967
21
-103.207
0
LINE
8
BLACK
6
CONTINUOUS
10
330.967
20
-103.207
11
330.967
21
-105.707
0
LINE
8
BLACK
6
CONTINUOUS
10
66.6482
20
-105.707
11
64.0982
21
-105.707
0
LINE
8
BLACK
6
CONTINUOUS
10
64.0982
20
-105.707
11
64.0982
21
-103.207
0
LINE
8
BLACK
6
CONTINUOUS
10
64.0982
20
-103.207
11
66.6482
21
-103.207
0
LINE
8
BLACK
6
CONTINUOUS
10
66.6482
20
-103.207
11
66.6482
21
-105.707
0
LINE
8
BLACK
6
CONTINUOUS
10
114.273
20
-105.707
11
111.723
21
-105.707
0
LINE
8
BLACK
6
CONTINUOUS
10
111.723
20
-105.707
11
111.723
21
-103.207
0
LINE
8
BLACK
6
CONTINUOUS
10
111.723
20
-103.207
11
114.273
21
-103.207
0
LINE
8
BLACK
6
CONTINUOUS
10
114.273
20
-103.207
11
114.273
21
-105.707
0
LINE
8
BLACK
6
CONTINUOUS
10
168.681
20
-104.97
11
167.181
21
-104.97
0
LINE
8
BLACK
6
CONTINUOUS
10
167.181
20
-104.97
11
167.181
21
-103.97
0
LINE
8
BLACK
6
CONTINUOUS
10
167.181
20
-103.97
11
168.681
21
-103.97
0
LINE
8
BLACK
6
CONTINUOUS
10
168.681
20
-103.97
11
168.681
21
-104.97
0
LINE
8
BLACK
6
CONTINUOUS
10
163.781
20
-104.97
11
162.281
21
-104.97
0
LINE
8
BLACK
6
CONTINUOUS
10
162.281
20
-104.97
11
162.281
21
-103.97
0
LINE
8
BLACK
6
CONTINUOUS
10
162.281
20
-103.97
11
163.781
21
-103.97
0
LINE
8
BLACK
6
CONTINUOUS
10
163.781
20
-103.97
11
163.781
21
-104.97
0
LINE
8
BLACK
6
CONTINUOUS
10
163.781
20
-101.77
11
162.281
21
-101.77
0
LINE
8
BLACK
6
CONTINUOUS
10
162.281
20
-101.77
11
162.281
21
-100.77
0
LINE
8
BLACK
6
CONTINUOUS
10
162.281
20
-100.77
11
163.781
21
-100.77
0
LINE
8
BLACK
6
CONTINUOUS
10
163.781
20
-100.77
11
163.781
21
-101.77
0
LINE
8
BLACK
6
CONTINUOUS
10
168.681
20
-101.77
11
167.181
21
-101.77
0
LINE
8
BLACK
6
CONTINUOUS
10
167.181
20
-101.77
11
167.181
21
-100.77
0
LINE
8
BLACK
6
CONTINUOUS
10
167.181
20
-100.77
11
168.681
21
-100.77
0
LINE
8
BLACK
6
CONTINUOUS
10
168.681
20
-100.77
11
168.681
21
-101.77
0
LINE
8
BLACK
6
CONTINUOUS
10
259.539
20
-100.144
11
258.039
21
-100.144
0
LINE
8
BLACK
6
CONTINUOUS
10
258.039
20
-100.144
11
258.039
21
-99.144
0
LINE
8
BLACK
6
CONTINUOUS
10
258.039
20
-99.144
11
259.539
21
-99.144
0
LINE
8
BLACK
6
CONTINUOUS
10
259.539
20
-99.144
11
259.539
21
-100.144
0
LINE
8
BLACK
6
CONTINUOUS
10
264.439
20
-100.144
11
262.939
21
-100.144
0
LINE
8
BLACK
6
CONTINUOUS
10
262.939
20
-100.144
11
262.939
21
-99.144
0
LINE
8
BLACK
6
CONTINUOUS
10
262.939
20
-99.144
11
264.439
21
-99.144
0
LINE
8
BLACK
6
CONTINUOUS
10
264.439
20
-99.144
11
264.439
21
-100.144
0
LINE
8
BLACK
6
CONTINUOUS
10
331.167
20
-100.144
11
329.667
21
-100.144
0
LINE
8
BLACK
6
CONTINUOUS
10
329.667
20
-100.144
11
329.667
21
-99.144
0
LINE
8
BLACK
6
CONTINUOUS
10
329.667
20
-99.144
11
331.167
21
-99.144
0
LINE
8
BLACK
6
CONTINUOUS
10
331.167
20
-99.144
11
331.167
21
-100.144
0
LINE
8
BLACK
6
CONTINUOUS
10
336.067
20
-100.144
11
334.567
21
-100.144
0
LINE
8
BLACK
6
CONTINUOUS
10
334.567
20
-100.144
11
334.567
21
-99.144
0
LINE
8
BLACK
6
CONTINUOUS
10
334.567
20
-99.144
11
336.067
21
-99.144
0
LINE
8
BLACK
6
CONTINUOUS
10
336.067
20
-99.144
11
336.067
21
-100.144
0
LINE
8
BLACK
6
CONTINUOUS
10
166.905
20
-98.2128
11
166.952
21
-98.227
0
LINE
8
BLACK
6
CONTINUOUS
10
166.952
20
-98.227
11
166.995
21
-98.2501
0
LINE
8
BLACK
6
CONTINUOUS
10
166.995
20
-98.2501
11
167.033
21
-98.2812
0
LINE
8
BLACK
6
CONTINUOUS
10
167.033
20
-98.2812
11
167.064
21
-98.3191
0
LINE
8
BLACK
6
CONTINUOUS
10
167.064
20
-98.3191
11
167.087
21
-98.3623
0
LINE
8
BLACK
6
CONTINUOUS
10
167.087
20
-98.3623
11
167.101
21
-98.4092
0
LINE
8
BLACK
6
CONTINUOUS
10
167.101
20
-98.4092
11
167.106
21
-98.458
0
LINE
8
BLACK
6
CONTINUOUS
10
167.106
20
-98.458
11
167.106
21
-99.408
0
LINE
8
BLACK
6
CONTINUOUS
10
167.106
20
-99.408
11
167.101
21
-99.4568
0
LINE
8
BLACK
6
CONTINUOUS
10
167.101
20
-99.4568
11
167.087
21
-99.5037
0
LINE
8
BLACK
6
CONTINUOUS
10
167.087
20
-99.5037
11
167.064
21
-99.5469
0
LINE
8
BLACK
6
CONTINUOUS
10
167.064
20
-99.5469
11
167.033
21
-99.5848
0
LINE
8
BLACK
6
CONTINUOUS
10
167.033
20
-99.5848
11
166.995
21
-99.6159
0
LINE
8
BLACK
6
CONTINUOUS
10
166.995
20
-99.6159
11
166.952
21
-99.639
0
LINE
8
BLACK
6
CONTINUOUS
10
166.952
20
-99.639
11
166.905
21
-99.6532
0
LINE
8
BLACK
6
CONTINUOUS
10
166.905
20
-99.6532
11
166.856
21
-99.658
0
LINE
8
BLACK
6
CONTINUOUS
10
166.856
20
-99.658
11
166.181
21
-99.658
0
LINE
8
BLACK
6
CONTINUOUS
10
166.181
20
-99.658
11
166.132
21
-99.6532
0
LINE
8
BLACK
6
CONTINUOUS
10
166.132
20
-99.6532
11
166.085
21
-99.639
0
LINE
8
BLACK
6
CONTINUOUS
10
166.085
20
-99.639
11
166.042
21
-99.6159
0
LINE
8
BLACK
6
CONTINUOUS
10
166.042
20
-99.6159
11
166.004
21
-99.5848
0
LINE
8
BLACK
6
CONTINUOUS
10
166.004
20
-99.5848
11
165.973
21
-99.5469
0
LINE
8
BLACK
6
CONTINUOUS
10
165.973
20
-99.5469
11
165.95
21
-99.5037
0
LINE
8
BLACK
6
CONTINUOUS
10
165.95
20
-99.5037
11
165.936
21
-99.4568
0
LINE
8
BLACK
6
CONTINUOUS
10
165.936
20
-99.4568
11
165.931
21
-99.408
0
LINE
8
BLACK
6
CONTINUOUS
10
165.931
20
-99.408
11
165.931
21
-98.458
0
LINE
8
BLACK
6
CONTINUOUS
10
165.931
20
-98.458
11
165.936
21
-98.4092
0
LINE
8
BLACK
6
CONTINUOUS
10
165.936
20
-98.4092
11
165.95
21
-98.3623
0
LINE
8
BLACK
6
CONTINUOUS
10
165.95
20
-98.3623
11
165.973
21
-98.3191
0
LINE
8
BLACK
6
CONTINUOUS
10
165.973
20
-98.3191
11
166.004
21
-98.2812
0
LINE
8
BLACK
6
CONTINUOUS
10
166.004
20
-98.2812
11
166.042
21
-98.2501
0
LINE
8
BLACK
6
CONTINUOUS
10
166.042
20
-98.2501
11
166.085
21
-98.227
0
LINE
8
BLACK
6
CONTINUOUS
10
166.085
20
-98.227
11
166.132
21
-98.2128
0
LINE
8
BLACK
6
CONTINUOUS
10
166.132
20
-98.2128
11
166.181
21
-98.208
0
LINE
8
BLACK
6
CONTINUOUS
10
166.181
20
-98.208
11
166.856
21
-98.208
0
LINE
8
BLACK
6
CONTINUOUS
10
166.856
20
-98.208
11
166.905
21
-98.2128
0
LINE
8
BLACK
6
CONTINUOUS
10
164.83
20
-98.2128
11
164.877
21
-98.227
0
LINE
8
BLACK
6
CONTINUOUS
10
164.877
20
-98.227
11
164.92
21
-98.2501
0
LINE
8
BLACK
6
CONTINUOUS
10
164.92
20
-98.2501
11
164.958
21
-98.2812
0
LINE
8
BLACK
6
CONTINUOUS
10
164.958
20
-98.2812
11
164.989
21
-98.3191
0
LINE
8
BLACK
6
CONTINUOUS
10
164.989
20
-98.3191
11
165.012
21
-98.3623
0
LINE
8
BLACK
6
CONTINUOUS
10
165.012
20
-98.3623
11
165.026
21
-98.4092
0
LINE
8
BLACK
6
CONTINUOUS
10
165.026
20
-98.4092
11
165.031
21
-98.458
0
LINE
8
BLACK
6
CONTINUOUS
10
165.031
20
-98.458
11
165.031
21
-99.408
0
LINE
8
BLACK
6
CONTINUOUS
10
165.031
20
-99.408
11
165.026
21
-99.4568
0
LINE
8
BLACK
6
CONTINUOUS
10
165.026
20
-99.4568
11
165.012
21
-99.5037
0
LINE
8
BLACK
6
CONTINUOUS
10
165.012
20
-99.5037
11
164.989
21
-99.5469
0
LINE
8
BLACK
6
CONTINUOUS
10
164.989
20
-99.5469
11
164.958
21
-99.5848
0
LINE
8
BLACK
6
CONTINUOUS
10
164.958
20
-99.5848
11
164.92
21
-99.6159
0
LINE
8
BLACK
6
CONTINUOUS
10
164.92
20
-99.6159
11
164.877
21
-99.639
0
LINE
8
BLACK
6
CONTINUOUS
10
164.877
20
-99.639
11
164.83
21
-99.6532
0
LINE
8
BLACK
6
CONTINUOUS
10
164.83
20
-99.6532
11
164.781
21
-99.658
0
LINE
8
BLACK
6
CONTINUOUS
10
164.781
20
-99.658
11
164.106
21
-99.658
0
LINE
8
BLACK
6
CONTINUOUS
10
164.106
20
-99.658
11
164.057
21
-99.6532
0
LINE
8
BLACK
6
CONTINUOUS
10
164.057
20
-99.6532
11
164.01
21
-99.639
0
LINE
8
BLACK
6
CONTINUOUS
10
164.01
20
-99.639
11
163.967
21
-99.6159
0
LINE
8
BLACK
6
CONTINUOUS
10
163.967
20
-99.6159
11
163.929
21
-99.5848
0
LINE
8
BLACK
6
CONTINUOUS
10
163.929
20
-99.5848
11
163.898
21
-99.5469
0
LINE
8
BLACK
6
CONTINUOUS
10
163.898
20
-99.5469
11
163.875
21
-99.5037
0
LINE
8
BLACK
6
CONTINUOUS
10
163.875
20
-99.5037
11
163.861
21
-99.4568
0
LINE
8
BLACK
6
CONTINUOUS
10
163.861
20
-99.4568
11
163.856
21
-99.408
0
LINE
8
BLACK
6
CONTINUOUS
10
163.856
20
-99.408
11
163.856
21
-98.458
0
LINE
8
BLACK
6
CONTINUOUS
10
163.856
20
-98.458
11
163.861
21
-98.4092
0
LINE
8
BLACK
6
CONTINUOUS
10
163.861
20
-98.4092
11
163.875
21
-98.3623
0
LINE
8
BLACK
6
CONTINUOUS
10
163.875
20
-98.3623
11
163.898
21
-98.3191
0
LINE
8
BLACK
6
CONTINUOUS
10
163.898
20
-98.3191
11
163.929
21
-98.2812
0
LINE
8
BLACK
6
CONTINUOUS
10
163.929
20
-98.2812
11
163.967
21
-98.2501
0
LINE
8
BLACK
6
CONTINUOUS
10
163.967
20
-98.2501
11
164.01
21
-98.227
0
LINE
8
BLACK
6
CONTINUOUS
10
164.01
20
-98.227
11
164.057
21
-98.2128
0
LINE
8
BLACK
6
CONTINUOUS
10
164.057
20
-98.2128
11
164.106
21
-98.208
0
LINE
8
BLACK
6
CONTINUOUS
10
164.106
20
-98.208
11
164.781
21
-98.208
0
LINE
8
BLACK
6
CONTINUOUS
10
164.781
20
-98.208
11
164.83
21
-98.2128
0
LINE
8
BLACK
6
CONTINUOUS
10
259.539
20
-96.944
11
258.039
21
-96.944
0
LINE
8
BLACK
6
CONTINUOUS
10
258.039
20
-96.944
11
258.039
21
-95.944
0
LINE
8
BLACK
6
CONTINUOUS
10
258.039
20
-95.944
11
259.539
21
-95.944
0
LINE
8
BLACK
6
CONTINUOUS
10
259.539
20
-95.944
11
259.539
21
-96.944
0
LINE
8
BLACK
6
CONTINUOUS
10
264.439
20
-96.944
11
262.939
21
-96.944
0
LINE
8
BLACK
6
CONTINUOUS
10
262.939
20
-96.944
11
262.939
21
-95.944
0
LINE
8
BLACK
6
CONTINUOUS
10
262.939
20
-95.944
11
264.439
21
-95.944
0
LINE
8
BLACK
6
CONTINUOUS
10
264.439
20
-95.944
11
264.439
21
-96.944
0
LINE
8
BLACK
6
CONTINUOUS
10
331.167
20
-96.944
11
329.667
21
-96.944
0
LINE
8
BLACK
6
CONTINUOUS
10
329.667
20
-96.944
11
329.667
21
-95.944
0
LINE
8
BLACK
6
CONTINUOUS
10
329.667
20
-95.944
11
331.167
21
-95.944
0
LINE
8
BLACK
6
CONTINUOUS
10
331.167
20
-95.944
11
331.167
21
-96.944
0
LINE
8
BLACK
6
CONTINUOUS
10
336.067
20
-96.944
11
334.567
21
-96.944
0
LINE
8
BLACK
6
CONTINUOUS
10
334.567
20
-96.944
11
334.567
21
-95.944
0
LINE
8
BLACK
6
CONTINUOUS
10
334.567
20
-95.944
11
336.067
21
-95.944
0
LINE
8
BLACK
6
CONTINUOUS
10
336.067
20
-95.944
11
336.067
21
-96.944
0
LINE
8
BLACK
6
CONTINUOUS
10
178.349
20
-96.866
11
176.749
21
-96.866
0
LINE
8
BLACK
6
CONTINUOUS
10
176.749
20
-96.866
11
176.749
21
-95.666
0
LINE
8
BLACK
6
CONTINUOUS
10
176.749
20
-95.666
11
178.349
21
-95.666
0
LINE
8
BLACK
6
CONTINUOUS
10
178.349
20
-95.666
11
178.349
21
-96.866
0
LINE
8
BLACK
6
CONTINUOUS
10
175.549
20
-96.866
11
173.949
21
-96.866
0
LINE
8
BLACK
6
CONTINUOUS
10
173.949
20
-96.866
11
173.949
21
-95.666
0
LINE
8
BLACK
6
CONTINUOUS
10
173.949
20
-95.666
11
175.549
21
-95.666
0
LINE
8
BLACK
6
CONTINUOUS
10
175.549
20
-95.666
11
175.549
21
-96.866
0
LINE
8
BLACK
6
CONTINUOUS
10
159.299
20
-96.866
11
157.699
21
-96.866
0
LINE
8
BLACK
6
CONTINUOUS
10
157.699
20
-96.866
11
157.699
21
-95.666
0
LINE
8
BLACK
6
CONTINUOUS
10
157.699
20
-95.666
11
159.299
21
-95.666
0
LINE
8
BLACK
6
CONTINUOUS
10
159.299
20
-95.666
11
159.299
21
-96.866
0
LINE
8
BLACK
6
CONTINUOUS
10
156.499
20
-96.866
11
154.899
21
-96.866
0
LINE
8
BLACK
6
CONTINUOUS
10
154.899
20
-96.866
11
154.899
21
-95.666
0
LINE
8
BLACK
6
CONTINUOUS
10
154.899
20
-95.666
11
156.499
21
-95.666
0
LINE
8
BLACK
6
CONTINUOUS
10
156.499
20
-95.666
11
156.499
21
-96.866
0
LINE
8
BLACK
6
CONTINUOUS
10
140.249
20
-96.866
11
138.649
21
-96.866
0
LINE
8
BLACK
6
CONTINUOUS
10
138.649
20
-96.866
11
138.649
21
-95.666
0
LINE
8
BLACK
6
CONTINUOUS
10
138.649
20
-95.666
11
140.249
21
-95.666
0
LINE
8
BLACK
6
CONTINUOUS
10
140.249
20
-95.666
11
140.249
21
-96.866
0
LINE
8
BLACK
6
CONTINUOUS
10
137.449
20
-96.866
11
135.849
21
-96.866
0
LINE
8
BLACK
6
CONTINUOUS
10
135.849
20
-96.866
11
135.849
21
-95.666
0
LINE
8
BLACK
6
CONTINUOUS
10
135.849
20
-95.666
11
137.449
21
-95.666
0
LINE
8
BLACK
6
CONTINUOUS
10
137.449
20
-95.666
11
137.449
21
-96.866
0
LINE
8
BLACK
6
CONTINUOUS
10
121.199
20
-96.866
11
119.599
21
-96.866
0
LINE
8
BLACK
6
CONTINUOUS
10
119.599
20
-96.866
11
119.599
21
-95.666
0
LINE
8
BLACK
6
CONTINUOUS
10
119.599
20
-95.666
11
121.199
21
-95.666
0
LINE
8
BLACK
6
CONTINUOUS
10
121.199
20
-95.666
11
121.199
21
-96.866
0
LINE
8
BLACK
6
CONTINUOUS
10
118.399
20
-96.866
11
116.799
21
-96.866
0
LINE
8
BLACK
6
CONTINUOUS
10
116.799
20
-96.866
11
116.799
21
-95.666
0
LINE
8
BLACK
6
CONTINUOUS
10
116.799
20
-95.666
11
118.399
21
-95.666
0
LINE
8
BLACK
6
CONTINUOUS
10
118.399
20
-95.666
11
118.399
21
-96.866
0
LINE
8
BLACK
6
CONTINUOUS
10
102.149
20
-96.866
11
100.549
21
-96.866
0
LINE
8
BLACK
6
CONTINUOUS
10
100.549
20
-96.866
11
100.549
21
-95.666
0
LINE
8
BLACK
6
CONTINUOUS
10
100.549
20
-95.666
11
102.149
21
-95.666
0
LINE
8
BLACK
6
CONTINUOUS
10
102.149
20
-95.666
11
102.149
21
-96.866
0
LINE
8
BLACK
6
CONTINUOUS
10
99.349
20
-96.866
11
97.749
21
-96.866
0
LINE
8
BLACK
6
CONTINUOUS
10
97.749
20
-96.866
11
97.749
21
-95.666
0
LINE
8
BLACK
6
CONTINUOUS
10
97.749
20
-95.666
11
99.349
21
-95.666
0
LINE
8
BLACK
6
CONTINUOUS
10
99.349
20
-95.666
11
99.349
21
-96.866
0
LINE
8
BLACK
6
CONTINUOUS
10
71.161
20
-96.866
11
69.561
21
-96.866
0
LINE
8
BLACK
6
CONTINUOUS
10
69.561
20
-96.866
11
69.561
21
-95.666
0
LINE
8
BLACK
6
CONTINUOUS
10
69.561
20
-95.666
11
71.161
21
-95.666
0
LINE
8
BLACK
6
CONTINUOUS
10
71.161
20
-95.666
11
71.161
21
-96.866
0
LINE
8
BLACK
6
CONTINUOUS
10
216.449
20
-96.866
11
214.849
21
-96.866
0
LINE
8
BLACK
6
CONTINUOUS
10
214.849
20
-96.866
11
214.849
21
-95.666
0
LINE
8
BLACK
6
CONTINUOUS
10
214.849
20
-95.666
11
216.449
21
-95.666
0
LINE
8
BLACK
6
CONTINUOUS
10
216.449
20
-95.666
11
216.449
21
-96.866
0
LINE
8
BLACK
6
CONTINUOUS
10
68.361
20
-96.866
11
66.761
21
-96.866
0
LINE
8
BLACK
6
CONTINUOUS
10
66.761
20
-96.866
11
66.761
21
-95.666
0
LINE
8
BLACK
6
CONTINUOUS
10
66.761
20
-95.666
11
68.361
21
-95.666
0
LINE
8
BLACK
6
CONTINUOUS
10
68.361
20
-95.666
11
68.361
21
-96.866
0
LINE
8
BLACK
6
CONTINUOUS
10
194.599
20
-96.866
11
192.999
21
-96.866
0
LINE
8
BLACK
6
CONTINUOUS
10
192.999
20
-96.866
11
192.999
21
-95.666
0
LINE
8
BLACK
6
CONTINUOUS
10
192.999
20
-95.666
11
194.599
21
-95.666
0
LINE
8
BLACK
6
CONTINUOUS
10
194.599
20
-95.666
11
194.599
21
-96.866
0
LINE
8
BLACK
6
CONTINUOUS
10
270.672
20
-96.866
11
269.072
21
-96.866
0
LINE
8
BLACK
6
CONTINUOUS
10
269.072
20
-96.866
11
269.072
21
-95.666
0
LINE
8
BLACK
6
CONTINUOUS
10
269.072
20
-95.666
11
270.672
21
-95.666
0
LINE
8
BLACK
6
CONTINUOUS
10
270.672
20
-95.666
11
270.672
21
-96.866
0
LINE
8
BLACK
6
CONTINUOUS
10
273.472
20
-96.866
11
271.872
21
-96.866
0
LINE
8
BLACK
6
CONTINUOUS
10
271.872
20
-96.866
11
271.872
21
-95.666
0
LINE
8
BLACK
6
CONTINUOUS
10
271.872
20
-95.666
11
273.472
21
-95.666
0
LINE
8
BLACK
6
CONTINUOUS
10
273.472
20
-95.666
11
273.472
21
-96.866
0
LINE
8
BLACK
6
CONTINUOUS
10
296.921
20
-96.866
11
295.321
21
-96.866
0
LINE
8
BLACK
6
CONTINUOUS
10
295.321
20
-96.866
11
295.321
21
-95.666
0
LINE
8
BLACK
6
CONTINUOUS
10
295.321
20
-95.666
11
296.921
21
-95.666
0
LINE
8
BLACK
6
CONTINUOUS
10
296.921
20
-95.666
11
296.921
21
-96.866
0
LINE
8
BLACK
6
CONTINUOUS
10
299.721
20
-96.866
11
298.121
21
-96.866
0
LINE
8
BLACK
6
CONTINUOUS
10
298.121
20
-96.866
11
298.121
21
-95.666
0
LINE
8
BLACK
6
CONTINUOUS
10
298.121
20
-95.666
11
299.721
21
-95.666
0
LINE
8
BLACK
6
CONTINUOUS
10
299.721
20
-95.666
11
299.721
21
-96.866
0
LINE
8
BLACK
6
CONTINUOUS
10
344.973
20
-96.866
11
343.373
21
-96.866
0
LINE
8
BLACK
6
CONTINUOUS
10
343.373
20
-96.866
11
343.373
21
-95.666
0
LINE
8
BLACK
6
CONTINUOUS
10
343.373
20
-95.666
11
344.973
21
-95.666
0
LINE
8
BLACK
6
CONTINUOUS
10
344.973
20
-95.666
11
344.973
21
-96.866
0
LINE
8
BLACK
6
CONTINUOUS
10
342.173
20
-96.866
11
340.573
21
-96.866
0
LINE
8
BLACK
6
CONTINUOUS
10
340.573
20
-96.866
11
340.573
21
-95.666
0
LINE
8
BLACK
6
CONTINUOUS
10
340.573
20
-95.666
11
342.173
21
-95.666
0
LINE
8
BLACK
6
CONTINUOUS
10
342.173
20
-95.666
11
342.173
21
-96.866
0
LINE
8
BLACK
6
CONTINUOUS
10
325.923
20
-96.866
11
324.323
21
-96.866
0
LINE
8
BLACK
6
CONTINUOUS
10
324.323
20
-96.866
11
324.323
21
-95.666
0
LINE
8
BLACK
6
CONTINUOUS
10
324.323
20
-95.666
11
325.923
21
-95.666
0
LINE
8
BLACK
6
CONTINUOUS
10
325.923
20
-95.666
11
325.923
21
-96.866
0
LINE
8
BLACK
6
CONTINUOUS
10
254.422
20
-96.866
11
252.822
21
-96.866
0
LINE
8
BLACK
6
CONTINUOUS
10
252.822
20
-96.866
11
252.822
21
-95.666
0
LINE
8
BLACK
6
CONTINUOUS
10
252.822
20
-95.666
11
254.422
21
-95.666
0
LINE
8
BLACK
6
CONTINUOUS
10
254.422
20
-95.666
11
254.422
21
-96.866
0
LINE
8
BLACK
6
CONTINUOUS
10
251.622
20
-96.866
11
250.022
21
-96.866
0
LINE
8
BLACK
6
CONTINUOUS
10
250.022
20
-96.866
11
250.022
21
-95.666
0
LINE
8
BLACK
6
CONTINUOUS
10
250.022
20
-95.666
11
251.622
21
-95.666
0
LINE
8
BLACK
6
CONTINUOUS
10
251.622
20
-95.666
11
251.622
21
-96.866
0
LINE
8
BLACK
6
CONTINUOUS
10
235.499
20
-96.866
11
233.899
21
-96.866
0
LINE
8
BLACK
6
CONTINUOUS
10
233.899
20
-96.866
11
233.899
21
-95.666
0
LINE
8
BLACK
6
CONTINUOUS
10
233.899
20
-95.666
11
235.499
21
-95.666
0
LINE
8
BLACK
6
CONTINUOUS
10
235.499
20
-95.666
11
235.499
21
-96.866
0
LINE
8
BLACK
6
CONTINUOUS
10
323.123
20
-96.866
11
321.523
21
-96.866
0
LINE
8
BLACK
6
CONTINUOUS
10
321.523
20
-96.866
11
321.523
21
-95.666
0
LINE
8
BLACK
6
CONTINUOUS
10
321.523
20
-95.666
11
323.123
21
-95.666
0
LINE
8
BLACK
6
CONTINUOUS
10
323.123
20
-95.666
11
323.123
21
-96.866
0
LINE
8
BLACK
6
CONTINUOUS
10
213.649
20
-96.866
11
212.049
21
-96.866
0
LINE
8
BLACK
6
CONTINUOUS
10
212.049
20
-96.866
11
212.049
21
-95.666
0
LINE
8
BLACK
6
CONTINUOUS
10
212.049
20
-95.666
11
213.649
21
-95.666
0
LINE
8
BLACK
6
CONTINUOUS
10
213.649
20
-95.666
11
213.649
21
-96.866
0
LINE
8
BLACK
6
CONTINUOUS
10
197.399
20
-96.866
11
195.799
21
-96.866
0
LINE
8
BLACK
6
CONTINUOUS
10
195.799
20
-96.866
11
195.799
21
-95.666
0
LINE
8
BLACK
6
CONTINUOUS
10
195.799
20
-95.666
11
197.399
21
-95.666
0
LINE
8
BLACK
6
CONTINUOUS
10
197.399
20
-95.666
11
197.399
21
-96.866
0
LINE
8
BLACK
6
CONTINUOUS
10
232.699
20
-96.866
11
231.099
21
-96.866
0
LINE
8
BLACK
6
CONTINUOUS
10
231.099
20
-96.866
11
231.099
21
-95.666
0
LINE
8
BLACK
6
CONTINUOUS
10
231.099
20
-95.666
11
232.699
21
-95.666
0
LINE
8
BLACK
6
CONTINUOUS
10
232.699
20
-95.666
11
232.699
21
-96.866
0
LINE
8
BLACK
6
CONTINUOUS
10
332.343
20
-93.3868
11
332.39
21
-93.401
0
LINE
8
BLACK
6
CONTINUOUS
10
332.39
20
-93.401
11
332.433
21
-93.4241
0
LINE
8
BLACK
6
CONTINUOUS
10
332.433
20
-93.4241
11
332.471
21
-93.4552
0
LINE
8
BLACK
6
CONTINUOUS
10
332.471
20
-93.4552
11
332.502
21
-93.4931
0
LINE
8
BLACK
6
CONTINUOUS
10
332.502
20
-93.4931
11
332.525
21
-93.5363
0
LINE
8
BLACK
6
CONTINUOUS
10
332.525
20
-93.5363
11
332.539
21
-93.5832
0
LINE
8
BLACK
6
CONTINUOUS
10
332.539
20
-93.5832
11
332.544
21
-93.632
0
LINE
8
BLACK
6
CONTINUOUS
10
332.544
20
-93.632
11
332.544
21
-94.582
0
LINE
8
BLACK
6
CONTINUOUS
10
332.544
20
-94.582
11
332.539
21
-94.6308
0
LINE
8
BLACK
6
CONTINUOUS
10
332.539
20
-94.6308
11
332.525
21
-94.6777
0
LINE
8
BLACK
6
CONTINUOUS
10
332.525
20
-94.6777
11
332.502
21
-94.7209
0
LINE
8
BLACK
6
CONTINUOUS
10
332.502
20
-94.7209
11
332.471
21
-94.7588
0
LINE
8
BLACK
6
CONTINUOUS
10
332.471
20
-94.7588
11
332.433
21
-94.7899
0
LINE
8
BLACK
6
CONTINUOUS
10
332.433
20
-94.7899
11
332.39
21
-94.813
0
LINE
8
BLACK
6
CONTINUOUS
10
332.39
20
-94.813
11
332.343
21
-94.8272
0
LINE
8
BLACK
6
CONTINUOUS
10
332.343
20
-94.8272
11
332.294
21
-94.832
0
LINE
8
BLACK
6
CONTINUOUS
10
332.294
20
-94.832
11
331.619
21
-94.832
0
LINE
8
BLACK
6
CONTINUOUS
10
331.619
20
-94.832
11
331.57
21
-94.8272
0
LINE
8
BLACK
6
CONTINUOUS
10
331.57
20
-94.8272
11
331.523
21
-94.813
0
LINE
8
BLACK
6
CONTINUOUS
10
331.523
20
-94.813
11
331.48
21
-94.7899
0
LINE
8
BLACK
6
CONTINUOUS
10
331.48
20
-94.7899
11
331.442
21
-94.7588
0
LINE
8
BLACK
6
CONTINUOUS
10
331.442
20
-94.7588
11
331.411
21
-94.7209
0
LINE
8
BLACK
6
CONTINUOUS
10
331.411
20
-94.7209
11
331.388
21
-94.6777
0
LINE
8
BLACK
6
CONTINUOUS
10
331.388
20
-94.6777
11
331.374
21
-94.6308
0
LINE
8
BLACK
6
CONTINUOUS
10
331.374
20
-94.6308
11
331.369
21
-94.582
0
LINE
8
BLACK
6
CONTINUOUS
10
331.369
20
-94.582
11
331.369
21
-93.632
0
LINE
8
BLACK
6
CONTINUOUS
10
331.369
20
-93.632
11
331.374
21
-93.5832
0
LINE
8
BLACK
6
CONTINUOUS
10
331.374
20
-93.5832
11
331.388
21
-93.5363
0
LINE
8
BLACK
6
CONTINUOUS
10
331.388
20
-93.5363
11
331.411
21
-93.4931
0
LINE
8
BLACK
6
CONTINUOUS
10
331.411
20
-93.4931
11
331.442
21
-93.4552
0
LINE
8
BLACK
6
CONTINUOUS
10
331.442
20
-93.4552
11
331.48
21
-93.4241
0
LINE
8
BLACK
6
CONTINUOUS
10
331.48
20
-93.4241
11
331.523
21
-93.401
0
LINE
8
BLACK
6
CONTINUOUS
10
331.523
20
-93.401
11
331.57
21
-93.3868
0
LINE
8
BLACK
6
CONTINUOUS
10
331.57
20
-93.3868
11
331.619
21
-93.382
0
LINE
8
BLACK
6
CONTINUOUS
10
331.619
20
-93.382
11
332.294
21
-93.382
0
LINE
8
BLACK
6
CONTINUOUS
10
332.294
20
-93.382
11
332.343
21
-93.3868
0
LINE
8
BLACK
6
CONTINUOUS
10
334.418
20
-93.3868
11
334.465
21
-93.401
0
LINE
8
BLACK
6
CONTINUOUS
10
334.465
20
-93.401
11
334.508
21
-93.4241
0
LINE
8
BLACK
6
CONTINUOUS
10
334.508
20
-93.4241
11
334.546
21
-93.4552
0
LINE
8
BLACK
6
CONTINUOUS
10
334.546
20
-93.4552
11
334.577
21
-93.4931
0
LINE
8
BLACK
6
CONTINUOUS
10
334.577
20
-93.4931
11
334.6
21
-93.5363
0
LINE
8
BLACK
6
CONTINUOUS
10
334.6
20
-93.5363
11
334.614
21
-93.5832
0
LINE
8
BLACK
6
CONTINUOUS
10
334.614
20
-93.5832
11
334.619
21
-93.632
0
LINE
8
BLACK
6
CONTINUOUS
10
334.619
20
-93.632
11
334.619
21
-94.582
0
LINE
8
BLACK
6
CONTINUOUS
10
334.619
20
-94.582
11
334.614
21
-94.6308
0
LINE
8
BLACK
6
CONTINUOUS
10
334.614
20
-94.6308
11
334.6
21
-94.6777
0
LINE
8
BLACK
6
CONTINUOUS
10
334.6
20
-94.6777
11
334.577
21
-94.7209
0
LINE
8
BLACK
6
CONTINUOUS
10
334.577
20
-94.7209
11
334.546
21
-94.7588
0
LINE
8
BLACK
6
CONTINUOUS
10
334.546
20
-94.7588
11
334.508
21
-94.7899
0
LINE
8
BLACK
6
CONTINUOUS
10
334.508
20
-94.7899
11
334.465
21
-94.813
0
LINE
8
BLACK
6
CONTINUOUS
10
334.465
20
-94.813
11
334.418
21
-94.8272
0
LINE
8
BLACK
6
CONTINUOUS
10
334.418
20
-94.8272
11
334.369
21
-94.832
0
LINE
8
BLACK
6
CONTINUOUS
10
334.369
20
-94.832
11
333.694
21
-94.832
0
LINE
8
BLACK
6
CONTINUOUS
10
333.694
20
-94.832
11
333.645
21
-94.8272
0
LINE
8
BLACK
6
CONTINUOUS
10
333.645
20
-94.8272
11
333.598
21
-94.813
0
LINE
8
BLACK
6
CONTINUOUS
10
333.598
20
-94.813
11
333.555
21
-94.7899
0
LINE
8
BLACK
6
CONTINUOUS
10
333.555
20
-94.7899
11
333.517
21
-94.7588
0
LINE
8
BLACK
6
CONTINUOUS
10
333.517
20
-94.7588
11
333.486
21
-94.7209
0
LINE
8
BLACK
6
CONTINUOUS
10
333.486
20
-94.7209
11
333.463
21
-94.6777
0
LINE
8
BLACK
6
CONTINUOUS
10
333.463
20
-94.6777
11
333.449
21
-94.6308
0
LINE
8
BLACK
6
CONTINUOUS
10
333.449
20
-94.6308
11
333.444
21
-94.582
0
LINE
8
BLACK
6
CONTINUOUS
10
333.444
20
-94.582
11
333.444
21
-93.632
0
LINE
8
BLACK
6
CONTINUOUS
10
333.444
20
-93.632
11
333.449
21
-93.5832
0
LINE
8
BLACK
6
CONTINUOUS
10
333.449
20
-93.5832
11
333.463
21
-93.5363
0
LINE
8
BLACK
6
CONTINUOUS
10
333.463
20
-93.5363
11
333.486
21
-93.4931
0
LINE
8
BLACK
6
CONTINUOUS
10
333.486
20
-93.4931
11
333.517
21
-93.4552
0
LINE
8
BLACK
6
CONTINUOUS
10
333.517
20
-93.4552
11
333.555
21
-93.4241
0
LINE
8
BLACK
6
CONTINUOUS
10
333.555
20
-93.4241
11
333.598
21
-93.401
0
LINE
8
BLACK
6
CONTINUOUS
10
333.598
20
-93.401
11
333.645
21
-93.3868
0
LINE
8
BLACK
6
CONTINUOUS
10
333.645
20
-93.3868
11
333.694
21
-93.382
0
LINE
8
BLACK
6
CONTINUOUS
10
333.694
20
-93.382
11
334.369
21
-93.382
0
LINE
8
BLACK
6
CONTINUOUS
10
334.369
20
-93.382
11
334.418
21
-93.3868
0
LINE
8
BLACK
6
CONTINUOUS
10
262.768
20
-93.3868
11
262.815
21
-93.401
0
LINE
8
BLACK
6
CONTINUOUS
10
262.815
20
-93.401
11
262.858
21
-93.4241
0
LINE
8
BLACK
6
CONTINUOUS
10
262.858
20
-93.4241
11
262.896
21
-93.4552
0
LINE
8
BLACK
6
CONTINUOUS
10
262.896
20
-93.4552
11
262.927
21
-93.4931
0
LINE
8
BLACK
6
CONTINUOUS
10
262.927
20
-93.4931
11
262.95
21
-93.5363
0
LINE
8
BLACK
6
CONTINUOUS
10
262.95
20
-93.5363
11
262.965
21
-93.5832
0
LINE
8
BLACK
6
CONTINUOUS
10
262.965
20
-93.5832
11
262.969
21
-93.632
0
LINE
8
BLACK
6
CONTINUOUS
10
262.969
20
-93.632
11
262.969
21
-94.582
0
LINE
8
BLACK
6
CONTINUOUS
10
262.969
20
-94.582
11
262.965
21
-94.6308
0
LINE
8
BLACK
6
CONTINUOUS
10
262.965
20
-94.6308
11
262.95
21
-94.6777
0
LINE
8
BLACK
6
CONTINUOUS
10
262.95
20
-94.6777
11
262.927
21
-94.7209
0
LINE
8
BLACK
6
CONTINUOUS
10
262.927
20
-94.7209
11
262.896
21
-94.7588
0
LINE
8
BLACK
6
CONTINUOUS
10
262.896
20
-94.7588
11
262.858
21
-94.7899
0
LINE
8
BLACK
6
CONTINUOUS
10
262.858
20
-94.7899
11
262.815
21
-94.813
0
LINE
8
BLACK
6
CONTINUOUS
10
262.815
20
-94.813
11
262.768
21
-94.8272
0
LINE
8
BLACK
6
CONTINUOUS
10
262.768
20
-94.8272
11
262.719
21
-94.832
0
LINE
8
BLACK
6
CONTINUOUS
10
262.719
20
-94.832
11
262.044
21
-94.832
0
LINE
8
BLACK
6
CONTINUOUS
10
262.044
20
-94.832
11
261.996
21
-94.8272
0
LINE
8
BLACK
6
CONTINUOUS
10
261.996
20
-94.8272
11
261.949
21
-94.813
0
LINE
8
BLACK
6
CONTINUOUS
10
261.949
20
-94.813
11
261.906
21
-94.7899
0
LINE
8
BLACK
6
CONTINUOUS
10
261.906
20
-94.7899
11
261.868
21
-94.7588
0
LINE
8
BLACK
6
CONTINUOUS
10
261.868
20
-94.7588
11
261.837
21
-94.7209
0
LINE
8
BLACK
6
CONTINUOUS
10
261.837
20
-94.7209
11
261.814
21
-94.6777
0
LINE
8
BLACK
6
CONTINUOUS
10
261.814
20
-94.6777
11
261.799
21
-94.6308
0
LINE
8
BLACK
6
CONTINUOUS
10
261.799
20
-94.6308
11
261.794
21
-94.582
0
LINE
8
BLACK
6
CONTINUOUS
10
261.794
20
-94.582
11
261.794
21
-93.632
0
LINE
8
BLACK
6
CONTINUOUS
10
261.794
20
-93.632
11
261.799
21
-93.5832
0
LINE
8
BLACK
6
CONTINUOUS
10
261.799
20
-93.5832
11
261.814
21
-93.5363
0
LINE
8
BLACK
6
CONTINUOUS
10
261.814
20
-93.5363
11
261.837
21
-93.4931
0
LINE
8
BLACK
6
CONTINUOUS
10
261.837
20
-93.4931
11
261.868
21
-93.4552
0
LINE
8
BLACK
6
CONTINUOUS
10
261.868
20
-93.4552
11
261.906
21
-93.4241
0
LINE
8
BLACK
6
CONTINUOUS
10
261.906
20
-93.4241
11
261.949
21
-93.401
0
LINE
8
BLACK
6
CONTINUOUS
10
261.949
20
-93.401
11
261.996
21
-93.3868
0
LINE
8
BLACK
6
CONTINUOUS
10
261.996
20
-93.3868
11
262.044
21
-93.382
0
LINE
8
BLACK
6
CONTINUOUS
10
262.044
20
-93.382
11
262.719
21
-93.382
0
LINE
8
BLACK
6
CONTINUOUS
10
262.719
20
-93.382
11
262.768
21
-93.3868
0
LINE
8
BLACK
6
CONTINUOUS
10
260.693
20
-93.3868
11
260.74
21
-93.401
0
LINE
8
BLACK
6
CONTINUOUS
10
260.74
20
-93.401
11
260.783
21
-93.4241
0
LINE
8
BLACK
6
CONTINUOUS
10
260.783
20
-93.4241
11
260.821
21
-93.4552
0
LINE
8
BLACK
6
CONTINUOUS
10
260.821
20
-93.4552
11
260.852
21
-93.4931
0
LINE
8
BLACK
6
CONTINUOUS
10
260.852
20
-93.4931
11
260.875
21
-93.5363
0
LINE
8
BLACK
6
CONTINUOUS
10
260.875
20
-93.5363
11
260.89
21
-93.5832
0
LINE
8
BLACK
6
CONTINUOUS
10
260.89
20
-93.5832
11
260.894
21
-93.632
0
LINE
8
BLACK
6
CONTINUOUS
10
260.894
20
-93.632
11
260.894
21
-94.582
0
LINE
8
BLACK
6
CONTINUOUS
10
260.894
20
-94.582
11
260.89
21
-94.6308
0
LINE
8
BLACK
6
CONTINUOUS
10
260.89
20
-94.6308
11
260.875
21
-94.6777
0
LINE
8
BLACK
6
CONTINUOUS
10
260.875
20
-94.6777
11
260.852
21
-94.7209
0
LINE
8
BLACK
6
CONTINUOUS
10
260.852
20
-94.7209
11
260.821
21
-94.7588
0
LINE
8
BLACK
6
CONTINUOUS
10
260.821
20
-94.7588
11
260.783
21
-94.7899
0
LINE
8
BLACK
6
CONTINUOUS
10
260.783
20
-94.7899
11
260.74
21
-94.813
0
LINE
8
BLACK
6
CONTINUOUS
10
260.74
20
-94.813
11
260.693
21
-94.8272
0
LINE
8
BLACK
6
CONTINUOUS
10
260.693
20
-94.8272
11
260.644
21
-94.832
0
LINE
8
BLACK
6
CONTINUOUS
10
260.644
20
-94.832
11
259.969
21
-94.832
0
LINE
8
BLACK
6
CONTINUOUS
10
259.969
20
-94.832
11
259.921
21
-94.8272
0
LINE
8
BLACK
6
CONTINUOUS
10
259.921
20
-94.8272
11
259.874
21
-94.813
0
LINE
8
BLACK
6
CONTINUOUS
10
259.874
20
-94.813
11
259.831
21
-94.7899
0
LINE
8
BLACK
6
CONTINUOUS
10
259.831
20
-94.7899
11
259.793
21
-94.7588
0
LINE
8
BLACK
6
CONTINUOUS
10
259.793
20
-94.7588
11
259.762
21
-94.7209
0
LINE
8
BLACK
6
CONTINUOUS
10
259.762
20
-94.7209
11
259.739
21
-94.6777
0
LINE
8
BLACK
6
CONTINUOUS
10
259.739
20
-94.6777
11
259.724
21
-94.6308
0
LINE
8
BLACK
6
CONTINUOUS
10
259.724
20
-94.6308
11
259.719
21
-94.582
0
LINE
8
BLACK
6
CONTINUOUS
10
259.719
20
-94.582
11
259.719
21
-93.632
0
LINE
8
BLACK
6
CONTINUOUS
10
259.719
20
-93.632
11
259.724
21
-93.5832
0
LINE
8
BLACK
6
CONTINUOUS
10
259.724
20
-93.5832
11
259.739
21
-93.5363
0
LINE
8
BLACK
6
CONTINUOUS
10
259.739
20
-93.5363
11
259.762
21
-93.4931
0
LINE
8
BLACK
6
CONTINUOUS
10
259.762
20
-93.4931
11
259.793
21
-93.4552
0
LINE
8
BLACK
6
CONTINUOUS
10
259.793
20
-93.4552
11
259.831
21
-93.4241
0
LINE
8
BLACK
6
CONTINUOUS
10
259.831
20
-93.4241
11
259.874
21
-93.401
0
LINE
8
BLACK
6
CONTINUOUS
10
259.874
20
-93.401
11
259.921
21
-93.3868
0
LINE
8
BLACK
6
CONTINUOUS
10
259.921
20
-93.3868
11
259.969
21
-93.382
0
LINE
8
BLACK
6
CONTINUOUS
10
259.969
20
-93.382
11
260.644
21
-93.382
0
LINE
8
BLACK
6
CONTINUOUS
10
260.644
20
-93.382
11
260.693
21
-93.3868
0
LINE
8
BLACK
6
CONTINUOUS
10
113.252
20
-89.1975
11
110.703
21
-89.1975
0
LINE
8
BLACK
6
CONTINUOUS
10
110.703
20
-89.1975
11
110.703
21
-86.6975
0
LINE
8
BLACK
6
CONTINUOUS
10
110.703
20
-86.6975
11
113.252
21
-86.6975
0
LINE
8
BLACK
6
CONTINUOUS
10
113.252
20
-86.6975
11
113.252
21
-89.1975
0
LINE
8
BLACK
6
CONTINUOUS
10
132.302
20
-89.1975
11
129.752
21
-89.1975
0
LINE
8
BLACK
6
CONTINUOUS
10
129.752
20
-89.1975
11
129.752
21
-86.6975
0
LINE
8
BLACK
6
CONTINUOUS
10
129.752
20
-86.6975
11
132.302
21
-86.6975
0
LINE
8
BLACK
6
CONTINUOUS
10
132.302
20
-86.6975
11
132.302
21
-89.1975
0
LINE
8
BLACK
6
CONTINUOUS
10
63.2462
20
-89.1975
11
60.6962
21
-89.1975
0
LINE
8
BLACK
6
CONTINUOUS
10
60.6962
20
-89.1975
11
60.6962
21
-86.6975
0
LINE
8
BLACK
6
CONTINUOUS
10
60.6962
20
-86.6975
11
63.2462
21
-86.6975
0
LINE
8
BLACK
6
CONTINUOUS
10
63.2462
20
-86.6975
11
63.2462
21
-89.1975
0
LINE
8
BLACK
6
CONTINUOUS
10
265.652
20
-89.1975
11
263.102
21
-89.1975
0
LINE
8
BLACK
6
CONTINUOUS
10
263.102
20
-89.1975
11
263.102
21
-86.6975
0
LINE
8
BLACK
6
CONTINUOUS
10
263.102
20
-86.6975
11
265.652
21
-86.6975
0
LINE
8
BLACK
6
CONTINUOUS
10
265.652
20
-86.6975
11
265.652
21
-89.1975
0
LINE
8
BLACK
6
CONTINUOUS
10
337.09
20
-89.1975
11
334.54
21
-89.1975
0
LINE
8
BLACK
6
CONTINUOUS
10
334.54
20
-89.1975
11
334.54
21
-86.6975
0
LINE
8
BLACK
6
CONTINUOUS
10
334.54
20
-86.6975
11
337.09
21
-86.6975
0
LINE
8
BLACK
6
CONTINUOUS
10
337.09
20
-86.6975
11
337.09
21
-89.1975
0
LINE
8
BLACK
6
CONTINUOUS
10
291.846
20
-89.1975
11
289.296
21
-89.1975
0
LINE
8
BLACK
6
CONTINUOUS
10
289.296
20
-89.1975
11
289.296
21
-86.6975
0
LINE
8
BLACK
6
CONTINUOUS
10
289.296
20
-86.6975
11
291.846
21
-86.6975
0
LINE
8
BLACK
6
CONTINUOUS
10
291.846
20
-86.6975
11
291.846
21
-89.1975
0
LINE
8
BLACK
6
CONTINUOUS
10
189.452
20
-89.1975
11
186.903
21
-89.1975
0
LINE
8
BLACK
6
CONTINUOUS
10
186.903
20
-89.1975
11
186.903
21
-86.6975
0
LINE
8
BLACK
6
CONTINUOUS
10
186.903
20
-86.6975
11
189.452
21
-86.6975
0
LINE
8
BLACK
6
CONTINUOUS
10
189.452
20
-86.6975
11
189.452
21
-89.1975
0
LINE
8
BLACK
6
CONTINUOUS
10
151.352
20
-89.1975
11
148.802
21
-89.1975
0
LINE
8
BLACK
6
CONTINUOUS
10
148.802
20
-89.1975
11
148.802
21
-86.6975
0
LINE
8
BLACK
6
CONTINUOUS
10
148.802
20
-86.6975
11
151.352
21
-86.6975
0
LINE
8
BLACK
6
CONTINUOUS
10
151.352
20
-86.6975
11
151.352
21
-89.1975
0
LINE
8
BLACK
6
CONTINUOUS
10
170.403
20
-89.1975
11
167.852
21
-89.1975
0
LINE
8
BLACK
6
CONTINUOUS
10
167.852
20
-89.1975
11
167.852
21
-86.6975
0
LINE
8
BLACK
6
CONTINUOUS
10
167.852
20
-86.6975
11
170.403
21
-86.6975
0
LINE
8
BLACK
6
CONTINUOUS
10
170.403
20
-86.6975
11
170.403
21
-89.1975
0
LINE
8
BLACK
6
CONTINUOUS
10
208.502
20
-89.1975
11
205.952
21
-89.1975
0
LINE
8
BLACK
6
CONTINUOUS
10
205.952
20
-89.1975
11
205.952
21
-86.6975
0
LINE
8
BLACK
6
CONTINUOUS
10
205.952
20
-86.6975
11
208.502
21
-86.6975
0
LINE
8
BLACK
6
CONTINUOUS
10
208.502
20
-86.6975
11
208.502
21
-89.1975
0
LINE
8
BLACK
6
CONTINUOUS
10
318.04
20
-89.1975
11
315.49
21
-89.1975
0
LINE
8
BLACK
6
CONTINUOUS
10
315.49
20
-89.1975
11
315.49
21
-86.6975
0
LINE
8
BLACK
6
CONTINUOUS
10
315.49
20
-86.6975
11
318.04
21
-86.6975
0
LINE
8
BLACK
6
CONTINUOUS
10
318.04
20
-86.6975
11
318.04
21
-89.1975
0
LINE
8
BLACK
6
CONTINUOUS
10
94.2025
20
-89.1975
11
91.6525
21
-89.1975
0
LINE
8
BLACK
6
CONTINUOUS
10
91.6525
20
-89.1975
11
91.6525
21
-86.6975
0
LINE
8
BLACK
6
CONTINUOUS
10
91.6525
20
-86.6975
11
94.2025
21
-86.6975
0
LINE
8
BLACK
6
CONTINUOUS
10
94.2025
20
-86.6975
11
94.2025
21
-89.1975
0
LINE
8
BLACK
6
CONTINUOUS
10
246.602
20
-89.1975
11
244.052
21
-89.1975
0
LINE
8
BLACK
6
CONTINUOUS
10
244.052
20
-89.1975
11
244.052
21
-86.6975
0
LINE
8
BLACK
6
CONTINUOUS
10
244.052
20
-86.6975
11
246.602
21
-86.6975
0
LINE
8
BLACK
6
CONTINUOUS
10
246.602
20
-86.6975
11
246.602
21
-89.1975
0
LINE
8
BLACK
6
CONTINUOUS
10
227.552
20
-89.1975
11
225.002
21
-89.1975
0
LINE
8
BLACK
6
CONTINUOUS
10
225.002
20
-89.1975
11
225.002
21
-86.6975
0
LINE
8
BLACK
6
CONTINUOUS
10
225.002
20
-86.6975
11
227.552
21
-86.6975
0
LINE
8
BLACK
6
CONTINUOUS
10
227.552
20
-86.6975
11
227.552
21
-89.1975
0
LINE
8
BLACK
6
CONTINUOUS
10
311.939
20
-86.9098
11
311.986
21
-86.924
0
LINE
8
BLACK
6
CONTINUOUS
10
311.986
20
-86.924
11
312.029
21
-86.9471
0
LINE
8
BLACK
6
CONTINUOUS
10
312.029
20
-86.9471
11
312.067
21
-86.9782
0
LINE
8
BLACK
6
CONTINUOUS
10
312.067
20
-86.9782
11
312.098
21
-87.0161
0
LINE
8
BLACK
6
CONTINUOUS
10
312.098
20
-87.0161
11
312.121
21
-87.0593
0
LINE
8
BLACK
6
CONTINUOUS
10
312.121
20
-87.0593
11
312.135
21
-87.1062
0
LINE
8
BLACK
6
CONTINUOUS
10
312.135
20
-87.1062
11
312.14
21
-87.155
0
LINE
8
BLACK
6
CONTINUOUS
10
312.14
20
-87.155
11
312.14
21
-88.105
0
LINE
8
BLACK
6
CONTINUOUS
10
312.14
20
-88.105
11
312.135
21
-88.1538
0
LINE
8
BLACK
6
CONTINUOUS
10
312.135
20
-88.1538
11
312.121
21
-88.2007
0
LINE
8
BLACK
6
CONTINUOUS
10
312.121
20
-88.2007
11
312.098
21
-88.2439
0
LINE
8
BLACK
6
CONTINUOUS
10
312.098
20
-88.2439
11
312.067
21
-88.2818
0
LINE
8
BLACK
6
CONTINUOUS
10
312.067
20
-88.2818
11
312.029
21
-88.3129
0
LINE
8
BLACK
6
CONTINUOUS
10
312.029
20
-88.3129
11
311.986
21
-88.336
0
LINE
8
BLACK
6
CONTINUOUS
10
311.986
20
-88.336
11
311.939
21
-88.3502
0
LINE
8
BLACK
6
CONTINUOUS
10
311.939
20
-88.3502
11
311.89
21
-88.355
0
LINE
8
BLACK
6
CONTINUOUS
10
311.89
20
-88.355
11
311.215
21
-88.355
0
LINE
8
BLACK
6
CONTINUOUS
10
311.215
20
-88.355
11
311.166
21
-88.3502
0
LINE
8
BLACK
6
CONTINUOUS
10
311.166
20
-88.3502
11
311.119
21
-88.336
0
LINE
8
BLACK
6
CONTINUOUS
10
311.119
20
-88.336
11
311.076
21
-88.3129
0
LINE
8
BLACK
6
CONTINUOUS
10
311.076
20
-88.3129
11
311.038
21
-88.2818
0
LINE
8
BLACK
6
CONTINUOUS
10
311.038
20
-88.2818
11
311.007
21
-88.2439
0
LINE
8
BLACK
6
CONTINUOUS
10
311.007
20
-88.2439
11
310.984
21
-88.2007
0
LINE
8
BLACK
6
CONTINUOUS
10
310.984
20
-88.2007
11
310.97
21
-88.1538
0
LINE
8
BLACK
6
CONTINUOUS
10
310.97
20
-88.1538
11
310.965
21
-88.105
0
LINE
8
BLACK
6
CONTINUOUS
10
310.965
20
-88.105
11
310.965
21
-87.155
0
LINE
8
BLACK
6
CONTINUOUS
10
310.965
20
-87.155
11
310.97
21
-87.1062
0
LINE
8
BLACK
6
CONTINUOUS
10
310.97
20
-87.1062
11
310.984
21
-87.0593
0
LINE
8
BLACK
6
CONTINUOUS
10
310.984
20
-87.0593
11
311.007
21
-87.0161
0
LINE
8
BLACK
6
CONTINUOUS
10
311.007
20
-87.0161
11
311.038
21
-86.9782
0
LINE
8
BLACK
6
CONTINUOUS
10
311.038
20
-86.9782
11
311.076
21
-86.9471
0
LINE
8
BLACK
6
CONTINUOUS
10
311.076
20
-86.9471
11
311.119
21
-86.924
0
LINE
8
BLACK
6
CONTINUOUS
10
311.119
20
-86.924
11
311.166
21
-86.9098
0
LINE
8
BLACK
6
CONTINUOUS
10
311.166
20
-86.9098
11
311.215
21
-86.905
0
LINE
8
BLACK
6
CONTINUOUS
10
311.215
20
-86.905
11
311.89
21
-86.905
0
LINE
8
BLACK
6
CONTINUOUS
10
311.89
20
-86.905
11
311.939
21
-86.9098
0
LINE
8
BLACK
6
CONTINUOUS
10
309.864
20
-86.9098
11
309.911
21
-86.924
0
LINE
8
BLACK
6
CONTINUOUS
10
309.911
20
-86.924
11
309.954
21
-86.9471
0
LINE
8
BLACK
6
CONTINUOUS
10
309.954
20
-86.9471
11
309.992
21
-86.9782
0
LINE
8
BLACK
6
CONTINUOUS
10
309.992
20
-86.9782
11
310.023
21
-87.0161
0
LINE
8
BLACK
6
CONTINUOUS
10
310.023
20
-87.0161
11
310.046
21
-87.0593
0
LINE
8
BLACK
6
CONTINUOUS
10
310.046
20
-87.0593
11
310.06
21
-87.1062
0
LINE
8
BLACK
6
CONTINUOUS
10
310.06
20
-87.1062
11
310.065
21
-87.155
0
LINE
8
BLACK
6
CONTINUOUS
10
310.065
20
-87.155
11
310.065
21
-88.105
0
LINE
8
BLACK
6
CONTINUOUS
10
310.065
20
-88.105
11
310.06
21
-88.1538
0
LINE
8
BLACK
6
CONTINUOUS
10
310.06
20
-88.1538
11
310.046
21
-88.2007
0
LINE
8
BLACK
6
CONTINUOUS
10
310.046
20
-88.2007
11
310.023
21
-88.2439
0
LINE
8
BLACK
6
CONTINUOUS
10
310.023
20
-88.2439
11
309.992
21
-88.2818
0
LINE
8
BLACK
6
CONTINUOUS
10
309.992
20
-88.2818
11
309.954
21
-88.3129
0
LINE
8
BLACK
6
CONTINUOUS
10
309.954
20
-88.3129
11
309.911
21
-88.336
0
LINE
8
BLACK
6
CONTINUOUS
10
309.911
20
-88.336
11
309.864
21
-88.3502
0
LINE
8
BLACK
6
CONTINUOUS
10
309.864
20
-88.3502
11
309.815
21
-88.355
0
LINE
8
BLACK
6
CONTINUOUS
10
309.815
20
-88.355
11
309.14
21
-88.355
0
LINE
8
BLACK
6
CONTINUOUS
10
309.14
20
-88.355
11
309.091
21
-88.3502
0
LINE
8
BLACK
6
CONTINUOUS
10
309.091
20
-88.3502
11
309.044
21
-88.336
0
LINE
8
BLACK
6
CONTINUOUS
10
309.044
20
-88.336
11
309.001
21
-88.3129
0
LINE
8
BLACK
6
CONTINUOUS
10
309.001
20
-88.3129
11
308.963
21
-88.2818
0
LINE
8
BLACK
6
CONTINUOUS
10
308.963
20
-88.2818
11
308.932
21
-88.2439
0
LINE
8
BLACK
6
CONTINUOUS
10
308.932
20
-88.2439
11
308.909
21
-88.2007
0
LINE
8
BLACK
6
CONTINUOUS
10
308.909
20
-88.2007
11
308.895
21
-88.1538
0
LINE
8
BLACK
6
CONTINUOUS
10
308.895
20
-88.1538
11
308.89
21
-88.105
0
LINE
8
BLACK
6
CONTINUOUS
10
308.89
20
-88.105
11
308.89
21
-87.155
0
LINE
8
BLACK
6
CONTINUOUS
10
308.89
20
-87.155
11
308.895
21
-87.1062
0
LINE
8
BLACK
6
CONTINUOUS
10
308.895
20
-87.1062
11
308.909
21
-87.0593
0
LINE
8
BLACK
6
CONTINUOUS
10
308.909
20
-87.0593
11
308.932
21
-87.0161
0
LINE
8
BLACK
6
CONTINUOUS
10
308.932
20
-87.0161
11
308.963
21
-86.9782
0
LINE
8
BLACK
6
CONTINUOUS
10
308.963
20
-86.9782
11
309.001
21
-86.9471
0
LINE
8
BLACK
6
CONTINUOUS
10
309.001
20
-86.9471
11
309.044
21
-86.924
0
LINE
8
BLACK
6
CONTINUOUS
10
309.044
20
-86.924
11
309.091
21
-86.9098
0
LINE
8
BLACK
6
CONTINUOUS
10
309.091
20
-86.9098
11
309.14
21
-86.905
0
LINE
8
BLACK
6
CONTINUOUS
10
309.14
20
-86.905
11
309.815
21
-86.905
0
LINE
8
BLACK
6
CONTINUOUS
10
309.815
20
-86.905
11
309.864
21
-86.9098
0
LINE
8
BLACK
6
CONTINUOUS
10
126.179
20
-86.6575
11
123.629
21
-86.6575
0
LINE
8
BLACK
6
CONTINUOUS
10
123.629
20
-86.6575
11
123.629
21
-84.1575
0
LINE
8
BLACK
6
CONTINUOUS
10
123.629
20
-84.1575
11
126.179
21
-84.1575
0
LINE
8
BLACK
6
CONTINUOUS
10
126.179
20
-84.1575
11
126.179
21
-86.6575
0
LINE
8
BLACK
6
CONTINUOUS
10
107.129
20
-86.6575
11
104.579
21
-86.6575
0
LINE
8
BLACK
6
CONTINUOUS
10
104.579
20
-86.6575
11
104.579
21
-84.1575
0
LINE
8
BLACK
6
CONTINUOUS
10
104.579
20
-84.1575
11
107.129
21
-84.1575
0
LINE
8
BLACK
6
CONTINUOUS
10
107.129
20
-84.1575
11
107.129
21
-86.6575
0
LINE
8
BLACK
6
CONTINUOUS
10
330.967
20
-86.6575
11
328.417
21
-86.6575
0
LINE
8
BLACK
6
CONTINUOUS
10
328.417
20
-86.6575
11
328.417
21
-84.1575
0
LINE
8
BLACK
6
CONTINUOUS
10
328.417
20
-84.1575
11
330.967
21
-84.1575
0
LINE
8
BLACK
6
CONTINUOUS
10
330.967
20
-84.1575
11
330.967
21
-86.6575
0
LINE
8
BLACK
6
CONTINUOUS
10
221.429
20
-86.6575
11
218.879
21
-86.6575
0
LINE
8
BLACK
6
CONTINUOUS
10
218.879
20
-86.6575
11
218.879
21
-84.1575
0
LINE
8
BLACK
6
CONTINUOUS
10
218.879
20
-84.1575
11
221.429
21
-84.1575
0
LINE
8
BLACK
6
CONTINUOUS
10
221.429
20
-84.1575
11
221.429
21
-86.6575
0
LINE
8
BLACK
6
CONTINUOUS
10
183.329
20
-86.6575
11
180.779
21
-86.6575
0
LINE
8
BLACK
6
CONTINUOUS
10
180.779
20
-86.6575
11
180.779
21
-84.1575
0
LINE
8
BLACK
6
CONTINUOUS
10
180.779
20
-84.1575
11
183.329
21
-84.1575
0
LINE
8
BLACK
6
CONTINUOUS
10
183.329
20
-84.1575
11
183.329
21
-86.6575
0
LINE
8
BLACK
6
CONTINUOUS
10
164.279
20
-86.6575
11
161.73
21
-86.6575
0
LINE
8
BLACK
6
CONTINUOUS
10
161.73
20
-86.6575
11
161.73
21
-84.1575
0
LINE
8
BLACK
6
CONTINUOUS
10
161.73
20
-84.1575
11
164.279
21
-84.1575
0
LINE
8
BLACK
6
CONTINUOUS
10
164.279
20
-84.1575
11
164.279
21
-86.6575
0
LINE
8
BLACK
6
CONTINUOUS
10
202.379
20
-86.6575
11
199.829
21
-86.6575
0
LINE
8
BLACK
6
CONTINUOUS
10
199.829
20
-86.6575
11
199.829
21
-84.1575
0
LINE
8
BLACK
6
CONTINUOUS
10
199.829
20
-84.1575
11
202.379
21
-84.1575
0
LINE
8
BLACK
6
CONTINUOUS
10
202.379
20
-84.1575
11
202.379
21
-86.6575
0
LINE
8
BLACK
6
CONTINUOUS
10
259.529
20
-86.6575
11
256.979
21
-86.6575
0
LINE
8
BLACK
6
CONTINUOUS
10
256.979
20
-86.6575
11
256.979
21
-84.1575
0
LINE
8
BLACK
6
CONTINUOUS
10
256.979
20
-84.1575
11
259.529
21
-84.1575
0
LINE
8
BLACK
6
CONTINUOUS
10
259.529
20
-84.1575
11
259.529
21
-86.6575
0
LINE
8
BLACK
6
CONTINUOUS
10
304.773
20
-86.6575
11
302.223
21
-86.6575
0
LINE
8
BLACK
6
CONTINUOUS
10
302.223
20
-86.6575
11
302.223
21
-84.1575
0
LINE
8
BLACK
6
CONTINUOUS
10
302.223
20
-84.1575
11
304.773
21
-84.1575
0
LINE
8
BLACK
6
CONTINUOUS
10
304.773
20
-84.1575
11
304.773
21
-86.6575
0
LINE
8
BLACK
6
CONTINUOUS
10
240.48
20
-86.6575
11
237.929
21
-86.6575
0
LINE
8
BLACK
6
CONTINUOUS
10
237.929
20
-86.6575
11
237.929
21
-84.1575
0
LINE
8
BLACK
6
CONTINUOUS
10
237.929
20
-84.1575
11
240.48
21
-84.1575
0
LINE
8
BLACK
6
CONTINUOUS
10
240.48
20
-84.1575
11
240.48
21
-86.6575
0
LINE
8
BLACK
6
CONTINUOUS
10
145.23
20
-86.6575
11
142.679
21
-86.6575
0
LINE
8
BLACK
6
CONTINUOUS
10
142.679
20
-86.6575
11
142.679
21
-84.1575
0
LINE
8
BLACK
6
CONTINUOUS
10
142.679
20
-84.1575
11
145.23
21
-84.1575
0
LINE
8
BLACK
6
CONTINUOUS
10
145.23
20
-84.1575
11
145.23
21
-86.6575
0
LINE
8
BLACK
6
CONTINUOUS
10
76.1732
20
-86.6575
11
73.6232
21
-86.6575
0
LINE
8
BLACK
6
CONTINUOUS
10
73.6232
20
-86.6575
11
73.6232
21
-84.1575
0
LINE
8
BLACK
6
CONTINUOUS
10
73.6232
20
-84.1575
11
76.1732
21
-84.1575
0
LINE
8
BLACK
6
CONTINUOUS
10
76.1732
20
-84.1575
11
76.1732
21
-86.6575
0
LINE
8
BLACK
6
CONTINUOUS
10
350.017
20
-86.6575
11
347.467
21
-86.6575
0
LINE
8
BLACK
6
CONTINUOUS
10
347.467
20
-86.6575
11
347.467
21
-84.1575
0
LINE
8
BLACK
6
CONTINUOUS
10
347.467
20
-84.1575
11
350.017
21
-84.1575
0
LINE
8
BLACK
6
CONTINUOUS
10
350.017
20
-84.1575
11
350.017
21
-86.6575
0
LINE
8
BLACK
6
CONTINUOUS
10
278.579
20
-86.6575
11
276.029
21
-86.6575
0
LINE
8
BLACK
6
CONTINUOUS
10
276.029
20
-86.6575
11
276.029
21
-84.1575
0
LINE
8
BLACK
6
CONTINUOUS
10
276.029
20
-84.1575
11
278.579
21
-84.1575
0
LINE
8
BLACK
6
CONTINUOUS
10
278.579
20
-84.1575
11
278.579
21
-86.6575
0
LINE
8
BLACK
6
CONTINUOUS
10
308.815
20
-85.666
11
307.315
21
-85.666
0
LINE
8
BLACK
6
CONTINUOUS
10
307.315
20
-85.666
11
307.315
21
-84.666
0
LINE
8
BLACK
6
CONTINUOUS
10
307.315
20
-84.666
11
308.815
21
-84.666
0
LINE
8
BLACK
6
CONTINUOUS
10
308.815
20
-84.666
11
308.815
21
-85.666
0
LINE
8
BLACK
6
CONTINUOUS
10
313.715
20
-85.666
11
312.215
21
-85.666
0
LINE
8
BLACK
6
CONTINUOUS
10
312.215
20
-85.666
11
312.215
21
-84.666
0
LINE
8
BLACK
6
CONTINUOUS
10
312.215
20
-84.666
11
313.715
21
-84.666
0
LINE
8
BLACK
6
CONTINUOUS
10
313.715
20
-84.666
11
313.715
21
-85.666
0
LINE
8
BLACK
6
CONTINUOUS
10
313.715
20
-82.466
11
312.215
21
-82.466
0
LINE
8
BLACK
6
CONTINUOUS
10
312.215
20
-82.466
11
312.215
21
-81.466
0
LINE
8
BLACK
6
CONTINUOUS
10
312.215
20
-81.466
11
313.715
21
-81.466
0
LINE
8
BLACK
6
CONTINUOUS
10
313.715
20
-81.466
11
313.715
21
-82.466
0
LINE
8
BLACK
6
CONTINUOUS
10
308.815
20
-82.466
11
307.315
21
-82.466
0
LINE
8
BLACK
6
CONTINUOUS
10
307.315
20
-82.466
11
307.315
21
-81.466
0
LINE
8
BLACK
6
CONTINUOUS
10
307.315
20
-81.466
11
308.815
21
-81.466
0
LINE
8
BLACK
6
CONTINUOUS
10
308.815
20
-81.466
11
308.815
21
-82.466
0
LINE
8
BLACK
6
CONTINUOUS
10
236.118
20
-81.094
11
234.618
21
-81.094
0
LINE
8
BLACK
6
CONTINUOUS
10
234.618
20
-81.094
11
234.618
21
-80.094
0
LINE
8
BLACK
6
CONTINUOUS
10
234.618
20
-80.094
11
236.118
21
-80.094
0
LINE
8
BLACK
6
CONTINUOUS
10
236.118
20
-80.094
11
236.118
21
-81.094
0
LINE
8
BLACK
6
CONTINUOUS
10
231.218
20
-81.094
11
229.718
21
-81.094
0
LINE
8
BLACK
6
CONTINUOUS
10
229.718
20
-81.094
11
229.718
21
-80.094
0
LINE
8
BLACK
6
CONTINUOUS
10
229.718
20
-80.094
11
231.218
21
-80.094
0
LINE
8
BLACK
6
CONTINUOUS
10
231.218
20
-80.094
11
231.218
21
-81.094
0
LINE
8
BLACK
6
CONTINUOUS
10
154.891
20
-81.094
11
153.391
21
-81.094
0
LINE
8
BLACK
6
CONTINUOUS
10
153.391
20
-81.094
11
153.391
21
-80.094
0
LINE
8
BLACK
6
CONTINUOUS
10
153.391
20
-80.094
11
154.891
21
-80.094
0
LINE
8
BLACK
6
CONTINUOUS
10
154.891
20
-80.094
11
154.891
21
-81.094
0
LINE
8
BLACK
6
CONTINUOUS
10
159.791
20
-81.094
11
158.291
21
-81.094
0
LINE
8
BLACK
6
CONTINUOUS
10
158.291
20
-81.094
11
158.291
21
-80.094
0
LINE
8
BLACK
6
CONTINUOUS
10
158.291
20
-80.094
11
159.791
21
-80.094
0
LINE
8
BLACK
6
CONTINUOUS
10
159.791
20
-80.094
11
159.791
21
-81.094
0
LINE
8
BLACK
6
CONTINUOUS
10
79.781
20
-79.189
11
78.281
21
-79.189
0
LINE
8
BLACK
6
CONTINUOUS
10
78.281
20
-79.189
11
78.281
21
-78.189
0
LINE
8
BLACK
6
CONTINUOUS
10
78.281
20
-78.189
11
79.781
21
-78.189
0
LINE
8
BLACK
6
CONTINUOUS
10
79.781
20
-78.189
11
79.781
21
-79.189
0
LINE
8
BLACK
6
CONTINUOUS
10
74.881
20
-79.189
11
73.381
21
-79.189
0
LINE
8
BLACK
6
CONTINUOUS
10
73.381
20
-79.189
11
73.381
21
-78.189
0
LINE
8
BLACK
6
CONTINUOUS
10
73.381
20
-78.189
11
74.881
21
-78.189
0
LINE
8
BLACK
6
CONTINUOUS
10
74.881
20
-78.189
11
74.881
21
-79.189
0
LINE
8
BLACK
6
CONTINUOUS
10
154.891
20
-77.894
11
153.391
21
-77.894
0
LINE
8
BLACK
6
CONTINUOUS
10
153.391
20
-77.894
11
153.391
21
-76.894
0
LINE
8
BLACK
6
CONTINUOUS
10
153.391
20
-76.894
11
154.891
21
-76.894
0
LINE
8
BLACK
6
CONTINUOUS
10
154.891
20
-76.894
11
154.891
21
-77.894
0
LINE
8
BLACK
6
CONTINUOUS
10
159.791
20
-77.894
11
158.291
21
-77.894
0
LINE
8
BLACK
6
CONTINUOUS
10
158.291
20
-77.894
11
158.291
21
-76.894
0
LINE
8
BLACK
6
CONTINUOUS
10
158.291
20
-76.894
11
159.791
21
-76.894
0
LINE
8
BLACK
6
CONTINUOUS
10
159.791
20
-76.894
11
159.791
21
-77.894
0
LINE
8
BLACK
6
CONTINUOUS
10
231.218
20
-77.894
11
229.718
21
-77.894
0
LINE
8
BLACK
6
CONTINUOUS
10
229.718
20
-77.894
11
229.718
21
-76.894
0
LINE
8
BLACK
6
CONTINUOUS
10
229.718
20
-76.894
11
231.218
21
-76.894
0
LINE
8
BLACK
6
CONTINUOUS
10
231.218
20
-76.894
11
231.218
21
-77.894
0
LINE
8
BLACK
6
CONTINUOUS
10
236.118
20
-77.894
11
234.618
21
-77.894
0
LINE
8
BLACK
6
CONTINUOUS
10
234.618
20
-77.894
11
234.618
21
-76.894
0
LINE
8
BLACK
6
CONTINUOUS
10
234.618
20
-76.894
11
236.118
21
-76.894
0
LINE
8
BLACK
6
CONTINUOUS
10
236.118
20
-76.894
11
236.118
21
-77.894
0
LINE
8
BLACK
6
CONTINUOUS
10
108.874
20
-77.816
11
107.274
21
-77.816
0
LINE
8
BLACK
6
CONTINUOUS
10
107.274
20
-77.816
11
107.274
21
-76.616
0
LINE
8
BLACK
6
CONTINUOUS
10
107.274
20
-76.616
11
108.874
21
-76.616
0
LINE
8
BLACK
6
CONTINUOUS
10
108.874
20
-76.616
11
108.874
21
-77.816
0
LINE
8
BLACK
6
CONTINUOUS
10
130.724
20
-77.816
11
129.124
21
-77.816
0
LINE
8
BLACK
6
CONTINUOUS
10
129.124
20
-77.816
11
129.124
21
-76.616
0
LINE
8
BLACK
6
CONTINUOUS
10
129.124
20
-76.616
11
130.724
21
-76.616
0
LINE
8
BLACK
6
CONTINUOUS
10
130.724
20
-76.616
11
130.724
21
-77.816
0
LINE
8
BLACK
6
CONTINUOUS
10
280.324
20
-77.816
11
278.724
21
-77.816
0
LINE
8
BLACK
6
CONTINUOUS
10
278.724
20
-77.816
11
278.724
21
-76.616
0
LINE
8
BLACK
6
CONTINUOUS
10
278.724
20
-76.616
11
280.324
21
-76.616
0
LINE
8
BLACK
6
CONTINUOUS
10
280.324
20
-76.616
11
280.324
21
-77.816
0
LINE
8
BLACK
6
CONTINUOUS
10
264.074
20
-77.816
11
262.474
21
-77.816
0
LINE
8
BLACK
6
CONTINUOUS
10
262.474
20
-77.816
11
262.474
21
-76.616
0
LINE
8
BLACK
6
CONTINUOUS
10
262.474
20
-76.616
11
264.074
21
-76.616
0
LINE
8
BLACK
6
CONTINUOUS
10
264.074
20
-76.616
11
264.074
21
-77.816
0
LINE
8
BLACK
6
CONTINUOUS
10
261.274
20
-77.816
11
259.674
21
-77.816
0
LINE
8
BLACK
6
CONTINUOUS
10
259.674
20
-77.816
11
259.674
21
-76.616
0
LINE
8
BLACK
6
CONTINUOUS
10
259.674
20
-76.616
11
261.274
21
-76.616
0
LINE
8
BLACK
6
CONTINUOUS
10
261.274
20
-76.616
11
261.274
21
-77.816
0
LINE
8
BLACK
6
CONTINUOUS
10
245.024
20
-77.816
11
243.424
21
-77.816
0
LINE
8
BLACK
6
CONTINUOUS
10
243.424
20
-77.816
11
243.424
21
-76.616
0
LINE
8
BLACK
6
CONTINUOUS
10
243.424
20
-76.616
11
245.024
21
-76.616
0
LINE
8
BLACK
6
CONTINUOUS
10
245.024
20
-76.616
11
245.024
21
-77.816
0
LINE
8
BLACK
6
CONTINUOUS
10
66.335
20
-77.816
11
64.735
21
-77.816
0
LINE
8
BLACK
6
CONTINUOUS
10
64.735
20
-77.816
11
64.735
21
-76.616
0
LINE
8
BLACK
6
CONTINUOUS
10
64.735
20
-76.616
11
66.335
21
-76.616
0
LINE
8
BLACK
6
CONTINUOUS
10
66.335
20
-76.616
11
66.335
21
-77.816
0
LINE
8
BLACK
6
CONTINUOUS
10
63.535
20
-77.816
11
61.935
21
-77.816
0
LINE
8
BLACK
6
CONTINUOUS
10
61.935
20
-77.816
11
61.935
21
-76.616
0
LINE
8
BLACK
6
CONTINUOUS
10
61.935
20
-76.616
11
63.535
21
-76.616
0
LINE
8
BLACK
6
CONTINUOUS
10
63.535
20
-76.616
11
63.535
21
-77.816
0
LINE
8
BLACK
6
CONTINUOUS
10
89.784
20
-77.816
11
88.184
21
-77.816
0
LINE
8
BLACK
6
CONTINUOUS
10
88.184
20
-77.816
11
88.184
21
-76.616
0
LINE
8
BLACK
6
CONTINUOUS
10
88.184
20
-76.616
11
89.784
21
-76.616
0
LINE
8
BLACK
6
CONTINUOUS
10
89.784
20
-76.616
11
89.784
21
-77.816
0
LINE
8
BLACK
6
CONTINUOUS
10
92.584
20
-77.816
11
90.984
21
-77.816
0
LINE
8
BLACK
6
CONTINUOUS
10
90.984
20
-77.816
11
90.984
21
-76.616
0
LINE
8
BLACK
6
CONTINUOUS
10
90.984
20
-76.616
11
92.584
21
-76.616
0
LINE
8
BLACK
6
CONTINUOUS
10
92.584
20
-76.616
11
92.584
21
-77.816
0
LINE
8
BLACK
6
CONTINUOUS
10
242.224
20
-77.816
11
240.624
21
-77.816
0
LINE
8
BLACK
6
CONTINUOUS
10
240.624
20
-77.816
11
240.624
21
-76.616
0
LINE
8
BLACK
6
CONTINUOUS
10
240.624
20
-76.616
11
242.224
21
-76.616
0
LINE
8
BLACK
6
CONTINUOUS
10
242.224
20
-76.616
11
242.224
21
-77.816
0
LINE
8
BLACK
6
CONTINUOUS
10
111.674
20
-77.816
11
110.074
21
-77.816
0
LINE
8
BLACK
6
CONTINUOUS
10
110.074
20
-77.816
11
110.074
21
-76.616
0
LINE
8
BLACK
6
CONTINUOUS
10
110.074
20
-76.616
11
111.674
21
-76.616
0
LINE
8
BLACK
6
CONTINUOUS
10
111.674
20
-76.616
11
111.674
21
-77.816
0
LINE
8
BLACK
6
CONTINUOUS
10
127.924
20
-77.816
11
126.324
21
-77.816
0
LINE
8
BLACK
6
CONTINUOUS
10
126.324
20
-77.816
11
126.324
21
-76.616
0
LINE
8
BLACK
6
CONTINUOUS
10
126.324
20
-76.616
11
127.924
21
-76.616
0
LINE
8
BLACK
6
CONTINUOUS
10
127.924
20
-76.616
11
127.924
21
-77.816
0
LINE
8
BLACK
6
CONTINUOUS
10
283.124
20
-77.816
11
281.524
21
-77.816
0
LINE
8
BLACK
6
CONTINUOUS
10
281.524
20
-77.816
11
281.524
21
-76.616
0
LINE
8
BLACK
6
CONTINUOUS
10
281.524
20
-76.616
11
283.124
21
-76.616
0
LINE
8
BLACK
6
CONTINUOUS
10
283.124
20
-76.616
11
283.124
21
-77.816
0
LINE
8
BLACK
6
CONTINUOUS
10
146.974
20
-77.816
11
145.374
21
-77.816
0
LINE
8
BLACK
6
CONTINUOUS
10
145.374
20
-77.816
11
145.374
21
-76.616
0
LINE
8
BLACK
6
CONTINUOUS
10
145.374
20
-76.616
11
146.974
21
-76.616
0
LINE
8
BLACK
6
CONTINUOUS
10
146.974
20
-76.616
11
146.974
21
-77.816
0
LINE
8
BLACK
6
CONTINUOUS
10
149.774
20
-77.816
11
148.174
21
-77.816
0
LINE
8
BLACK
6
CONTINUOUS
10
148.174
20
-77.816
11
148.174
21
-76.616
0
LINE
8
BLACK
6
CONTINUOUS
10
148.174
20
-76.616
11
149.774
21
-76.616
0
LINE
8
BLACK
6
CONTINUOUS
10
149.774
20
-76.616
11
149.774
21
-77.816
0
LINE
8
BLACK
6
CONTINUOUS
10
166.021
20
-77.816
11
164.421
21
-77.816
0
LINE
8
BLACK
6
CONTINUOUS
10
164.421
20
-77.816
11
164.421
21
-76.616
0
LINE
8
BLACK
6
CONTINUOUS
10
164.421
20
-76.616
11
166.021
21
-76.616
0
LINE
8
BLACK
6
CONTINUOUS
10
166.021
20
-76.616
11
166.021
21
-77.816
0
LINE
8
BLACK
6
CONTINUOUS
10
168.821
20
-77.816
11
167.221
21
-77.816
0
LINE
8
BLACK
6
CONTINUOUS
10
167.221
20
-77.816
11
167.221
21
-76.616
0
LINE
8
BLACK
6
CONTINUOUS
10
167.221
20
-76.616
11
168.821
21
-76.616
0
LINE
8
BLACK
6
CONTINUOUS
10
168.821
20
-76.616
11
168.821
21
-77.816
0
LINE
8
BLACK
6
CONTINUOUS
10
185.074
20
-77.816
11
183.474
21
-77.816
0
LINE
8
BLACK
6
CONTINUOUS
10
183.474
20
-77.816
11
183.474
21
-76.616
0
LINE
8
BLACK
6
CONTINUOUS
10
183.474
20
-76.616
11
185.074
21
-76.616
0
LINE
8
BLACK
6
CONTINUOUS
10
185.074
20
-76.616
11
185.074
21
-77.816
0
LINE
8
BLACK
6
CONTINUOUS
10
187.874
20
-77.816
11
186.274
21
-77.816
0
LINE
8
BLACK
6
CONTINUOUS
10
186.274
20
-77.816
11
186.274
21
-76.616
0
LINE
8
BLACK
6
CONTINUOUS
10
186.274
20
-76.616
11
187.874
21
-76.616
0
LINE
8
BLACK
6
CONTINUOUS
10
187.874
20
-76.616
11
187.874
21
-77.816
0
LINE
8
BLACK
6
CONTINUOUS
10
204.124
20
-77.816
11
202.524
21
-77.816
0
LINE
8
BLACK
6
CONTINUOUS
10
202.524
20
-77.816
11
202.524
21
-76.616
0
LINE
8
BLACK
6
CONTINUOUS
10
202.524
20
-76.616
11
204.124
21
-76.616
0
LINE
8
BLACK
6
CONTINUOUS
10
204.124
20
-76.616
11
204.124
21
-77.816
0
LINE
8
BLACK
6
CONTINUOUS
10
206.924
20
-77.816
11
205.324
21
-77.816
0
LINE
8
BLACK
6
CONTINUOUS
10
205.324
20
-77.816
11
205.324
21
-76.616
0
LINE
8
BLACK
6
CONTINUOUS
10
205.324
20
-76.616
11
206.924
21
-76.616
0
LINE
8
BLACK
6
CONTINUOUS
10
206.924
20
-76.616
11
206.924
21
-77.816
0
LINE
8
BLACK
6
CONTINUOUS
10
223.174
20
-77.816
11
221.574
21
-77.816
0
LINE
8
BLACK
6
CONTINUOUS
10
221.574
20
-77.816
11
221.574
21
-76.616
0
LINE
8
BLACK
6
CONTINUOUS
10
221.574
20
-76.616
11
223.174
21
-76.616
0
LINE
8
BLACK
6
CONTINUOUS
10
223.174
20
-76.616
11
223.174
21
-77.816
0
LINE
8
BLACK
6
CONTINUOUS
10
225.974
20
-77.816
11
224.374
21
-77.816
0
LINE
8
BLACK
6
CONTINUOUS
10
224.374
20
-77.816
11
224.374
21
-76.616
0
LINE
8
BLACK
6
CONTINUOUS
10
224.374
20
-76.616
11
225.974
21
-76.616
0
LINE
8
BLACK
6
CONTINUOUS
10
225.974
20
-76.616
11
225.974
21
-77.816
0
LINE
8
BLACK
6
CONTINUOUS
10
311.312
20
-77.816
11
309.712
21
-77.816
0
LINE
8
BLACK
6
CONTINUOUS
10
309.712
20
-77.816
11
309.712
21
-76.616
0
LINE
8
BLACK
6
CONTINUOUS
10
309.712
20
-76.616
11
311.312
21
-76.616
0
LINE
8
BLACK
6
CONTINUOUS
10
311.312
20
-76.616
11
311.312
21
-77.816
0
LINE
8
BLACK
6
CONTINUOUS
10
314.112
20
-77.816
11
312.512
21
-77.816
0
LINE
8
BLACK
6
CONTINUOUS
10
312.512
20
-77.816
11
312.512
21
-76.616
0
LINE
8
BLACK
6
CONTINUOUS
10
312.512
20
-76.616
11
314.112
21
-76.616
0
LINE
8
BLACK
6
CONTINUOUS
10
314.112
20
-76.616
11
314.112
21
-77.816
0
LINE
8
BLACK
6
CONTINUOUS
10
74.881
20
-75.989
11
73.381
21
-75.989
0
LINE
8
BLACK
6
CONTINUOUS
10
73.381
20
-75.989
11
73.381
21
-74.989
0
LINE
8
BLACK
6
CONTINUOUS
10
73.381
20
-74.989
11
74.881
21
-74.989
0
LINE
8
BLACK
6
CONTINUOUS
10
74.881
20
-74.989
11
74.881
21
-75.989
0
LINE
8
BLACK
6
CONTINUOUS
10
79.781
20
-75.989
11
78.281
21
-75.989
0
LINE
8
BLACK
6
CONTINUOUS
10
78.281
20
-75.989
11
78.281
21
-74.989
0
LINE
8
BLACK
6
CONTINUOUS
10
78.281
20
-74.989
11
79.781
21
-74.989
0
LINE
8
BLACK
6
CONTINUOUS
10
79.781
20
-74.989
11
79.781
21
-75.989
0
LINE
8
BLACK
6
CONTINUOUS
10
234.342
20
-74.3368
11
234.389
21
-74.351
0
LINE
8
BLACK
6
CONTINUOUS
10
234.389
20
-74.351
11
234.432
21
-74.3741
0
LINE
8
BLACK
6
CONTINUOUS
10
234.432
20
-74.3741
11
234.47
21
-74.4052
0
LINE
8
BLACK
6
CONTINUOUS
10
234.47
20
-74.4052
11
234.501
21
-74.4431
0
LINE
8
BLACK
6
CONTINUOUS
10
234.501
20
-74.4431
11
234.524
21
-74.4863
0
LINE
8
BLACK
6
CONTINUOUS
10
234.524
20
-74.4863
11
234.538
21
-74.5332
0
LINE
8
BLACK
6
CONTINUOUS
10
234.538
20
-74.5332
11
234.543
21
-74.582
0
LINE
8
BLACK
6
CONTINUOUS
10
234.543
20
-74.582
11
234.543
21
-75.532
0
LINE
8
BLACK
6
CONTINUOUS
10
234.543
20
-75.532
11
234.538
21
-75.5808
0
LINE
8
BLACK
6
CONTINUOUS
10
234.538
20
-75.5808
11
234.524
21
-75.6277
0
LINE
8
BLACK
6
CONTINUOUS
10
234.524
20
-75.6277
11
234.501
21
-75.6709
0
LINE
8
BLACK
6
CONTINUOUS
10
234.501
20
-75.6709
11
234.47
21
-75.7088
0
LINE
8
BLACK
6
CONTINUOUS
10
234.47
20
-75.7088
11
234.432
21
-75.7399
0
LINE
8
BLACK
6
CONTINUOUS
10
234.432
20
-75.7399
11
234.389
21
-75.763
0
LINE
8
BLACK
6
CONTINUOUS
10
234.389
20
-75.763
11
234.342
21
-75.7772
0
LINE
8
BLACK
6
CONTINUOUS
10
234.342
20
-75.7772
11
234.293
21
-75.782
0
LINE
8
BLACK
6
CONTINUOUS
10
234.293
20
-75.782
11
233.618
21
-75.782
0
LINE
8
BLACK
6
CONTINUOUS
10
233.618
20
-75.782
11
233.569
21
-75.7772
0
LINE
8
BLACK
6
CONTINUOUS
10
233.569
20
-75.7772
11
233.522
21
-75.763
0
LINE
8
BLACK
6
CONTINUOUS
10
233.522
20
-75.763
11
233.479
21
-75.7399
0
LINE
8
BLACK
6
CONTINUOUS
10
233.479
20
-75.7399
11
233.441
21
-75.7088
0
LINE
8
BLACK
6
CONTINUOUS
10
233.441
20
-75.7088
11
233.41
21
-75.6709
0
LINE
8
BLACK
6
CONTINUOUS
10
233.41
20
-75.6709
11
233.387
21
-75.6277
0
LINE
8
BLACK
6
CONTINUOUS
10
233.387
20
-75.6277
11
233.373
21
-75.5808
0
LINE
8
BLACK
6
CONTINUOUS
10
233.373
20
-75.5808
11
233.368
21
-75.532
0
LINE
8
BLACK
6
CONTINUOUS
10
233.368
20
-75.532
11
233.368
21
-74.582
0
LINE
8
BLACK
6
CONTINUOUS
10
233.368
20
-74.582
11
233.373
21
-74.5332
0
LINE
8
BLACK
6
CONTINUOUS
10
233.373
20
-74.5332
11
233.387
21
-74.4863
0
LINE
8
BLACK
6
CONTINUOUS
10
233.387
20
-74.4863
11
233.41
21
-74.4431
0
LINE
8
BLACK
6
CONTINUOUS
10
233.41
20
-74.4431
11
233.441
21
-74.4052
0
LINE
8
BLACK
6
CONTINUOUS
10
233.441
20
-74.4052
11
233.479
21
-74.3741
0
LINE
8
BLACK
6
CONTINUOUS
10
233.479
20
-74.3741
11
233.522
21
-74.351
0
LINE
8
BLACK
6
CONTINUOUS
10
233.522
20
-74.351
11
233.569
21
-74.3368
0
LINE
8
BLACK
6
CONTINUOUS
10
233.569
20
-74.3368
11
233.618
21
-74.332
0
LINE
8
BLACK
6
CONTINUOUS
10
233.618
20
-74.332
11
234.293
21
-74.332
0
LINE
8
BLACK
6
CONTINUOUS
10
234.293
20
-74.332
11
234.342
21
-74.3368
0
LINE
8
BLACK
6
CONTINUOUS
10
232.267
20
-74.3368
11
232.314
21
-74.351
0
LINE
8
BLACK
6
CONTINUOUS
10
232.314
20
-74.351
11
232.357
21
-74.3741
0
LINE
8
BLACK
6
CONTINUOUS
10
232.357
20
-74.3741
11
232.395
21
-74.4052
0
LINE
8
BLACK
6
CONTINUOUS
10
232.395
20
-74.4052
11
232.426
21
-74.4431
0
LINE
8
BLACK
6
CONTINUOUS
10
232.426
20
-74.4431
11
232.449
21
-74.4863
0
LINE
8
BLACK
6
CONTINUOUS
10
232.449
20
-74.4863
11
232.463
21
-74.5332
0
LINE
8
BLACK
6
CONTINUOUS
10
232.463
20
-74.5332
11
232.468
21
-74.582
0
LINE
8
BLACK
6
CONTINUOUS
10
232.468
20
-74.582
11
232.468
21
-75.532
0
LINE
8
BLACK
6
CONTINUOUS
10
232.468
20
-75.532
11
232.463
21
-75.5808
0
LINE
8
BLACK
6
CONTINUOUS
10
232.463
20
-75.5808
11
232.449
21
-75.6277
0
LINE
8
BLACK
6
CONTINUOUS
10
232.449
20
-75.6277
11
232.426
21
-75.6709
0
LINE
8
BLACK
6
CONTINUOUS
10
232.426
20
-75.6709
11
232.395
21
-75.7088
0
LINE
8
BLACK
6
CONTINUOUS
10
232.395
20
-75.7088
11
232.357
21
-75.7399
0
LINE
8
BLACK
6
CONTINUOUS
10
232.357
20
-75.7399
11
232.314
21
-75.763
0
LINE
8
BLACK
6
CONTINUOUS
10
232.314
20
-75.763
11
232.267
21
-75.7772
0
LINE
8
BLACK
6
CONTINUOUS
10
232.267
20
-75.7772
11
232.218
21
-75.782
0
LINE
8
BLACK
6
CONTINUOUS
10
232.218
20
-75.782
11
231.543
21
-75.782
0
LINE
8
BLACK
6
CONTINUOUS
10
231.543
20
-75.782
11
231.494
21
-75.7772
0
LINE
8
BLACK
6
CONTINUOUS
10
231.494
20
-75.7772
11
231.447
21
-75.763
0
LINE
8
BLACK
6
CONTINUOUS
10
231.447
20
-75.763
11
231.404
21
-75.7399
0
LINE
8
BLACK
6
CONTINUOUS
10
231.404
20
-75.7399
11
231.366
21
-75.7088
0
LINE
8
BLACK
6
CONTINUOUS
10
231.366
20
-75.7088
11
231.335
21
-75.6709
0
LINE
8
BLACK
6
CONTINUOUS
10
231.335
20
-75.6709
11
231.312
21
-75.6277
0
LINE
8
BLACK
6
CONTINUOUS
10
231.312
20
-75.6277
11
231.298
21
-75.5808
0
LINE
8
BLACK
6
CONTINUOUS
10
231.298
20
-75.5808
11
231.293
21
-75.532
0
LINE
8
BLACK
6
CONTINUOUS
10
231.293
20
-75.532
11
231.293
21
-74.582
0
LINE
8
BLACK
6
CONTINUOUS
10
231.293
20
-74.582
11
231.298
21
-74.5332
0
LINE
8
BLACK
6
CONTINUOUS
10
231.298
20
-74.5332
11
231.312
21
-74.4863
0
LINE
8
BLACK
6
CONTINUOUS
10
231.312
20
-74.4863
11
231.335
21
-74.4431
0
LINE
8
BLACK
6
CONTINUOUS
10
231.335
20
-74.4431
11
231.366
21
-74.4052
0
LINE
8
BLACK
6
CONTINUOUS
10
231.366
20
-74.4052
11
231.404
21
-74.3741
0
LINE
8
BLACK
6
CONTINUOUS
10
231.404
20
-74.3741
11
231.447
21
-74.351
0
LINE
8
BLACK
6
CONTINUOUS
10
231.447
20
-74.351
11
231.494
21
-74.3368
0
LINE
8
BLACK
6
CONTINUOUS
10
231.494
20
-74.3368
11
231.543
21
-74.332
0
LINE
8
BLACK
6
CONTINUOUS
10
231.543
20
-74.332
11
232.218
21
-74.332
0
LINE
8
BLACK
6
CONTINUOUS
10
232.218
20
-74.332
11
232.267
21
-74.3368
0
LINE
8
BLACK
6
CONTINUOUS
10
158.015
20
-74.3368
11
158.062
21
-74.351
0
LINE
8
BLACK
6
CONTINUOUS
10
158.062
20
-74.351
11
158.105
21
-74.3741
0
LINE
8
BLACK
6
CONTINUOUS
10
158.105
20
-74.3741
11
158.143
21
-74.4052
0
LINE
8
BLACK
6
CONTINUOUS
10
158.143
20
-74.4052
11
158.174
21
-74.4431
0
LINE
8
BLACK
6
CONTINUOUS
10
158.174
20
-74.4431
11
158.197
21
-74.4863
0
LINE
8
BLACK
6
CONTINUOUS
10
158.197
20
-74.4863
11
158.211
21
-74.5332
0
LINE
8
BLACK
6
CONTINUOUS
10
158.211
20
-74.5332
11
158.216
21
-74.582
0
LINE
8
BLACK
6
CONTINUOUS
10
158.216
20
-74.582
11
158.216
21
-75.532
0
LINE
8
BLACK
6
CONTINUOUS
10
158.216
20
-75.532
11
158.211
21
-75.5808
0
LINE
8
BLACK
6
CONTINUOUS
10
158.211
20
-75.5808
11
158.197
21
-75.6277
0
LINE
8
BLACK
6
CONTINUOUS
10
158.197
20
-75.6277
11
158.174
21
-75.6709
0
LINE
8
BLACK
6
CONTINUOUS
10
158.174
20
-75.6709
11
158.143
21
-75.7088
0
LINE
8
BLACK
6
CONTINUOUS
10
158.143
20
-75.7088
11
158.105
21
-75.7399
0
LINE
8
BLACK
6
CONTINUOUS
10
158.105
20
-75.7399
11
158.062
21
-75.763
0
LINE
8
BLACK
6
CONTINUOUS
10
158.062
20
-75.763
11
158.015
21
-75.7772
0
LINE
8
BLACK
6
CONTINUOUS
10
158.015
20
-75.7772
11
157.966
21
-75.782
0
LINE
8
BLACK
6
CONTINUOUS
10
157.966
20
-75.782
11
157.291
21
-75.782
0
LINE
8
BLACK
6
CONTINUOUS
10
157.291
20
-75.782
11
157.242
21
-75.7772
0
LINE
8
BLACK
6
CONTINUOUS
10
157.242
20
-75.7772
11
157.195
21
-75.763
0
LINE
8
BLACK
6
CONTINUOUS
10
157.195
20
-75.763
11
157.152
21
-75.7399
0
LINE
8
BLACK
6
CONTINUOUS
10
157.152
20
-75.7399
11
157.114
21
-75.7088
0
LINE
8
BLACK
6
CONTINUOUS
10
157.114
20
-75.7088
11
157.083
21
-75.6709
0
LINE
8
BLACK
6
CONTINUOUS
10
157.083
20
-75.6709
11
157.06
21
-75.6277
0
LINE
8
BLACK
6
CONTINUOUS
10
157.06
20
-75.6277
11
157.046
21
-75.5808
0
LINE
8
BLACK
6
CONTINUOUS
10
157.046
20
-75.5808
11
157.041
21
-75.532
0
LINE
8
BLACK
6
CONTINUOUS
10
157.041
20
-75.532
11
157.041
21
-74.582
0
LINE
8
BLACK
6
CONTINUOUS
10
157.041
20
-74.582
11
157.046
21
-74.5332
0
LINE
8
BLACK
6
CONTINUOUS
10
157.046
20
-74.5332
11
157.06
21
-74.4863
0
LINE
8
BLACK
6
CONTINUOUS
10
157.06
20
-74.4863
11
157.083
21
-74.4431
0
LINE
8
BLACK
6
CONTINUOUS
10
157.083
20
-74.4431
11
157.114
21
-74.4052
0
LINE
8
BLACK
6
CONTINUOUS
10
157.114
20
-74.4052
11
157.152
21
-74.3741
0
LINE
8
BLACK
6
CONTINUOUS
10
157.152
20
-74.3741
11
157.195
21
-74.351
0
LINE
8
BLACK
6
CONTINUOUS
10
157.195
20
-74.351
11
157.242
21
-74.3368
0
LINE
8
BLACK
6
CONTINUOUS
10
157.242
20
-74.3368
11
157.291
21
-74.332
0
LINE
8
BLACK
6
CONTINUOUS
10
157.291
20
-74.332
11
157.966
21
-74.332
0
LINE
8
BLACK
6
CONTINUOUS
10
157.966
20
-74.332
11
158.015
21
-74.3368
0
LINE
8
BLACK
6
CONTINUOUS
10
155.94
20
-74.3368
11
155.987
21
-74.351
0
LINE
8
BLACK
6
CONTINUOUS
10
155.987
20
-74.351
11
156.03
21
-74.3741
0
LINE
8
BLACK
6
CONTINUOUS
10
156.03
20
-74.3741
11
156.068
21
-74.4052
0
LINE
8
BLACK
6
CONTINUOUS
10
156.068
20
-74.4052
11
156.099
21
-74.4431
0
LINE
8
BLACK
6
CONTINUOUS
10
156.099
20
-74.4431
11
156.122
21
-74.4863
0
LINE
8
BLACK
6
CONTINUOUS
10
156.122
20
-74.4863
11
156.136
21
-74.5332
0
LINE
8
BLACK
6
CONTINUOUS
10
156.136
20
-74.5332
11
156.141
21
-74.582
0
LINE
8
BLACK
6
CONTINUOUS
10
156.141
20
-74.582
11
156.141
21
-75.532
0
LINE
8
BLACK
6
CONTINUOUS
10
156.141
20
-75.532
11
156.136
21
-75.5808
0
LINE
8
BLACK
6
CONTINUOUS
10
156.136
20
-75.5808
11
156.122
21
-75.6277
0
LINE
8
BLACK
6
CONTINUOUS
10
156.122
20
-75.6277
11
156.099
21
-75.6709
0
LINE
8
BLACK
6
CONTINUOUS
10
156.099
20
-75.6709
11
156.068
21
-75.7088
0
LINE
8
BLACK
6
CONTINUOUS
10
156.068
20
-75.7088
11
156.03
21
-75.7399
0
LINE
8
BLACK
6
CONTINUOUS
10
156.03
20
-75.7399
11
155.987
21
-75.763
0
LINE
8
BLACK
6
CONTINUOUS
10
155.987
20
-75.763
11
155.94
21
-75.7772
0
LINE
8
BLACK
6
CONTINUOUS
10
155.94
20
-75.7772
11
155.891
21
-75.782
0
LINE
8
BLACK
6
CONTINUOUS
10
155.891
20
-75.782
11
155.216
21
-75.782
0
LINE
8
BLACK
6
CONTINUOUS
10
155.216
20
-75.782
11
155.167
21
-75.7772
0
LINE
8
BLACK
6
CONTINUOUS
10
155.167
20
-75.7772
11
155.12
21
-75.763
0
LINE
8
BLACK
6
CONTINUOUS
10
155.12
20
-75.763
11
155.077
21
-75.7399
0
LINE
8
BLACK
6
CONTINUOUS
10
155.077
20
-75.7399
11
155.039
21
-75.7088
0
LINE
8
BLACK
6
CONTINUOUS
10
155.039
20
-75.7088
11
155.008
21
-75.6709
0
LINE
8
BLACK
6
CONTINUOUS
10
155.008
20
-75.6709
11
154.985
21
-75.6277
0
LINE
8
BLACK
6
CONTINUOUS
10
154.985
20
-75.6277
11
154.971
21
-75.5808
0
LINE
8
BLACK
6
CONTINUOUS
10
154.971
20
-75.5808
11
154.966
21
-75.532
0
LINE
8
BLACK
6
CONTINUOUS
10
154.966
20
-75.532
11
154.966
21
-74.582
0
LINE
8
BLACK
6
CONTINUOUS
10
154.966
20
-74.582
11
154.971
21
-74.5332
0
LINE
8
BLACK
6
CONTINUOUS
10
154.971
20
-74.5332
11
154.985
21
-74.4863
0
LINE
8
BLACK
6
CONTINUOUS
10
154.985
20
-74.4863
11
155.008
21
-74.4431
0
LINE
8
BLACK
6
CONTINUOUS
10
155.008
20
-74.4431
11
155.039
21
-74.4052
0
LINE
8
BLACK
6
CONTINUOUS
10
155.039
20
-74.4052
11
155.077
21
-74.3741
0
LINE
8
BLACK
6
CONTINUOUS
10
155.077
20
-74.3741
11
155.12
21
-74.351
0
LINE
8
BLACK
6
CONTINUOUS
10
155.12
20
-74.351
11
155.167
21
-74.3368
0
LINE
8
BLACK
6
CONTINUOUS
10
155.167
20
-74.3368
11
155.216
21
-74.332
0
LINE
8
BLACK
6
CONTINUOUS
10
155.216
20
-74.332
11
155.891
21
-74.332
0
LINE
8
BLACK
6
CONTINUOUS
10
155.891
20
-74.332
11
155.94
21
-74.3368
0
LINE
8
BLACK
6
CONTINUOUS
10
330.8
20
-75.479
11
329.6
21
-75.479
0
LINE
8
BLACK
6
CONTINUOUS
10
329.6
20
-75.479
11
329.6
21
-73.879
0
LINE
8
BLACK
6
CONTINUOUS
10
329.6
20
-73.879
11
330.8
21
-73.879
0
LINE
8
BLACK
6
CONTINUOUS
10
330.8
20
-73.879
11
330.8
21
-75.479
0
LINE
8
BLACK
6
CONTINUOUS
10
75.9298
20
-72.3048
11
75.9767
21
-72.319
0
LINE
8
BLACK
6
CONTINUOUS
10
75.9767
20
-72.319
11
76.0199
21
-72.3421
0
LINE
8
BLACK
6
CONTINUOUS
10
76.0199
20
-72.3421
11
76.0578
21
-72.3732
0
LINE
8
BLACK
6
CONTINUOUS
10
76.0578
20
-72.3732
11
76.0889
21
-72.4111
0
LINE
8
BLACK
6
CONTINUOUS
10
76.0889
20
-72.4111
11
76.112
21
-72.4543
0
LINE
8
BLACK
6
CONTINUOUS
10
76.112
20
-72.4543
11
76.1262
21
-72.5012
0
LINE
8
BLACK
6
CONTINUOUS
10
76.1262
20
-72.5012
11
76.131
21
-72.55
0
LINE
8
BLACK
6
CONTINUOUS
10
76.131
20
-72.55
11
76.131
21
-73.5
0
LINE
8
BLACK
6
CONTINUOUS
10
76.131
20
-73.5
11
76.1262
21
-73.5488
0
LINE
8
BLACK
6
CONTINUOUS
10
76.1262
20
-73.5488
11
76.112
21
-73.5957
0
LINE
8
BLACK
6
CONTINUOUS
10
76.112
20
-73.5957
11
76.0889
21
-73.6389
0
LINE
8
BLACK
6
CONTINUOUS
10
76.0889
20
-73.6389
11
76.0578
21
-73.6768
0
LINE
8
BLACK
6
CONTINUOUS
10
76.0578
20
-73.6768
11
76.0199
21
-73.7079
0
LINE
8
BLACK
6
CONTINUOUS
10
76.0199
20
-73.7079
11
75.9767
21
-73.731
0
LINE
8
BLACK
6
CONTINUOUS
10
75.9767
20
-73.731
11
75.9298
21
-73.7452
0
LINE
8
BLACK
6
CONTINUOUS
10
75.9298
20
-73.7452
11
75.881
21
-73.75
0
LINE
8
BLACK
6
CONTINUOUS
10
75.881
20
-73.75
11
75.206
21
-73.75
0
LINE
8
BLACK
6
CONTINUOUS
10
75.206
20
-73.75
11
75.1572
21
-73.7452
0
LINE
8
BLACK
6
CONTINUOUS
10
75.1572
20
-73.7452
11
75.1103
21
-73.731
0
LINE
8
BLACK
6
CONTINUOUS
10
75.1103
20
-73.731
11
75.0671
21
-73.7079
0
LINE
8
BLACK
6
CONTINUOUS
10
75.0671
20
-73.7079
11
75.0292
21
-73.6768
0
LINE
8
BLACK
6
CONTINUOUS
10
75.0292
20
-73.6768
11
74.9981
21
-73.6389
0
LINE
8
BLACK
6
CONTINUOUS
10
74.9981
20
-73.6389
11
74.975
21
-73.5957
0
LINE
8
BLACK
6
CONTINUOUS
10
74.975
20
-73.5957
11
74.9608
21
-73.5488
0
LINE
8
BLACK
6
CONTINUOUS
10
74.9608
20
-73.5488
11
74.956
21
-73.5
0
LINE
8
BLACK
6
CONTINUOUS
10
74.956
20
-73.5
11
74.956
21
-72.55
0
LINE
8
BLACK
6
CONTINUOUS
10
74.956
20
-72.55
11
74.9608
21
-72.5012
0
LINE
8
BLACK
6
CONTINUOUS
10
74.9608
20
-72.5012
11
74.975
21
-72.4543
0
LINE
8
BLACK
6
CONTINUOUS
10
74.975
20
-72.4543
11
74.9981
21
-72.4111
0
LINE
8
BLACK
6
CONTINUOUS
10
74.9981
20
-72.4111
11
75.0292
21
-72.3732
0
LINE
8
BLACK
6
CONTINUOUS
10
75.0292
20
-72.3732
11
75.0671
21
-72.3421
0
LINE
8
BLACK
6
CONTINUOUS
10
75.0671
20
-72.3421
11
75.1103
21
-72.319
0
LINE
8
BLACK
6
CONTINUOUS
10
75.1103
20
-72.319
11
75.1572
21
-72.3048
0
LINE
8
BLACK
6
CONTINUOUS
10
75.1572
20
-72.3048
11
75.206
21
-72.3
0
LINE
8
BLACK
6
CONTINUOUS
10
75.206
20
-72.3
11
75.881
21
-72.3
0
LINE
8
BLACK
6
CONTINUOUS
10
75.881
20
-72.3
11
75.9298
21
-72.3048
0
LINE
8
BLACK
6
CONTINUOUS
10
78.0048
20
-72.3048
11
78.0517
21
-72.319
0
LINE
8
BLACK
6
CONTINUOUS
10
78.0517
20
-72.319
11
78.0949
21
-72.3421
0
LINE
8
BLACK
6
CONTINUOUS
10
78.0949
20
-72.3421
11
78.1328
21
-72.3732
0
LINE
8
BLACK
6
CONTINUOUS
10
78.1328
20
-72.3732
11
78.1639
21
-72.4111
0
LINE
8
BLACK
6
CONTINUOUS
10
78.1639
20
-72.4111
11
78.187
21
-72.4543
0
LINE
8
BLACK
6
CONTINUOUS
10
78.187
20
-72.4543
11
78.2012
21
-72.5012
0
LINE
8
BLACK
6
CONTINUOUS
10
78.2012
20
-72.5012
11
78.206
21
-72.55
0
LINE
8
BLACK
6
CONTINUOUS
10
78.206
20
-72.55
11
78.206
21
-73.5
0
LINE
8
BLACK
6
CONTINUOUS
10
78.206
20
-73.5
11
78.2012
21
-73.5488
0
LINE
8
BLACK
6
CONTINUOUS
10
78.2012
20
-73.5488
11
78.187
21
-73.5957
0
LINE
8
BLACK
6
CONTINUOUS
10
78.187
20
-73.5957
11
78.1639
21
-73.6389
0
LINE
8
BLACK
6
CONTINUOUS
10
78.1639
20
-73.6389
11
78.1328
21
-73.6768
0
LINE
8
BLACK
6
CONTINUOUS
10
78.1328
20
-73.6768
11
78.0949
21
-73.7079
0
LINE
8
BLACK
6
CONTINUOUS
10
78.0949
20
-73.7079
11
78.0517
21
-73.731
0
LINE
8
BLACK
6
CONTINUOUS
10
78.0517
20
-73.731
11
78.0048
21
-73.7452
0
LINE
8
BLACK
6
CONTINUOUS
10
78.0048
20
-73.7452
11
77.956
21
-73.75
0
LINE
8
BLACK
6
CONTINUOUS
10
77.956
20
-73.75
11
77.281
21
-73.75
0
LINE
8
BLACK
6
CONTINUOUS
10
77.281
20
-73.75
11
77.2322
21
-73.7452
0
LINE
8
BLACK
6
CONTINUOUS
10
77.2322
20
-73.7452
11
77.1853
21
-73.731
0
LINE
8
BLACK
6
CONTINUOUS
10
77.1853
20
-73.731
11
77.1421
21
-73.7079
0
LINE
8
BLACK
6
CONTINUOUS
10
77.1421
20
-73.7079
11
77.1042
21
-73.6768
0
LINE
8
BLACK
6
CONTINUOUS
10
77.1042
20
-73.6768
11
77.0731
21
-73.6389
0
LINE
8
BLACK
6
CONTINUOUS
10
77.0731
20
-73.6389
11
77.05
21
-73.5957
0
LINE
8
BLACK
6
CONTINUOUS
10
77.05
20
-73.5957
11
77.0358
21
-73.5488
0
LINE
8
BLACK
6
CONTINUOUS
10
77.0358
20
-73.5488
11
77.031
21
-73.5
0
LINE
8
BLACK
6
CONTINUOUS
10
77.031
20
-73.5
11
77.031
21
-72.55
0
LINE
8
BLACK
6
CONTINUOUS
10
77.031
20
-72.55
11
77.0358
21
-72.5012
0
LINE
8
BLACK
6
CONTINUOUS
10
77.0358
20
-72.5012
11
77.05
21
-72.4543
0
LINE
8
BLACK
6
CONTINUOUS
10
77.05
20
-72.4543
11
77.0731
21
-72.4111
0
LINE
8
BLACK
6
CONTINUOUS
10
77.0731
20
-72.4111
11
77.1042
21
-72.3732
0
LINE
8
BLACK
6
CONTINUOUS
10
77.1042
20
-72.3732
11
77.1421
21
-72.3421
0
LINE
8
BLACK
6
CONTINUOUS
10
77.1421
20
-72.3421
11
77.1853
21
-72.319
0
LINE
8
BLACK
6
CONTINUOUS
10
77.1853
20
-72.319
11
77.2322
21
-72.3048
0
LINE
8
BLACK
6
CONTINUOUS
10
77.2322
20
-72.3048
11
77.281
21
-72.3
0
LINE
8
BLACK
6
CONTINUOUS
10
77.281
20
-72.3
11
77.956
21
-72.3
0
LINE
8
BLACK
6
CONTINUOUS
10
77.956
20
-72.3
11
78.0048
21
-72.3048
0
LINE
8
BLACK
6
CONTINUOUS
10
330.8
20
-72.679
11
329.6
21
-72.679
0
LINE
8
BLACK
6
CONTINUOUS
10
329.6
20
-72.679
11
329.6
21
-71.079
0
LINE
8
BLACK
6
CONTINUOUS
10
329.6
20
-71.079
11
330.8
21
-71.079
0
LINE
8
BLACK
6
CONTINUOUS
10
330.8
20
-71.079
11
330.8
21
-72.679
0
LINE
8
BLACK
6
CONTINUOUS
10
141.827
20
-70.1475
11
139.278
21
-70.1475
0
LINE
8
BLACK
6
CONTINUOUS
10
139.278
20
-70.1475
11
139.278
21
-67.6475
0
LINE
8
BLACK
6
CONTINUOUS
10
139.278
20
-67.6475
11
141.827
21
-67.6475
0
LINE
8
BLACK
6
CONTINUOUS
10
141.827
20
-67.6475
11
141.827
21
-70.1475
0
LINE
8
BLACK
6
CONTINUOUS
10
306.134
20
-70.1475
11
303.584
21
-70.1475
0
LINE
8
BLACK
6
CONTINUOUS
10
303.584
20
-70.1475
11
303.584
21
-67.6475
0
LINE
8
BLACK
6
CONTINUOUS
10
303.584
20
-67.6475
11
306.134
21
-67.6475
0
LINE
8
BLACK
6
CONTINUOUS
10
306.134
20
-67.6475
11
306.134
21
-70.1475
0
LINE
8
BLACK
6
CONTINUOUS
10
256.127
20
-70.1475
11
253.577
21
-70.1475
0
LINE
8
BLACK
6
CONTINUOUS
10
253.577
20
-70.1475
11
253.577
21
-67.6475
0
LINE
8
BLACK
6
CONTINUOUS
10
253.577
20
-67.6475
11
256.127
21
-67.6475
0
LINE
8
BLACK
6
CONTINUOUS
10
256.127
20
-67.6475
11
256.127
21
-70.1475
0
LINE
8
BLACK
6
CONTINUOUS
10
58.4838
20
-70.1475
11
55.9337
21
-70.1475
0
LINE
8
BLACK
6
CONTINUOUS
10
55.9337
20
-70.1475
11
55.9337
21
-67.6475
0
LINE
8
BLACK
6
CONTINUOUS
10
55.9337
20
-67.6475
11
58.4838
21
-67.6475
0
LINE
8
BLACK
6
CONTINUOUS
10
58.4838
20
-67.6475
11
58.4838
21
-70.1475
0
LINE
8
BLACK
6
CONTINUOUS
10
237.077
20
-70.1475
11
234.528
21
-70.1475
0
LINE
8
BLACK
6
CONTINUOUS
10
234.528
20
-70.1475
11
234.528
21
-67.6475
0
LINE
8
BLACK
6
CONTINUOUS
10
234.528
20
-67.6475
11
237.077
21
-67.6475
0
LINE
8
BLACK
6
CONTINUOUS
10
237.077
20
-67.6475
11
237.077
21
-70.1475
0
LINE
8
BLACK
6
CONTINUOUS
10
218.028
20
-70.1475
11
215.477
21
-70.1475
0
LINE
8
BLACK
6
CONTINUOUS
10
215.477
20
-70.1475
11
215.477
21
-67.6475
0
LINE
8
BLACK
6
CONTINUOUS
10
215.477
20
-67.6475
11
218.028
21
-67.6475
0
LINE
8
BLACK
6
CONTINUOUS
10
218.028
20
-67.6475
11
218.028
21
-70.1475
0
LINE
8
BLACK
6
CONTINUOUS
10
198.977
20
-70.1475
11
196.427
21
-70.1475
0
LINE
8
BLACK
6
CONTINUOUS
10
196.427
20
-70.1475
11
196.427
21
-67.6475
0
LINE
8
BLACK
6
CONTINUOUS
10
196.427
20
-67.6475
11
198.977
21
-67.6475
0
LINE
8
BLACK
6
CONTINUOUS
10
198.977
20
-67.6475
11
198.977
21
-70.1475
0
LINE
8
BLACK
6
CONTINUOUS
10
179.927
20
-70.1475
11
177.377
21
-70.1475
0
LINE
8
BLACK
6
CONTINUOUS
10
177.377
20
-70.1475
11
177.377
21
-67.6475
0
LINE
8
BLACK
6
CONTINUOUS
10
177.377
20
-67.6475
11
179.927
21
-67.6475
0
LINE
8
BLACK
6
CONTINUOUS
10
179.927
20
-67.6475
11
179.927
21
-70.1475
0
LINE
8
BLACK
6
CONTINUOUS
10
160.877
20
-70.1475
11
158.327
21
-70.1475
0
LINE
8
BLACK
6
CONTINUOUS
10
158.327
20
-70.1475
11
158.327
21
-67.6475
0
LINE
8
BLACK
6
CONTINUOUS
10
158.327
20
-67.6475
11
160.877
21
-67.6475
0
LINE
8
BLACK
6
CONTINUOUS
10
160.877
20
-67.6475
11
160.877
21
-70.1475
0
LINE
8
BLACK
6
CONTINUOUS
10
122.777
20
-70.1475
11
120.227
21
-70.1475
0
LINE
8
BLACK
6
CONTINUOUS
10
120.227
20
-70.1475
11
120.227
21
-67.6475
0
LINE
8
BLACK
6
CONTINUOUS
10
120.227
20
-67.6475
11
122.777
21
-67.6475
0
LINE
8
BLACK
6
CONTINUOUS
10
122.777
20
-67.6475
11
122.777
21
-70.1475
0
LINE
8
BLACK
6
CONTINUOUS
10
275.178
20
-70.1475
11
272.627
21
-70.1475
0
LINE
8
BLACK
6
CONTINUOUS
10
272.627
20
-70.1475
11
272.627
21
-67.6475
0
LINE
8
BLACK
6
CONTINUOUS
10
272.627
20
-67.6475
11
275.178
21
-67.6475
0
LINE
8
BLACK
6
CONTINUOUS
10
275.178
20
-67.6475
11
275.178
21
-70.1475
0
LINE
8
BLACK
6
CONTINUOUS
10
103.727
20
-70.1475
11
101.177
21
-70.1475
0
LINE
8
BLACK
6
CONTINUOUS
10
101.177
20
-70.1475
11
101.177
21
-67.6475
0
LINE
8
BLACK
6
CONTINUOUS
10
101.177
20
-67.6475
11
103.727
21
-67.6475
0
LINE
8
BLACK
6
CONTINUOUS
10
103.727
20
-67.6475
11
103.727
21
-70.1475
0
LINE
8
BLACK
6
CONTINUOUS
10
84.6775
20
-70.1475
11
82.1275
21
-70.1475
0
LINE
8
BLACK
6
CONTINUOUS
10
82.1275
20
-70.1475
11
82.1275
21
-67.6475
0
LINE
8
BLACK
6
CONTINUOUS
10
82.1275
20
-67.6475
11
84.6775
21
-67.6475
0
LINE
8
BLACK
6
CONTINUOUS
10
84.6775
20
-67.6475
11
84.6775
21
-70.1475
0
LINE
8
BLACK
6
CONTINUOUS
10
288.104
20
-67.6075
11
285.554
21
-67.6075
0
LINE
8
BLACK
6
CONTINUOUS
10
285.554
20
-67.6075
11
285.554
21
-65.1075
0
LINE
8
BLACK
6
CONTINUOUS
10
285.554
20
-65.1075
11
288.104
21
-65.1075
0
LINE
8
BLACK
6
CONTINUOUS
10
288.104
20
-65.1075
11
288.104
21
-67.6075
0
LINE
8
BLACK
6
CONTINUOUS
10
135.704
20
-67.6075
11
133.154
21
-67.6075
0
LINE
8
BLACK
6
CONTINUOUS
10
133.154
20
-67.6075
11
133.154
21
-65.1075
0
LINE
8
BLACK
6
CONTINUOUS
10
133.154
20
-65.1075
11
135.704
21
-65.1075
0
LINE
8
BLACK
6
CONTINUOUS
10
135.704
20
-65.1075
11
135.704
21
-67.6075
0
LINE
8
BLACK
6
CONTINUOUS
10
173.804
20
-67.6075
11
171.254
21
-67.6075
0
LINE
8
BLACK
6
CONTINUOUS
10
171.254
20
-67.6075
11
171.254
21
-65.1075
0
LINE
8
BLACK
6
CONTINUOUS
10
171.254
20
-65.1075
11
173.804
21
-65.1075
0
LINE
8
BLACK
6
CONTINUOUS
10
173.804
20
-65.1075
11
173.804
21
-67.6075
0
LINE
8
BLACK
6
CONTINUOUS
10
116.654
20
-67.6075
11
114.105
21
-67.6075
0
LINE
8
BLACK
6
CONTINUOUS
10
114.105
20
-67.6075
11
114.105
21
-65.1075
0
LINE
8
BLACK
6
CONTINUOUS
10
114.105
20
-65.1075
11
116.654
21
-65.1075
0
LINE
8
BLACK
6
CONTINUOUS
10
116.654
20
-65.1075
11
116.654
21
-67.6075
0
LINE
8
BLACK
6
CONTINUOUS
10
192.855
20
-67.6075
11
190.304
21
-67.6075
0
LINE
8
BLACK
6
CONTINUOUS
10
190.304
20
-67.6075
11
190.304
21
-65.1075
0
LINE
8
BLACK
6
CONTINUOUS
10
190.304
20
-65.1075
11
192.855
21
-65.1075
0
LINE
8
BLACK
6
CONTINUOUS
10
192.855
20
-65.1075
11
192.855
21
-67.6075
0
LINE
8
BLACK
6
CONTINUOUS
10
211.904
20
-67.6075
11
209.355
21
-67.6075
0
LINE
8
BLACK
6
CONTINUOUS
10
209.355
20
-67.6075
11
209.355
21
-65.1075
0
LINE
8
BLACK
6
CONTINUOUS
10
209.355
20
-65.1075
11
211.904
21
-65.1075
0
LINE
8
BLACK
6
CONTINUOUS
10
211.904
20
-65.1075
11
211.904
21
-67.6075
0
LINE
8
BLACK
6
CONTINUOUS
10
230.954
20
-67.6075
11
228.404
21
-67.6075
0
LINE
8
BLACK
6
CONTINUOUS
10
228.404
20
-67.6075
11
228.404
21
-65.1075
0
LINE
8
BLACK
6
CONTINUOUS
10
228.404
20
-65.1075
11
230.954
21
-65.1075
0
LINE
8
BLACK
6
CONTINUOUS
10
230.954
20
-65.1075
11
230.954
21
-67.6075
0
LINE
8
BLACK
6
CONTINUOUS
10
97.6045
20
-67.6075
11
95.0545
21
-67.6075
0
LINE
8
BLACK
6
CONTINUOUS
10
95.0545
20
-67.6075
11
95.0545
21
-65.1075
0
LINE
8
BLACK
6
CONTINUOUS
10
95.0545
20
-65.1075
11
97.6045
21
-65.1075
0
LINE
8
BLACK
6
CONTINUOUS
10
97.6045
20
-65.1075
11
97.6045
21
-67.6075
0
LINE
8
BLACK
6
CONTINUOUS
10
250.004
20
-67.6075
11
247.454
21
-67.6075
0
LINE
8
BLACK
6
CONTINUOUS
10
247.454
20
-67.6075
11
247.454
21
-65.1075
0
LINE
8
BLACK
6
CONTINUOUS
10
247.454
20
-65.1075
11
250.004
21
-65.1075
0
LINE
8
BLACK
6
CONTINUOUS
10
250.004
20
-65.1075
11
250.004
21
-67.6075
0
LINE
8
BLACK
6
CONTINUOUS
10
269.054
20
-67.6075
11
266.505
21
-67.6075
0
LINE
8
BLACK
6
CONTINUOUS
10
266.505
20
-67.6075
11
266.505
21
-65.1075
0
LINE
8
BLACK
6
CONTINUOUS
10
266.505
20
-65.1075
11
269.054
21
-65.1075
0
LINE
8
BLACK
6
CONTINUOUS
10
269.054
20
-65.1075
11
269.054
21
-67.6075
0
LINE
8
BLACK
6
CONTINUOUS
10
319.061
20
-67.6075
11
316.511
21
-67.6075
0
LINE
8
BLACK
6
CONTINUOUS
10
316.511
20
-67.6075
11
316.511
21
-65.1075
0
LINE
8
BLACK
6
CONTINUOUS
10
316.511
20
-65.1075
11
319.061
21
-65.1075
0
LINE
8
BLACK
6
CONTINUOUS
10
319.061
20
-65.1075
11
319.061
21
-67.6075
0
LINE
8
BLACK
6
CONTINUOUS
10
154.754
20
-67.6075
11
152.204
21
-67.6075
0
LINE
8
BLACK
6
CONTINUOUS
10
152.204
20
-67.6075
11
152.204
21
-65.1075
0
LINE
8
BLACK
6
CONTINUOUS
10
152.204
20
-65.1075
11
154.754
21
-65.1075
0
LINE
8
BLACK
6
CONTINUOUS
10
154.754
20
-65.1075
11
154.754
21
-67.6075
0
LINE
8
BLACK
6
CONTINUOUS
10
71.4107
20
-67.6075
11
68.8607
21
-67.6075
0
LINE
8
BLACK
6
CONTINUOUS
10
68.8607
20
-67.6075
11
68.8607
21
-65.1075
0
LINE
8
BLACK
6
CONTINUOUS
10
68.8607
20
-65.1075
11
71.4107
21
-65.1075
0
LINE
8
BLACK
6
CONTINUOUS
10
71.4107
20
-65.1075
11
71.4107
21
-67.6075
0
LINE
8
BLACK
6
CONTINUOUS
10
231.292
20
-62.044
11
229.792
21
-62.044
0
LINE
8
BLACK
6
CONTINUOUS
10
229.792
20
-62.044
11
229.792
21
-61.044
0
LINE
8
BLACK
6
CONTINUOUS
10
229.792
20
-61.044
11
231.292
21
-61.044
0
LINE
8
BLACK
6
CONTINUOUS
10
231.292
20
-61.044
11
231.292
21
-62.044
0
LINE
8
BLACK
6
CONTINUOUS
10
76.86
20
-62.044
11
75.36
21
-62.044
0
LINE
8
BLACK
6
CONTINUOUS
10
75.36
20
-62.044
11
75.36
21
-61.044
0
LINE
8
BLACK
6
CONTINUOUS
10
75.36
20
-61.044
11
76.86
21
-61.044
0
LINE
8
BLACK
6
CONTINUOUS
10
76.86
20
-61.044
11
76.86
21
-62.044
0
LINE
8
BLACK
6
CONTINUOUS
10
310.413
20
-62.044
11
308.913
21
-62.044
0
LINE
8
BLACK
6
CONTINUOUS
10
308.913
20
-62.044
11
308.913
21
-61.044
0
LINE
8
BLACK
6
CONTINUOUS
10
308.913
20
-61.044
11
310.413
21
-61.044
0
LINE
8
BLACK
6
CONTINUOUS
10
310.413
20
-61.044
11
310.413
21
-62.044
0
LINE
8
BLACK
6
CONTINUOUS
10
226.392
20
-62.044
11
224.892
21
-62.044
0
LINE
8
BLACK
6
CONTINUOUS
10
224.892
20
-62.044
11
224.892
21
-61.044
0
LINE
8
BLACK
6
CONTINUOUS
10
224.892
20
-61.044
11
226.392
21
-61.044
0
LINE
8
BLACK
6
CONTINUOUS
10
226.392
20
-61.044
11
226.392
21
-62.044
0
LINE
8
BLACK
6
CONTINUOUS
10
305.513
20
-62.044
11
304.013
21
-62.044
0
LINE
8
BLACK
6
CONTINUOUS
10
304.013
20
-62.044
11
304.013
21
-61.044
0
LINE
8
BLACK
6
CONTINUOUS
10
304.013
20
-61.044
11
305.513
21
-61.044
0
LINE
8
BLACK
6
CONTINUOUS
10
305.513
20
-61.044
11
305.513
21
-62.044
0
LINE
8
BLACK
6
CONTINUOUS
10
71.96
20
-62.044
11
70.46
21
-62.044
0
LINE
8
BLACK
6
CONTINUOUS
10
70.46
20
-62.044
11
70.46
21
-61.044
0
LINE
8
BLACK
6
CONTINUOUS
10
70.46
20
-61.044
11
71.96
21
-61.044
0
LINE
8
BLACK
6
CONTINUOUS
10
71.96
20
-61.044
11
71.96
21
-62.044
0
LINE
8
BLACK
6
CONTINUOUS
10
150.192
20
-62.044
11
148.692
21
-62.044
0
LINE
8
BLACK
6
CONTINUOUS
10
148.692
20
-62.044
11
148.692
21
-61.044
0
LINE
8
BLACK
6
CONTINUOUS
10
148.692
20
-61.044
11
150.192
21
-61.044
0
LINE
8
BLACK
6
CONTINUOUS
10
150.192
20
-61.044
11
150.192
21
-62.044
0
LINE
8
BLACK
6
CONTINUOUS
10
155.092
20
-62.044
11
153.592
21
-62.044
0
LINE
8
BLACK
6
CONTINUOUS
10
153.592
20
-62.044
11
153.592
21
-61.044
0
LINE
8
BLACK
6
CONTINUOUS
10
153.592
20
-61.044
11
155.092
21
-61.044
0
LINE
8
BLACK
6
CONTINUOUS
10
155.092
20
-61.044
11
155.092
21
-62.044
0
LINE
8
BLACK
6
CONTINUOUS
10
231.292
20
-58.844
11
229.792
21
-58.844
0
LINE
8
BLACK
6
CONTINUOUS
10
229.792
20
-58.844
11
229.792
21
-57.844
0
LINE
8
BLACK
6
CONTINUOUS
10
229.792
20
-57.844
11
231.292
21
-57.844
0
LINE
8
BLACK
6
CONTINUOUS
10
231.292
20
-57.844
11
231.292
21
-58.844
0
LINE
8
BLACK
6
CONTINUOUS
10
71.96
20
-58.844
11
70.46
21
-58.844
0
LINE
8
BLACK
6
CONTINUOUS
10
70.46
20
-58.844
11
70.46
21
-57.844
0
LINE
8
BLACK
6
CONTINUOUS
10
70.46
20
-57.844
11
71.96
21
-57.844
0
LINE
8
BLACK
6
CONTINUOUS
10
71.96
20
-57.844
11
71.96
21
-58.844
0
LINE
8
BLACK
6
CONTINUOUS
10
155.092
20
-58.844
11
153.592
21
-58.844
0
LINE
8
BLACK
6
CONTINUOUS
10
153.592
20
-58.844
11
153.592
21
-57.844
0
LINE
8
BLACK
6
CONTINUOUS
10
153.592
20
-57.844
11
155.092
21
-57.844
0
LINE
8
BLACK
6
CONTINUOUS
10
155.092
20
-57.844
11
155.092
21
-58.844
0
LINE
8
BLACK
6
CONTINUOUS
10
150.192
20
-58.844
11
148.692
21
-58.844
0
LINE
8
BLACK
6
CONTINUOUS
10
148.692
20
-58.844
11
148.692
21
-57.844
0
LINE
8
BLACK
6
CONTINUOUS
10
148.692
20
-57.844
11
150.192
21
-57.844
0
LINE
8
BLACK
6
CONTINUOUS
10
150.192
20
-57.844
11
150.192
21
-58.844
0
LINE
8
BLACK
6
CONTINUOUS
10
76.86
20
-58.844
11
75.36
21
-58.844
0
LINE
8
BLACK
6
CONTINUOUS
10
75.36
20
-58.844
11
75.36
21
-57.844
0
LINE
8
BLACK
6
CONTINUOUS
10
75.36
20
-57.844
11
76.86
21
-57.844
0
LINE
8
BLACK
6
CONTINUOUS
10
76.86
20
-57.844
11
76.86
21
-58.844
0
LINE
8
BLACK
6
CONTINUOUS
10
305.513
20
-58.844
11
304.013
21
-58.844
0
LINE
8
BLACK
6
CONTINUOUS
10
304.013
20
-58.844
11
304.013
21
-57.844
0
LINE
8
BLACK
6
CONTINUOUS
10
304.013
20
-57.844
11
305.513
21
-57.844
0
LINE
8
BLACK
6
CONTINUOUS
10
305.513
20
-57.844
11
305.513
21
-58.844
0
LINE
8
BLACK
6
CONTINUOUS
10
226.392
20
-58.844
11
224.892
21
-58.844
0
LINE
8
BLACK
6
CONTINUOUS
10
224.892
20
-58.844
11
224.892
21
-57.844
0
LINE
8
BLACK
6
CONTINUOUS
10
224.892
20
-57.844
11
226.392
21
-57.844
0
LINE
8
BLACK
6
CONTINUOUS
10
226.392
20
-57.844
11
226.392
21
-58.844
0
LINE
8
BLACK
6
CONTINUOUS
10
310.413
20
-58.844
11
308.913
21
-58.844
0
LINE
8
BLACK
6
CONTINUOUS
10
308.913
20
-58.844
11
308.913
21
-57.844
0
LINE
8
BLACK
6
CONTINUOUS
10
308.913
20
-57.844
11
310.413
21
-57.844
0
LINE
8
BLACK
6
CONTINUOUS
10
310.413
20
-57.844
11
310.413
21
-58.844
0
LINE
8
BLACK
6
CONTINUOUS
10
87.835
20
-58.766
11
86.235
21
-58.766
0
LINE
8
BLACK
6
CONTINUOUS
10
86.235
20
-58.766
11
86.235
21
-57.566
0
LINE
8
BLACK
6
CONTINUOUS
10
86.235
20
-57.566
11
87.835
21
-57.566
0
LINE
8
BLACK
6
CONTINUOUS
10
87.835
20
-57.566
11
87.835
21
-58.766
0
LINE
8
BLACK
6
CONTINUOUS
10
259.245
20
-58.766
11
257.645
21
-58.766
0
LINE
8
BLACK
6
CONTINUOUS
10
257.645
20
-58.766
11
257.645
21
-57.566
0
LINE
8
BLACK
6
CONTINUOUS
10
257.645
20
-57.566
11
259.245
21
-57.566
0
LINE
8
BLACK
6
CONTINUOUS
10
259.245
20
-57.566
11
259.245
21
-58.766
0
LINE
8
BLACK
6
CONTINUOUS
10
183.088
20
-58.766
11
181.488
21
-58.766
0
LINE
8
BLACK
6
CONTINUOUS
10
181.488
20
-58.766
11
181.488
21
-57.566
0
LINE
8
BLACK
6
CONTINUOUS
10
181.488
20
-57.566
11
183.088
21
-57.566
0
LINE
8
BLACK
6
CONTINUOUS
10
183.088
20
-57.566
11
183.088
21
-58.766
0
LINE
8
BLACK
6
CONTINUOUS
10
199.338
20
-58.766
11
197.738
21
-58.766
0
LINE
8
BLACK
6
CONTINUOUS
10
197.738
20
-58.766
11
197.738
21
-57.566
0
LINE
8
BLACK
6
CONTINUOUS
10
197.738
20
-57.566
11
199.338
21
-57.566
0
LINE
8
BLACK
6
CONTINUOUS
10
199.338
20
-57.566
11
199.338
21
-58.766
0
LINE
8
BLACK
6
CONTINUOUS
10
202.138
20
-58.766
11
200.538
21
-58.766
0
LINE
8
BLACK
6
CONTINUOUS
10
200.538
20
-58.766
11
200.538
21
-57.566
0
LINE
8
BLACK
6
CONTINUOUS
10
200.538
20
-57.566
11
202.138
21
-57.566
0
LINE
8
BLACK
6
CONTINUOUS
10
202.138
20
-57.566
11
202.138
21
-58.766
0
LINE
8
BLACK
6
CONTINUOUS
10
218.388
20
-58.766
11
216.788
21
-58.766
0
LINE
8
BLACK
6
CONTINUOUS
10
216.788
20
-58.766
11
216.788
21
-57.566
0
LINE
8
BLACK
6
CONTINUOUS
10
216.788
20
-57.566
11
218.388
21
-57.566
0
LINE
8
BLACK
6
CONTINUOUS
10
218.388
20
-57.566
11
218.388
21
-58.766
0
LINE
8
BLACK
6
CONTINUOUS
10
221.188
20
-58.766
11
219.588
21
-58.766
0
LINE
8
BLACK
6
CONTINUOUS
10
219.588
20
-58.766
11
219.588
21
-57.566
0
LINE
8
BLACK
6
CONTINUOUS
10
219.588
20
-57.566
11
221.188
21
-57.566
0
LINE
8
BLACK
6
CONTINUOUS
10
221.188
20
-57.566
11
221.188
21
-58.766
0
LINE
8
BLACK
6
CONTINUOUS
10
240.195
20
-58.766
11
238.595
21
-58.766
0
LINE
8
BLACK
6
CONTINUOUS
10
238.595
20
-58.766
11
238.595
21
-57.566
0
LINE
8
BLACK
6
CONTINUOUS
10
238.595
20
-57.566
11
240.195
21
-57.566
0
LINE
8
BLACK
6
CONTINUOUS
10
240.195
20
-57.566
11
240.195
21
-58.766
0
LINE
8
BLACK
6
CONTINUOUS
10
237.395
20
-58.766
11
235.795
21
-58.766
0
LINE
8
BLACK
6
CONTINUOUS
10
235.795
20
-58.766
11
235.795
21
-57.566
0
LINE
8
BLACK
6
CONTINUOUS
10
235.795
20
-57.566
11
237.395
21
-57.566
0
LINE
8
BLACK
6
CONTINUOUS
10
237.395
20
-57.566
11
237.395
21
-58.766
0
LINE
8
BLACK
6
CONTINUOUS
10
256.445
20
-58.766
11
254.845
21
-58.766
0
LINE
8
BLACK
6
CONTINUOUS
10
254.845
20
-58.766
11
254.845
21
-57.566
0
LINE
8
BLACK
6
CONTINUOUS
10
254.845
20
-57.566
11
256.445
21
-57.566
0
LINE
8
BLACK
6
CONTINUOUS
10
256.445
20
-57.566
11
256.445
21
-58.766
0
LINE
8
BLACK
6
CONTINUOUS
10
85.035
20
-58.766
11
83.435
21
-58.766
0
LINE
8
BLACK
6
CONTINUOUS
10
83.435
20
-58.766
11
83.435
21
-57.566
0
LINE
8
BLACK
6
CONTINUOUS
10
83.435
20
-57.566
11
85.035
21
-57.566
0
LINE
8
BLACK
6
CONTINUOUS
10
85.035
20
-57.566
11
85.035
21
-58.766
0
LINE
8
BLACK
6
CONTINUOUS
10
275.538
20
-58.766
11
273.938
21
-58.766
0
LINE
8
BLACK
6
CONTINUOUS
10
273.938
20
-58.766
11
273.938
21
-57.566
0
LINE
8
BLACK
6
CONTINUOUS
10
273.938
20
-57.566
11
275.538
21
-57.566
0
LINE
8
BLACK
6
CONTINUOUS
10
275.538
20
-57.566
11
275.538
21
-58.766
0
LINE
8
BLACK
6
CONTINUOUS
10
278.338
20
-58.766
11
276.738
21
-58.766
0
LINE
8
BLACK
6
CONTINUOUS
10
276.738
20
-58.766
11
276.738
21
-57.566
0
LINE
8
BLACK
6
CONTINUOUS
10
276.738
20
-57.566
11
278.338
21
-57.566
0
LINE
8
BLACK
6
CONTINUOUS
10
278.338
20
-57.566
11
278.338
21
-58.766
0
LINE
8
BLACK
6
CONTINUOUS
10
61.162
20
-58.766
11
59.562
21
-58.766
0
LINE
8
BLACK
6
CONTINUOUS
10
59.562
20
-58.766
11
59.562
21
-57.566
0
LINE
8
BLACK
6
CONTINUOUS
10
59.562
20
-57.566
11
61.162
21
-57.566
0
LINE
8
BLACK
6
CONTINUOUS
10
61.162
20
-57.566
11
61.162
21
-58.766
0
LINE
8
BLACK
6
CONTINUOUS
10
63.962
20
-58.766
11
62.362
21
-58.766
0
LINE
8
BLACK
6
CONTINUOUS
10
62.362
20
-58.766
11
62.362
21
-57.566
0
LINE
8
BLACK
6
CONTINUOUS
10
62.362
20
-57.566
11
63.962
21
-57.566
0
LINE
8
BLACK
6
CONTINUOUS
10
63.962
20
-57.566
11
63.962
21
-58.766
0
LINE
8
BLACK
6
CONTINUOUS
10
294.548
20
-58.766
11
292.948
21
-58.766
0
LINE
8
BLACK
6
CONTINUOUS
10
292.948
20
-58.766
11
292.948
21
-57.566
0
LINE
8
BLACK
6
CONTINUOUS
10
292.948
20
-57.566
11
294.548
21
-57.566
0
LINE
8
BLACK
6
CONTINUOUS
10
294.548
20
-57.566
11
294.548
21
-58.766
0
LINE
8
BLACK
6
CONTINUOUS
10
297.348
20
-58.766
11
295.748
21
-58.766
0
LINE
8
BLACK
6
CONTINUOUS
10
295.748
20
-58.766
11
295.748
21
-57.566
0
LINE
8
BLACK
6
CONTINUOUS
10
295.748
20
-57.566
11
297.348
21
-57.566
0
LINE
8
BLACK
6
CONTINUOUS
10
297.348
20
-57.566
11
297.348
21
-58.766
0
LINE
8
BLACK
6
CONTINUOUS
10
318.297
20
-58.766
11
316.697
21
-58.766
0
LINE
8
BLACK
6
CONTINUOUS
10
316.697
20
-58.766
11
316.697
21
-57.566
0
LINE
8
BLACK
6
CONTINUOUS
10
316.697
20
-57.566
11
318.297
21
-57.566
0
LINE
8
BLACK
6
CONTINUOUS
10
318.297
20
-57.566
11
318.297
21
-58.766
0
LINE
8
BLACK
6
CONTINUOUS
10
321.097
20
-58.766
11
319.497
21
-58.766
0
LINE
8
BLACK
6
CONTINUOUS
10
319.497
20
-58.766
11
319.497
21
-57.566
0
LINE
8
BLACK
6
CONTINUOUS
10
319.497
20
-57.566
11
321.097
21
-57.566
0
LINE
8
BLACK
6
CONTINUOUS
10
321.097
20
-57.566
11
321.097
21
-58.766
0
LINE
8
BLACK
6
CONTINUOUS
10
104.048
20
-58.766
11
102.448
21
-58.766
0
LINE
8
BLACK
6
CONTINUOUS
10
102.448
20
-58.766
11
102.448
21
-57.566
0
LINE
8
BLACK
6
CONTINUOUS
10
102.448
20
-57.566
11
104.048
21
-57.566
0
LINE
8
BLACK
6
CONTINUOUS
10
104.048
20
-57.566
11
104.048
21
-58.766
0
LINE
8
BLACK
6
CONTINUOUS
10
180.288
20
-58.766
11
178.688
21
-58.766
0
LINE
8
BLACK
6
CONTINUOUS
10
178.688
20
-58.766
11
178.688
21
-57.566
0
LINE
8
BLACK
6
CONTINUOUS
10
178.688
20
-57.566
11
180.288
21
-57.566
0
LINE
8
BLACK
6
CONTINUOUS
10
180.288
20
-57.566
11
180.288
21
-58.766
0
LINE
8
BLACK
6
CONTINUOUS
10
106.848
20
-58.766
11
105.248
21
-58.766
0
LINE
8
BLACK
6
CONTINUOUS
10
105.248
20
-58.766
11
105.248
21
-57.566
0
LINE
8
BLACK
6
CONTINUOUS
10
105.248
20
-57.566
11
106.848
21
-57.566
0
LINE
8
BLACK
6
CONTINUOUS
10
106.848
20
-57.566
11
106.848
21
-58.766
0
LINE
8
BLACK
6
CONTINUOUS
10
123.138
20
-58.766
11
121.538
21
-58.766
0
LINE
8
BLACK
6
CONTINUOUS
10
121.538
20
-58.766
11
121.538
21
-57.566
0
LINE
8
BLACK
6
CONTINUOUS
10
121.538
20
-57.566
11
123.138
21
-57.566
0
LINE
8
BLACK
6
CONTINUOUS
10
123.138
20
-57.566
11
123.138
21
-58.766
0
LINE
8
BLACK
6
CONTINUOUS
10
125.938
20
-58.766
11
124.338
21
-58.766
0
LINE
8
BLACK
6
CONTINUOUS
10
124.338
20
-58.766
11
124.338
21
-57.566
0
LINE
8
BLACK
6
CONTINUOUS
10
124.338
20
-57.566
11
125.938
21
-57.566
0
LINE
8
BLACK
6
CONTINUOUS
10
125.938
20
-57.566
11
125.938
21
-58.766
0
LINE
8
BLACK
6
CONTINUOUS
10
164.038
20
-58.766
11
162.438
21
-58.766
0
LINE
8
BLACK
6
CONTINUOUS
10
162.438
20
-58.766
11
162.438
21
-57.566
0
LINE
8
BLACK
6
CONTINUOUS
10
162.438
20
-57.566
11
164.038
21
-57.566
0
LINE
8
BLACK
6
CONTINUOUS
10
164.038
20
-57.566
11
164.038
21
-58.766
0
LINE
8
BLACK
6
CONTINUOUS
10
142.188
20
-58.766
11
140.588
21
-58.766
0
LINE
8
BLACK
6
CONTINUOUS
10
140.588
20
-58.766
11
140.588
21
-57.566
0
LINE
8
BLACK
6
CONTINUOUS
10
140.588
20
-57.566
11
142.188
21
-57.566
0
LINE
8
BLACK
6
CONTINUOUS
10
142.188
20
-57.566
11
142.188
21
-58.766
0
LINE
8
BLACK
6
CONTINUOUS
10
161.238
20
-58.766
11
159.638
21
-58.766
0
LINE
8
BLACK
6
CONTINUOUS
10
159.638
20
-58.766
11
159.638
21
-57.566
0
LINE
8
BLACK
6
CONTINUOUS
10
159.638
20
-57.566
11
161.238
21
-57.566
0
LINE
8
BLACK
6
CONTINUOUS
10
161.238
20
-57.566
11
161.238
21
-58.766
0
LINE
8
BLACK
6
CONTINUOUS
10
144.988
20
-58.766
11
143.388
21
-58.766
0
LINE
8
BLACK
6
CONTINUOUS
10
143.388
20
-58.766
11
143.388
21
-57.566
0
LINE
8
BLACK
6
CONTINUOUS
10
143.388
20
-57.566
11
144.988
21
-57.566
0
LINE
8
BLACK
6
CONTINUOUS
10
144.988
20
-57.566
11
144.988
21
-58.766
0
LINE
8
BLACK
6
CONTINUOUS
10
151.368
20
-55.2868
11
151.415
21
-55.301
0
LINE
8
BLACK
6
CONTINUOUS
10
151.415
20
-55.301
11
151.458
21
-55.3241
0
LINE
8
BLACK
6
CONTINUOUS
10
151.458
20
-55.3241
11
151.496
21
-55.3552
0
LINE
8
BLACK
6
CONTINUOUS
10
151.496
20
-55.3552
11
151.527
21
-55.3931
0
LINE
8
BLACK
6
CONTINUOUS
10
151.527
20
-55.3931
11
151.55
21
-55.4363
0
LINE
8
BLACK
6
CONTINUOUS
10
151.55
20
-55.4363
11
151.564
21
-55.4832
0
LINE
8
BLACK
6
CONTINUOUS
10
151.564
20
-55.4832
11
151.569
21
-55.532
0
LINE
8
BLACK
6
CONTINUOUS
10
151.569
20
-55.532
11
151.569
21
-56.482
0
LINE
8
BLACK
6
CONTINUOUS
10
151.569
20
-56.482
11
151.564
21
-56.5308
0
LINE
8
BLACK
6
CONTINUOUS
10
151.564
20
-56.5308
11
151.55
21
-56.5777
0
LINE
8
BLACK
6
CONTINUOUS
10
151.55
20
-56.5777
11
151.527
21
-56.6209
0
LINE
8
BLACK
6
CONTINUOUS
10
151.527
20
-56.6209
11
151.496
21
-56.6588
0
LINE
8
BLACK
6
CONTINUOUS
10
151.496
20
-56.6588
11
151.458
21
-56.6899
0
LINE
8
BLACK
6
CONTINUOUS
10
151.458
20
-56.6899
11
151.415
21
-56.713
0
LINE
8
BLACK
6
CONTINUOUS
10
151.415
20
-56.713
11
151.368
21
-56.7272
0
LINE
8
BLACK
6
CONTINUOUS
10
151.368
20
-56.7272
11
151.319
21
-56.732
0
LINE
8
BLACK
6
CONTINUOUS
10
151.319
20
-56.732
11
150.644
21
-56.732
0
LINE
8
BLACK
6
CONTINUOUS
10
150.644
20
-56.732
11
150.595
21
-56.7272
0
LINE
8
BLACK
6
CONTINUOUS
10
150.595
20
-56.7272
11
150.548
21
-56.713
0
LINE
8
BLACK
6
CONTINUOUS
10
150.548
20
-56.713
11
150.505
21
-56.6899
0
LINE
8
BLACK
6
CONTINUOUS
10
150.505
20
-56.6899
11
150.467
21
-56.6588
0
LINE
8
BLACK
6
CONTINUOUS
10
150.467
20
-56.6588
11
150.436
21
-56.6209
0
LINE
8
BLACK
6
CONTINUOUS
10
150.436
20
-56.6209
11
150.413
21
-56.5777
0
LINE
8
BLACK
6
CONTINUOUS
10
150.413
20
-56.5777
11
150.399
21
-56.5308
0
LINE
8
BLACK
6
CONTINUOUS
10
150.399
20
-56.5308
11
150.394
21
-56.482
0
LINE
8
BLACK
6
CONTINUOUS
10
150.394
20
-56.482
11
150.394
21
-55.532
0
LINE
8
BLACK
6
CONTINUOUS
10
150.394
20
-55.532
11
150.399
21
-55.4832
0
LINE
8
BLACK
6
CONTINUOUS
10
150.399
20
-55.4832
11
150.413
21
-55.4363
0
LINE
8
BLACK
6
CONTINUOUS
10
150.413
20
-55.4363
11
150.436
21
-55.3931
0
LINE
8
BLACK
6
CONTINUOUS
10
150.436
20
-55.3931
11
150.467
21
-55.3552
0
LINE
8
BLACK
6
CONTINUOUS
10
150.467
20
-55.3552
11
150.505
21
-55.3241
0
LINE
8
BLACK
6
CONTINUOUS
10
150.505
20
-55.3241
11
150.548
21
-55.301
0
LINE
8
BLACK
6
CONTINUOUS
10
150.548
20
-55.301
11
150.595
21
-55.2868
0
LINE
8
BLACK
6
CONTINUOUS
10
150.595
20
-55.2868
11
150.644
21
-55.282
0
LINE
8
BLACK
6
CONTINUOUS
10
150.644
20
-55.282
11
151.319
21
-55.282
0
LINE
8
BLACK
6
CONTINUOUS
10
151.319
20
-55.282
11
151.368
21
-55.2868
0
LINE
8
BLACK
6
CONTINUOUS
10
306.562
20
-55.2868
11
306.609
21
-55.301
0
LINE
8
BLACK
6
CONTINUOUS
10
306.609
20
-55.301
11
306.652
21
-55.3241
0
LINE
8
BLACK
6
CONTINUOUS
10
306.652
20
-55.3241
11
306.69
21
-55.3552
0
LINE
8
BLACK
6
CONTINUOUS
10
306.69
20
-55.3552
11
306.721
21
-55.3931
0
LINE
8
BLACK
6
CONTINUOUS
10
306.721
20
-55.3931
11
306.744
21
-55.4363
0
LINE
8
BLACK
6
CONTINUOUS
10
306.744
20
-55.4363
11
306.758
21
-55.4832
0
LINE
8
BLACK
6
CONTINUOUS
10
306.758
20
-55.4832
11
306.763
21
-55.532
0
LINE
8
BLACK
6
CONTINUOUS
10
306.763
20
-55.532
11
306.763
21
-56.482
0
LINE
8
BLACK
6
CONTINUOUS
10
306.763
20
-56.482
11
306.758
21
-56.5308
0
LINE
8
BLACK
6
CONTINUOUS
10
306.758
20
-56.5308
11
306.744
21
-56.5777
0
LINE
8
BLACK
6
CONTINUOUS
10
306.744
20
-56.5777
11
306.721
21
-56.6209
0
LINE
8
BLACK
6
CONTINUOUS
10
306.721
20
-56.6209
11
306.69
21
-56.6588
0
LINE
8
BLACK
6
CONTINUOUS
10
306.69
20
-56.6588
11
306.652
21
-56.6899
0
LINE
8
BLACK
6
CONTINUOUS
10
306.652
20
-56.6899
11
306.609
21
-56.713
0
LINE
8
BLACK
6
CONTINUOUS
10
306.609
20
-56.713
11
306.562
21
-56.7272
0
LINE
8
BLACK
6
CONTINUOUS
10
306.562
20
-56.7272
11
306.513
21
-56.732
0
LINE
8
BLACK
6
CONTINUOUS
10
306.513
20
-56.732
11
305.838
21
-56.732
0
LINE
8
BLACK
6
CONTINUOUS
10
305.838
20
-56.732
11
305.789
21
-56.7272
0
LINE
8
BLACK
6
CONTINUOUS
10
305.789
20
-56.7272
11
305.742
21
-56.713
0
LINE
8
BLACK
6
CONTINUOUS
10
305.742
20
-56.713
11
305.699
21
-56.6899
0
LINE
8
BLACK
6
CONTINUOUS
10
305.699
20
-56.6899
11
305.661
21
-56.6588
0
LINE
8
BLACK
6
CONTINUOUS
10
305.661
20
-56.6588
11
305.63
21
-56.6209
0
LINE
8
BLACK
6
CONTINUOUS
10
305.63
20
-56.6209
11
305.607
21
-56.5777
0
LINE
8
BLACK
6
CONTINUOUS
10
305.607
20
-56.5777
11
305.593
21
-56.5308
0
LINE
8
BLACK
6
CONTINUOUS
10
305.593
20
-56.5308
11
305.588
21
-56.482
0
LINE
8
BLACK
6
CONTINUOUS
10
305.588
20
-56.482
11
305.588
21
-55.532
0
LINE
8
BLACK
6
CONTINUOUS
10
305.588
20
-55.532
11
305.593
21
-55.4832
0
LINE
8
BLACK
6
CONTINUOUS
10
305.593
20
-55.4832
11
305.607
21
-55.4363
0
LINE
8
BLACK
6
CONTINUOUS
10
305.607
20
-55.4363
11
305.63
21
-55.3931
0
LINE
8
BLACK
6
CONTINUOUS
10
305.63
20
-55.3931
11
305.661
21
-55.3552
0
LINE
8
BLACK
6
CONTINUOUS
10
305.661
20
-55.3552
11
305.699
21
-55.3241
0
LINE
8
BLACK
6
CONTINUOUS
10
305.699
20
-55.3241
11
305.742
21
-55.301
0
LINE
8
BLACK
6
CONTINUOUS
10
305.742
20
-55.301
11
305.789
21
-55.2868
0
LINE
8
BLACK
6
CONTINUOUS
10
305.789
20
-55.2868
11
305.838
21
-55.282
0
LINE
8
BLACK
6
CONTINUOUS
10
305.838
20
-55.282
11
306.513
21
-55.282
0
LINE
8
BLACK
6
CONTINUOUS
10
306.513
20
-55.282
11
306.562
21
-55.2868
0
LINE
8
BLACK
6
CONTINUOUS
10
308.637
20
-55.2868
11
308.684
21
-55.301
0
LINE
8
BLACK
6
CONTINUOUS
10
308.684
20
-55.301
11
308.727
21
-55.3241
0
LINE
8
BLACK
6
CONTINUOUS
10
308.727
20
-55.3241
11
308.765
21
-55.3552
0
LINE
8
BLACK
6
CONTINUOUS
10
308.765
20
-55.3552
11
308.796
21
-55.3931
0
LINE
8
BLACK
6
CONTINUOUS
10
308.796
20
-55.3931
11
308.819
21
-55.4363
0
LINE
8
BLACK
6
CONTINUOUS
10
308.819
20
-55.4363
11
308.833
21
-55.4832
0
LINE
8
BLACK
6
CONTINUOUS
10
308.833
20
-55.4832
11
308.838
21
-55.532
0
LINE
8
BLACK
6
CONTINUOUS
10
308.838
20
-55.532
11
308.838
21
-56.482
0
LINE
8
BLACK
6
CONTINUOUS
10
308.838
20
-56.482
11
308.833
21
-56.5308
0
LINE
8
BLACK
6
CONTINUOUS
10
308.833
20
-56.5308
11
308.819
21
-56.5777
0
LINE
8
BLACK
6
CONTINUOUS
10
308.819
20
-56.5777
11
308.796
21
-56.6209
0
LINE
8
BLACK
6
CONTINUOUS
10
308.796
20
-56.6209
11
308.765
21
-56.6588
0
LINE
8
BLACK
6
CONTINUOUS
10
308.765
20
-56.6588
11
308.727
21
-56.6899
0
LINE
8
BLACK
6
CONTINUOUS
10
308.727
20
-56.6899
11
308.684
21
-56.713
0
LINE
8
BLACK
6
CONTINUOUS
10
308.684
20
-56.713
11
308.637
21
-56.7272
0
LINE
8
BLACK
6
CONTINUOUS
10
308.637
20
-56.7272
11
308.588
21
-56.732
0
LINE
8
BLACK
6
CONTINUOUS
10
308.588
20
-56.732
11
307.913
21
-56.732
0
LINE
8
BLACK
6
CONTINUOUS
10
307.913
20
-56.732
11
307.864
21
-56.7272
0
LINE
8
BLACK
6
CONTINUOUS
10
307.864
20
-56.7272
11
307.817
21
-56.713
0
LINE
8
BLACK
6
CONTINUOUS
10
307.817
20
-56.713
11
307.774
21
-56.6899
0
LINE
8
BLACK
6
CONTINUOUS
10
307.774
20
-56.6899
11
307.736
21
-56.6588
0
LINE
8
BLACK
6
CONTINUOUS
10
307.736
20
-56.6588
11
307.705
21
-56.6209
0
LINE
8
BLACK
6
CONTINUOUS
10
307.705
20
-56.6209
11
307.682
21
-56.5777
0
LINE
8
BLACK
6
CONTINUOUS
10
307.682
20
-56.5777
11
307.668
21
-56.5308
0
LINE
8
BLACK
6
CONTINUOUS
10
307.668
20
-56.5308
11
307.663
21
-56.482
0
LINE
8
BLACK
6
CONTINUOUS
10
307.663
20
-56.482
11
307.663
21
-55.532
0
LINE
8
BLACK
6
CONTINUOUS
10
307.663
20
-55.532
11
307.668
21
-55.4832
0
LINE
8
BLACK
6
CONTINUOUS
10
307.668
20
-55.4832
11
307.682
21
-55.4363
0
LINE
8
BLACK
6
CONTINUOUS
10
307.682
20
-55.4363
11
307.705
21
-55.3931
0
LINE
8
BLACK
6
CONTINUOUS
10
307.705
20
-55.3931
11
307.736
21
-55.3552
0
LINE
8
BLACK
6
CONTINUOUS
10
307.736
20
-55.3552
11
307.774
21
-55.3241
0
LINE
8
BLACK
6
CONTINUOUS
10
307.774
20
-55.3241
11
307.817
21
-55.301
0
LINE
8
BLACK
6
CONTINUOUS
10
307.817
20
-55.301
11
307.864
21
-55.2868
0
LINE
8
BLACK
6
CONTINUOUS
10
307.864
20
-55.2868
11
307.913
21
-55.282
0
LINE
8
BLACK
6
CONTINUOUS
10
307.913
20
-55.282
11
308.588
21
-55.282
0
LINE
8
BLACK
6
CONTINUOUS
10
308.588
20
-55.282
11
308.637
21
-55.2868
0
LINE
8
BLACK
6
CONTINUOUS
10
227.568
20
-55.2868
11
227.615
21
-55.301
0
LINE
8
BLACK
6
CONTINUOUS
10
227.615
20
-55.301
11
227.658
21
-55.3241
0
LINE
8
BLACK
6
CONTINUOUS
10
227.658
20
-55.3241
11
227.696
21
-55.3552
0
LINE
8
BLACK
6
CONTINUOUS
10
227.696
20
-55.3552
11
227.727
21
-55.3931
0
LINE
8
BLACK
6
CONTINUOUS
10
227.727
20
-55.3931
11
227.75
21
-55.4363
0
LINE
8
BLACK
6
CONTINUOUS
10
227.75
20
-55.4363
11
227.764
21
-55.4832
0
LINE
8
BLACK
6
CONTINUOUS
10
227.764
20
-55.4832
11
227.769
21
-55.532
0
LINE
8
BLACK
6
CONTINUOUS
10
227.769
20
-55.532
11
227.769
21
-56.482
0
LINE
8
BLACK
6
CONTINUOUS
10
227.769
20
-56.482
11
227.764
21
-56.5308
0
LINE
8
BLACK
6
CONTINUOUS
10
227.764
20
-56.5308
11
227.75
21
-56.5777
0
LINE
8
BLACK
6
CONTINUOUS
10
227.75
20
-56.5777
11
227.727
21
-56.6209
0
LINE
8
BLACK
6
CONTINUOUS
10
227.727
20
-56.6209
11
227.696
21
-56.6588
0
LINE
8
BLACK
6
CONTINUOUS
10
227.696
20
-56.6588
11
227.658
21
-56.6899
0
LINE
8
BLACK
6
CONTINUOUS
10
227.658
20
-56.6899
11
227.615
21
-56.713
0
LINE
8
BLACK
6
CONTINUOUS
10
227.615
20
-56.713
11
227.568
21
-56.7272
0
LINE
8
BLACK
6
CONTINUOUS
10
227.568
20
-56.7272
11
227.519
21
-56.732
0
LINE
8
BLACK
6
CONTINUOUS
10
227.519
20
-56.732
11
226.844
21
-56.732
0
LINE
8
BLACK
6
CONTINUOUS
10
226.844
20
-56.732
11
226.795
21
-56.7272
0
LINE
8
BLACK
6
CONTINUOUS
10
226.795
20
-56.7272
11
226.748
21
-56.713
0
LINE
8
BLACK
6
CONTINUOUS
10
226.748
20
-56.713
11
226.705
21
-56.6899
0
LINE
8
BLACK
6
CONTINUOUS
10
226.705
20
-56.6899
11
226.667
21
-56.6588
0
LINE
8
BLACK
6
CONTINUOUS
10
226.667
20
-56.6588
11
226.636
21
-56.6209
0
LINE
8
BLACK
6
CONTINUOUS
10
226.636
20
-56.6209
11
226.613
21
-56.5777
0
LINE
8
BLACK
6
CONTINUOUS
10
226.613
20
-56.5777
11
226.599
21
-56.5308
0
LINE
8
BLACK
6
CONTINUOUS
10
226.599
20
-56.5308
11
226.594
21
-56.482
0
LINE
8
BLACK
6
CONTINUOUS
10
226.594
20
-56.482
11
226.594
21
-55.532
0
LINE
8
BLACK
6
CONTINUOUS
10
226.594
20
-55.532
11
226.599
21
-55.4832
0
LINE
8
BLACK
6
CONTINUOUS
10
226.599
20
-55.4832
11
226.613
21
-55.4363
0
LINE
8
BLACK
6
CONTINUOUS
10
226.613
20
-55.4363
11
226.636
21
-55.3931
0
LINE
8
BLACK
6
CONTINUOUS
10
226.636
20
-55.3931
11
226.667
21
-55.3552
0
LINE
8
BLACK
6
CONTINUOUS
10
226.667
20
-55.3552
11
226.705
21
-55.3241
0
LINE
8
BLACK
6
CONTINUOUS
10
226.705
20
-55.3241
11
226.748
21
-55.301
0
LINE
8
BLACK
6
CONTINUOUS
10
226.748
20
-55.301
11
226.795
21
-55.2868
0
LINE
8
BLACK
6
CONTINUOUS
10
226.795
20
-55.2868
11
226.844
21
-55.282
0
LINE
8
BLACK
6
CONTINUOUS
10
226.844
20
-55.282
11
227.519
21
-55.282
0
LINE
8
BLACK
6
CONTINUOUS
10
227.519
20
-55.282
11
227.568
21
-55.2868
0
LINE
8
BLACK
6
CONTINUOUS
10
73.0088
20
-55.2868
11
73.0557
21
-55.301
0
LINE
8
BLACK
6
CONTINUOUS
10
73.0557
20
-55.301
11
73.0989
21
-55.3241
0
LINE
8
BLACK
6
CONTINUOUS
10
73.0989
20
-55.3241
11
73.1368
21
-55.3552
0
LINE
8
BLACK
6
CONTINUOUS
10
73.1368
20
-55.3552
11
73.1679
21
-55.3931
0
LINE
8
BLACK
6
CONTINUOUS
10
73.1679
20
-55.3931
11
73.191
21
-55.4363
0
LINE
8
BLACK
6
CONTINUOUS
10
73.191
20
-55.4363
11
73.2052
21
-55.4832
0
LINE
8
BLACK
6
CONTINUOUS
10
73.2052
20
-55.4832
11
73.21
21
-55.532
0
LINE
8
BLACK
6
CONTINUOUS
10
73.21
20
-55.532
11
73.21
21
-56.482
0
LINE
8
BLACK
6
CONTINUOUS
10
73.21
20
-56.482
11
73.2052
21
-56.5308
0
LINE
8
BLACK
6
CONTINUOUS
10
73.2052
20
-56.5308
11
73.191
21
-56.5777
0
LINE
8
BLACK
6
CONTINUOUS
10
73.191
20
-56.5777
11
73.1679
21
-56.6209
0
LINE
8
BLACK
6
CONTINUOUS
10
73.1679
20
-56.6209
11
73.1368
21
-56.6588
0
LINE
8
BLACK
6
CONTINUOUS
10
73.1368
20
-56.6588
11
73.0989
21
-56.6899
0
LINE
8
BLACK
6
CONTINUOUS
10
73.0989
20
-56.6899
11
73.0557
21
-56.713
0
LINE
8
BLACK
6
CONTINUOUS
10
73.0557
20
-56.713
11
73.0088
21
-56.7272
0
LINE
8
BLACK
6
CONTINUOUS
10
73.0088
20
-56.7272
11
72.96
21
-56.732
0
LINE
8
BLACK
6
CONTINUOUS
10
72.96
20
-56.732
11
72.285
21
-56.732
0
LINE
8
BLACK
6
CONTINUOUS
10
72.285
20
-56.732
11
72.2362
21
-56.7272
0
LINE
8
BLACK
6
CONTINUOUS
10
72.2362
20
-56.7272
11
72.1893
21
-56.713
0
LINE
8
BLACK
6
CONTINUOUS
10
72.1893
20
-56.713
11
72.1461
21
-56.6899
0
LINE
8
BLACK
6
CONTINUOUS
10
72.1461
20
-56.6899
11
72.1082
21
-56.6588
0
LINE
8
BLACK
6
CONTINUOUS
10
72.1082
20
-56.6588
11
72.0771
21
-56.6209
0
LINE
8
BLACK
6
CONTINUOUS
10
72.0771
20
-56.6209
11
72.054
21
-56.5777
0
LINE
8
BLACK
6
CONTINUOUS
10
72.054
20
-56.5777
11
72.0398
21
-56.5308
0
LINE
8
BLACK
6
CONTINUOUS
10
72.0398
20
-56.5308
11
72.035
21
-56.482
0
LINE
8
BLACK
6
CONTINUOUS
10
72.035
20
-56.482
11
72.035
21
-55.532
0
LINE
8
BLACK
6
CONTINUOUS
10
72.035
20
-55.532
11
72.0398
21
-55.4832
0
LINE
8
BLACK
6
CONTINUOUS
10
72.0398
20
-55.4832
11
72.054
21
-55.4363
0
LINE
8
BLACK
6
CONTINUOUS
10
72.054
20
-55.4363
11
72.0771
21
-55.3931
0
LINE
8
BLACK
6
CONTINUOUS
10
72.0771
20
-55.3931
11
72.1082
21
-55.3552
0
LINE
8
BLACK
6
CONTINUOUS
10
72.1082
20
-55.3552
11
72.1461
21
-55.3241
0
LINE
8
BLACK
6
CONTINUOUS
10
72.1461
20
-55.3241
11
72.1893
21
-55.301
0
LINE
8
BLACK
6
CONTINUOUS
10
72.1893
20
-55.301
11
72.2362
21
-55.2868
0
LINE
8
BLACK
6
CONTINUOUS
10
72.2362
20
-55.2868
11
72.285
21
-55.282
0
LINE
8
BLACK
6
CONTINUOUS
10
72.285
20
-55.282
11
72.96
21
-55.282
0
LINE
8
BLACK
6
CONTINUOUS
10
72.96
20
-55.282
11
73.0088
21
-55.2868
0
LINE
8
BLACK
6
CONTINUOUS
10
75.0838
20
-55.2868
11
75.1307
21
-55.301
0
LINE
8
BLACK
6
CONTINUOUS
10
75.1307
20
-55.301
11
75.1739
21
-55.3241
0
LINE
8
BLACK
6
CONTINUOUS
10
75.1739
20
-55.3241
11
75.2118
21
-55.3552
0
LINE
8
BLACK
6
CONTINUOUS
10
75.2118
20
-55.3552
11
75.2429
21
-55.3931
0
LINE
8
BLACK
6
CONTINUOUS
10
75.2429
20
-55.3931
11
75.266
21
-55.4363
0
LINE
8
BLACK
6
CONTINUOUS
10
75.266
20
-55.4363
11
75.2802
21
-55.4832
0
LINE
8
BLACK
6
CONTINUOUS
10
75.2802
20
-55.4832
11
75.285
21
-55.532
0
LINE
8
BLACK
6
CONTINUOUS
10
75.285
20
-55.532
11
75.285
21
-56.482
0
LINE
8
BLACK
6
CONTINUOUS
10
75.285
20
-56.482
11
75.2802
21
-56.5308
0
LINE
8
BLACK
6
CONTINUOUS
10
75.2802
20
-56.5308
11
75.266
21
-56.5777
0
LINE
8
BLACK
6
CONTINUOUS
10
75.266
20
-56.5777
11
75.2429
21
-56.6209
0
LINE
8
BLACK
6
CONTINUOUS
10
75.2429
20
-56.6209
11
75.2118
21
-56.6588
0
LINE
8
BLACK
6
CONTINUOUS
10
75.2118
20
-56.6588
11
75.1739
21
-56.6899
0
LINE
8
BLACK
6
CONTINUOUS
10
75.1739
20
-56.6899
11
75.1307
21
-56.713
0
LINE
8
BLACK
6
CONTINUOUS
10
75.1307
20
-56.713
11
75.0838
21
-56.7272
0
LINE
8
BLACK
6
CONTINUOUS
10
75.0838
20
-56.7272
11
75.035
21
-56.732
0
LINE
8
BLACK
6
CONTINUOUS
10
75.035
20
-56.732
11
74.36
21
-56.732
0
LINE
8
BLACK
6
CONTINUOUS
10
74.36
20
-56.732
11
74.3112
21
-56.7272
0
LINE
8
BLACK
6
CONTINUOUS
10
74.3112
20
-56.7272
11
74.2643
21
-56.713
0
LINE
8
BLACK
6
CONTINUOUS
10
74.2643
20
-56.713
11
74.2211
21
-56.6899
0
LINE
8
BLACK
6
CONTINUOUS
10
74.2211
20
-56.6899
11
74.1832
21
-56.6588
0
LINE
8
BLACK
6
CONTINUOUS
10
74.1832
20
-56.6588
11
74.1521
21
-56.6209
0
LINE
8
BLACK
6
CONTINUOUS
10
74.1521
20
-56.6209
11
74.129
21
-56.5777
0
LINE
8
BLACK
6
CONTINUOUS
10
74.129
20
-56.5777
11
74.1148
21
-56.5308
0
LINE
8
BLACK
6
CONTINUOUS
10
74.1148
20
-56.5308
11
74.11
21
-56.482
0
LINE
8
BLACK
6
CONTINUOUS
10
74.11
20
-56.482
11
74.11
21
-55.532
0
LINE
8
BLACK
6
CONTINUOUS
10
74.11
20
-55.532
11
74.1148
21
-55.4832
0
LINE
8
BLACK
6
CONTINUOUS
10
74.1148
20
-55.4832
11
74.129
21
-55.4363
0
LINE
8
BLACK
6
CONTINUOUS
10
74.129
20
-55.4363
11
74.1521
21
-55.3931
0
LINE
8
BLACK
6
CONTINUOUS
10
74.1521
20
-55.3931
11
74.1832
21
-55.3552
0
LINE
8
BLACK
6
CONTINUOUS
10
74.1832
20
-55.3552
11
74.2211
21
-55.3241
0
LINE
8
BLACK
6
CONTINUOUS
10
74.2211
20
-55.3241
11
74.2643
21
-55.301
0
LINE
8
BLACK
6
CONTINUOUS
10
74.2643
20
-55.301
11
74.3112
21
-55.2868
0
LINE
8
BLACK
6
CONTINUOUS
10
74.3112
20
-55.2868
11
74.36
21
-55.282
0
LINE
8
BLACK
6
CONTINUOUS
10
74.36
20
-55.282
11
75.035
21
-55.282
0
LINE
8
BLACK
6
CONTINUOUS
10
75.035
20
-55.282
11
75.0838
21
-55.2868
0
LINE
8
BLACK
6
CONTINUOUS
10
229.643
20
-55.2868
11
229.69
21
-55.301
0
LINE
8
BLACK
6
CONTINUOUS
10
229.69
20
-55.301
11
229.733
21
-55.3241
0
LINE
8
BLACK
6
CONTINUOUS
10
229.733
20
-55.3241
11
229.771
21
-55.3552
0
LINE
8
BLACK
6
CONTINUOUS
10
229.771
20
-55.3552
11
229.802
21
-55.3931
0
LINE
8
BLACK
6
CONTINUOUS
10
229.802
20
-55.3931
11
229.825
21
-55.4363
0
LINE
8
BLACK
6
CONTINUOUS
10
229.825
20
-55.4363
11
229.839
21
-55.4832
0
LINE
8
BLACK
6
CONTINUOUS
10
229.839
20
-55.4832
11
229.844
21
-55.532
0
LINE
8
BLACK
6
CONTINUOUS
10
229.844
20
-55.532
11
229.844
21
-56.482
0
LINE
8
BLACK
6
CONTINUOUS
10
229.844
20
-56.482
11
229.839
21
-56.5308
0
LINE
8
BLACK
6
CONTINUOUS
10
229.839
20
-56.5308
11
229.825
21
-56.5777
0
LINE
8
BLACK
6
CONTINUOUS
10
229.825
20
-56.5777
11
229.802
21
-56.6209
0
LINE
8
BLACK
6
CONTINUOUS
10
229.802
20
-56.6209
11
229.771
21
-56.6588
0
LINE
8
BLACK
6
CONTINUOUS
10
229.771
20
-56.6588
11
229.733
21
-56.6899
0
LINE
8
BLACK
6
CONTINUOUS
10
229.733
20
-56.6899
11
229.69
21
-56.713
0
LINE
8
BLACK
6
CONTINUOUS
10
229.69
20
-56.713
11
229.643
21
-56.7272
0
LINE
8
BLACK
6
CONTINUOUS
10
229.643
20
-56.7272
11
229.594
21
-56.732
0
LINE
8
BLACK
6
CONTINUOUS
10
229.594
20
-56.732
11
228.919
21
-56.732
0
LINE
8
BLACK
6
CONTINUOUS
10
228.919
20
-56.732
11
228.87
21
-56.7272
0
LINE
8
BLACK
6
CONTINUOUS
10
228.87
20
-56.7272
11
228.823
21
-56.713
0
LINE
8
BLACK
6
CONTINUOUS
10
228.823
20
-56.713
11
228.78
21
-56.6899
0
LINE
8
BLACK
6
CONTINUOUS
10
228.78
20
-56.6899
11
228.742
21
-56.6588
0
LINE
8
BLACK
6
CONTINUOUS
10
228.742
20
-56.6588
11
228.711
21
-56.6209
0
LINE
8
BLACK
6
CONTINUOUS
10
228.711
20
-56.6209
11
228.688
21
-56.5777
0
LINE
8
BLACK
6
CONTINUOUS
10
228.688
20
-56.5777
11
228.674
21
-56.5308
0
LINE
8
BLACK
6
CONTINUOUS
10
228.674
20
-56.5308
11
228.669
21
-56.482
0
LINE
8
BLACK
6
CONTINUOUS
10
228.669
20
-56.482
11
228.669
21
-55.532
0
LINE
8
BLACK
6
CONTINUOUS
10
228.669
20
-55.532
11
228.674
21
-55.4832
0
LINE
8
BLACK
6
CONTINUOUS
10
228.674
20
-55.4832
11
228.688
21
-55.4363
0
LINE
8
BLACK
6
CONTINUOUS
10
228.688
20
-55.4363
11
228.711
21
-55.3931
0
LINE
8
BLACK
6
CONTINUOUS
10
228.711
20
-55.3931
11
228.742
21
-55.3552
0
LINE
8
BLACK
6
CONTINUOUS
10
228.742
20
-55.3552
11
228.78
21
-55.3241
0
LINE
8
BLACK
6
CONTINUOUS
10
228.78
20
-55.3241
11
228.823
21
-55.301
0
LINE
8
BLACK
6
CONTINUOUS
10
228.823
20
-55.301
11
228.87
21
-55.2868
0
LINE
8
BLACK
6
CONTINUOUS
10
228.87
20
-55.2868
11
228.919
21
-55.282
0
LINE
8
BLACK
6
CONTINUOUS
10
228.919
20
-55.282
11
229.594
21
-55.282
0
LINE
8
BLACK
6
CONTINUOUS
10
229.594
20
-55.282
11
229.643
21
-55.2868
0
LINE
8
BLACK
6
CONTINUOUS
10
153.443
20
-55.2868
11
153.49
21
-55.301
0
LINE
8
BLACK
6
CONTINUOUS
10
153.49
20
-55.301
11
153.533
21
-55.3241
0
LINE
8
BLACK
6
CONTINUOUS
10
153.533
20
-55.3241
11
153.571
21
-55.3552
0
LINE
8
BLACK
6
CONTINUOUS
10
153.571
20
-55.3552
11
153.602
21
-55.3931
0
LINE
8
BLACK
6
CONTINUOUS
10
153.602
20
-55.3931
11
153.625
21
-55.4363
0
LINE
8
BLACK
6
CONTINUOUS
10
153.625
20
-55.4363
11
153.639
21
-55.4832
0
LINE
8
BLACK
6
CONTINUOUS
10
153.639
20
-55.4832
11
153.644
21
-55.532
0
LINE
8
BLACK
6
CONTINUOUS
10
153.644
20
-55.532
11
153.644
21
-56.482
0
LINE
8
BLACK
6
CONTINUOUS
10
153.644
20
-56.482
11
153.639
21
-56.5308
0
LINE
8
BLACK
6
CONTINUOUS
10
153.639
20
-56.5308
11
153.625
21
-56.5777
0
LINE
8
BLACK
6
CONTINUOUS
10
153.625
20
-56.5777
11
153.602
21
-56.6209
0
LINE
8
BLACK
6
CONTINUOUS
10
153.602
20
-56.6209
11
153.571
21
-56.6588
0
LINE
8
BLACK
6
CONTINUOUS
10
153.571
20
-56.6588
11
153.533
21
-56.6899
0
LINE
8
BLACK
6
CONTINUOUS
10
153.533
20
-56.6899
11
153.49
21
-56.713
0
LINE
8
BLACK
6
CONTINUOUS
10
153.49
20
-56.713
11
153.443
21
-56.7272
0
LINE
8
BLACK
6
CONTINUOUS
10
153.443
20
-56.7272
11
153.394
21
-56.732
0
LINE
8
BLACK
6
CONTINUOUS
10
153.394
20
-56.732
11
152.719
21
-56.732
0
LINE
8
BLACK
6
CONTINUOUS
10
152.719
20
-56.732
11
152.67
21
-56.7272
0
LINE
8
BLACK
6
CONTINUOUS
10
152.67
20
-56.7272
11
152.623
21
-56.713
0
LINE
8
BLACK
6
CONTINUOUS
10
152.623
20
-56.713
11
152.58
21
-56.6899
0
LINE
8
BLACK
6
CONTINUOUS
10
152.58
20
-56.6899
11
152.542
21
-56.6588
0
LINE
8
BLACK
6
CONTINUOUS
10
152.542
20
-56.6588
11
152.511
21
-56.6209
0
LINE
8
BLACK
6
CONTINUOUS
10
152.511
20
-56.6209
11
152.488
21
-56.5777
0
LINE
8
BLACK
6
CONTINUOUS
10
152.488
20
-56.5777
11
152.474
21
-56.5308
0
LINE
8
BLACK
6
CONTINUOUS
10
152.474
20
-56.5308
11
152.469
21
-56.482
0
LINE
8
BLACK
6
CONTINUOUS
10
152.469
20
-56.482
11
152.469
21
-55.532
0
LINE
8
BLACK
6
CONTINUOUS
10
152.469
20
-55.532
11
152.474
21
-55.4832
0
LINE
8
BLACK
6
CONTINUOUS
10
152.474
20
-55.4832
11
152.488
21
-55.4363
0
LINE
8
BLACK
6
CONTINUOUS
10
152.488
20
-55.4363
11
152.511
21
-55.3931
0
LINE
8
BLACK
6
CONTINUOUS
10
152.511
20
-55.3931
11
152.542
21
-55.3552
0
LINE
8
BLACK
6
CONTINUOUS
10
152.542
20
-55.3552
11
152.58
21
-55.3241
0
LINE
8
BLACK
6
CONTINUOUS
10
152.58
20
-55.3241
11
152.623
21
-55.301
0
LINE
8
BLACK
6
CONTINUOUS
10
152.623
20
-55.301
11
152.67
21
-55.2868
0
LINE
8
BLACK
6
CONTINUOUS
10
152.67
20
-55.2868
11
152.719
21
-55.282
0
LINE
8
BLACK
6
CONTINUOUS
10
152.719
20
-55.282
11
153.394
21
-55.282
0
LINE
8
BLACK
6
CONTINUOUS
10
153.394
20
-55.282
11
153.443
21
-55.2868
0
LINE
8
BLACK
6
CONTINUOUS
10
56.1025
20
-51.0975
11
53.5525
21
-51.0975
0
LINE
8
BLACK
6
CONTINUOUS
10
53.5525
20
-51.0975
11
53.5525
21
-48.5975
0
LINE
8
BLACK
6
CONTINUOUS
10
53.5525
20
-48.5975
11
56.1025
21
-48.5975
0
LINE
8
BLACK
6
CONTINUOUS
10
56.1025
20
-48.5975
11
56.1025
21
-51.0975
0
LINE
8
BLACK
6
CONTINUOUS
10
289.465
20
-51.0975
11
286.915
21
-51.0975
0
LINE
8
BLACK
6
CONTINUOUS
10
286.915
20
-51.0975
11
286.915
21
-48.5975
0
LINE
8
BLACK
6
CONTINUOUS
10
286.915
20
-48.5975
11
289.465
21
-48.5975
0
LINE
8
BLACK
6
CONTINUOUS
10
289.465
20
-48.5975
11
289.465
21
-51.0975
0
LINE
8
BLACK
6
CONTINUOUS
10
270.415
20
-51.0975
11
267.865
21
-51.0975
0
LINE
8
BLACK
6
CONTINUOUS
10
267.865
20
-51.0975
11
267.865
21
-48.5975
0
LINE
8
BLACK
6
CONTINUOUS
10
267.865
20
-48.5975
11
270.415
21
-48.5975
0
LINE
8
BLACK
6
CONTINUOUS
10
270.415
20
-48.5975
11
270.415
21
-51.0975
0
LINE
8
BLACK
6
CONTINUOUS
10
313.277
20
-51.0975
11
310.727
21
-51.0975
0
LINE
8
BLACK
6
CONTINUOUS
10
310.727
20
-51.0975
11
310.727
21
-48.5975
0
LINE
8
BLACK
6
CONTINUOUS
10
310.727
20
-48.5975
11
313.277
21
-48.5975
0
LINE
8
BLACK
6
CONTINUOUS
10
313.277
20
-48.5975
11
313.277
21
-51.0975
0
LINE
8
BLACK
6
CONTINUOUS
10
79.915
20
-51.0975
11
77.365
21
-51.0975
0
LINE
8
BLACK
6
CONTINUOUS
10
77.365
20
-51.0975
11
77.365
21
-48.5975
0
LINE
8
BLACK
6
CONTINUOUS
10
77.365
20
-48.5975
11
79.915
21
-48.5975
0
LINE
8
BLACK
6
CONTINUOUS
10
79.915
20
-48.5975
11
79.915
21
-51.0975
0
LINE
8
BLACK
6
CONTINUOUS
10
98.965
20
-51.0975
11
96.415
21
-51.0975
0
LINE
8
BLACK
6
CONTINUOUS
10
96.415
20
-51.0975
11
96.415
21
-48.5975
0
LINE
8
BLACK
6
CONTINUOUS
10
96.415
20
-48.5975
11
98.965
21
-48.5975
0
LINE
8
BLACK
6
CONTINUOUS
10
98.965
20
-48.5975
11
98.965
21
-51.0975
0
LINE
8
BLACK
6
CONTINUOUS
10
118.015
20
-51.0975
11
115.465
21
-51.0975
0
LINE
8
BLACK
6
CONTINUOUS
10
115.465
20
-51.0975
11
115.465
21
-48.5975
0
LINE
8
BLACK
6
CONTINUOUS
10
115.465
20
-48.5975
11
118.015
21
-48.5975
0
LINE
8
BLACK
6
CONTINUOUS
10
118.015
20
-48.5975
11
118.015
21
-51.0975
0
LINE
8
BLACK
6
CONTINUOUS
10
137.065
20
-51.0975
11
134.515
21
-51.0975
0
LINE
8
BLACK
6
CONTINUOUS
10
134.515
20
-51.0975
11
134.515
21
-48.5975
0
LINE
8
BLACK
6
CONTINUOUS
10
134.515
20
-48.5975
11
137.065
21
-48.5975
0
LINE
8
BLACK
6
CONTINUOUS
10
137.065
20
-48.5975
11
137.065
21
-51.0975
0
LINE
8
BLACK
6
CONTINUOUS
10
156.115
20
-51.0975
11
153.565
21
-51.0975
0
LINE
8
BLACK
6
CONTINUOUS
10
153.565
20
-51.0975
11
153.565
21
-48.5975
0
LINE
8
BLACK
6
CONTINUOUS
10
153.565
20
-48.5975
11
156.115
21
-48.5975
0
LINE
8
BLACK
6
CONTINUOUS
10
156.115
20
-48.5975
11
156.115
21
-51.0975
0
LINE
8
BLACK
6
CONTINUOUS
10
175.165
20
-51.0975
11
172.615
21
-51.0975
0
LINE
8
BLACK
6
CONTINUOUS
10
172.615
20
-51.0975
11
172.615
21
-48.5975
0
LINE
8
BLACK
6
CONTINUOUS
10
172.615
20
-48.5975
11
175.165
21
-48.5975
0
LINE
8
BLACK
6
CONTINUOUS
10
175.165
20
-48.5975
11
175.165
21
-51.0975
0
LINE
8
BLACK
6
CONTINUOUS
10
194.215
20
-51.0975
11
191.665
21
-51.0975
0
LINE
8
BLACK
6
CONTINUOUS
10
191.665
20
-51.0975
11
191.665
21
-48.5975
0
LINE
8
BLACK
6
CONTINUOUS
10
191.665
20
-48.5975
11
194.215
21
-48.5975
0
LINE
8
BLACK
6
CONTINUOUS
10
194.215
20
-48.5975
11
194.215
21
-51.0975
0
LINE
8
BLACK
6
CONTINUOUS
10
213.265
20
-51.0975
11
210.715
21
-51.0975
0
LINE
8
BLACK
6
CONTINUOUS
10
210.715
20
-51.0975
11
210.715
21
-48.5975
0
LINE
8
BLACK
6
CONTINUOUS
10
210.715
20
-48.5975
11
213.265
21
-48.5975
0
LINE
8
BLACK
6
CONTINUOUS
10
213.265
20
-48.5975
11
213.265
21
-51.0975
0
LINE
8
BLACK
6
CONTINUOUS
10
232.315
20
-51.0975
11
229.765
21
-51.0975
0
LINE
8
BLACK
6
CONTINUOUS
10
229.765
20
-51.0975
11
229.765
21
-48.5975
0
LINE
8
BLACK
6
CONTINUOUS
10
229.765
20
-48.5975
11
232.315
21
-48.5975
0
LINE
8
BLACK
6
CONTINUOUS
10
232.315
20
-48.5975
11
232.315
21
-51.0975
0
LINE
8
BLACK
6
CONTINUOUS
10
251.365
20
-51.0975
11
248.815
21
-51.0975
0
LINE
8
BLACK
6
CONTINUOUS
10
248.815
20
-51.0975
11
248.815
21
-48.5975
0
LINE
8
BLACK
6
CONTINUOUS
10
248.815
20
-48.5975
11
251.365
21
-48.5975
0
LINE
8
BLACK
6
CONTINUOUS
10
251.365
20
-48.5975
11
251.365
21
-51.0975
0
LINE
8
BLACK
6
CONTINUOUS
10
326.204
20
-48.5575
11
323.654
21
-48.5575
0
LINE
8
BLACK
6
CONTINUOUS
10
323.654
20
-48.5575
11
323.654
21
-46.0575
0
LINE
8
BLACK
6
CONTINUOUS
10
323.654
20
-46.0575
11
326.204
21
-46.0575
0
LINE
8
BLACK
6
CONTINUOUS
10
326.204
20
-46.0575
11
326.204
21
-48.5575
0
LINE
8
BLACK
6
CONTINUOUS
10
283.342
20
-48.5575
11
280.792
21
-48.5575
0
LINE
8
BLACK
6
CONTINUOUS
10
280.792
20
-48.5575
11
280.792
21
-46.0575
0
LINE
8
BLACK
6
CONTINUOUS
10
280.792
20
-46.0575
11
283.342
21
-46.0575
0
LINE
8
BLACK
6
CONTINUOUS
10
283.342
20
-46.0575
11
283.342
21
-48.5575
0
LINE
8
BLACK
6
CONTINUOUS
10
264.292
20
-48.5575
11
261.742
21
-48.5575
0
LINE
8
BLACK
6
CONTINUOUS
10
261.742
20
-48.5575
11
261.742
21
-46.0575
0
LINE
8
BLACK
6
CONTINUOUS
10
261.742
20
-46.0575
11
264.292
21
-46.0575
0
LINE
8
BLACK
6
CONTINUOUS
10
264.292
20
-46.0575
11
264.292
21
-48.5575
0
LINE
8
BLACK
6
CONTINUOUS
10
245.242
20
-48.5575
11
242.692
21
-48.5575
0
LINE
8
BLACK
6
CONTINUOUS
10
242.692
20
-48.5575
11
242.692
21
-46.0575
0
LINE
8
BLACK
6
CONTINUOUS
10
242.692
20
-46.0575
11
245.242
21
-46.0575
0
LINE
8
BLACK
6
CONTINUOUS
10
245.242
20
-46.0575
11
245.242
21
-48.5575
0
LINE
8
BLACK
6
CONTINUOUS
10
226.192
20
-48.5575
11
223.642
21
-48.5575
0
LINE
8
BLACK
6
CONTINUOUS
10
223.642
20
-48.5575
11
223.642
21
-46.0575
0
LINE
8
BLACK
6
CONTINUOUS
10
223.642
20
-46.0575
11
226.192
21
-46.0575
0
LINE
8
BLACK
6
CONTINUOUS
10
226.192
20
-46.0575
11
226.192
21
-48.5575
0
LINE
8
BLACK
6
CONTINUOUS
10
207.142
20
-48.5575
11
204.592
21
-48.5575
0
LINE
8
BLACK
6
CONTINUOUS
10
204.592
20
-48.5575
11
204.592
21
-46.0575
0
LINE
8
BLACK
6
CONTINUOUS
10
204.592
20
-46.0575
11
207.142
21
-46.0575
0
LINE
8
BLACK
6
CONTINUOUS
10
207.142
20
-46.0575
11
207.142
21
-48.5575
0
LINE
8
BLACK
6
CONTINUOUS
10
69.0295
20
-48.5575
11
66.4795
21
-48.5575
0
LINE
8
BLACK
6
CONTINUOUS
10
66.4795
20
-48.5575
11
66.4795
21
-46.0575
0
LINE
8
BLACK
6
CONTINUOUS
10
66.4795
20
-46.0575
11
69.0295
21
-46.0575
0
LINE
8
BLACK
6
CONTINUOUS
10
69.0295
20
-46.0575
11
69.0295
21
-48.5575
0
LINE
8
BLACK
6
CONTINUOUS
10
302.392
20
-48.5575
11
299.842
21
-48.5575
0
LINE
8
BLACK
6
CONTINUOUS
10
299.842
20
-48.5575
11
299.842
21
-46.0575
0
LINE
8
BLACK
6
CONTINUOUS
10
299.842
20
-46.0575
11
302.392
21
-46.0575
0
LINE
8
BLACK
6
CONTINUOUS
10
302.392
20
-46.0575
11
302.392
21
-48.5575
0
LINE
8
BLACK
6
CONTINUOUS
10
188.092
20
-48.5575
11
185.542
21
-48.5575
0
LINE
8
BLACK
6
CONTINUOUS
10
185.542
20
-48.5575
11
185.542
21
-46.0575
0
LINE
8
BLACK
6
CONTINUOUS
10
185.542
20
-46.0575
11
188.092
21
-46.0575
0
LINE
8
BLACK
6
CONTINUOUS
10
188.092
20
-46.0575
11
188.092
21
-48.5575
0
LINE
8
BLACK
6
CONTINUOUS
10
169.042
20
-48.5575
11
166.492
21
-48.5575
0
LINE
8
BLACK
6
CONTINUOUS
10
166.492
20
-48.5575
11
166.492
21
-46.0575
0
LINE
8
BLACK
6
CONTINUOUS
10
166.492
20
-46.0575
11
169.042
21
-46.0575
0
LINE
8
BLACK
6
CONTINUOUS
10
169.042
20
-46.0575
11
169.042
21
-48.5575
0
LINE
8
BLACK
6
CONTINUOUS
10
149.992
20
-48.5575
11
147.442
21
-48.5575
0
LINE
8
BLACK
6
CONTINUOUS
10
147.442
20
-48.5575
11
147.442
21
-46.0575
0
LINE
8
BLACK
6
CONTINUOUS
10
147.442
20
-46.0575
11
149.992
21
-46.0575
0
LINE
8
BLACK
6
CONTINUOUS
10
149.992
20
-46.0575
11
149.992
21
-48.5575
0
LINE
8
BLACK
6
CONTINUOUS
10
130.942
20
-48.5575
11
128.392
21
-48.5575
0
LINE
8
BLACK
6
CONTINUOUS
10
128.392
20
-48.5575
11
128.392
21
-46.0575
0
LINE
8
BLACK
6
CONTINUOUS
10
128.392
20
-46.0575
11
130.942
21
-46.0575
0
LINE
8
BLACK
6
CONTINUOUS
10
130.942
20
-46.0575
11
130.942
21
-48.5575
0
LINE
8
BLACK
6
CONTINUOUS
10
111.892
20
-48.5575
11
109.342
21
-48.5575
0
LINE
8
BLACK
6
CONTINUOUS
10
109.342
20
-48.5575
11
109.342
21
-46.0575
0
LINE
8
BLACK
6
CONTINUOUS
10
109.342
20
-46.0575
11
111.892
21
-46.0575
0
LINE
8
BLACK
6
CONTINUOUS
10
111.892
20
-46.0575
11
111.892
21
-48.5575
0
LINE
8
BLACK
6
CONTINUOUS
10
92.842
20
-48.5575
11
90.292
21
-48.5575
0
LINE
8
BLACK
6
CONTINUOUS
10
90.292
20
-48.5575
11
90.292
21
-46.0575
0
LINE
8
BLACK
6
CONTINUOUS
10
90.292
20
-46.0575
11
92.842
21
-46.0575
0
LINE
8
BLACK
6
CONTINUOUS
10
92.842
20
-46.0575
11
92.842
21
-48.5575
0
LINE
8
BLACK
6
CONTINUOUS
10
221.767
20
-42.994
11
220.267
21
-42.994
0
LINE
8
BLACK
6
CONTINUOUS
10
220.267
20
-42.994
11
220.267
21
-41.994
0
LINE
8
BLACK
6
CONTINUOUS
10
220.267
20
-41.994
11
221.767
21
-41.994
0
LINE
8
BLACK
6
CONTINUOUS
10
221.767
20
-41.994
11
221.767
21
-42.994
0
LINE
8
BLACK
6
CONTINUOUS
10
293.448
20
-42.994
11
291.948
21
-42.994
0
LINE
8
BLACK
6
CONTINUOUS
10
291.948
20
-42.994
11
291.948
21
-41.994
0
LINE
8
BLACK
6
CONTINUOUS
10
291.948
20
-41.994
11
293.448
21
-41.994
0
LINE
8
BLACK
6
CONTINUOUS
10
293.448
20
-41.994
11
293.448
21
-42.994
0
LINE
8
BLACK
6
CONTINUOUS
10
298.348
20
-42.994
11
296.848
21
-42.994
0
LINE
8
BLACK
6
CONTINUOUS
10
296.848
20
-42.994
11
296.848
21
-41.994
0
LINE
8
BLACK
6
CONTINUOUS
10
296.848
20
-41.994
11
298.348
21
-41.994
0
LINE
8
BLACK
6
CONTINUOUS
10
298.348
20
-41.994
11
298.348
21
-42.994
0
LINE
8
BLACK
6
CONTINUOUS
10
216.867
20
-42.994
11
215.367
21
-42.994
0
LINE
8
BLACK
6
CONTINUOUS
10
215.367
20
-42.994
11
215.367
21
-41.994
0
LINE
8
BLACK
6
CONTINUOUS
10
215.367
20
-41.994
11
216.867
21
-41.994
0
LINE
8
BLACK
6
CONTINUOUS
10
216.867
20
-41.994
11
216.867
21
-42.994
0
LINE
8
BLACK
6
CONTINUOUS
10
145.567
20
-42.994
11
144.067
21
-42.994
0
LINE
8
BLACK
6
CONTINUOUS
10
144.067
20
-42.994
11
144.067
21
-41.994
0
LINE
8
BLACK
6
CONTINUOUS
10
144.067
20
-41.994
11
145.567
21
-41.994
0
LINE
8
BLACK
6
CONTINUOUS
10
145.567
20
-41.994
11
145.567
21
-42.994
0
LINE
8
BLACK
6
CONTINUOUS
10
140.667
20
-42.994
11
139.167
21
-42.994
0
LINE
8
BLACK
6
CONTINUOUS
10
139.167
20
-42.994
11
139.167
21
-41.994
0
LINE
8
BLACK
6
CONTINUOUS
10
139.167
20
-41.994
11
140.667
21
-41.994
0
LINE
8
BLACK
6
CONTINUOUS
10
140.667
20
-41.994
11
140.667
21
-42.994
0
LINE
8
BLACK
6
CONTINUOUS
10
69.367
20
-42.994
11
67.867
21
-42.994
0
LINE
8
BLACK
6
CONTINUOUS
10
67.867
20
-42.994
11
67.867
21
-41.994
0
LINE
8
BLACK
6
CONTINUOUS
10
67.867
20
-41.994
11
69.367
21
-41.994
0
LINE
8
BLACK
6
CONTINUOUS
10
69.367
20
-41.994
11
69.367
21
-42.994
0
LINE
8
BLACK
6
CONTINUOUS
10
64.467
20
-42.994
11
62.967
21
-42.994
0
LINE
8
BLACK
6
CONTINUOUS
10
62.967
20
-42.994
11
62.967
21
-41.994
0
LINE
8
BLACK
6
CONTINUOUS
10
62.967
20
-41.994
11
64.467
21
-41.994
0
LINE
8
BLACK
6
CONTINUOUS
10
64.467
20
-41.994
11
64.467
21
-42.994
0
LINE
8
BLACK
6
CONTINUOUS
10
216.867
20
-39.794
11
215.367
21
-39.794
0
LINE
8
BLACK
6
CONTINUOUS
10
215.367
20
-39.794
11
215.367
21
-38.794
0
LINE
8
BLACK
6
CONTINUOUS
10
215.367
20
-38.794
11
216.867
21
-38.794
0
LINE
8
BLACK
6
CONTINUOUS
10
216.867
20
-38.794
11
216.867
21
-39.794
0
LINE
8
BLACK
6
CONTINUOUS
10
221.767
20
-39.794
11
220.267
21
-39.794
0
LINE
8
BLACK
6
CONTINUOUS
10
220.267
20
-39.794
11
220.267
21
-38.794
0
LINE
8
BLACK
6
CONTINUOUS
10
220.267
20
-38.794
11
221.767
21
-38.794
0
LINE
8
BLACK
6
CONTINUOUS
10
221.767
20
-38.794
11
221.767
21
-39.794
0
LINE
8
BLACK
6
CONTINUOUS
10
298.348
20
-39.794
11
296.848
21
-39.794
0
LINE
8
BLACK
6
CONTINUOUS
10
296.848
20
-39.794
11
296.848
21
-38.794
0
LINE
8
BLACK
6
CONTINUOUS
10
296.848
20
-38.794
11
298.348
21
-38.794
0
LINE
8
BLACK
6
CONTINUOUS
10
298.348
20
-38.794
11
298.348
21
-39.794
0
LINE
8
BLACK
6
CONTINUOUS
10
145.567
20
-39.794
11
144.067
21
-39.794
0
LINE
8
BLACK
6
CONTINUOUS
10
144.067
20
-39.794
11
144.067
21
-38.794
0
LINE
8
BLACK
6
CONTINUOUS
10
144.067
20
-38.794
11
145.567
21
-38.794
0
LINE
8
BLACK
6
CONTINUOUS
10
145.567
20
-38.794
11
145.567
21
-39.794
0
LINE
8
BLACK
6
CONTINUOUS
10
140.667
20
-39.794
11
139.167
21
-39.794
0
LINE
8
BLACK
6
CONTINUOUS
10
139.167
20
-39.794
11
139.167
21
-38.794
0
LINE
8
BLACK
6
CONTINUOUS
10
139.167
20
-38.794
11
140.667
21
-38.794
0
LINE
8
BLACK
6
CONTINUOUS
10
140.667
20
-38.794
11
140.667
21
-39.794
0
LINE
8
BLACK
6
CONTINUOUS
10
69.367
20
-39.794
11
67.867
21
-39.794
0
LINE
8
BLACK
6
CONTINUOUS
10
67.867
20
-39.794
11
67.867
21
-38.794
0
LINE
8
BLACK
6
CONTINUOUS
10
67.867
20
-38.794
11
69.367
21
-38.794
0
LINE
8
BLACK
6
CONTINUOUS
10
69.367
20
-38.794
11
69.367
21
-39.794
0
LINE
8
BLACK
6
CONTINUOUS
10
64.467
20
-39.794
11
62.967
21
-39.794
0
LINE
8
BLACK
6
CONTINUOUS
10
62.967
20
-39.794
11
62.967
21
-38.794
0
LINE
8
BLACK
6
CONTINUOUS
10
62.967
20
-38.794
11
64.467
21
-38.794
0
LINE
8
BLACK
6
CONTINUOUS
10
64.467
20
-38.794
11
64.467
21
-39.794
0
LINE
8
BLACK
6
CONTINUOUS
10
293.448
20
-39.794
11
291.948
21
-39.794
0
LINE
8
BLACK
6
CONTINUOUS
10
291.948
20
-39.794
11
291.948
21
-38.794
0
LINE
8
BLACK
6
CONTINUOUS
10
291.948
20
-38.794
11
293.448
21
-38.794
0
LINE
8
BLACK
6
CONTINUOUS
10
293.448
20
-38.794
11
293.448
21
-39.794
0
LINE
8
BLACK
6
CONTINUOUS
10
56.42
20
-39.716
11
54.82
21
-39.716
0
LINE
8
BLACK
6
CONTINUOUS
10
54.82
20
-39.716
11
54.82
21
-38.516
0
LINE
8
BLACK
6
CONTINUOUS
10
54.82
20
-38.516
11
56.42
21
-38.516
0
LINE
8
BLACK
6
CONTINUOUS
10
56.42
20
-38.516
11
56.42
21
-39.716
0
LINE
8
BLACK
6
CONTINUOUS
10
151.673
20
-39.716
11
150.073
21
-39.716
0
LINE
8
BLACK
6
CONTINUOUS
10
150.073
20
-39.716
11
150.073
21
-38.516
0
LINE
8
BLACK
6
CONTINUOUS
10
150.073
20
-38.516
11
151.673
21
-38.516
0
LINE
8
BLACK
6
CONTINUOUS
10
151.673
20
-38.516
11
151.673
21
-39.716
0
LINE
8
BLACK
6
CONTINUOUS
10
154.473
20
-39.716
11
152.873
21
-39.716
0
LINE
8
BLACK
6
CONTINUOUS
10
152.873
20
-39.716
11
152.873
21
-38.516
0
LINE
8
BLACK
6
CONTINUOUS
10
152.873
20
-38.516
11
154.473
21
-38.516
0
LINE
8
BLACK
6
CONTINUOUS
10
154.473
20
-38.516
11
154.473
21
-39.716
0
LINE
8
BLACK
6
CONTINUOUS
10
170.72
20
-39.716
11
169.12
21
-39.716
0
LINE
8
BLACK
6
CONTINUOUS
10
169.12
20
-39.716
11
169.12
21
-38.516
0
LINE
8
BLACK
6
CONTINUOUS
10
169.12
20
-38.516
11
170.72
21
-38.516
0
LINE
8
BLACK
6
CONTINUOUS
10
170.72
20
-38.516
11
170.72
21
-39.716
0
LINE
8
BLACK
6
CONTINUOUS
10
135.463
20
-39.716
11
133.863
21
-39.716
0
LINE
8
BLACK
6
CONTINUOUS
10
133.863
20
-39.716
11
133.863
21
-38.516
0
LINE
8
BLACK
6
CONTINUOUS
10
133.863
20
-38.516
11
135.463
21
-38.516
0
LINE
8
BLACK
6
CONTINUOUS
10
135.463
20
-38.516
11
135.463
21
-39.716
0
LINE
8
BLACK
6
CONTINUOUS
10
173.52
20
-39.716
11
171.92
21
-39.716
0
LINE
8
BLACK
6
CONTINUOUS
10
171.92
20
-39.716
11
171.92
21
-38.516
0
LINE
8
BLACK
6
CONTINUOUS
10
171.92
20
-38.516
11
173.52
21
-38.516
0
LINE
8
BLACK
6
CONTINUOUS
10
173.52
20
-38.516
11
173.52
21
-39.716
0
LINE
8
BLACK
6
CONTINUOUS
10
189.773
20
-39.716
11
188.173
21
-39.716
0
LINE
8
BLACK
6
CONTINUOUS
10
188.173
20
-39.716
11
188.173
21
-38.516
0
LINE
8
BLACK
6
CONTINUOUS
10
188.173
20
-38.516
11
189.773
21
-38.516
0
LINE
8
BLACK
6
CONTINUOUS
10
189.773
20
-38.516
11
189.773
21
-39.716
0
LINE
8
BLACK
6
CONTINUOUS
10
192.573
20
-39.716
11
190.973
21
-39.716
0
LINE
8
BLACK
6
CONTINUOUS
10
190.973
20
-39.716
11
190.973
21
-38.516
0
LINE
8
BLACK
6
CONTINUOUS
10
190.973
20
-38.516
11
192.573
21
-38.516
0
LINE
8
BLACK
6
CONTINUOUS
10
192.573
20
-38.516
11
192.573
21
-39.716
0
LINE
8
BLACK
6
CONTINUOUS
10
208.863
20
-39.716
11
207.263
21
-39.716
0
LINE
8
BLACK
6
CONTINUOUS
10
207.263
20
-39.716
11
207.263
21
-38.516
0
LINE
8
BLACK
6
CONTINUOUS
10
207.263
20
-38.516
11
208.863
21
-38.516
0
LINE
8
BLACK
6
CONTINUOUS
10
208.863
20
-38.516
11
208.863
21
-39.716
0
LINE
8
BLACK
6
CONTINUOUS
10
211.663
20
-39.716
11
210.063
21
-39.716
0
LINE
8
BLACK
6
CONTINUOUS
10
210.063
20
-39.716
11
210.063
21
-38.516
0
LINE
8
BLACK
6
CONTINUOUS
10
210.063
20
-38.516
11
211.663
21
-38.516
0
LINE
8
BLACK
6
CONTINUOUS
10
211.663
20
-38.516
11
211.663
21
-39.716
0
LINE
8
BLACK
6
CONTINUOUS
10
116.413
20
-39.716
11
114.813
21
-39.716
0
LINE
8
BLACK
6
CONTINUOUS
10
114.813
20
-39.716
11
114.813
21
-38.516
0
LINE
8
BLACK
6
CONTINUOUS
10
114.813
20
-38.516
11
116.413
21
-38.516
0
LINE
8
BLACK
6
CONTINUOUS
10
116.413
20
-38.516
11
116.413
21
-39.716
0
LINE
8
BLACK
6
CONTINUOUS
10
316.398
20
-39.716
11
314.798
21
-39.716
0
LINE
8
BLACK
6
CONTINUOUS
10
314.798
20
-39.716
11
314.798
21
-38.516
0
LINE
8
BLACK
6
CONTINUOUS
10
314.798
20
-38.516
11
316.398
21
-38.516
0
LINE
8
BLACK
6
CONTINUOUS
10
316.398
20
-38.516
11
316.398
21
-39.716
0
LINE
8
BLACK
6
CONTINUOUS
10
313.598
20
-39.716
11
311.998
21
-39.716
0
LINE
8
BLACK
6
CONTINUOUS
10
311.998
20
-39.716
11
311.998
21
-38.516
0
LINE
8
BLACK
6
CONTINUOUS
10
311.998
20
-38.516
11
313.598
21
-38.516
0
LINE
8
BLACK
6
CONTINUOUS
10
313.598
20
-38.516
11
313.598
21
-39.716
0
LINE
8
BLACK
6
CONTINUOUS
10
287.91
20
-39.716
11
286.31
21
-39.716
0
LINE
8
BLACK
6
CONTINUOUS
10
286.31
20
-39.716
11
286.31
21
-38.516
0
LINE
8
BLACK
6
CONTINUOUS
10
286.31
20
-38.516
11
287.91
21
-38.516
0
LINE
8
BLACK
6
CONTINUOUS
10
287.91
20
-38.516
11
287.91
21
-39.716
0
LINE
8
BLACK
6
CONTINUOUS
10
285.11
20
-39.716
11
283.51
21
-39.716
0
LINE
8
BLACK
6
CONTINUOUS
10
283.51
20
-39.716
11
283.51
21
-38.516
0
LINE
8
BLACK
6
CONTINUOUS
10
283.51
20
-38.516
11
285.11
21
-38.516
0
LINE
8
BLACK
6
CONTINUOUS
10
285.11
20
-38.516
11
285.11
21
-39.716
0
LINE
8
BLACK
6
CONTINUOUS
10
268.813
20
-39.716
11
267.213
21
-39.716
0
LINE
8
BLACK
6
CONTINUOUS
10
267.213
20
-39.716
11
267.213
21
-38.516
0
LINE
8
BLACK
6
CONTINUOUS
10
267.213
20
-38.516
11
268.813
21
-38.516
0
LINE
8
BLACK
6
CONTINUOUS
10
268.813
20
-38.516
11
268.813
21
-39.716
0
LINE
8
BLACK
6
CONTINUOUS
10
266.013
20
-39.716
11
264.413
21
-39.716
0
LINE
8
BLACK
6
CONTINUOUS
10
264.413
20
-39.716
11
264.413
21
-38.516
0
LINE
8
BLACK
6
CONTINUOUS
10
264.413
20
-38.516
11
266.013
21
-38.516
0
LINE
8
BLACK
6
CONTINUOUS
10
266.013
20
-38.516
11
266.013
21
-39.716
0
LINE
8
BLACK
6
CONTINUOUS
10
249.723
20
-39.716
11
248.123
21
-39.716
0
LINE
8
BLACK
6
CONTINUOUS
10
248.123
20
-39.716
11
248.123
21
-38.516
0
LINE
8
BLACK
6
CONTINUOUS
10
248.123
20
-38.516
11
249.723
21
-38.516
0
LINE
8
BLACK
6
CONTINUOUS
10
249.723
20
-38.516
11
249.723
21
-39.716
0
LINE
8
BLACK
6
CONTINUOUS
10
246.923
20
-39.716
11
245.323
21
-39.716
0
LINE
8
BLACK
6
CONTINUOUS
10
245.323
20
-39.716
11
245.323
21
-38.516
0
LINE
8
BLACK
6
CONTINUOUS
10
245.323
20
-38.516
11
246.923
21
-38.516
0
LINE
8
BLACK
6
CONTINUOUS
10
246.923
20
-38.516
11
246.923
21
-39.716
0
LINE
8
BLACK
6
CONTINUOUS
10
230.67
20
-39.716
11
229.07
21
-39.716
0
LINE
8
BLACK
6
CONTINUOUS
10
229.07
20
-39.716
11
229.07
21
-38.516
0
LINE
8
BLACK
6
CONTINUOUS
10
229.07
20
-38.516
11
230.67
21
-38.516
0
LINE
8
BLACK
6
CONTINUOUS
10
230.67
20
-38.516
11
230.67
21
-39.716
0
LINE
8
BLACK
6
CONTINUOUS
10
227.87
20
-39.716
11
226.27
21
-39.716
0
LINE
8
BLACK
6
CONTINUOUS
10
226.27
20
-39.716
11
226.27
21
-38.516
0
LINE
8
BLACK
6
CONTINUOUS
10
226.27
20
-38.516
11
227.87
21
-38.516
0
LINE
8
BLACK
6
CONTINUOUS
10
227.87
20
-38.516
11
227.87
21
-39.716
0
LINE
8
BLACK
6
CONTINUOUS
10
59.22
20
-39.716
11
57.62
21
-39.716
0
LINE
8
BLACK
6
CONTINUOUS
10
57.62
20
-39.716
11
57.62
21
-38.516
0
LINE
8
BLACK
6
CONTINUOUS
10
57.62
20
-38.516
11
59.22
21
-38.516
0
LINE
8
BLACK
6
CONTINUOUS
10
59.22
20
-38.516
11
59.22
21
-39.716
0
LINE
8
BLACK
6
CONTINUOUS
10
75.473
20
-39.716
11
73.873
21
-39.716
0
LINE
8
BLACK
6
CONTINUOUS
10
73.873
20
-39.716
11
73.873
21
-38.516
0
LINE
8
BLACK
6
CONTINUOUS
10
73.873
20
-38.516
11
75.473
21
-38.516
0
LINE
8
BLACK
6
CONTINUOUS
10
75.473
20
-38.516
11
75.473
21
-39.716
0
LINE
8
BLACK
6
CONTINUOUS
10
78.273
20
-39.716
11
76.673
21
-39.716
0
LINE
8
BLACK
6
CONTINUOUS
10
76.673
20
-39.716
11
76.673
21
-38.516
0
LINE
8
BLACK
6
CONTINUOUS
10
76.673
20
-38.516
11
78.273
21
-38.516
0
LINE
8
BLACK
6
CONTINUOUS
10
78.273
20
-38.516
11
78.273
21
-39.716
0
LINE
8
BLACK
6
CONTINUOUS
10
94.563
20
-39.716
11
92.963
21
-39.716
0
LINE
8
BLACK
6
CONTINUOUS
10
92.963
20
-39.716
11
92.963
21
-38.516
0
LINE
8
BLACK
6
CONTINUOUS
10
92.963
20
-38.516
11
94.563
21
-38.516
0
LINE
8
BLACK
6
CONTINUOUS
10
94.563
20
-38.516
11
94.563
21
-39.716
0
LINE
8
BLACK
6
CONTINUOUS
10
97.363
20
-39.716
11
95.763
21
-39.716
0
LINE
8
BLACK
6
CONTINUOUS
10
95.763
20
-39.716
11
95.763
21
-38.516
0
LINE
8
BLACK
6
CONTINUOUS
10
95.763
20
-38.516
11
97.363
21
-38.516
0
LINE
8
BLACK
6
CONTINUOUS
10
97.363
20
-38.516
11
97.363
21
-39.716
0
LINE
8
BLACK
6
CONTINUOUS
10
113.613
20
-39.716
11
112.013
21
-39.716
0
LINE
8
BLACK
6
CONTINUOUS
10
112.013
20
-39.716
11
112.013
21
-38.516
0
LINE
8
BLACK
6
CONTINUOUS
10
112.013
20
-38.516
11
113.613
21
-38.516
0
LINE
8
BLACK
6
CONTINUOUS
10
113.613
20
-38.516
11
113.613
21
-39.716
0
LINE
8
BLACK
6
CONTINUOUS
10
132.663
20
-39.716
11
131.063
21
-39.716
0
LINE
8
BLACK
6
CONTINUOUS
10
131.063
20
-39.716
11
131.063
21
-38.516
0
LINE
8
BLACK
6
CONTINUOUS
10
131.063
20
-38.516
11
132.663
21
-38.516
0
LINE
8
BLACK
6
CONTINUOUS
10
132.663
20
-38.516
11
132.663
21
-39.716
0
LINE
8
BLACK
6
CONTINUOUS
10
296.572
20
-36.2368
11
296.619
21
-36.251
0
LINE
8
BLACK
6
CONTINUOUS
10
296.619
20
-36.251
11
296.662
21
-36.2741
0
LINE
8
BLACK
6
CONTINUOUS
10
296.662
20
-36.2741
11
296.7
21
-36.3052
0
LINE
8
BLACK
6
CONTINUOUS
10
296.7
20
-36.3052
11
296.731
21
-36.3431
0
LINE
8
BLACK
6
CONTINUOUS
10
296.731
20
-36.3431
11
296.754
21
-36.3863
0
LINE
8
BLACK
6
CONTINUOUS
10
296.754
20
-36.3863
11
296.768
21
-36.4332
0
LINE
8
BLACK
6
CONTINUOUS
10
296.768
20
-36.4332
11
296.773
21
-36.482
0
LINE
8
BLACK
6
CONTINUOUS
10
296.773
20
-36.482
11
296.773
21
-37.432
0
LINE
8
BLACK
6
CONTINUOUS
10
296.773
20
-37.432
11
296.768
21
-37.4808
0
LINE
8
BLACK
6
CONTINUOUS
10
296.768
20
-37.4808
11
296.754
21
-37.5277
0
LINE
8
BLACK
6
CONTINUOUS
10
296.754
20
-37.5277
11
296.731
21
-37.5709
0
LINE
8
BLACK
6
CONTINUOUS
10
296.731
20
-37.5709
11
296.7
21
-37.6088
0
LINE
8
BLACK
6
CONTINUOUS
10
296.7
20
-37.6088
11
296.662
21
-37.6399
0
LINE
8
BLACK
6
CONTINUOUS
10
296.662
20
-37.6399
11
296.619
21
-37.663
0
LINE
8
BLACK
6
CONTINUOUS
10
296.619
20
-37.663
11
296.572
21
-37.6772
0
LINE
8
BLACK
6
CONTINUOUS
10
296.572
20
-37.6772
11
296.523
21
-37.682
0
LINE
8
BLACK
6
CONTINUOUS
10
296.523
20
-37.682
11
295.848
21
-37.682
0
LINE
8
BLACK
6
CONTINUOUS
10
295.848
20
-37.682
11
295.799
21
-37.6772
0
LINE
8
BLACK
6
CONTINUOUS
10
295.799
20
-37.6772
11
295.752
21
-37.663
0
LINE
8
BLACK
6
CONTINUOUS
10
295.752
20
-37.663
11
295.709
21
-37.6399
0
LINE
8
BLACK
6
CONTINUOUS
10
295.709
20
-37.6399
11
295.671
21
-37.6088
0
LINE
8
BLACK
6
CONTINUOUS
10
295.671
20
-37.6088
11
295.64
21
-37.5709
0
LINE
8
BLACK
6
CONTINUOUS
10
295.64
20
-37.5709
11
295.617
21
-37.5277
0
LINE
8
BLACK
6
CONTINUOUS
10
295.617
20
-37.5277
11
295.603
21
-37.4808
0
LINE
8
BLACK
6
CONTINUOUS
10
295.603
20
-37.4808
11
295.598
21
-37.432
0
LINE
8
BLACK
6
CONTINUOUS
10
295.598
20
-37.432
11
295.598
21
-36.482
0
LINE
8
BLACK
6
CONTINUOUS
10
295.598
20
-36.482
11
295.603
21
-36.4332
0
LINE
8
BLACK
6
CONTINUOUS
10
295.603
20
-36.4332
11
295.617
21
-36.3863
0
LINE
8
BLACK
6
CONTINUOUS
10
295.617
20
-36.3863
11
295.64
21
-36.3431
0
LINE
8
BLACK
6
CONTINUOUS
10
295.64
20
-36.3431
11
295.671
21
-36.3052
0
LINE
8
BLACK
6
CONTINUOUS
10
295.671
20
-36.3052
11
295.709
21
-36.2741
0
LINE
8
BLACK
6
CONTINUOUS
10
295.709
20
-36.2741
11
295.752
21
-36.251
0
LINE
8
BLACK
6
CONTINUOUS
10
295.752
20
-36.251
11
295.799
21
-36.2368
0
LINE
8
BLACK
6
CONTINUOUS
10
295.799
20
-36.2368
11
295.848
21
-36.232
0
LINE
8
BLACK
6
CONTINUOUS
10
295.848
20
-36.232
11
296.523
21
-36.232
0
LINE
8
BLACK
6
CONTINUOUS
10
296.523
20
-36.232
11
296.572
21
-36.2368
0
LINE
8
BLACK
6
CONTINUOUS
10
294.497
20
-36.2368
11
294.544
21
-36.251
0
LINE
8
BLACK
6
CONTINUOUS
10
294.544
20
-36.251
11
294.587
21
-36.2741
0
LINE
8
BLACK
6
CONTINUOUS
10
294.587
20
-36.2741
11
294.625
21
-36.3052
0
LINE
8
BLACK
6
CONTINUOUS
10
294.625
20
-36.3052
11
294.656
21
-36.3431
0
LINE
8
BLACK
6
CONTINUOUS
10
294.656
20
-36.3431
11
294.679
21
-36.3863
0
LINE
8
BLACK
6
CONTINUOUS
10
294.679
20
-36.3863
11
294.693
21
-36.4332
0
LINE
8
BLACK
6
CONTINUOUS
10
294.693
20
-36.4332
11
294.698
21
-36.482
0
LINE
8
BLACK
6
CONTINUOUS
10
294.698
20
-36.482
11
294.698
21
-37.432
0
LINE
8
BLACK
6
CONTINUOUS
10
294.698
20
-37.432
11
294.693
21
-37.4808
0
LINE
8
BLACK
6
CONTINUOUS
10
294.693
20
-37.4808
11
294.679
21
-37.5277
0
LINE
8
BLACK
6
CONTINUOUS
10
294.679
20
-37.5277
11
294.656
21
-37.5709
0
LINE
8
BLACK
6
CONTINUOUS
10
294.656
20
-37.5709
11
294.625
21
-37.6088
0
LINE
8
BLACK
6
CONTINUOUS
10
294.625
20
-37.6088
11
294.587
21
-37.6399
0
LINE
8
BLACK
6
CONTINUOUS
10
294.587
20
-37.6399
11
294.544
21
-37.663
0
LINE
8
BLACK
6
CONTINUOUS
10
294.544
20
-37.663
11
294.497
21
-37.6772
0
LINE
8
BLACK
6
CONTINUOUS
10
294.497
20
-37.6772
11
294.448
21
-37.682
0
LINE
8
BLACK
6
CONTINUOUS
10
294.448
20
-37.682
11
293.773
21
-37.682
0
LINE
8
BLACK
6
CONTINUOUS
10
293.773
20
-37.682
11
293.724
21
-37.6772
0
LINE
8
BLACK
6
CONTINUOUS
10
293.724
20
-37.6772
11
293.677
21
-37.663
0
LINE
8
BLACK
6
CONTINUOUS
10
293.677
20
-37.663
11
293.634
21
-37.6399
0
LINE
8
BLACK
6
CONTINUOUS
10
293.634
20
-37.6399
11
293.596
21
-37.6088
0
LINE
8
BLACK
6
CONTINUOUS
10
293.596
20
-37.6088
11
293.565
21
-37.5709
0
LINE
8
BLACK
6
CONTINUOUS
10
293.565
20
-37.5709
11
293.542
21
-37.5277
0
LINE
8
BLACK
6
CONTINUOUS
10
293.542
20
-37.5277
11
293.528
21
-37.4808
0
LINE
8
BLACK
6
CONTINUOUS
10
293.528
20
-37.4808
11
293.523
21
-37.432
0
LINE
8
BLACK
6
CONTINUOUS
10
293.523
20
-37.432
11
293.523
21
-36.482
0
LINE
8
BLACK
6
CONTINUOUS
10
293.523
20
-36.482
11
293.528
21
-36.4332
0
LINE
8
BLACK
6
CONTINUOUS
10
293.528
20
-36.4332
11
293.542
21
-36.3863
0
LINE
8
BLACK
6
CONTINUOUS
10
293.542
20
-36.3863
11
293.565
21
-36.3431
0
LINE
8
BLACK
6
CONTINUOUS
10
293.565
20
-36.3431
11
293.596
21
-36.3052
0
LINE
8
BLACK
6
CONTINUOUS
10
293.596
20
-36.3052
11
293.634
21
-36.2741
0
LINE
8
BLACK
6
CONTINUOUS
10
293.634
20
-36.2741
11
293.677
21
-36.251
0
LINE
8
BLACK
6
CONTINUOUS
10
293.677
20
-36.251
11
293.724
21
-36.2368
0
LINE
8
BLACK
6
CONTINUOUS
10
293.724
20
-36.2368
11
293.773
21
-36.232
0
LINE
8
BLACK
6
CONTINUOUS
10
293.773
20
-36.232
11
294.448
21
-36.232
0
LINE
8
BLACK
6
CONTINUOUS
10
294.448
20
-36.232
11
294.497
21
-36.2368
0
LINE
8
BLACK
6
CONTINUOUS
10
220.096
20
-36.2368
11
220.143
21
-36.251
0
LINE
8
BLACK
6
CONTINUOUS
10
220.143
20
-36.251
11
220.186
21
-36.2741
0
LINE
8
BLACK
6
CONTINUOUS
10
220.186
20
-36.2741
11
220.224
21
-36.3052
0
LINE
8
BLACK
6
CONTINUOUS
10
220.224
20
-36.3052
11
220.255
21
-36.3431
0
LINE
8
BLACK
6
CONTINUOUS
10
220.255
20
-36.3431
11
220.278
21
-36.3863
0
LINE
8
BLACK
6
CONTINUOUS
10
220.278
20
-36.3863
11
220.293
21
-36.4332
0
LINE
8
BLACK
6
CONTINUOUS
10
220.293
20
-36.4332
11
220.297
21
-36.482
0
LINE
8
BLACK
6
CONTINUOUS
10
220.297
20
-36.482
11
220.297
21
-37.432
0
LINE
8
BLACK
6
CONTINUOUS
10
220.297
20
-37.432
11
220.293
21
-37.4808
0
LINE
8
BLACK
6
CONTINUOUS
10
220.293
20
-37.4808
11
220.278
21
-37.5277
0
LINE
8
BLACK
6
CONTINUOUS
10
220.278
20
-37.5277
11
220.255
21
-37.5709
0
LINE
8
BLACK
6
CONTINUOUS
10
220.255
20
-37.5709
11
220.224
21
-37.6088
0
LINE
8
BLACK
6
CONTINUOUS
10
220.224
20
-37.6088
11
220.186
21
-37.6399
0
LINE
8
BLACK
6
CONTINUOUS
10
220.186
20
-37.6399
11
220.143
21
-37.663
0
LINE
8
BLACK
6
CONTINUOUS
10
220.143
20
-37.663
11
220.096
21
-37.6772
0
LINE
8
BLACK
6
CONTINUOUS
10
220.096
20
-37.6772
11
220.047
21
-37.682
0
LINE
8
BLACK
6
CONTINUOUS
10
220.047
20
-37.682
11
219.373
21
-37.682
0
LINE
8
BLACK
6
CONTINUOUS
10
219.373
20
-37.682
11
219.324
21
-37.6772
0
LINE
8
BLACK
6
CONTINUOUS
10
219.324
20
-37.6772
11
219.277
21
-37.663
0
LINE
8
BLACK
6
CONTINUOUS
10
219.277
20
-37.663
11
219.234
21
-37.6399
0
LINE
8
BLACK
6
CONTINUOUS
10
219.234
20
-37.6399
11
219.196
21
-37.6088
0
LINE
8
BLACK
6
CONTINUOUS
10
219.196
20
-37.6088
11
219.165
21
-37.5709
0
LINE
8
BLACK
6
CONTINUOUS
10
219.165
20
-37.5709
11
219.142
21
-37.5277
0
LINE
8
BLACK
6
CONTINUOUS
10
219.142
20
-37.5277
11
219.127
21
-37.4808
0
LINE
8
BLACK
6
CONTINUOUS
10
219.127
20
-37.4808
11
219.123
21
-37.432
0
LINE
8
BLACK
6
CONTINUOUS
10
219.123
20
-37.432
11
219.123
21
-36.482
0
LINE
8
BLACK
6
CONTINUOUS
10
219.123
20
-36.482
11
219.127
21
-36.4332
0
LINE
8
BLACK
6
CONTINUOUS
10
219.127
20
-36.4332
11
219.142
21
-36.3863
0
LINE
8
BLACK
6
CONTINUOUS
10
219.142
20
-36.3863
11
219.165
21
-36.3431
0
LINE
8
BLACK
6
CONTINUOUS
10
219.165
20
-36.3431
11
219.196
21
-36.3052
0
LINE
8
BLACK
6
CONTINUOUS
10
219.196
20
-36.3052
11
219.234
21
-36.2741
0
LINE
8
BLACK
6
CONTINUOUS
10
219.234
20
-36.2741
11
219.277
21
-36.251
0
LINE
8
BLACK
6
CONTINUOUS
10
219.277
20
-36.251
11
219.324
21
-36.2368
0
LINE
8
BLACK
6
CONTINUOUS
10
219.324
20
-36.2368
11
219.373
21
-36.232
0
LINE
8
BLACK
6
CONTINUOUS
10
219.373
20
-36.232
11
220.047
21
-36.232
0
LINE
8
BLACK
6
CONTINUOUS
10
220.047
20
-36.232
11
220.096
21
-36.2368
0
LINE
8
BLACK
6
CONTINUOUS
10
218.021
20
-36.2368
11
218.068
21
-36.251
0
LINE
8
BLACK
6
CONTINUOUS
10
218.068
20
-36.251
11
218.111
21
-36.2741
0
LINE
8
BLACK
6
CONTINUOUS
10
218.111
20
-36.2741
11
218.149
21
-36.3052
0
LINE
8
BLACK
6
CONTINUOUS
10
218.149
20
-36.3052
11
218.18
21
-36.3431
0
LINE
8
BLACK
6
CONTINUOUS
10
218.18
20
-36.3431
11
218.203
21
-36.3863
0
LINE
8
BLACK
6
CONTINUOUS
10
218.203
20
-36.3863
11
218.218
21
-36.4332
0
LINE
8
BLACK
6
CONTINUOUS
10
218.218
20
-36.4332
11
218.222
21
-36.482
0
LINE
8
BLACK
6
CONTINUOUS
10
218.222
20
-36.482
11
218.222
21
-37.432
0
LINE
8
BLACK
6
CONTINUOUS
10
218.222
20
-37.432
11
218.218
21
-37.4808
0
LINE
8
BLACK
6
CONTINUOUS
10
218.218
20
-37.4808
11
218.203
21
-37.5277
0
LINE
8
BLACK
6
CONTINUOUS
10
218.203
20
-37.5277
11
218.18
21
-37.5709
0
LINE
8
BLACK
6
CONTINUOUS
10
218.18
20
-37.5709
11
218.149
21
-37.6088
0
LINE
8
BLACK
6
CONTINUOUS
10
218.149
20
-37.6088
11
218.111
21
-37.6399
0
LINE
8
BLACK
6
CONTINUOUS
10
218.111
20
-37.6399
11
218.068
21
-37.663
0
LINE
8
BLACK
6
CONTINUOUS
10
218.068
20
-37.663
11
218.021
21
-37.6772
0
LINE
8
BLACK
6
CONTINUOUS
10
218.021
20
-37.6772
11
217.972
21
-37.682
0
LINE
8
BLACK
6
CONTINUOUS
10
217.972
20
-37.682
11
217.297
21
-37.682
0
LINE
8
BLACK
6
CONTINUOUS
10
217.297
20
-37.682
11
217.249
21
-37.6772
0
LINE
8
BLACK
6
CONTINUOUS
10
217.249
20
-37.6772
11
217.202
21
-37.663
0
LINE
8
BLACK
6
CONTINUOUS
10
217.202
20
-37.663
11
217.159
21
-37.6399
0
LINE
8
BLACK
6
CONTINUOUS
10
217.159
20
-37.6399
11
217.121
21
-37.6088
0
LINE
8
BLACK
6
CONTINUOUS
10
217.121
20
-37.6088
11
217.09
21
-37.5709
0
LINE
8
BLACK
6
CONTINUOUS
10
217.09
20
-37.5709
11
217.067
21
-37.5277
0
LINE
8
BLACK
6
CONTINUOUS
10
217.067
20
-37.5277
11
217.052
21
-37.4808
0
LINE
8
BLACK
6
CONTINUOUS
10
217.052
20
-37.4808
11
217.047
21
-37.432
0
LINE
8
BLACK
6
CONTINUOUS
10
217.047
20
-37.432
11
217.047
21
-36.482
0
LINE
8
BLACK
6
CONTINUOUS
10
217.047
20
-36.482
11
217.052
21
-36.4332
0
LINE
8
BLACK
6
CONTINUOUS
10
217.052
20
-36.4332
11
217.067
21
-36.3863
0
LINE
8
BLACK
6
CONTINUOUS
10
217.067
20
-36.3863
11
217.09
21
-36.3431
0
LINE
8
BLACK
6
CONTINUOUS
10
217.09
20
-36.3431
11
217.121
21
-36.3052
0
LINE
8
BLACK
6
CONTINUOUS
10
217.121
20
-36.3052
11
217.159
21
-36.2741
0
LINE
8
BLACK
6
CONTINUOUS
10
217.159
20
-36.2741
11
217.202
21
-36.251
0
LINE
8
BLACK
6
CONTINUOUS
10
217.202
20
-36.251
11
217.249
21
-36.2368
0
LINE
8
BLACK
6
CONTINUOUS
10
217.249
20
-36.2368
11
217.297
21
-36.232
0
LINE
8
BLACK
6
CONTINUOUS
10
217.297
20
-36.232
11
217.972
21
-36.232
0
LINE
8
BLACK
6
CONTINUOUS
10
217.972
20
-36.232
11
218.021
21
-36.2368
0
LINE
8
BLACK
6
CONTINUOUS
10
65.5158
20
-36.1098
11
65.5627
21
-36.124
0
LINE
8
BLACK
6
CONTINUOUS
10
65.5627
20
-36.124
11
65.6059
21
-36.1471
0
LINE
8
BLACK
6
CONTINUOUS
10
65.6059
20
-36.1471
11
65.6438
21
-36.1782
0
LINE
8
BLACK
6
CONTINUOUS
10
65.6438
20
-36.1782
11
65.6749
21
-36.2161
0
LINE
8
BLACK
6
CONTINUOUS
10
65.6749
20
-36.2161
11
65.698
21
-36.2593
0
LINE
8
BLACK
6
CONTINUOUS
10
65.698
20
-36.2593
11
65.7122
21
-36.3062
0
LINE
8
BLACK
6
CONTINUOUS
10
65.7122
20
-36.3062
11
65.717
21
-36.355
0
LINE
8
BLACK
6
CONTINUOUS
10
65.717
20
-36.355
11
65.717
21
-37.305
0
LINE
8
BLACK
6
CONTINUOUS
10
65.717
20
-37.305
11
65.7122
21
-37.3538
0
LINE
8
BLACK
6
CONTINUOUS
10
65.7122
20
-37.3538
11
65.698
21
-37.4007
0
LINE
8
BLACK
6
CONTINUOUS
10
65.698
20
-37.4007
11
65.6749
21
-37.4439
0
LINE
8
BLACK
6
CONTINUOUS
10
65.6749
20
-37.4439
11
65.6438
21
-37.4818
0
LINE
8
BLACK
6
CONTINUOUS
10
65.6438
20
-37.4818
11
65.6059
21
-37.5129
0
LINE
8
BLACK
6
CONTINUOUS
10
65.6059
20
-37.5129
11
65.5627
21
-37.536
0
LINE
8
BLACK
6
CONTINUOUS
10
65.5627
20
-37.536
11
65.5158
21
-37.5502
0
LINE
8
BLACK
6
CONTINUOUS
10
65.5158
20
-37.5502
11
65.467
21
-37.555
0
LINE
8
BLACK
6
CONTINUOUS
10
65.467
20
-37.555
11
64.792
21
-37.555
0
LINE
8
BLACK
6
CONTINUOUS
10
64.792
20
-37.555
11
64.7432
21
-37.5502
0
LINE
8
BLACK
6
CONTINUOUS
10
64.7432
20
-37.5502
11
64.6963
21
-37.536
0
LINE
8
BLACK
6
CONTINUOUS
10
64.6963
20
-37.536
11
64.6531
21
-37.5129
0
LINE
8
BLACK
6
CONTINUOUS
10
64.6531
20
-37.5129
11
64.6152
21
-37.4818
0
LINE
8
BLACK
6
CONTINUOUS
10
64.6152
20
-37.4818
11
64.5841
21
-37.4439
0
LINE
8
BLACK
6
CONTINUOUS
10
64.5841
20
-37.4439
11
64.561
21
-37.4007
0
LINE
8
BLACK
6
CONTINUOUS
10
64.561
20
-37.4007
11
64.5468
21
-37.3538
0
LINE
8
BLACK
6
CONTINUOUS
10
64.5468
20
-37.3538
11
64.542
21
-37.305
0
LINE
8
BLACK
6
CONTINUOUS
10
64.542
20
-37.305
11
64.542
21
-36.355
0
LINE
8
BLACK
6
CONTINUOUS
10
64.542
20
-36.355
11
64.5468
21
-36.3062
0
LINE
8
BLACK
6
CONTINUOUS
10
64.5468
20
-36.3062
11
64.561
21
-36.2593
0
LINE
8
BLACK
6
CONTINUOUS
10
64.561
20
-36.2593
11
64.5841
21
-36.2161
0
LINE
8
BLACK
6
CONTINUOUS
10
64.5841
20
-36.2161
11
64.6152
21
-36.1782
0
LINE
8
BLACK
6
CONTINUOUS
10
64.6152
20
-36.1782
11
64.6531
21
-36.1471
0
LINE
8
BLACK
6
CONTINUOUS
10
64.6531
20
-36.1471
11
64.6963
21
-36.124
0
LINE
8
BLACK
6
CONTINUOUS
10
64.6963
20
-36.124
11
64.7432
21
-36.1098
0
LINE
8
BLACK
6
CONTINUOUS
10
64.7432
20
-36.1098
11
64.792
21
-36.105
0
LINE
8
BLACK
6
CONTINUOUS
10
64.792
20
-36.105
11
65.467
21
-36.105
0
LINE
8
BLACK
6
CONTINUOUS
10
65.467
20
-36.105
11
65.5158
21
-36.1098
0
LINE
8
BLACK
6
CONTINUOUS
10
143.791
20
-36.1098
11
143.838
21
-36.124
0
LINE
8
BLACK
6
CONTINUOUS
10
143.838
20
-36.124
11
143.881
21
-36.1471
0
LINE
8
BLACK
6
CONTINUOUS
10
143.881
20
-36.1471
11
143.919
21
-36.1782
0
LINE
8
BLACK
6
CONTINUOUS
10
143.919
20
-36.1782
11
143.95
21
-36.2161
0
LINE
8
BLACK
6
CONTINUOUS
10
143.95
20
-36.2161
11
143.973
21
-36.2593
0
LINE
8
BLACK
6
CONTINUOUS
10
143.973
20
-36.2593
11
143.987
21
-36.3062
0
LINE
8
BLACK
6
CONTINUOUS
10
143.987
20
-36.3062
11
143.992
21
-36.355
0
LINE
8
BLACK
6
CONTINUOUS
10
143.992
20
-36.355
11
143.992
21
-37.305
0
LINE
8
BLACK
6
CONTINUOUS
10
143.992
20
-37.305
11
143.987
21
-37.3538
0
LINE
8
BLACK
6
CONTINUOUS
10
143.987
20
-37.3538
11
143.973
21
-37.4007
0
LINE
8
BLACK
6
CONTINUOUS
10
143.973
20
-37.4007
11
143.95
21
-37.4439
0
LINE
8
BLACK
6
CONTINUOUS
10
143.95
20
-37.4439
11
143.919
21
-37.4818
0
LINE
8
BLACK
6
CONTINUOUS
10
143.919
20
-37.4818
11
143.881
21
-37.5129
0
LINE
8
BLACK
6
CONTINUOUS
10
143.881
20
-37.5129
11
143.838
21
-37.536
0
LINE
8
BLACK
6
CONTINUOUS
10
143.838
20
-37.536
11
143.791
21
-37.5502
0
LINE
8
BLACK
6
CONTINUOUS
10
143.791
20
-37.5502
11
143.742
21
-37.555
0
LINE
8
BLACK
6
CONTINUOUS
10
143.742
20
-37.555
11
143.067
21
-37.555
0
LINE
8
BLACK
6
CONTINUOUS
10
143.067
20
-37.555
11
143.018
21
-37.5502
0
LINE
8
BLACK
6
CONTINUOUS
10
143.018
20
-37.5502
11
142.971
21
-37.536
0
LINE
8
BLACK
6
CONTINUOUS
10
142.971
20
-37.536
11
142.928
21
-37.5129
0
LINE
8
BLACK
6
CONTINUOUS
10
142.928
20
-37.5129
11
142.89
21
-37.4818
0
LINE
8
BLACK
6
CONTINUOUS
10
142.89
20
-37.4818
11
142.859
21
-37.4439
0
LINE
8
BLACK
6
CONTINUOUS
10
142.859
20
-37.4439
11
142.836
21
-37.4007
0
LINE
8
BLACK
6
CONTINUOUS
10
142.836
20
-37.4007
11
142.822
21
-37.3538
0
LINE
8
BLACK
6
CONTINUOUS
10
142.822
20
-37.3538
11
142.817
21
-37.305
0
LINE
8
BLACK
6
CONTINUOUS
10
142.817
20
-37.305
11
142.817
21
-36.355
0
LINE
8
BLACK
6
CONTINUOUS
10
142.817
20
-36.355
11
142.822
21
-36.3062
0
LINE
8
BLACK
6
CONTINUOUS
10
142.822
20
-36.3062
11
142.836
21
-36.2593
0
LINE
8
BLACK
6
CONTINUOUS
10
142.836
20
-36.2593
11
142.859
21
-36.2161
0
LINE
8
BLACK
6
CONTINUOUS
10
142.859
20
-36.2161
11
142.89
21
-36.1782
0
LINE
8
BLACK
6
CONTINUOUS
10
142.89
20
-36.1782
11
142.928
21
-36.1471
0
LINE
8
BLACK
6
CONTINUOUS
10
142.928
20
-36.1471
11
142.971
21
-36.124
0
LINE
8
BLACK
6
CONTINUOUS
10
142.971
20
-36.124
11
143.018
21
-36.1098
0
LINE
8
BLACK
6
CONTINUOUS
10
143.018
20
-36.1098
11
143.067
21
-36.105
0
LINE
8
BLACK
6
CONTINUOUS
10
143.067
20
-36.105
11
143.742
21
-36.105
0
LINE
8
BLACK
6
CONTINUOUS
10
143.742
20
-36.105
11
143.791
21
-36.1098
0
LINE
8
BLACK
6
CONTINUOUS
10
141.716
20
-36.1098
11
141.763
21
-36.124
0
LINE
8
BLACK
6
CONTINUOUS
10
141.763
20
-36.124
11
141.806
21
-36.1471
0
LINE
8
BLACK
6
CONTINUOUS
10
141.806
20
-36.1471
11
141.844
21
-36.1782
0
LINE
8
BLACK
6
CONTINUOUS
10
141.844
20
-36.1782
11
141.875
21
-36.2161
0
LINE
8
BLACK
6
CONTINUOUS
10
141.875
20
-36.2161
11
141.898
21
-36.2593
0
LINE
8
BLACK
6
CONTINUOUS
10
141.898
20
-36.2593
11
141.912
21
-36.3062
0
LINE
8
BLACK
6
CONTINUOUS
10
141.912
20
-36.3062
11
141.917
21
-36.355
0
LINE
8
BLACK
6
CONTINUOUS
10
141.917
20
-36.355
11
141.917
21
-37.305
0
LINE
8
BLACK
6
CONTINUOUS
10
141.917
20
-37.305
11
141.912
21
-37.3538
0
LINE
8
BLACK
6
CONTINUOUS
10
141.912
20
-37.3538
11
141.898
21
-37.4007
0
LINE
8
BLACK
6
CONTINUOUS
10
141.898
20
-37.4007
11
141.875
21
-37.4439
0
LINE
8
BLACK
6
CONTINUOUS
10
141.875
20
-37.4439
11
141.844
21
-37.4818
0
LINE
8
BLACK
6
CONTINUOUS
10
141.844
20
-37.4818
11
141.806
21
-37.5129
0
LINE
8
BLACK
6
CONTINUOUS
10
141.806
20
-37.5129
11
141.763
21
-37.536
0
LINE
8
BLACK
6
CONTINUOUS
10
141.763
20
-37.536
11
141.716
21
-37.5502
0
LINE
8
BLACK
6
CONTINUOUS
10
141.716
20
-37.5502
11
141.667
21
-37.555
0
LINE
8
BLACK
6
CONTINUOUS
10
141.667
20
-37.555
11
140.992
21
-37.555
0
LINE
8
BLACK
6
CONTINUOUS
10
140.992
20
-37.555
11
140.943
21
-37.5502
0
LINE
8
BLACK
6
CONTINUOUS
10
140.943
20
-37.5502
11
140.896
21
-37.536
0
LINE
8
BLACK
6
CONTINUOUS
10
140.896
20
-37.536
11
140.853
21
-37.5129
0
LINE
8
BLACK
6
CONTINUOUS
10
140.853
20
-37.5129
11
140.815
21
-37.4818
0
LINE
8
BLACK
6
CONTINUOUS
10
140.815
20
-37.4818
11
140.784
21
-37.4439
0
LINE
8
BLACK
6
CONTINUOUS
10
140.784
20
-37.4439
11
140.761
21
-37.4007
0
LINE
8
BLACK
6
CONTINUOUS
10
140.761
20
-37.4007
11
140.747
21
-37.3538
0
LINE
8
BLACK
6
CONTINUOUS
10
140.747
20
-37.3538
11
140.742
21
-37.305
0
LINE
8
BLACK
6
CONTINUOUS
10
140.742
20
-37.305
11
140.742
21
-36.355
0
LINE
8
BLACK
6
CONTINUOUS
10
140.742
20
-36.355
11
140.747
21
-36.3062
0
LINE
8
BLACK
6
CONTINUOUS
10
140.747
20
-36.3062
11
140.761
21
-36.2593
0
LINE
8
BLACK
6
CONTINUOUS
10
140.761
20
-36.2593
11
140.784
21
-36.2161
0
LINE
8
BLACK
6
CONTINUOUS
10
140.784
20
-36.2161
11
140.815
21
-36.1782
0
LINE
8
BLACK
6
CONTINUOUS
10
140.815
20
-36.1782
11
140.853
21
-36.1471
0
LINE
8
BLACK
6
CONTINUOUS
10
140.853
20
-36.1471
11
140.896
21
-36.124
0
LINE
8
BLACK
6
CONTINUOUS
10
140.896
20
-36.124
11
140.943
21
-36.1098
0
LINE
8
BLACK
6
CONTINUOUS
10
140.943
20
-36.1098
11
140.992
21
-36.105
0
LINE
8
BLACK
6
CONTINUOUS
10
140.992
20
-36.105
11
141.667
21
-36.105
0
LINE
8
BLACK
6
CONTINUOUS
10
141.667
20
-36.105
11
141.716
21
-36.1098
0
LINE
8
BLACK
6
CONTINUOUS
10
67.5908
20
-36.1098
11
67.6377
21
-36.124
0
LINE
8
BLACK
6
CONTINUOUS
10
67.6377
20
-36.124
11
67.6809
21
-36.1471
0
LINE
8
BLACK
6
CONTINUOUS
10
67.6809
20
-36.1471
11
67.7188
21
-36.1782
0
LINE
8
BLACK
6
CONTINUOUS
10
67.7188
20
-36.1782
11
67.7499
21
-36.2161
0
LINE
8
BLACK
6
CONTINUOUS
10
67.7499
20
-36.2161
11
67.773
21
-36.2593
0
LINE
8
BLACK
6
CONTINUOUS
10
67.773
20
-36.2593
11
67.7872
21
-36.3062
0
LINE
8
BLACK
6
CONTINUOUS
10
67.7872
20
-36.3062
11
67.792
21
-36.355
0
LINE
8
BLACK
6
CONTINUOUS
10
67.792
20
-36.355
11
67.792
21
-37.305
0
LINE
8
BLACK
6
CONTINUOUS
10
67.792
20
-37.305
11
67.7872
21
-37.3538
0
LINE
8
BLACK
6
CONTINUOUS
10
67.7872
20
-37.3538
11
67.773
21
-37.4007
0
LINE
8
BLACK
6
CONTINUOUS
10
67.773
20
-37.4007
11
67.7499
21
-37.4439
0
LINE
8
BLACK
6
CONTINUOUS
10
67.7499
20
-37.4439
11
67.7188
21
-37.4818
0
LINE
8
BLACK
6
CONTINUOUS
10
67.7188
20
-37.4818
11
67.6809
21
-37.5129
0
LINE
8
BLACK
6
CONTINUOUS
10
67.6809
20
-37.5129
11
67.6377
21
-37.536
0
LINE
8
BLACK
6
CONTINUOUS
10
67.6377
20
-37.536
11
67.5908
21
-37.5502
0
LINE
8
BLACK
6
CONTINUOUS
10
67.5908
20
-37.5502
11
67.542
21
-37.555
0
LINE
8
BLACK
6
CONTINUOUS
10
67.542
20
-37.555
11
66.867
21
-37.555
0
LINE
8
BLACK
6
CONTINUOUS
10
66.867
20
-37.555
11
66.8182
21
-37.5502
0
LINE
8
BLACK
6
CONTINUOUS
10
66.8182
20
-37.5502
11
66.7713
21
-37.536
0
LINE
8
BLACK
6
CONTINUOUS
10
66.7713
20
-37.536
11
66.7281
21
-37.5129
0
LINE
8
BLACK
6
CONTINUOUS
10
66.7281
20
-37.5129
11
66.6902
21
-37.4818
0
LINE
8
BLACK
6
CONTINUOUS
10
66.6902
20
-37.4818
11
66.6591
21
-37.4439
0
LINE
8
BLACK
6
CONTINUOUS
10
66.6591
20
-37.4439
11
66.636
21
-37.4007
0
LINE
8
BLACK
6
CONTINUOUS
10
66.636
20
-37.4007
11
66.6218
21
-37.3538
0
LINE
8
BLACK
6
CONTINUOUS
10
66.6218
20
-37.3538
11
66.617
21
-37.305
0
LINE
8
BLACK
6
CONTINUOUS
10
66.617
20
-37.305
11
66.617
21
-36.355
0
LINE
8
BLACK
6
CONTINUOUS
10
66.617
20
-36.355
11
66.6218
21
-36.3062
0
LINE
8
BLACK
6
CONTINUOUS
10
66.6218
20
-36.3062
11
66.636
21
-36.2593
0
LINE
8
BLACK
6
CONTINUOUS
10
66.636
20
-36.2593
11
66.6591
21
-36.2161
0
LINE
8
BLACK
6
CONTINUOUS
10
66.6591
20
-36.2161
11
66.6902
21
-36.1782
0
LINE
8
BLACK
6
CONTINUOUS
10
66.6902
20
-36.1782
11
66.7281
21
-36.1471
0
LINE
8
BLACK
6
CONTINUOUS
10
66.7281
20
-36.1471
11
66.7713
21
-36.124
0
LINE
8
BLACK
6
CONTINUOUS
10
66.7713
20
-36.124
11
66.8182
21
-36.1098
0
LINE
8
BLACK
6
CONTINUOUS
10
66.8182
20
-36.1098
11
66.867
21
-36.105
0
LINE
8
BLACK
6
CONTINUOUS
10
66.867
20
-36.105
11
67.542
21
-36.105
0
LINE
8
BLACK
6
CONTINUOUS
10
67.542
20
-36.105
11
67.5908
21
-36.1098
0
LINE
8
BLACK
6
CONTINUOUS
10
260.89
20
-32.0475
11
258.34
21
-32.0475
0
LINE
8
BLACK
6
CONTINUOUS
10
258.34
20
-32.0475
11
258.34
21
-29.5475
0
LINE
8
BLACK
6
CONTINUOUS
10
258.34
20
-29.5475
11
260.89
21
-29.5475
0
LINE
8
BLACK
6
CONTINUOUS
10
260.89
20
-29.5475
11
260.89
21
-32.0475
0
LINE
8
BLACK
6
CONTINUOUS
10
127.54
20
-32.0475
11
124.99
21
-32.0475
0
LINE
8
BLACK
6
CONTINUOUS
10
124.99
20
-32.0475
11
124.99
21
-29.5475
0
LINE
8
BLACK
6
CONTINUOUS
10
124.99
20
-29.5475
11
127.54
21
-29.5475
0
LINE
8
BLACK
6
CONTINUOUS
10
127.54
20
-29.5475
11
127.54
21
-32.0475
0
LINE
8
BLACK
6
CONTINUOUS
10
51.34
20
-32.0475
11
48.79
21
-32.0475
0
LINE
8
BLACK
6
CONTINUOUS
10
48.79
20
-32.0475
11
48.79
21
-29.5475
0
LINE
8
BLACK
6
CONTINUOUS
10
48.79
20
-29.5475
11
51.34
21
-29.5475
0
LINE
8
BLACK
6
CONTINUOUS
10
51.34
20
-29.5475
11
51.34
21
-32.0475
0
LINE
8
BLACK
6
CONTINUOUS
10
146.59
20
-32.0475
11
144.04
21
-32.0475
0
LINE
8
BLACK
6
CONTINUOUS
10
144.04
20
-32.0475
11
144.04
21
-29.5475
0
LINE
8
BLACK
6
CONTINUOUS
10
144.04
20
-29.5475
11
146.59
21
-29.5475
0
LINE
8
BLACK
6
CONTINUOUS
10
146.59
20
-29.5475
11
146.59
21
-32.0475
0
LINE
8
BLACK
6
CONTINUOUS
10
165.64
20
-32.0475
11
163.09
21
-32.0475
0
LINE
8
BLACK
6
CONTINUOUS
10
163.09
20
-32.0475
11
163.09
21
-29.5475
0
LINE
8
BLACK
6
CONTINUOUS
10
163.09
20
-29.5475
11
165.64
21
-29.5475
0
LINE
8
BLACK
6
CONTINUOUS
10
165.64
20
-29.5475
11
165.64
21
-32.0475
0
LINE
8
BLACK
6
CONTINUOUS
10
308.515
20
-32.0475
11
305.965
21
-32.0475
0
LINE
8
BLACK
6
CONTINUOUS
10
305.965
20
-32.0475
11
305.965
21
-29.5475
0
LINE
8
BLACK
6
CONTINUOUS
10
305.965
20
-29.5475
11
308.515
21
-29.5475
0
LINE
8
BLACK
6
CONTINUOUS
10
308.515
20
-29.5475
11
308.515
21
-32.0475
0
LINE
8
BLACK
6
CONTINUOUS
10
108.49
20
-32.0475
11
105.94
21
-32.0475
0
LINE
8
BLACK
6
CONTINUOUS
10
105.94
20
-32.0475
11
105.94
21
-29.5475
0
LINE
8
BLACK
6
CONTINUOUS
10
105.94
20
-29.5475
11
108.49
21
-29.5475
0
LINE
8
BLACK
6
CONTINUOUS
10
108.49
20
-29.5475
11
108.49
21
-32.0475
0
LINE
8
BLACK
6
CONTINUOUS
10
279.94
20
-32.0475
11
277.39
21
-32.0475
0
LINE
8
BLACK
6
CONTINUOUS
10
277.39
20
-32.0475
11
277.39
21
-29.5475
0
LINE
8
BLACK
6
CONTINUOUS
10
277.39
20
-29.5475
11
279.94
21
-29.5475
0
LINE
8
BLACK
6
CONTINUOUS
10
279.94
20
-29.5475
11
279.94
21
-32.0475
0
LINE
8
BLACK
6
CONTINUOUS
10
184.69
20
-32.0475
11
182.14
21
-32.0475
0
LINE
8
BLACK
6
CONTINUOUS
10
182.14
20
-32.0475
11
182.14
21
-29.5475
0
LINE
8
BLACK
6
CONTINUOUS
10
182.14
20
-29.5475
11
184.69
21
-29.5475
0
LINE
8
BLACK
6
CONTINUOUS
10
184.69
20
-29.5475
11
184.69
21
-32.0475
0
LINE
8
BLACK
6
CONTINUOUS
10
89.44
20
-32.0475
11
86.89
21
-32.0475
0
LINE
8
BLACK
6
CONTINUOUS
10
86.89
20
-32.0475
11
86.89
21
-29.5475
0
LINE
8
BLACK
6
CONTINUOUS
10
86.89
20
-29.5475
11
89.44
21
-29.5475
0
LINE
8
BLACK
6
CONTINUOUS
10
89.44
20
-29.5475
11
89.44
21
-32.0475
0
LINE
8
BLACK
6
CONTINUOUS
10
203.74
20
-32.0475
11
201.19
21
-32.0475
0
LINE
8
BLACK
6
CONTINUOUS
10
201.19
20
-32.0475
11
201.19
21
-29.5475
0
LINE
8
BLACK
6
CONTINUOUS
10
201.19
20
-29.5475
11
203.74
21
-29.5475
0
LINE
8
BLACK
6
CONTINUOUS
10
203.74
20
-29.5475
11
203.74
21
-32.0475
0
LINE
8
BLACK
6
CONTINUOUS
10
222.79
20
-32.0475
11
220.24
21
-32.0475
0
LINE
8
BLACK
6
CONTINUOUS
10
220.24
20
-32.0475
11
220.24
21
-29.5475
0
LINE
8
BLACK
6
CONTINUOUS
10
220.24
20
-29.5475
11
222.79
21
-29.5475
0
LINE
8
BLACK
6
CONTINUOUS
10
222.79
20
-29.5475
11
222.79
21
-32.0475
0
LINE
8
BLACK
6
CONTINUOUS
10
70.39
20
-32.0475
11
67.84
21
-32.0475
0
LINE
8
BLACK
6
CONTINUOUS
10
67.84
20
-32.0475
11
67.84
21
-29.5475
0
LINE
8
BLACK
6
CONTINUOUS
10
67.84
20
-29.5475
11
70.39
21
-29.5475
0
LINE
8
BLACK
6
CONTINUOUS
10
70.39
20
-29.5475
11
70.39
21
-32.0475
0
LINE
8
BLACK
6
CONTINUOUS
10
241.84
20
-32.0475
11
239.29
21
-32.0475
0
LINE
8
BLACK
6
CONTINUOUS
10
239.29
20
-32.0475
11
239.29
21
-29.5475
0
LINE
8
BLACK
6
CONTINUOUS
10
239.29
20
-29.5475
11
241.84
21
-29.5475
0
LINE
8
BLACK
6
CONTINUOUS
10
241.84
20
-29.5475
11
241.84
21
-32.0475
0
LINE
8
BLACK
6
CONTINUOUS
10
121.417
20
-29.5075
11
118.867
21
-29.5075
0
LINE
8
BLACK
6
CONTINUOUS
10
118.867
20
-29.5075
11
118.867
21
-27.0075
0
LINE
8
BLACK
6
CONTINUOUS
10
118.867
20
-27.0075
11
121.417
21
-27.0075
0
LINE
8
BLACK
6
CONTINUOUS
10
121.417
20
-27.0075
11
121.417
21
-29.5075
0
LINE
8
BLACK
6
CONTINUOUS
10
102.367
20
-29.5075
11
99.817
21
-29.5075
0
LINE
8
BLACK
6
CONTINUOUS
10
99.817
20
-29.5075
11
99.817
21
-27.0075
0
LINE
8
BLACK
6
CONTINUOUS
10
99.817
20
-27.0075
11
102.367
21
-27.0075
0
LINE
8
BLACK
6
CONTINUOUS
10
102.367
20
-27.0075
11
102.367
21
-29.5075
0
LINE
8
BLACK
6
CONTINUOUS
10
159.517
20
-29.5075
11
156.967
21
-29.5075
0
LINE
8
BLACK
6
CONTINUOUS
10
156.967
20
-29.5075
11
156.967
21
-27.0075
0
LINE
8
BLACK
6
CONTINUOUS
10
156.967
20
-27.0075
11
159.517
21
-27.0075
0
LINE
8
BLACK
6
CONTINUOUS
10
159.517
20
-27.0075
11
159.517
21
-29.5075
0
LINE
8
BLACK
6
CONTINUOUS
10
83.317
20
-29.5075
11
80.767
21
-29.5075
0
LINE
8
BLACK
6
CONTINUOUS
10
80.767
20
-29.5075
11
80.767
21
-27.0075
0
LINE
8
BLACK
6
CONTINUOUS
10
80.767
20
-27.0075
11
83.317
21
-27.0075
0
LINE
8
BLACK
6
CONTINUOUS
10
83.317
20
-27.0075
11
83.317
21
-29.5075
0
LINE
8
BLACK
6
CONTINUOUS
10
140.467
20
-29.5075
11
137.917
21
-29.5075
0
LINE
8
BLACK
6
CONTINUOUS
10
137.917
20
-29.5075
11
137.917
21
-27.0075
0
LINE
8
BLACK
6
CONTINUOUS
10
137.917
20
-27.0075
11
140.467
21
-27.0075
0
LINE
8
BLACK
6
CONTINUOUS
10
140.467
20
-27.0075
11
140.467
21
-29.5075
0
LINE
8
BLACK
6
CONTINUOUS
10
178.567
20
-29.5075
11
176.017
21
-29.5075
0
LINE
8
BLACK
6
CONTINUOUS
10
176.017
20
-29.5075
11
176.017
21
-27.0075
0
LINE
8
BLACK
6
CONTINUOUS
10
176.017
20
-27.0075
11
178.567
21
-27.0075
0
LINE
8
BLACK
6
CONTINUOUS
10
178.567
20
-27.0075
11
178.567
21
-29.5075
0
LINE
8
BLACK
6
CONTINUOUS
10
64.267
20
-29.5075
11
61.717
21
-29.5075
0
LINE
8
BLACK
6
CONTINUOUS
10
61.717
20
-29.5075
11
61.717
21
-27.0075
0
LINE
8
BLACK
6
CONTINUOUS
10
61.717
20
-27.0075
11
64.267
21
-27.0075
0
LINE
8
BLACK
6
CONTINUOUS
10
64.267
20
-27.0075
11
64.267
21
-29.5075
0
LINE
8
BLACK
6
CONTINUOUS
10
321.442
20
-29.5075
11
318.892
21
-29.5075
0
LINE
8
BLACK
6
CONTINUOUS
10
318.892
20
-29.5075
11
318.892
21
-27.0075
0
LINE
8
BLACK
6
CONTINUOUS
10
318.892
20
-27.0075
11
321.442
21
-27.0075
0
LINE
8
BLACK
6
CONTINUOUS
10
321.442
20
-27.0075
11
321.442
21
-29.5075
0
LINE
8
BLACK
6
CONTINUOUS
10
292.867
20
-29.5075
11
290.317
21
-29.5075
0
LINE
8
BLACK
6
CONTINUOUS
10
290.317
20
-29.5075
11
290.317
21
-27.0075
0
LINE
8
BLACK
6
CONTINUOUS
10
290.317
20
-27.0075
11
292.867
21
-27.0075
0
LINE
8
BLACK
6
CONTINUOUS
10
292.867
20
-27.0075
11
292.867
21
-29.5075
0
LINE
8
BLACK
6
CONTINUOUS
10
197.617
20
-29.5075
11
195.067
21
-29.5075
0
LINE
8
BLACK
6
CONTINUOUS
10
195.067
20
-29.5075
11
195.067
21
-27.0075
0
LINE
8
BLACK
6
CONTINUOUS
10
195.067
20
-27.0075
11
197.617
21
-27.0075
0
LINE
8
BLACK
6
CONTINUOUS
10
197.617
20
-27.0075
11
197.617
21
-29.5075
0
LINE
8
BLACK
6
CONTINUOUS
10
216.667
20
-29.5075
11
214.117
21
-29.5075
0
LINE
8
BLACK
6
CONTINUOUS
10
214.117
20
-29.5075
11
214.117
21
-27.0075
0
LINE
8
BLACK
6
CONTINUOUS
10
214.117
20
-27.0075
11
216.667
21
-27.0075
0
LINE
8
BLACK
6
CONTINUOUS
10
216.667
20
-27.0075
11
216.667
21
-29.5075
0
LINE
8
BLACK
6
CONTINUOUS
10
235.717
20
-29.5075
11
233.167
21
-29.5075
0
LINE
8
BLACK
6
CONTINUOUS
10
233.167
20
-29.5075
11
233.167
21
-27.0075
0
LINE
8
BLACK
6
CONTINUOUS
10
233.167
20
-27.0075
11
235.717
21
-27.0075
0
LINE
8
BLACK
6
CONTINUOUS
10
235.717
20
-27.0075
11
235.717
21
-29.5075
0
LINE
8
BLACK
6
CONTINUOUS
10
254.767
20
-29.5075
11
252.217
21
-29.5075
0
LINE
8
BLACK
6
CONTINUOUS
10
252.217
20
-29.5075
11
252.217
21
-27.0075
0
LINE
8
BLACK
6
CONTINUOUS
10
252.217
20
-27.0075
11
254.767
21
-27.0075
0
LINE
8
BLACK
6
CONTINUOUS
10
254.767
20
-27.0075
11
254.767
21
-29.5075
0
LINE
8
BLACK
6
CONTINUOUS
10
273.817
20
-29.5075
11
271.267
21
-29.5075
0
LINE
8
BLACK
6
CONTINUOUS
10
271.267
20
-29.5075
11
271.267
21
-27.0075
0
LINE
8
BLACK
6
CONTINUOUS
10
271.267
20
-27.0075
11
273.817
21
-27.0075
0
LINE
8
BLACK
6
CONTINUOUS
10
273.817
20
-27.0075
11
273.817
21
-29.5075
  0
ENDSEC
  0
EOF
